<svg width="68" height="68" viewBox="0 0 68 68" fill="none" xmlns="http://www.w3.org/2000/svg">
<g filter="url(#filter0_d_1654_8940)">
<rect x="10" y="10" width="48" height="48" rx="15" fill="white"/>
<path d="M37.6098 34C37.6098 34.7139 37.3982 35.4117 37.0017 36.0052C36.6052 36.5988 36.0416 37.0614 35.3822 37.3346C34.7229 37.6078 33.9973 37.6792 33.2974 37.54C32.5974 37.4007 31.9544 37.0569 31.4498 36.5522C30.9451 36.0474 30.6015 35.4043 30.4622 34.7041C30.323 34.004 30.3945 33.2783 30.6676 32.6188C30.9407 31.9593 31.4032 31.3956 31.9966 30.999C32.59 30.6024 33.2877 30.3907 34.0013 30.3907C34.958 30.3918 35.8752 30.7724 36.5517 31.449C37.2282 32.1257 37.6087 33.0431 37.6098 34ZM34.0013 22C32.1229 21.9993 30.2705 22.4399 28.5933 23.2862C26.9162 24.1325 25.4612 25.3609 24.3455 26.8725C23.2297 28.3841 22.4845 30.1367 22.1697 31.989C21.8549 33.8414 21.9793 35.7418 22.5331 37.5372C23.0868 39.3327 24.0543 40.973 25.3576 42.3261C26.661 43.6791 28.2638 44.7072 30.037 45.3274C31.8102 45.9476 33.7042 46.1427 35.5665 45.8969C37.4289 45.6511 39.2075 44.9713 40.7591 43.9123L40.7934 43.889L39.1776 42.0096L39.1502 42.0274C37.2887 43.2206 35.071 43.7308 32.8754 43.4711C30.6798 43.2114 28.6422 42.1978 27.1104 40.6032C25.5785 39.0086 24.6471 36.9318 24.4752 34.727C24.3033 32.5223 24.9014 30.3261 26.1675 28.5132C27.4337 26.7003 29.2894 25.383 31.4182 24.7858C33.547 24.1887 35.817 24.3488 37.841 25.2388C39.8649 26.1289 41.5175 27.6937 42.5168 29.6664C43.516 31.639 43.8001 33.8974 43.3206 36.0562C43.2671 36.4971 43.051 36.9021 42.7146 37.1919C42.3782 37.4817 41.9458 37.6355 41.5019 37.623C41.2988 37.609 41.1004 37.5547 40.9184 37.4634C40.7363 37.372 40.5743 37.2453 40.4417 37.0907C40.3091 36.9361 40.2085 36.7566 40.1458 36.5628C40.0832 36.369 40.0596 36.1646 40.0767 35.9616V34C40.0789 32.5924 39.5927 31.2276 38.7011 30.1386C37.8095 29.0495 36.5677 28.3037 35.1877 28.0283C33.8076 27.753 32.3747 27.9651 31.1336 28.6286C29.8925 29.2921 28.92 30.3658 28.3821 31.6666C27.8442 32.9673 27.7742 34.4144 28.184 35.761C28.5939 37.1075 29.4582 38.2702 30.6295 39.0504C31.8008 39.8307 33.2064 40.1802 34.6066 40.0394C36.0069 39.8986 37.3148 39.2761 38.3074 38.2783C38.6337 38.7891 39.0744 39.2169 39.5946 39.5279C40.1148 39.8389 40.7003 40.0244 41.3046 40.0699C41.4115 40.0781 41.5198 40.0836 41.628 40.0836C42.5071 40.0813 43.3616 39.7925 44.062 39.2611C44.8052 38.68 45.3481 37.8811 45.6147 36.976C45.6627 36.8239 45.7518 36.4729 45.7518 36.4702V36.4578C45.9297 35.651 46.0125 34.8261 45.9985 34C45.9948 30.8185 44.7297 27.7684 42.4806 25.5187C40.2315 23.2691 37.1821 22.0036 34.0013 22Z" fill="#FF9E00"/>
</g>
<defs>
<filter id="filter0_d_1654_8940" x="0" y="0" width="68" height="68" filterUnits="userSpaceOnUse" color-interpolation-filters="sRGB">
<feFlood flood-opacity="0" result="BackgroundImageFix"/>
<feColorMatrix in="SourceAlpha" type="matrix" values="0 0 0 0 0 0 0 0 0 0 0 0 0 0 0 0 0 0 127 0" result="hardAlpha"/>
<feOffset/>
<feGaussianBlur stdDeviation="5"/>
<feComposite in2="hardAlpha" operator="out"/>
<feColorMatrix type="matrix" values="0 0 0 0 0.69292 0 0 0 0 0.69292 0 0 0 0 0.69292 0 0 0 0.3 0"/>
<feBlend mode="normal" in2="BackgroundImageFix" result="effect1_dropShadow_1654_8940"/>
<feBlend mode="normal" in="SourceGraphic" in2="effect1_dropShadow_1654_8940" result="shape"/>
</filter>
</defs>
</svg>
