<svg width="68" height="68" viewBox="0 0 68 68" fill="none" xmlns="http://www.w3.org/2000/svg">
<g filter="url(#filter0_d_1654_8946)">
<rect x="10" y="10" width="48" height="48" rx="15" fill="white"/>
<path fill-rule="evenodd" clip-rule="evenodd" d="M45.4493 28.8803C45.6161 28.3729 45.4493 28 44.6553 28H42.0297C41.3621 28 41.0543 28.3221 40.8874 28.6773C40.8874 28.6773 39.5521 31.6456 37.6606 33.5738C37.0487 34.1319 36.7705 34.3095 36.4367 34.3095C36.2698 34.3095 36.0282 34.1319 36.0282 33.6245V28.8803C36.0282 28.2714 35.8345 28 35.2781 28H31.1521C30.7349 28 30.484 28.2826 30.484 28.5504C30.484 29.1277 31.4297 29.2608 31.5272 30.8845V34.411C31.5272 35.1842 31.3741 35.3244 31.0403 35.3244C30.1502 35.3244 27.9851 32.3428 26.7009 28.931C26.4493 28.2679 26.1969 28 25.5258 28H22.9002C22.15 28 22 28.3221 22 28.6773C22 29.3115 22.8901 32.4575 26.1446 36.6183C28.3143 39.4597 31.3712 41 34.1528 41C35.8218 41 36.0283 40.6579 36.0283 40.0686V37.9211C36.0283 37.2368 36.1864 37.1003 36.7149 37.1003C37.1043 37.1003 37.7719 37.2779 39.3296 38.6479C41.1099 40.2716 41.4034 41 42.4047 41H45.0304C45.7805 41 46.1556 40.6579 45.9392 39.9828C45.7024 39.3099 44.8525 38.3337 43.7247 37.1764C43.1127 36.5168 42.1947 35.8064 41.9165 35.4512C41.5271 34.9946 41.6384 34.7915 41.9165 34.3857C41.9165 34.3857 45.1155 30.2756 45.4493 28.8803Z" fill="#2787F5"/>
</g>
<defs>
<filter id="filter0_d_1654_8946" x="0" y="0" width="68" height="68" filterUnits="userSpaceOnUse" color-interpolation-filters="sRGB">
<feFlood flood-opacity="0" result="BackgroundImageFix"/>
<feColorMatrix in="SourceAlpha" type="matrix" values="0 0 0 0 0 0 0 0 0 0 0 0 0 0 0 0 0 0 127 0" result="hardAlpha"/>
<feOffset/>
<feGaussianBlur stdDeviation="5"/>
<feComposite in2="hardAlpha" operator="out"/>
<feColorMatrix type="matrix" values="0 0 0 0 0.69292 0 0 0 0 0.69292 0 0 0 0 0.69292 0 0 0 0.3 0"/>
<feBlend mode="normal" in2="BackgroundImageFix" result="effect1_dropShadow_1654_8946"/>
<feBlend mode="normal" in="SourceGraphic" in2="effect1_dropShadow_1654_8946" result="shape"/>
</filter>
</defs>
</svg>
