<svg width="53" height="53" viewBox="0 0 53 53" fill="none" xmlns="http://www.w3.org/2000/svg">
<g filter="url(#filter0_d_1116_9060)">
<rect x="8" y="8" width="37" height="37" rx="18.5" fill="#161616"/>
<path d="M22.806 27.8698C23.1594 27.8698 23.446 27.5833 23.446 27.2298C23.446 26.8764 23.1594 26.5898 22.806 26.5898C22.4525 26.5898 22.166 26.8764 22.166 27.2298C22.166 27.5833 22.4525 27.8698 22.806 27.8698Z" fill="white"/>
<path d="M30.1986 27.8698C30.552 27.8698 30.8385 27.5833 30.8385 27.2298C30.8385 26.8764 30.552 26.5898 30.1986 26.5898C29.8451 26.5898 29.5586 26.8764 29.5586 27.2298C29.5586 27.5833 29.8451 27.8698 30.1986 27.8698Z" fill="white"/>
<path d="M28.3681 29.4593C28.2136 29.3931 28.0371 29.4814 27.993 29.6358C27.9047 29.8565 27.6619 30.011 27.4192 30.011C27.1764 30.011 26.9337 29.8565 26.8675 29.6358C26.8675 29.6138 26.8896 29.5696 26.8896 29.5696C26.8896 29.4813 26.8234 29.371 26.7571 29.3269C27.1544 29.2386 27.4633 28.8634 27.4633 28.7531C27.4633 28.5986 27.044 28.4883 26.5144 28.4883C26.0068 28.4883 25.5655 28.5986 25.5655 28.7531C25.5655 28.8634 25.8744 29.2386 26.2716 29.3269C26.2054 29.3931 26.1392 29.4813 26.1392 29.5696C26.1392 29.6138 26.1392 29.6358 26.1613 29.6358C26.073 29.8565 25.8524 30.011 25.6096 30.011C25.3669 30.011 25.1241 29.8565 25.0358 29.6358C24.9696 29.4814 24.8151 29.4151 24.6607 29.4593C24.5062 29.5034 24.44 29.68 24.4841 29.8344C24.6607 30.2979 25.1241 30.6289 25.6096 30.6289C25.9848 30.6289 26.2937 30.4744 26.5365 30.2096C26.7571 30.4523 27.0882 30.6289 27.4633 30.6289C27.9709 30.6289 28.4343 30.3199 28.5888 29.8344C28.6109 29.702 28.5226 29.5034 28.3681 29.4593Z" fill="white"/>
<path d="M36.776 30.5833L33.9954 29.833C34.2161 29.3033 34.3264 28.7295 34.3485 28.1116L36.776 27.4496C36.9304 27.4054 37.0187 27.2289 36.9966 27.0744C36.9525 26.92 36.776 26.8317 36.6215 26.8537L34.3264 27.4937C34.3043 27.2068 34.2602 26.942 34.1719 26.6772C34.194 26.6331 34.2161 26.5889 34.2161 26.5227L33.8409 19.6154C33.8188 19.3947 33.6864 19.1961 33.4657 19.1078C33.2451 19.0195 33.0244 19.0195 32.8478 19.1078L26.4922 22.087L20.1807 19.0857C19.9821 18.9754 19.7393 18.9754 19.5407 19.0637C19.32 19.1519 19.1876 19.3726 19.1656 19.5933L18.7904 26.4786C18.7904 26.5448 18.8125 26.5889 18.8345 26.6551C18.7683 26.8979 18.7242 27.1627 18.6801 27.4717L16.385 26.8317C16.2305 26.7875 16.0539 26.8979 16.0098 27.0524C15.9657 27.2068 16.076 27.3834 16.2305 27.4275L18.658 28.1116C18.6801 28.7295 18.7904 29.3033 19.0111 29.833L16.2305 30.5833C16.076 30.6274 15.9877 30.804 16.0098 30.9584C16.0539 31.0908 16.1643 31.1791 16.2967 31.1791C16.3188 31.1791 16.3629 31.1791 16.3629 31.157L19.2538 30.3626C20.5117 32.8342 23.6233 34.4231 26.4701 34.4231C29.339 34.4231 32.4285 32.8342 33.6864 30.3626L36.5773 31.157C36.5994 31.157 36.6436 31.1791 36.6436 31.1791C36.776 31.1791 36.8863 31.0908 36.9304 30.9584C37.0187 30.7819 36.9304 30.6274 36.776 30.5833ZM33.1126 19.5933C33.1347 19.5712 33.1568 19.5712 33.1789 19.5933C33.2009 19.5933 33.223 19.6154 33.223 19.6374L33.5319 25.309C33.2009 24.8235 32.8037 24.4042 32.3182 24.0511V24.029L32.252 21.9325C32.252 21.756 32.1196 21.6457 31.943 21.6457C31.7665 21.6457 31.6341 21.7781 31.6561 21.9546L31.7003 23.6097C30.4865 22.8815 28.9859 22.4401 27.4411 22.3077L33.1126 19.5933ZM19.7835 19.6374C19.7835 19.6154 19.8055 19.5933 19.8276 19.5933C19.8497 19.5933 19.8717 19.5712 19.8938 19.6154L25.5653 22.3077C23.0716 22.5284 20.6662 23.5435 19.4745 25.331L19.7835 19.6374ZM26.4922 33.8494C23.8881 33.8494 21.0634 32.437 19.8497 30.2302L20.2248 30.1419C20.3793 30.0978 20.4676 29.9212 20.4455 29.7667C20.4234 29.6123 20.2248 29.524 20.0704 29.5461L19.5849 29.6785C19.4304 29.215 19.32 28.7516 19.2759 28.2661L20.0704 28.4868C20.0924 28.4868 20.1366 28.5089 20.1366 28.5089C20.269 28.5089 20.3793 28.4206 20.4234 28.2882C20.4676 28.1337 20.3572 27.9572 20.2028 27.913L19.2538 27.6703C19.4745 24.5366 23.0054 22.8815 26.4481 22.8815C29.9128 22.8815 33.4216 24.5145 33.6423 27.6703L32.6934 27.913C32.5389 27.9572 32.4506 28.1337 32.4727 28.2882C32.5168 28.4206 32.6271 28.5089 32.7596 28.5089C32.7816 28.5089 32.8258 28.5089 32.8258 28.4868L33.6202 28.2661C33.5761 28.7737 33.4878 29.2371 33.3113 29.6785L32.8258 29.5461C32.6713 29.5019 32.4947 29.6123 32.4506 29.7667C32.4065 29.9212 32.5168 30.0978 32.6713 30.1419L33.0464 30.2302C31.943 32.437 29.0962 33.8494 26.4922 33.8494Z" fill="white"/>
</g>
<defs>
<filter id="filter0_d_1116_9060" x="0" y="0" width="53" height="53" filterUnits="userSpaceOnUse" color-interpolation-filters="sRGB">
<feFlood flood-opacity="0" result="BackgroundImageFix"/>
<feColorMatrix in="SourceAlpha" type="matrix" values="0 0 0 0 0 0 0 0 0 0 0 0 0 0 0 0 0 0 127 0" result="hardAlpha"/>
<feOffset/>
<feGaussianBlur stdDeviation="4"/>
<feComposite in2="hardAlpha" operator="out"/>
<feColorMatrix type="matrix" values="0 0 0 0 0.894118 0 0 0 0 0.858824 0 0 0 0 0 0 0 0 0.8 0"/>
<feBlend mode="normal" in2="BackgroundImageFix" result="effect1_dropShadow_1116_9060"/>
<feBlend mode="normal" in="SourceGraphic" in2="effect1_dropShadow_1116_9060" result="shape"/>
</filter>
</defs>
</svg>
