<svg width="53" height="53" viewBox="0 0 53 53" fill="none" xmlns="http://www.w3.org/2000/svg">
<g filter="url(#filter0_d_1116_9017)">
<rect x="8" y="8" width="37" height="37" rx="18.5" fill="#161616"/>
<path d="M35.498 27.2035H35.141V25.4396C35.141 25.2506 34.994 25.1036 34.805 25.1036H33.6501V17.586C33.6501 17.397 33.5031 17.25 33.3141 17.25H19.7699C19.5809 17.25 19.4339 17.397 19.4339 17.586V25.1246H18.2789C18.09 25.1246 17.943 25.2716 17.943 25.4606V27.2245H17.586C17.397 27.2245 17.25 27.3715 17.25 27.5604V31.9702V33.1251V35.414C17.25 35.603 17.397 35.75 17.586 35.75C17.775 35.75 17.922 35.603 17.922 35.414V33.4191H35.162V35.393C35.162 35.582 35.309 35.729 35.498 35.729C35.687 35.729 35.834 35.582 35.834 35.393V33.1041V31.9492V27.5394C35.834 27.3505 35.687 27.2035 35.498 27.2035ZM23.1297 24.0956V22.0587C23.1297 21.6178 23.4867 21.2608 23.9276 21.2608H29.1564C29.5973 21.2608 29.9543 21.6178 29.9543 22.0587V24.0956C29.9543 24.5366 29.5973 24.8936 29.1564 24.8936H23.9276C23.4867 24.8936 23.1297 24.5366 23.1297 24.0956ZM20.1058 17.922H32.9991V18.9719C32.9781 18.9719 32.9362 18.9509 32.8942 18.9509H29.6393C29.4503 18.9509 29.3033 19.0979 29.3033 19.2869C29.3033 19.4759 29.4503 19.6229 29.6393 19.6229H32.8942C32.9362 19.6229 32.9572 19.6229 32.9991 19.6019V24.8936H30.3743C30.5213 24.6626 30.6053 24.3896 30.6053 24.0956V22.0587C30.6053 21.2608 29.9543 20.6098 29.1564 20.6098H23.9276C23.1297 20.6098 22.4787 21.2608 22.4787 22.0587V24.0956C22.4787 24.3896 22.5627 24.6626 22.7097 24.8936H20.1058V17.922ZM18.6149 25.7965H34.4691V27.2245H18.6149V25.7965ZM17.922 32.7682V31.9492V27.8754H18.2789H34.805H35.162V28.9254H29.3873C29.1984 28.9254 29.0514 29.0724 29.0514 29.2614C29.0514 29.4503 29.1984 29.5973 29.3873 29.5973H35.162V30.7313H33.3141C33.1251 30.7313 32.9781 30.8783 32.9781 31.0673C32.9781 31.2562 33.1251 31.4032 33.3141 31.4032H35.162V31.9492V32.7682H17.922Z" fill="white"/>
<path d="M20.6511 30.7305H19.6641C19.4751 30.7305 19.3281 30.8775 19.3281 31.0664C19.3281 31.2554 19.4751 31.4024 19.6641 31.4024H20.6511C20.84 31.4024 20.987 31.2554 20.987 31.0664C20.987 30.8775 20.84 30.7305 20.6511 30.7305Z" fill="white"/>
<path d="M31.0465 30.7305H23.1719C22.9829 30.7305 22.8359 30.8775 22.8359 31.0664C22.8359 31.2554 22.9829 31.4024 23.1719 31.4024H31.0465C31.2355 31.4024 31.3825 31.2554 31.3825 31.0664C31.3825 30.8775 31.2145 30.7305 31.0465 30.7305Z" fill="white"/>
</g>
<defs>
<filter id="filter0_d_1116_9017" x="0" y="0" width="53" height="53" filterUnits="userSpaceOnUse" color-interpolation-filters="sRGB">
<feFlood flood-opacity="0" result="BackgroundImageFix"/>
<feColorMatrix in="SourceAlpha" type="matrix" values="0 0 0 0 0 0 0 0 0 0 0 0 0 0 0 0 0 0 127 0" result="hardAlpha"/>
<feOffset/>
<feGaussianBlur stdDeviation="4"/>
<feComposite in2="hardAlpha" operator="out"/>
<feColorMatrix type="matrix" values="0 0 0 0 0.894118 0 0 0 0 0.858824 0 0 0 0 0 0 0 0 0.8 0"/>
<feBlend mode="normal" in2="BackgroundImageFix" result="effect1_dropShadow_1116_9017"/>
<feBlend mode="normal" in="SourceGraphic" in2="effect1_dropShadow_1116_9017" result="shape"/>
</filter>
</defs>
</svg>
