<svg width="53" height="53" viewBox="0 0 53 53" fill="none" xmlns="http://www.w3.org/2000/svg">
<g filter="url(#filter0_d_1116_9069)">
<rect x="8" y="8" width="37" height="37" rx="18.5" fill="#161616"/>
<path d="M35.0636 34.521L31.6672 19.2087C31.6292 19.0759 31.5154 19 31.4015 19H29.5231C29.5231 19 29.5231 19 29.5041 19H27.6446C27.5687 19 27.5118 19.019 27.4549 19.0759C27.398 19.0379 27.341 19 27.2651 19H22.3887C22.3508 19 22.3128 19 22.2749 19.019C22.2369 19 22.199 19 22.161 19H17.2846C17.1138 19 17 19.1328 17 19.2846V34.5779C17 34.7487 17.1328 34.8626 17.2846 34.8626H22.161C22.199 34.8626 22.2369 34.8626 22.2749 34.8436C22.3128 34.8626 22.3508 34.8626 22.3887 34.8626H27.2651C27.4359 34.8626 27.5497 34.7297 27.5497 34.5779V20.2333L30.7374 34.6349C30.7754 34.7677 30.8892 34.8436 31.0031 34.8436H32.8626C32.8626 34.8436 32.8626 34.8436 32.8815 34.8436H34.741C34.8359 34.8436 34.9118 34.8056 34.9497 34.7297C35.0636 34.6918 35.0826 34.5969 35.0636 34.521ZM21.8954 31.8646H17.8538C17.74 31.8646 17.6451 31.9405 17.6072 32.0354V21.9031C17.6451 22.0169 17.759 22.0738 17.8538 22.0738H21.8954C21.8954 22.0359 21.8954 31.8646 21.8954 31.8646ZM22.6923 22.0549H26.9995V31.8646H22.6923V22.0549ZM26.9995 19.5692V21.5046H22.6923V19.5692H26.9995ZM21.8954 19.5692V21.5046H17.8538C17.74 21.5046 17.6451 21.5805 17.6072 21.6754V19.5882H21.8954V19.5692ZM17.6072 34.2933V32.2441C17.6451 32.3579 17.759 32.4149 17.8538 32.4149H21.8954V34.2933H17.6072ZM22.6923 34.2933V32.4338H26.9995V34.3123L22.6923 34.2933ZM31.2877 34.2933L28.0241 19.5692H29.2954L32.559 34.3123L31.2877 34.2933ZM33.1472 34.2933L29.8836 19.5692H31.1549L34.4185 34.3123L33.1472 34.2933Z" fill="white"/>
<path d="M18.726 23.5536H20.7753C20.946 23.5536 21.0599 23.4208 21.0599 23.269C21.0599 23.1172 20.927 22.9844 20.7753 22.9844H18.726C18.5553 22.9844 18.4414 23.1172 18.4414 23.269C18.4414 23.4208 18.5553 23.5536 18.726 23.5536Z" fill="white"/>
<path d="M18.726 24.9403H20.7753C20.946 24.9403 21.0599 24.8075 21.0599 24.6557C21.0599 24.4849 20.927 24.3711 20.7753 24.3711H18.726C18.5553 24.3711 18.4414 24.5039 18.4414 24.6557C18.4414 24.8075 18.5553 24.9403 18.726 24.9403Z" fill="white"/>
<path d="M23.8315 23.5536H25.8807C26.0515 23.5536 26.1653 23.4208 26.1653 23.269C26.1653 23.1172 26.0325 22.9844 25.8807 22.9844H23.8315C23.6607 22.9844 23.5469 23.1172 23.5469 23.269C23.5469 23.4208 23.6607 23.5536 23.8315 23.5536Z" fill="white"/>
<path d="M25.8807 24.3906H23.8315C23.6607 24.3906 23.5469 24.5234 23.5469 24.6752C23.5469 24.827 23.6797 24.9599 23.8315 24.9599H25.8807C26.0515 24.9599 26.1653 24.827 26.1653 24.6752C26.1653 24.5234 26.0515 24.3906 25.8807 24.3906Z" fill="white"/>
</g>
<defs>
<filter id="filter0_d_1116_9069" x="0" y="0" width="53" height="53" filterUnits="userSpaceOnUse" color-interpolation-filters="sRGB">
<feFlood flood-opacity="0" result="BackgroundImageFix"/>
<feColorMatrix in="SourceAlpha" type="matrix" values="0 0 0 0 0 0 0 0 0 0 0 0 0 0 0 0 0 0 127 0" result="hardAlpha"/>
<feOffset/>
<feGaussianBlur stdDeviation="4"/>
<feComposite in2="hardAlpha" operator="out"/>
<feColorMatrix type="matrix" values="0 0 0 0 0.894118 0 0 0 0 0.858824 0 0 0 0 0 0 0 0 0.8 0"/>
<feBlend mode="normal" in2="BackgroundImageFix" result="effect1_dropShadow_1116_9069"/>
<feBlend mode="normal" in="SourceGraphic" in2="effect1_dropShadow_1116_9069" result="shape"/>
</filter>
</defs>
</svg>
