<svg width="53" height="53" viewBox="0 0 53 53" fill="none" xmlns="http://www.w3.org/2000/svg">
<g filter="url(#filter0_d_1116_8969)">
<rect x="8" y="8" width="37" height="37" rx="18.5" fill="#161616"/>
<path d="M18.6161 25.2176H34.7826C34.8667 25.2176 34.9718 25.1756 35.0349 25.1125C35.0979 25.0494 35.119 24.9443 35.119 24.8602C34.7826 20.5295 31.1667 17.25 26.7099 17.25C22.232 17.25 18.6161 20.5085 18.3008 24.8602C18.3008 24.9443 18.3218 25.0494 18.3849 25.1125C18.4479 25.1966 18.532 25.2176 18.6161 25.2176ZM26.7099 17.9227C29.4218 17.9227 31.7763 19.2261 33.1638 21.2233H31.6502C31.461 21.2233 31.3138 21.3705 31.3138 21.5597C31.3138 21.7489 31.461 21.896 31.6502 21.896H33.5633C33.7315 22.2114 33.8786 22.5267 34.0048 22.8631H29.4428C29.2536 22.8631 29.1065 23.0102 29.1065 23.1994C29.1065 23.3886 29.2536 23.5358 29.4428 23.5358H34.215C34.2991 23.8722 34.3621 24.2085 34.4042 24.5659H18.9945C19.457 20.7398 22.7156 17.9227 26.7099 17.9227Z" fill="white"/>
<path d="M24.3551 19.2476C22.8415 19.668 21.5591 20.6771 20.8443 22.0226C20.7602 22.1907 20.8233 22.3799 20.9704 22.464C21.0125 22.485 21.0756 22.5061 21.1176 22.5061C21.2437 22.5061 21.3489 22.443 21.4119 22.3379C22.0426 21.1396 23.1778 20.2566 24.5233 19.8782C24.6915 19.8362 24.7966 19.647 24.7545 19.4788C24.7125 19.3106 24.5233 19.2055 24.3551 19.2476Z" fill="white"/>
<path d="M35.8551 30.3699C35.8551 29.4028 35.0773 28.625 34.1102 28.625H18.9949C18.0278 28.625 17.25 29.4028 17.25 30.3699C17.25 31.2949 17.9648 32.0517 18.8687 32.1148C18.4903 32.4932 18.2591 33.0398 18.2591 33.6074C18.2591 34.8057 19.2261 35.7517 20.4034 35.7517H32.975C34.1733 35.7517 35.1193 34.7847 35.1193 33.6074C35.1193 33.6074 35.1193 33.6074 35.1193 33.5864V33.5653C35.1193 32.9767 34.867 32.4511 34.4676 32.0517C35.2665 31.8835 35.8551 31.2108 35.8551 30.3699ZM32.996 35.1H20.4244C19.6045 35.1 18.9318 34.4273 18.9318 33.6074C18.9318 32.7875 19.6045 32.1148 20.4244 32.1148H32.996C33.6898 32.1148 34.2994 32.5983 34.4466 33.25H29.8847C29.6955 33.25 29.5483 33.3972 29.5483 33.5864C29.5483 33.7756 29.6955 33.9227 29.8847 33.9227H34.4466C34.2994 34.5744 33.7108 35.1 32.996 35.1ZM34.1102 31.442H32.996H20.4244H19.0159C18.4062 31.442 17.9227 30.9585 17.9227 30.3489C17.9227 29.7392 18.4062 29.2557 19.0159 29.2557H34.1102C34.7199 29.2557 35.2034 29.7392 35.2034 30.3489C35.1824 30.9585 34.6989 31.442 34.1102 31.442Z" fill="white"/>
<path d="M19.4152 28.1604C20.109 28.1604 20.6555 27.5928 20.6555 26.92C20.6555 26.6047 20.9078 26.3314 21.2442 26.3314C21.5805 26.3314 21.8328 26.5837 21.8328 26.92C21.8328 27.6138 22.4004 28.1604 23.0732 28.1604C23.7669 28.1604 24.3135 27.5928 24.3135 26.92C24.3135 26.6047 24.5658 26.3314 24.9021 26.3314C25.2385 26.3314 25.4908 26.5837 25.4908 26.92C25.4908 27.6138 26.0584 28.1604 26.7311 28.1604C27.4249 28.1604 27.9715 27.5928 27.9715 26.92C27.9715 26.6047 28.2237 26.3314 28.5601 26.3314C28.8754 26.3314 29.1487 26.5837 29.1487 26.92C29.1487 27.6138 29.7163 28.1604 30.3891 28.1604C31.0618 28.1604 31.6294 27.5928 31.6294 26.92C31.6294 26.6047 31.8817 26.3314 32.218 26.3314C32.5334 26.3314 32.8067 26.5837 32.8067 26.92C32.8067 27.6138 33.3743 28.1604 34.047 28.1604C34.7408 28.1604 35.2874 27.5928 35.2874 26.92C35.2874 26.7308 35.1402 26.5837 34.951 26.5837C34.7618 26.5837 34.6146 26.7308 34.6146 26.92C34.6146 27.2354 34.3624 27.5087 34.026 27.5087C33.6896 27.5087 33.4374 27.2564 33.4374 26.92C33.4374 26.2263 32.8697 25.6797 32.197 25.6797C31.5033 25.6797 30.9567 26.2473 30.9567 26.92C30.9567 27.2354 30.7044 27.5087 30.368 27.5087C30.0527 27.5087 29.7794 27.2564 29.7794 26.92C29.7794 26.2263 29.2118 25.6797 28.5391 25.6797C27.8663 25.6797 27.2987 26.2473 27.2987 26.92C27.2987 27.2354 27.0465 27.5087 26.7101 27.5087C26.3947 27.5087 26.1214 27.2564 26.1214 26.92C26.1214 26.2263 25.5538 25.6797 24.8811 25.6797C24.1874 25.6797 23.6408 26.2473 23.6408 26.92C23.6408 27.2354 23.3885 27.5087 23.0521 27.5087C22.7158 27.5087 22.4635 27.2564 22.4635 26.92C22.4635 26.2263 21.8959 25.6797 21.2232 25.6797C20.5504 25.6797 19.9828 26.2473 19.9828 26.92C19.9828 27.2354 19.7305 27.5087 19.3942 27.5087C19.0788 27.5087 18.8055 27.2564 18.8055 26.92C18.8055 26.7308 18.6584 26.5837 18.4692 26.5837C18.28 26.5837 18.1328 26.7308 18.1328 26.92C18.1749 27.5928 18.7215 28.1604 19.4152 28.1604Z" fill="white"/>
<path d="M33.878 30.0312H30.7036C30.5143 30.0312 30.3672 30.1784 30.3672 30.3676C30.3672 30.5568 30.5143 30.704 30.7036 30.704H33.878C34.0672 30.704 34.2143 30.5568 34.2143 30.3676C34.2143 30.1574 34.0672 30.0312 33.878 30.0312Z" fill="white"/>
<path d="M23.9765 30.0312H23.5981C23.4089 30.0312 23.2617 30.1784 23.2617 30.3676C23.2617 30.5568 23.4089 30.704 23.5981 30.704H23.9765C24.1657 30.704 24.3129 30.5568 24.3129 30.3676C24.2918 30.1574 24.1447 30.0312 23.9765 30.0312Z" fill="white"/>
<path d="M21.8324 30.0312H20.3188C20.1296 30.0312 19.9824 30.1784 19.9824 30.3676C19.9824 30.5568 20.1296 30.704 20.3188 30.704H21.8324C22.0216 30.704 22.1688 30.5568 22.1688 30.3676C22.1688 30.1574 22.0216 30.0312 21.8324 30.0312Z" fill="white"/>
</g>
<defs>
<filter id="filter0_d_1116_8969" x="0" y="0" width="53" height="53" filterUnits="userSpaceOnUse" color-interpolation-filters="sRGB">
<feFlood flood-opacity="0" result="BackgroundImageFix"/>
<feColorMatrix in="SourceAlpha" type="matrix" values="0 0 0 0 0 0 0 0 0 0 0 0 0 0 0 0 0 0 127 0" result="hardAlpha"/>
<feOffset/>
<feGaussianBlur stdDeviation="4"/>
<feComposite in2="hardAlpha" operator="out"/>
<feColorMatrix type="matrix" values="0 0 0 0 0.894118 0 0 0 0 0.858824 0 0 0 0 0 0 0 0 0.8 0"/>
<feBlend mode="normal" in2="BackgroundImageFix" result="effect1_dropShadow_1116_8969"/>
<feBlend mode="normal" in="SourceGraphic" in2="effect1_dropShadow_1116_8969" result="shape"/>
</filter>
</defs>
</svg>
