<svg width="53" height="53" viewBox="0 0 53 53" fill="none" xmlns="http://www.w3.org/2000/svg">
<g filter="url(#filter0_d_1116_9007)">
<rect x="8" y="8" width="37" height="37" rx="18.5" fill="#161616"/>
<path d="M35.078 17.25H17.586C17.397 17.25 17.25 17.397 17.25 17.586V31.0043C17.25 31.1932 17.397 31.3402 17.586 31.3402H23.6127V32.3692H21.7858C21.5968 32.3692 21.4498 32.5162 21.4498 32.7052V35.414C21.4498 35.603 21.5968 35.75 21.7858 35.75H30.8573C31.0463 35.75 31.1932 35.603 31.1932 35.414V32.6842C31.1932 32.4952 31.0463 32.3482 30.8573 32.3482H29.0304V31.3192H35.057C35.246 31.3192 35.393 31.1722 35.393 30.9833V17.586C35.393 17.397 35.246 17.25 35.078 17.25ZM28.3794 32.3482H26.8885C26.6995 32.3482 26.5525 32.4952 26.5525 32.6842C26.5525 32.8732 26.6995 33.0201 26.8885 33.0201H28.6944H30.5213V33.6711H28.6944C28.5054 33.6711 28.3584 33.8181 28.3584 34.0071C28.3584 34.1961 28.5054 34.3431 28.6944 34.3431H30.5213V35.078H22.1217V33.0201H23.9486C24.1376 33.0201 24.2846 32.8732 24.2846 32.6842V31.3192H28.3584V32.3482H28.3794ZM34.7421 30.6683H17.922V17.922H34.7421V30.6683Z" fill="white"/>
<path d="M19.2872 27.1817H33.3774C33.5664 27.1817 33.7134 27.0347 33.7134 26.8458V19.4121C33.7134 19.2232 33.5664 19.0762 33.3774 19.0762H19.2872C19.0982 19.0762 18.9512 19.2232 18.9512 19.4121V26.8667C18.9512 27.0347 19.0982 27.1817 19.2872 27.1817ZM19.6231 19.7481H33.0414V23.15H31.1515C30.9625 23.15 30.8155 23.2969 30.8155 23.4859C30.8155 23.6749 30.9625 23.8219 31.1515 23.8219H33.0414V24.8089H29.3036C29.1146 24.8089 28.9676 24.9559 28.9676 25.1448C28.9676 25.3338 29.1146 25.4808 29.3036 25.4808H33.0414V26.5308H19.6231V19.7481Z" fill="white"/>
<path d="M33.3767 28.2109C33.1877 28.2109 33.0407 28.3579 33.0407 28.5469V29.1979H31.6758C31.4868 29.1979 31.3398 29.3449 31.3398 29.5339C31.3398 29.7229 31.4868 29.8698 31.6758 29.8698H33.3767C33.5657 29.8698 33.7127 29.7229 33.7127 29.5339V28.5469C33.7127 28.3579 33.5657 28.2109 33.3767 28.2109Z" fill="white"/>
<path d="M29.9126 29.1992H26.4688C26.2798 29.1992 26.1328 29.3462 26.1328 29.5352C26.1328 29.7242 26.2798 29.8712 26.4688 29.8712H29.9126C30.1016 29.8712 30.2486 29.7242 30.2486 29.5352C30.2486 29.3462 30.0806 29.1992 29.9126 29.1992Z" fill="white"/>
<path d="M22.5408 20.7578H20.9239C20.7349 20.7578 20.5879 20.9048 20.5879 21.0938V22.9417C20.5879 23.1307 20.7349 23.2777 20.9239 23.2777C21.1129 23.2777 21.2599 23.1307 21.2599 22.9417V21.4298H22.5408C22.7298 21.4298 22.8768 21.2828 22.8768 21.0938C22.8768 20.9048 22.7088 20.7578 22.5408 20.7578Z" fill="white"/>
</g>
<defs>
<filter id="filter0_d_1116_9007" x="0" y="0" width="53" height="53" filterUnits="userSpaceOnUse" color-interpolation-filters="sRGB">
<feFlood flood-opacity="0" result="BackgroundImageFix"/>
<feColorMatrix in="SourceAlpha" type="matrix" values="0 0 0 0 0 0 0 0 0 0 0 0 0 0 0 0 0 0 127 0" result="hardAlpha"/>
<feOffset/>
<feGaussianBlur stdDeviation="4"/>
<feComposite in2="hardAlpha" operator="out"/>
<feColorMatrix type="matrix" values="0 0 0 0 0.894118 0 0 0 0 0.858824 0 0 0 0 0 0 0 0 0.8 0"/>
<feBlend mode="normal" in2="BackgroundImageFix" result="effect1_dropShadow_1116_9007"/>
<feBlend mode="normal" in="SourceGraphic" in2="effect1_dropShadow_1116_9007" result="shape"/>
</filter>
</defs>
</svg>
