<svg width="53" height="53" viewBox="0 0 53 53" fill="none" xmlns="http://www.w3.org/2000/svg">
<g filter="url(#filter0_d_1116_9046)">
<rect x="8" y="8" width="37" height="37" rx="18.5" fill="#161616"/>
<path d="M35.6913 21.0289H32.2186V18.3087C32.2186 18.135 32.0836 18 31.91 18H22.09C21.9164 18 21.7813 18.135 21.7813 18.3087V21.0289H18.3087C18.135 21.0289 18 21.164 18 21.3376V33.7042C18 33.8778 18.135 34.0129 18.3087 34.0129H35.6913C35.865 34.0129 36 33.8778 36 33.7042V21.3376C36 21.164 35.8457 21.0289 35.6913 21.0289ZM22.3987 18.6174H31.6206V21.0482H22.3987V18.6174ZM18.6174 33.3955V21.627H22.09H31.91H35.3826V28.8617H32.4887C32.3151 28.8617 32.1801 28.9968 32.1801 29.1704C32.1801 29.3441 32.3151 29.4791 32.4887 29.4791H35.3826V30.3087H33.4727C33.299 30.3087 33.164 30.4437 33.164 30.6174C33.164 30.791 33.299 30.926 33.4727 30.926H35.3826V31.6592H31.2733C31.0997 31.6592 30.9646 31.7942 30.9646 31.9678C30.9646 32.1415 31.0997 32.2765 31.2733 32.2765H35.3826V33.3955H18.6174Z" fill="white"/>
<path d="M31.2348 28.9569V26.0823C31.2348 25.9087 31.0998 25.7737 30.9262 25.7737H28.7461V23.5743C28.7461 23.4007 28.611 23.2656 28.4374 23.2656H25.5628C25.3892 23.2656 25.2541 23.4007 25.2541 23.5743V25.7737H23.0548C22.8811 25.7737 22.7461 25.9087 22.7461 26.0823V28.9569C22.7461 29.1306 22.8811 29.2656 23.0548 29.2656H25.2541V31.465C25.2541 31.6386 25.3892 31.7737 25.5628 31.7737H28.4374C28.611 31.7737 28.7461 31.6386 28.7461 31.465V29.2656H30.9455C31.0998 29.2656 31.2348 29.1306 31.2348 28.9569ZM30.6368 28.6483H28.4374C28.2638 28.6483 28.1287 28.7833 28.1287 28.9569V31.1563H25.8715V28.9569C25.8715 28.7833 25.7364 28.6483 25.5628 28.6483H23.3635V26.391H25.5628C25.7364 26.391 25.8715 26.256 25.8715 26.0823V23.883H28.148V26.0823C28.148 26.256 28.2831 26.391 28.4567 26.391H30.6561L30.6368 28.6483Z" fill="white"/>
<path d="M22.2439 22.7461H20.0059C19.8323 22.7461 19.6973 22.8811 19.6973 23.0548V25.6979C19.6973 25.8715 19.8323 26.0065 20.0059 26.0065C20.1796 26.0065 20.3146 25.8715 20.3146 25.6979V23.3442H22.2439C22.4175 23.3442 22.5526 23.2091 22.5526 23.0355C22.5526 22.8618 22.3982 22.7461 22.2439 22.7461Z" fill="white"/>
<path d="M20.0059 26.875C19.8323 26.875 19.6973 27.01 19.6973 27.1837V27.994C19.6973 28.1676 19.8323 28.3027 20.0059 28.3027C20.1796 28.3027 20.3146 28.1676 20.3146 27.994V27.1837C20.3146 27.01 20.1796 26.875 20.0059 26.875Z" fill="white"/>
</g>
<defs>
<filter id="filter0_d_1116_9046" x="0" y="0" width="53" height="53" filterUnits="userSpaceOnUse" color-interpolation-filters="sRGB">
<feFlood flood-opacity="0" result="BackgroundImageFix"/>
<feColorMatrix in="SourceAlpha" type="matrix" values="0 0 0 0 0 0 0 0 0 0 0 0 0 0 0 0 0 0 127 0" result="hardAlpha"/>
<feOffset/>
<feGaussianBlur stdDeviation="4"/>
<feComposite in2="hardAlpha" operator="out"/>
<feColorMatrix type="matrix" values="0 0 0 0 0.894118 0 0 0 0 0.858824 0 0 0 0 0 0 0 0 0.8 0"/>
<feBlend mode="normal" in2="BackgroundImageFix" result="effect1_dropShadow_1116_9046"/>
<feBlend mode="normal" in="SourceGraphic" in2="effect1_dropShadow_1116_9046" result="shape"/>
</filter>
</defs>
</svg>
