<svg width="53" height="53" viewBox="0 0 53 53" fill="none" xmlns="http://www.w3.org/2000/svg">
<g filter="url(#filter0_d_1116_9054)">
<rect x="8" y="8" width="37" height="37" rx="18.5" fill="#161616"/>
<path d="M35.9843 22.4563C35.9843 22.4164 35.9644 22.3366 35.9444 22.2966C35.9444 22.2567 35.9444 22.2367 35.9244 22.1968C35.9045 22.1569 35.9045 22.117 35.8845 22.077C35.8646 22.0371 35.8646 21.9772 35.8446 21.9573C35.8446 21.9573 35.8446 21.9373 35.8246 21.9373C35.7448 21.6977 35.625 21.4781 35.4453 21.2785C35.1658 20.9391 34.7666 20.7195 34.3673 20.6197C31.8519 20.0009 27.1207 19.3022 23.3277 21.4781C19.5746 23.6142 17.7978 28.086 17.0792 30.5614C16.8795 31.3 17.0592 32.0786 17.5982 32.6176C17.8777 32.8971 18.1971 33.0768 18.5964 33.1766C19.8141 33.476 21.5709 33.7954 23.4674 33.7954C25.4837 33.7954 27.6796 33.4361 29.6161 32.3182C32.6305 30.6013 34.3673 27.4072 35.3256 24.9118C35.5651 24.293 35.7647 23.714 35.9045 23.2149C35.9843 22.9754 36.0243 22.7159 35.9843 22.4563ZM17.5982 30.7211C18.2969 28.3255 20.0138 23.9935 23.6271 21.8974C25.4837 20.8194 27.5798 20.4999 29.5163 20.4999C31.3928 20.4999 33.0897 20.8194 34.2675 21.0988C34.4472 21.1388 34.5869 21.2186 34.7267 21.2985C34.6468 21.3184 34.5669 21.3384 34.4871 21.3384C34.4272 21.2985 34.3474 21.2585 34.2675 21.2785C34.1876 21.2985 34.1278 21.3584 34.0878 21.4382C33.6486 21.558 33.2294 21.6578 32.7902 21.7976H32.7703C31.5325 22.1569 30.2948 22.616 29.117 23.1351L28.3783 22.2966C28.2785 22.1968 28.1188 22.1769 28.019 22.2767C27.9192 22.3765 27.8992 22.5362 27.999 22.636L28.6379 23.3547C28.1787 23.5543 27.7196 23.7939 27.2804 24.0334L26.5417 23.2149C26.4419 23.1151 26.2822 23.0952 26.1824 23.195C26.0826 23.2948 26.0626 23.4545 26.1624 23.5543L26.8212 24.293C26.382 24.5325 25.9628 24.792 25.5436 25.0516L24.8648 24.293C24.765 24.1931 24.6053 24.1732 24.5055 24.273C24.4057 24.3728 24.3857 24.5325 24.4855 24.6323L25.0844 25.3111C24.6652 25.5906 24.2659 25.8501 23.8667 26.1495L23.168 25.371C23.0681 25.2712 22.9084 25.2512 22.8086 25.351C22.7088 25.4508 22.6888 25.6105 22.7886 25.7103L23.4474 26.4689C23.0082 26.7884 22.589 27.1477 22.1498 27.4871L21.6308 26.8882C21.531 26.7884 21.3713 26.7684 21.2714 26.8682C21.1716 26.968 21.1517 27.1277 21.2515 27.2276L21.7705 27.8065C20.6526 28.7847 19.5945 29.8427 18.6163 30.9806L18.5964 31.0006C18.2969 31.3599 17.9975 31.7193 17.718 32.0786C17.5583 31.6793 17.4784 31.1803 17.5982 30.7211ZM29.3965 31.9189C25.7632 34.015 21.1716 33.3163 18.7561 32.7174C18.6962 32.6975 18.6363 32.6775 18.5564 32.6575C18.5365 32.6575 18.5165 32.6376 18.5165 32.6376C18.4766 32.6176 18.4367 32.5977 18.3967 32.5777C18.3768 32.5577 18.3568 32.5577 18.3568 32.5378C18.2969 32.4978 18.237 32.4779 18.1971 32.418C18.4566 32.0786 18.7162 31.7392 18.9956 31.4198C19.1354 31.4997 19.2751 31.5596 19.4348 31.5995C20.5128 31.879 21.9901 32.1185 23.5872 32.1185C24.246 32.1185 24.9247 32.0786 25.6035 31.9588C25.7432 31.9389 25.8231 31.8191 25.8031 31.6793C25.7831 31.5396 25.6634 31.4598 25.5236 31.4797C23.2678 31.8391 21.0319 31.4797 19.5546 31.1204C19.4748 31.1004 19.3949 31.0804 19.315 31.0405C20.2334 30.0024 21.1916 29.0242 22.2297 28.1259L23.0482 29.0442C23.0881 29.0841 23.168 29.1241 23.2478 29.1241C23.3077 29.1241 23.3676 29.1041 23.4075 29.0642C23.5073 28.9643 23.5273 28.8046 23.4275 28.7048L22.6289 27.8065C23.0482 27.4471 23.4674 27.1277 23.9266 26.7884L24.6053 27.547C24.6452 27.5869 24.7251 27.6268 24.8049 27.6268C24.8648 27.6268 24.9247 27.6068 24.9646 27.5669C25.0645 27.4671 25.0844 27.3074 24.9846 27.2076L24.3458 26.5089C24.745 26.2294 25.1443 25.9499 25.5635 25.6904L26.2822 26.4889C26.3221 26.5288 26.402 26.5688 26.4818 26.5688C26.5417 26.5688 26.6016 26.5488 26.6416 26.5089C26.7414 26.4091 26.7613 26.2493 26.6615 26.1495L26.0027 25.4109C26.422 25.1514 26.8412 24.8918 27.2804 24.6523L27.9591 25.4109C27.999 25.4508 28.0789 25.4907 28.1588 25.4907C28.2186 25.4907 28.2785 25.4708 28.3185 25.4309C28.4183 25.331 28.4382 25.1713 28.3384 25.0715L27.7395 24.3928C28.1787 24.1532 28.6379 23.9336 29.097 23.714L29.7758 24.4726C29.8157 24.5125 29.8956 24.5525 29.9754 24.5525C30.0353 24.5525 30.0952 24.5325 30.1351 24.4926C30.2349 24.3928 30.2549 24.2331 30.1551 24.1333L29.5761 23.4944C30.5543 23.0552 31.5525 22.6959 32.5706 22.3765C32.2512 23.3547 31.8719 24.293 31.4128 25.1514C31.3529 25.2712 31.3928 25.4309 31.5325 25.4907C31.5725 25.5107 31.6124 25.5307 31.6523 25.5307C31.7521 25.5307 31.832 25.4907 31.8719 25.4109C32.391 24.4327 32.8102 23.3747 33.1695 22.2367C33.5289 22.1369 33.8682 22.0371 34.2276 21.9573C34.2276 22.077 34.2076 22.2168 34.1677 22.3166C33.6287 24.1931 32.5507 26.8882 30.6142 28.8845C30.5144 28.9843 30.5144 29.144 30.6142 29.2438C30.6542 29.2838 30.734 29.3037 30.7939 29.3037C30.8538 29.3037 30.9137 29.2638 30.9736 29.2239C32.9899 27.1277 34.0878 24.3928 34.6468 22.4364C34.7067 22.2367 34.7267 22.0172 34.7267 21.8175C34.9263 21.7776 35.086 21.7377 35.2856 21.6977C35.2856 21.7177 35.3056 21.7177 35.3056 21.7377C35.3256 21.7576 35.3455 21.7776 35.3455 21.7976C35.3655 21.8375 35.3854 21.8574 35.4054 21.8974C35.4254 21.9173 35.4254 21.9373 35.4453 21.9573C35.4653 21.9972 35.4853 22.0171 35.4853 22.0571C35.5052 22.097 35.5052 22.097 35.5252 22.1369C35.5451 22.1769 35.5451 22.1968 35.5651 22.2567C35.5651 22.2966 35.5851 22.2966 35.5851 22.3366C35.5851 22.3765 35.605 22.4164 35.605 22.4563C35.605 22.4963 35.605 22.4963 35.625 22.5362C35.625 22.5761 35.625 22.616 35.625 22.656C35.625 22.6959 35.625 22.6959 35.625 22.7358C35.625 22.7758 35.625 22.8157 35.605 22.8556C35.605 22.8756 35.605 22.8955 35.605 22.9155C35.5851 22.9754 35.5651 23.0353 35.5651 23.1151C34.7267 25.4907 33.0098 29.8228 29.3965 31.9189Z" fill="white"/>
<path d="M29.3568 29.9233C29.0774 30.123 28.7779 30.3226 28.4984 30.5023C28.3786 30.5622 28.3387 30.7219 28.3986 30.8616C28.4385 30.9415 28.5184 30.9814 28.6182 30.9814C28.6581 30.9814 28.6981 30.9614 28.738 30.9415C29.0374 30.7618 29.3568 30.5622 29.6563 30.3426C29.7761 30.2627 29.7761 30.103 29.6962 29.9832C29.6164 29.8834 29.4567 29.8435 29.3568 29.9233Z" fill="white"/>
</g>
<defs>
<filter id="filter0_d_1116_9054" x="0" y="0" width="53" height="53" filterUnits="userSpaceOnUse" color-interpolation-filters="sRGB">
<feFlood flood-opacity="0" result="BackgroundImageFix"/>
<feColorMatrix in="SourceAlpha" type="matrix" values="0 0 0 0 0 0 0 0 0 0 0 0 0 0 0 0 0 0 127 0" result="hardAlpha"/>
<feOffset/>
<feGaussianBlur stdDeviation="4"/>
<feComposite in2="hardAlpha" operator="out"/>
<feColorMatrix type="matrix" values="0 0 0 0 0.894118 0 0 0 0 0.858824 0 0 0 0 0 0 0 0 0.8 0"/>
<feBlend mode="normal" in2="BackgroundImageFix" result="effect1_dropShadow_1116_9054"/>
<feBlend mode="normal" in="SourceGraphic" in2="effect1_dropShadow_1116_9054" result="shape"/>
</filter>
</defs>
</svg>
