<svg width="53" height="53" viewBox="0 0 53 53" fill="none" xmlns="http://www.w3.org/2000/svg">
<g filter="url(#filter0_d_1116_9003)">
<rect x="8" y="8" width="37" height="37" rx="18.5" fill="#161616"/>
<path d="M34.7703 21.9049H31.6589C31.7216 21.6543 31.7633 21.4037 31.7633 21.1323C31.7633 19.3991 30.3643 18 28.6311 18C27.3782 18 26.4176 19.4408 25.9165 20.6102C25.4153 19.4408 24.4548 18 23.2019 18C21.4687 18 20.0696 19.3991 20.0696 21.1323C20.0696 21.3828 20.1114 21.6543 20.174 21.9049H17.3341C17.1462 21.9049 17 22.051 17 22.239V25.768C17 25.9559 17.1462 26.1021 17.3341 26.1021H18.1694V35.6659C18.1694 35.8538 18.3155 36 18.5035 36H33.58C33.768 36 33.9142 35.8538 33.9142 35.6659V26.0812H34.7494C34.9374 26.0812 35.0835 25.935 35.0835 25.7471V22.2181C35.0835 22.051 34.9374 21.9049 34.7703 21.9049ZM28.6311 18.6473C29.9884 18.6473 31.116 19.7541 31.116 21.1323C31.116 21.3828 31.0742 21.6334 31.0116 21.8631C31.0116 21.884 31.0116 21.884 31.0116 21.9049H29.5708C29.6125 21.7378 29.6334 21.5708 29.6334 21.4037C29.6334 20.2761 28.7146 19.3573 27.587 19.3573C27.5452 19.3573 27.4826 19.3573 27.4408 19.3573C27.7958 18.9397 28.2135 18.6473 28.6311 18.6473ZM26.2297 21.7796C26.4176 21.0696 27.0232 20.0255 27.5661 20.0255C28.3387 20.0255 28.9443 20.652 28.9443 21.4037C28.9443 21.5499 28.9234 21.6752 28.8817 21.8005C28.8817 21.8213 28.8608 21.8631 28.8608 21.884H26.1671C26.1879 21.8631 26.2297 21.8213 26.2297 21.7796ZM25.6033 21.7796C25.6241 21.8213 25.645 21.8631 25.6659 21.9049H22.9513C22.9513 21.8631 22.9513 21.8422 22.9304 21.8005C22.8886 21.6752 22.8678 21.5499 22.8678 21.4037C22.8678 20.6311 23.4942 20.0255 24.2459 20.0255C24.8097 20.0046 25.4153 21.0487 25.6033 21.7796ZM23.2019 18.6473C23.6195 18.6473 24.0371 18.9397 24.3921 19.3573C24.3503 19.3573 24.2877 19.3573 24.2459 19.3573C23.1183 19.3573 22.1995 20.2761 22.1995 21.4037C22.1995 21.5708 22.2204 21.7378 22.2622 21.9049H20.8213C20.8213 21.884 20.8213 21.8631 20.8005 21.8422C20.7378 21.6125 20.6961 21.3828 20.6961 21.1323C20.7378 19.7541 21.8445 18.6473 23.2019 18.6473ZM24.5174 35.3109H18.8376V26.0812H24.3086L22.1369 28.3782C22.0116 28.5035 22.0116 28.7123 22.1578 28.8376C22.2204 28.9002 22.3039 28.9211 22.3875 28.9211C22.471 28.9211 22.5545 28.8793 22.6172 28.8167L24.5174 26.8121V35.3109ZM24.5174 25.413H18.5244H17.6891V22.5522H24.5383V25.413H24.5174ZM26.9397 35.3109H25.1856V26.0812H26.9397V35.3109ZM26.9397 25.413H25.1856V22.5522H26.9397V25.413ZM33.2668 31.3851H30.949C30.761 31.3851 30.6149 31.5313 30.6149 31.7193C30.6149 31.9072 30.761 32.0534 30.949 32.0534H33.2668V33.1601H28.9234C28.7355 33.1601 28.5893 33.3063 28.5893 33.4942C28.5893 33.6821 28.7355 33.8283 28.9234 33.8283H33.2459V35.3318H27.587V26.8538L29.4455 28.8376C29.5081 28.9002 29.5916 28.942 29.6752 28.942C29.7587 28.942 29.8422 28.9211 29.9049 28.8585C30.0302 28.7332 30.051 28.5244 29.9258 28.3991L27.7541 26.1021H33.2459V31.3851H33.2668ZM34.4362 23.5336H29.9675C29.7796 23.5336 29.6334 23.6798 29.6334 23.8677C29.6334 24.0557 29.7796 24.2019 29.9675 24.2019H34.4153V25.4339H33.58H27.587V22.5522H34.4362V23.5336Z" fill="white"/>
</g>
<defs>
<filter id="filter0_d_1116_9003" x="0" y="0" width="53" height="53" filterUnits="userSpaceOnUse" color-interpolation-filters="sRGB">
<feFlood flood-opacity="0" result="BackgroundImageFix"/>
<feColorMatrix in="SourceAlpha" type="matrix" values="0 0 0 0 0 0 0 0 0 0 0 0 0 0 0 0 0 0 127 0" result="hardAlpha"/>
<feOffset/>
<feGaussianBlur stdDeviation="4"/>
<feComposite in2="hardAlpha" operator="out"/>
<feColorMatrix type="matrix" values="0 0 0 0 0.894118 0 0 0 0 0.858824 0 0 0 0 0 0 0 0 0.8 0"/>
<feBlend mode="normal" in2="BackgroundImageFix" result="effect1_dropShadow_1116_9003"/>
<feBlend mode="normal" in="SourceGraphic" in2="effect1_dropShadow_1116_9003" result="shape"/>
</filter>
</defs>
</svg>
