<svg width="53" height="53" viewBox="0 0 53 53" fill="none" xmlns="http://www.w3.org/2000/svg">
<g filter="url(#filter0_d_1116_9078)">
<rect x="8" y="8" width="37" height="37" rx="18.5" fill="#161616"/>
<path d="M36.9644 19.762L36.9177 19.7152C36.9177 19.6918 36.8943 19.6918 36.8943 19.6918L36.8709 19.6684L36.8475 19.645L36.8241 19.6216H36.8007C36.7774 19.6216 36.7774 19.5983 36.754 19.5983H36.7306C36.7072 19.5983 36.6838 19.5983 36.6838 19.5983C36.6838 19.5983 36.6838 19.5983 36.6604 19.5983C36.6371 19.5983 36.6137 19.5983 36.6137 19.5983C36.6137 19.5983 36.6137 19.5983 36.5903 19.5983C36.4967 19.5983 36.4266 19.5749 36.3798 19.5047C36.3331 19.4346 36.3331 19.3644 36.3564 19.2709C36.3798 19.2241 36.4032 19.2007 36.4266 19.1774C36.5669 19.0838 36.6137 18.8734 36.5201 18.7331C36.4266 18.5928 36.2161 18.546 36.0758 18.6395C36.0525 18.6629 36.0057 18.6863 35.9823 18.6863C35.8888 18.6863 35.842 18.6629 35.7719 18.5928C35.7251 18.5226 35.7251 18.4525 35.7485 18.3589V18.3355C35.7485 18.3355 35.7485 18.3122 35.7719 18.2888C35.7719 18.2654 35.7719 18.2654 35.7719 18.242V18.2186C35.7719 18.1952 35.7719 18.1952 35.7719 18.1719V18.1485C35.7719 18.1251 35.7719 18.1251 35.7719 18.1017V18.0783C35.7719 18.0549 35.7719 18.0549 35.7719 18.0316C35.7719 18.0316 35.7719 18.0082 35.7485 18.0082C35.7485 17.9848 35.7251 17.9848 35.7251 17.9614V17.938L35.6783 17.8679C35.6316 17.7977 35.5614 17.751 35.4679 17.751C35.3743 17.7276 35.3042 17.751 35.2106 17.8211L32.428 19.8087C32.3345 19.8789 32.2877 19.949 32.2877 20.0659L32.2643 20.7675C32.2643 20.8376 32.2877 20.9078 32.3345 20.9779L32.428 21.1416C32.4046 21.1416 32.3812 21.165 32.3578 21.1884L25.8572 25.7248C25.8572 25.6546 25.8338 25.5845 25.787 25.5143C24.9452 24.2984 23.8228 23.6203 22.8875 23.7372C22.373 23.8073 21.6949 24.1347 21.2272 25.3039C20.7829 26.5198 20.2451 26.6134 19.4968 26.3094C19.4735 26.3094 19.4501 26.286 19.4267 26.286L18.8889 26.1925C18.0704 26.1223 17.2286 26.3328 16.5271 26.8238C15.7321 27.3616 15.2176 28.1801 15.054 29.1154C14.8903 30.0508 15.1007 30.9861 15.6619 31.7811L16.9013 33.5349C17.4391 34.33 18.2575 34.8444 19.1929 35.0081C19.4033 35.0549 19.6138 35.0782 19.8008 35.0782C20.5257 35.0782 21.2272 34.8444 21.8118 34.4469C22.4432 34.0026 22.9109 33.2543 22.9576 33.1374C23.1681 32.8568 23.2616 32.506 23.3785 32.1319C23.5422 31.5941 23.6825 31.0329 24.1736 30.7523C24.6179 30.495 24.9686 30.495 25.3194 30.5184C25.6701 30.5418 26.0209 30.5418 26.3483 30.308C26.9562 29.9105 27.1901 29.5129 27.2134 29.4895C27.2836 29.396 27.2836 29.2323 27.2134 29.1388C27.1433 29.0453 27.0264 28.9751 26.9095 28.9985C26.8627 28.9985 25.8806 29.1154 25.3194 28.3671C25.1323 28.1099 25.2258 27.9228 25.6 27.4786C25.8572 27.1746 26.208 26.7537 26.1144 26.286L32.6151 21.7262C32.6384 21.7028 32.6618 21.7028 32.6852 21.6794L32.7788 21.8431C32.8255 21.9132 32.8723 21.9366 32.9424 21.96L33.6206 22.1938C33.6673 22.2172 33.6907 22.2172 33.7141 22.2172C33.7842 22.2172 33.831 22.1939 33.9012 22.1471L36.7306 20.1595C37.0346 20.1127 37.058 19.9023 36.9644 19.762ZM22.4198 28.2736L21.9755 27.6422C21.882 27.5019 21.6715 27.4552 21.5312 27.5487L20.479 28.297C20.4088 28.3437 20.362 28.4139 20.362 28.5074C20.3387 28.601 20.362 28.6711 20.4322 28.7647L21.7183 30.5886C21.7884 30.6821 21.882 30.7289 21.9755 30.7289C22.0457 30.7289 22.0924 30.7055 22.1626 30.6587L23.2148 29.9104C23.285 29.8637 23.3318 29.7935 23.3318 29.7C23.3551 29.6065 23.3318 29.5363 23.2616 29.4428L22.7939 28.788L25.4129 26.9407C25.3661 26.9875 25.3194 27.0343 25.2726 27.1044C24.9452 27.5019 24.4308 28.0865 24.9452 28.8114C25.3661 29.3726 25.9273 29.6065 26.3716 29.6766C26.3015 29.7468 26.2313 29.7702 26.1378 29.8403C25.9741 29.9338 25.8104 29.9338 25.5064 29.9338C25.0855 29.9105 24.5945 29.8871 24.0099 30.2378C23.3084 30.6587 23.0979 31.3836 22.9109 31.9916C22.8173 32.319 22.7238 32.5996 22.5835 32.81C22.5835 32.8334 22.5601 32.8334 22.5601 32.8568C22.5601 32.8568 22.1626 33.5817 21.6014 33.9792C20.97 34.4235 20.1984 34.5872 19.4267 34.4469C18.655 34.3066 18.0003 33.8857 17.556 33.2543L16.3167 31.5005C15.4047 30.2144 15.7321 28.4139 17.065 27.4786C17.556 27.1278 18.1406 26.9407 18.7252 26.9407C18.8187 26.9407 18.8889 26.9407 18.959 26.9407L19.4267 27.0343C20.6193 27.4786 21.4377 27.0109 21.9755 25.6312C22.2327 24.9297 22.6069 24.5322 23.0979 24.4854C23.7761 24.3919 24.6646 24.9999 25.3661 25.982C25.4129 26.0522 25.4597 26.0755 25.5298 26.0989L22.4198 28.2736ZM22.5133 29.5363L21.9989 29.9104L21.0869 28.6243L21.6014 28.2502L22.5133 29.5363ZM33.831 21.5859L33.4101 21.4456L32.9658 20.7908L32.9892 20.3465L35.1873 18.8032C35.2106 18.8734 35.2574 18.9201 35.2808 18.9903C35.3977 19.154 35.5614 19.2709 35.7485 19.3177C35.7251 19.5047 35.7952 19.7152 35.8888 19.8789C35.9355 19.949 35.9823 19.9724 36.0291 20.0426L33.831 21.5859Z" fill="white"/>
<path d="M37.2443 21.4463L37.0806 21.1891C36.9871 21.0488 36.7766 21.002 36.6363 21.0955C36.496 21.1891 36.4493 21.3995 36.5428 21.5398L36.7065 21.797C36.7766 21.8906 36.8702 21.9374 36.9637 21.9374C37.0339 21.9374 37.0806 21.914 37.1508 21.8672C37.3145 21.797 37.3612 21.61 37.2443 21.4463Z" fill="white"/>
<path d="M33.8549 17.7736C33.9251 17.8671 34.0186 17.9139 34.1121 17.9139C34.1823 17.9139 34.2291 17.8905 34.2992 17.8437C34.4395 17.7502 34.4863 17.5397 34.3927 17.3994L34.2291 17.1422C34.1355 17.0019 33.9251 16.9551 33.7848 17.0487C33.6445 17.1422 33.5977 17.3527 33.6912 17.493L33.8549 17.7736Z" fill="white"/>
<path d="M36.1216 21.8883C36.0281 21.748 35.8177 21.7012 35.6774 21.7948C35.5371 21.8883 35.4903 22.0987 35.5838 22.239L35.7475 22.4963C35.8177 22.5898 35.9112 22.6366 36.0047 22.6366C36.0749 22.6366 36.1216 22.6132 36.1918 22.5664C36.3321 22.4729 36.3789 22.2624 36.2853 22.1221L36.1216 21.8883Z" fill="white"/>
<path d="M32.8959 18.4513C32.9661 18.5448 33.0596 18.5916 33.1532 18.5916C33.2233 18.5916 33.2701 18.5682 33.3402 18.5214C33.4805 18.4279 33.5273 18.2175 33.4338 18.0772L33.2701 17.8199C33.1765 17.6796 32.9661 17.6329 32.8258 17.7264C32.6855 17.8199 32.6387 18.0304 32.7323 18.1707L32.8959 18.4513Z" fill="white"/>
<path d="M35.1412 22.566C35.0476 22.4257 34.8372 22.379 34.6969 22.4725C34.5566 22.566 34.5098 22.7765 34.6033 22.9168L34.767 23.174C34.8372 23.2675 34.9307 23.3143 35.0243 23.3143C35.0944 23.3143 35.1412 23.2909 35.2113 23.2441C35.3516 23.1506 35.3984 22.9402 35.3049 22.7999L35.1412 22.566Z" fill="white"/>
<path d="M31.937 19.129C32.0071 19.2226 32.1006 19.2693 32.1942 19.2693C32.2643 19.2693 32.3111 19.2459 32.3812 19.1992C32.5215 19.1056 32.5683 18.8952 32.4748 18.7549L32.3111 18.4977C32.2176 18.3574 32.0071 18.3106 31.8668 18.4041C31.7265 18.4977 31.6797 18.7081 31.7733 18.8484L31.937 19.129Z" fill="white"/>
<path d="M19.4039 28.9965C19.2636 29.09 19.2168 29.3005 19.3104 29.4408L20.5965 31.2647C20.6666 31.3582 20.7602 31.405 20.8537 31.405C20.9239 31.405 20.9706 31.3816 21.0408 31.3349C21.1811 31.2413 21.2278 31.0309 21.1343 30.8906L19.8482 29.0666C19.7547 28.9497 19.5676 28.9263 19.4039 28.9965Z" fill="white"/>
</g>
<defs>
<filter id="filter0_d_1116_9078" x="0" y="0" width="53" height="53" filterUnits="userSpaceOnUse" color-interpolation-filters="sRGB">
<feFlood flood-opacity="0" result="BackgroundImageFix"/>
<feColorMatrix in="SourceAlpha" type="matrix" values="0 0 0 0 0 0 0 0 0 0 0 0 0 0 0 0 0 0 127 0" result="hardAlpha"/>
<feOffset/>
<feGaussianBlur stdDeviation="4"/>
<feComposite in2="hardAlpha" operator="out"/>
<feColorMatrix type="matrix" values="0 0 0 0 0.894118 0 0 0 0 0.858824 0 0 0 0 0 0 0 0 0.8 0"/>
<feBlend mode="normal" in2="BackgroundImageFix" result="effect1_dropShadow_1116_9078"/>
<feBlend mode="normal" in="SourceGraphic" in2="effect1_dropShadow_1116_9078" result="shape"/>
</filter>
</defs>
</svg>
