<svg width="53" height="53" viewBox="0 0 53 53" fill="none" xmlns="http://www.w3.org/2000/svg">
<g filter="url(#filter0_d_1116_9033)">
<rect x="8" y="8" width="37" height="37" rx="18.5" fill="#161616"/>
<path d="M35.729 26.0795C35.729 25.0915 35.1193 24.2085 34.2153 23.8511V19.3312C34.2153 18.175 33.2903 17.25 32.1341 17.25H20.971C19.8148 17.25 18.8898 18.175 18.8898 19.3312V23.8091C17.9227 24.1455 17.25 25.0494 17.25 26.0795V31.6295C17.25 31.8187 17.3972 31.9659 17.5864 31.9659H18.4483V33.6688C18.4483 33.6898 18.4483 33.7318 18.4693 33.7528C18.5744 34.867 19.5205 35.75 20.6767 35.75C21.8119 35.75 22.758 34.867 22.8841 33.7528C22.8841 33.7318 22.9051 33.6898 22.9051 33.6688V31.9449H30.2V33.6477C30.2 33.6687 30.2 33.7108 30.221 33.7318C30.3261 34.846 31.2722 35.729 32.4284 35.729C33.5847 35.729 34.5097 34.846 34.6358 33.7318C34.6358 33.7108 34.6568 33.6687 34.6568 33.6477V31.9449H35.4767C35.5608 31.9449 35.6449 31.9028 35.708 31.8398C35.771 31.7767 35.8131 31.6926 35.8131 31.6085L35.729 26.0795ZM22.2114 33.5216C22.2114 34.3835 21.5176 35.0773 20.6557 35.0773C19.7937 35.0773 19.1 34.3835 19.1 33.5216V31.9449H22.1903L22.2114 33.5216ZM33.921 33.5216C33.921 34.3835 33.2273 35.0773 32.3653 35.0773C31.5034 35.0773 30.8097 34.3835 30.8097 33.5216V31.9449H33.9V33.5216H33.921ZM17.9017 31.2932V26.0795C17.9017 25.2807 18.4693 24.5659 19.2682 24.3767C19.4153 24.3347 19.5205 24.2085 19.5205 24.0614V19.3102C19.5205 18.5324 20.1511 17.9017 20.929 17.9017H32.092C32.8699 17.9017 33.5006 18.5324 33.5006 19.3102V24.0824C33.5006 24.1875 33.5426 24.2716 33.6267 24.3347C33.6687 24.3767 33.7318 24.3977 33.8159 24.4188C34.5307 24.65 35.0352 25.3227 35.0352 26.0795V31.2932H17.9017Z" fill="white"/>
<path d="M28.8342 28.141C27.4046 28.4353 25.7859 28.4353 24.3143 28.141C24.1251 28.099 23.9569 28.2251 23.9359 28.3933C23.8938 28.5825 24.02 28.7507 24.1882 28.7717C24.966 28.9189 25.7649 29.0029 26.5637 29.0029C27.4046 29.0029 28.2035 28.9189 28.9603 28.7717C29.1495 28.7296 29.2546 28.5615 29.2126 28.3723C29.1705 28.2251 29.0024 28.099 28.8342 28.141Z" fill="white"/>
<path d="M32.3649 28.3509C33.0615 28.3509 33.6262 27.7861 33.6262 27.0895C33.6262 26.3929 33.0615 25.8281 32.3649 25.8281C31.6682 25.8281 31.1035 26.3929 31.1035 27.0895C31.1035 27.7861 31.6682 28.3509 32.3649 28.3509Z" fill="white"/>
<path d="M20.6559 28.3509C21.3525 28.3509 21.9173 27.7861 21.9173 27.0895C21.9173 26.3929 21.3525 25.8281 20.6559 25.8281C19.9593 25.8281 19.3945 26.3929 19.3945 27.0895C19.3945 27.7861 19.9593 28.3509 20.6559 28.3509Z" fill="white"/>
<path d="M32.1559 20.9922V20.5928C32.1559 19.7309 31.4622 19.0371 30.6002 19.0371H30.2639H22.7377H22.4014C21.5395 19.0371 20.8457 19.7309 20.8457 20.5928V20.9922V24.6502H32.1349L32.1559 20.9922ZM31.5042 20.9922V23.9774H21.5184V20.9922V20.5928C21.5184 20.1093 21.9179 19.7098 22.4014 19.7098H22.7377H29.0656L25.5758 21.5598C25.4076 21.6439 25.3446 21.8542 25.4287 22.0013C25.4917 22.1064 25.5968 22.1695 25.723 22.1695C25.765 22.1695 25.8281 22.1485 25.8701 22.1274L30.1588 19.857C30.2218 19.8149 30.2849 19.7729 30.3059 19.6888H30.6002C31.0838 19.6888 31.4832 20.0882 31.4832 20.5718V20.9922H31.5042Z" fill="white"/>
<path d="M32.3657 34.2161C32.9333 34.2161 33.3958 33.7536 33.3958 33.186C33.3958 32.9968 33.2486 32.8496 33.0594 32.8496C32.8702 32.8496 32.723 32.9968 32.723 33.186C32.723 33.3752 32.5549 33.5434 32.3657 33.5434C32.1765 33.5434 32.0293 33.6905 32.0293 33.8797C32.0293 34.0689 32.1765 34.2161 32.3657 34.2161Z" fill="white"/>
<path d="M24.5033 22.1275L23.5573 22.6321C23.3891 22.7161 23.326 22.9264 23.4101 23.0735C23.4732 23.1786 23.5783 23.2417 23.7044 23.2417C23.7465 23.2417 23.8096 23.2207 23.8516 23.1997L24.7976 22.6951C24.9658 22.611 25.0289 22.4008 24.9448 22.2536C24.8607 22.1065 24.6715 22.0434 24.5033 22.1275Z" fill="white"/>
<path d="M30.1783 20.8457L26.7936 22.6326C26.6254 22.7167 26.5624 22.9269 26.6465 23.0741C26.7095 23.1792 26.8146 23.2423 26.9408 23.2423C26.9828 23.2423 27.0459 23.2212 27.0879 23.2002L30.4726 21.4343C30.6408 21.3502 30.7038 21.14 30.6198 20.9928C30.5357 20.8247 30.3254 20.7616 30.1783 20.8457Z" fill="white"/>
</g>
<defs>
<filter id="filter0_d_1116_9033" x="0" y="0" width="53" height="53" filterUnits="userSpaceOnUse" color-interpolation-filters="sRGB">
<feFlood flood-opacity="0" result="BackgroundImageFix"/>
<feColorMatrix in="SourceAlpha" type="matrix" values="0 0 0 0 0 0 0 0 0 0 0 0 0 0 0 0 0 0 127 0" result="hardAlpha"/>
<feOffset/>
<feGaussianBlur stdDeviation="4"/>
<feComposite in2="hardAlpha" operator="out"/>
<feColorMatrix type="matrix" values="0 0 0 0 0.894118 0 0 0 0 0.858824 0 0 0 0 0 0 0 0 0.8 0"/>
<feBlend mode="normal" in2="BackgroundImageFix" result="effect1_dropShadow_1116_9033"/>
<feBlend mode="normal" in="SourceGraphic" in2="effect1_dropShadow_1116_9033" result="shape"/>
</filter>
</defs>
</svg>
