<svg width="53" height="53" viewBox="0 0 53 53" fill="none" xmlns="http://www.w3.org/2000/svg">
<g filter="url(#filter0_d_1116_8992)">
<rect x="8" y="8" width="37" height="37" rx="18.5" fill="#161616"/>
<path d="M35.582 24.3896C35.582 24.3686 35.582 24.3686 35.582 24.3476V24.3266V24.3056C35.582 24.2846 35.582 24.2846 35.561 24.2846C35.561 24.2846 35.561 24.2636 35.54 24.2636C35.54 24.2426 35.519 24.2426 35.519 24.2426C35.519 24.2426 35.519 24.2426 35.519 24.2216L35.204 23.8436V17.586C35.204 17.397 35.057 17.25 34.868 17.25H31.7812C31.5922 17.25 31.4452 17.397 31.4452 17.586V19.5179L29.6183 17.376L29.5973 17.355L29.5763 17.334L29.5553 17.313L29.5343 17.292C29.5343 17.292 29.5133 17.292 29.5133 17.271C29.4923 17.271 29.4923 17.271 29.4713 17.271H29.4503C29.4293 17.271 29.4293 17.271 29.4083 17.271C29.4083 17.271 29.4083 17.271 29.3873 17.271H23.1927C23.1927 17.271 23.1927 17.271 23.1717 17.271H23.1507H23.1297H23.1087H23.0877H23.0667H23.0457H23.0247C23.0247 17.271 23.0247 17.271 23.0037 17.271C23.0037 17.271 22.9827 17.271 22.9827 17.292C22.9827 17.292 22.9617 17.292 22.9617 17.313L22.9407 17.334L17.313 24.2006C17.313 24.2006 17.313 24.2006 17.313 24.2216C17.313 24.2216 17.292 24.2426 17.292 24.2636C17.292 24.2636 17.292 24.2846 17.271 24.2846C17.271 24.3056 17.271 24.3056 17.25 24.3266V24.3476V24.3686C17.25 24.3896 17.25 24.3896 17.25 24.4106C17.25 24.4106 17.25 24.4106 17.25 24.4316V35.414C17.25 35.603 17.397 35.75 17.586 35.75H35.267C35.456 35.75 35.603 35.603 35.603 35.414L35.582 24.3896C35.582 24.4106 35.582 24.4106 35.582 24.3896ZM32.1172 20.0848V17.922H34.5111V23.0667L32.0752 20.2318C32.0962 20.1898 32.1172 20.1268 32.1172 20.0848ZM23.2137 18.09L28.6104 24.0746H18.2789L23.2137 18.09ZM29.0304 35.057H17.901V24.7466H29.0304V35.057ZM23.9486 17.922H29.2194L31.6552 20.7568H30.8783C30.6893 20.7568 30.5423 20.9038 30.5423 21.0928C30.5423 21.2818 30.6893 21.4288 30.8783 21.4288H32.2012H32.2222L33.0411 22.3947H31.0672C30.8783 22.3947 30.7313 22.5417 30.7313 22.7307C30.7313 22.9197 30.8783 23.0667 31.0672 23.0667H33.6081L34.5321 24.1376H29.5133L23.9486 17.922ZM34.931 29.3663H31.7812C31.5922 29.3663 31.4452 29.5133 31.4452 29.7023C31.4452 29.8913 31.5922 30.0383 31.7812 30.0383H34.91V31.2142H33.2511C33.0621 31.2142 32.9151 31.3612 32.9151 31.5502C32.9151 31.7392 33.0621 31.8862 33.2511 31.8862H34.91V33.1041H31.2772C31.0882 33.1041 30.9413 33.2511 30.9413 33.4401C30.9413 33.6291 31.0882 33.7761 31.2772 33.7761H34.931V35.078H29.7023V24.7466H34.931V29.3663Z" fill="white"/>
<path d="M22.5212 26.1758H20.6523V28.0447H22.5212V26.1758Z" fill="white"/>
<path d="M25.0818 26.1758H23.2129V28.0447H25.0818V26.1758Z" fill="white"/>
<path d="M22.5212 28.7148H20.6523V30.5837H22.5212V28.7148Z" fill="white"/>
<path d="M25.0818 28.7148H23.2129V30.5837H25.0818V28.7148Z" fill="white"/>
<path d="M25.67 33.7767H27.4969C27.6859 33.7767 27.8328 33.6297 27.8328 33.4407V31.5508C27.8328 31.3618 27.6859 31.2148 27.4969 31.2148C27.3079 31.2148 27.1609 31.3618 27.1609 31.5508V33.1047H25.67C25.481 33.1047 25.334 33.2517 25.334 33.4407C25.334 33.6297 25.481 33.7767 25.67 33.7767Z" fill="white"/>
<path d="M24.1373 33.1055H23.8223C23.6333 33.1055 23.4863 33.2525 23.4863 33.4415C23.4863 33.6304 23.6333 33.7774 23.8223 33.7774H24.1373C24.3263 33.7774 24.4733 33.6304 24.4733 33.4415C24.4733 33.2525 24.3263 33.1055 24.1373 33.1055Z" fill="white"/>
</g>
<defs>
<filter id="filter0_d_1116_8992" x="0" y="0" width="53" height="53" filterUnits="userSpaceOnUse" color-interpolation-filters="sRGB">
<feFlood flood-opacity="0" result="BackgroundImageFix"/>
<feColorMatrix in="SourceAlpha" type="matrix" values="0 0 0 0 0 0 0 0 0 0 0 0 0 0 0 0 0 0 127 0" result="hardAlpha"/>
<feOffset/>
<feGaussianBlur stdDeviation="4"/>
<feComposite in2="hardAlpha" operator="out"/>
<feColorMatrix type="matrix" values="0 0 0 0 0.894118 0 0 0 0 0.858824 0 0 0 0 0 0 0 0 0.8 0"/>
<feBlend mode="normal" in2="BackgroundImageFix" result="effect1_dropShadow_1116_8992"/>
<feBlend mode="normal" in="SourceGraphic" in2="effect1_dropShadow_1116_8992" result="shape"/>
</filter>
</defs>
</svg>
