<svg width="53" height="53" viewBox="0 0 53 53" fill="none" xmlns="http://www.w3.org/2000/svg">
<g filter="url(#filter0_d_1116_9024)">
<rect x="8" y="8" width="37" height="37" rx="18.5" fill="#161616"/>
<path d="M24.675 28.3542H24.2536V25.615C24.2536 25.4254 24.1061 25.2779 23.9164 25.2779H23.3054V19.5888C23.3054 19.5256 23.2843 19.4624 23.2633 19.4203L22.0201 17.3975C21.9569 17.2921 21.8515 17.25 21.7462 17.25H20.1027C19.9973 17.25 19.892 17.3132 19.8287 17.3975L18.5434 19.4203C18.5013 19.4835 18.5013 19.5256 18.5013 19.5888V25.2779H17.9535C17.7638 25.2779 17.6163 25.4254 17.6163 25.615V28.3753H16.8156C16.626 28.3753 16.4785 28.5228 16.4785 28.7124V35.4129C16.4785 35.6025 16.626 35.75 16.8156 35.75H24.6539C24.8435 35.75 24.991 35.6025 24.991 35.4129V28.6913C24.991 28.5017 24.8436 28.3542 24.675 28.3542ZM19.1756 19.6731L20.3134 17.9032H21.5987L22.6943 19.6731V20.7267H21.704C21.5144 20.7267 21.3669 20.8741 21.3669 21.0638C21.3669 21.2534 21.5144 21.4009 21.704 21.4009H22.6943V22.3702H22.0412C21.8515 22.3702 21.704 22.5177 21.704 22.7073C21.704 22.8969 21.8515 23.0444 22.0412 23.0444H22.6943V25.3411H19.1966V19.6731H19.1756ZM18.2906 25.9311H18.8384H22.9893H23.6004V26.8161H20.3134C20.1237 26.8161 19.9762 26.9636 19.9762 27.1532C19.9762 27.3428 20.1237 27.4903 20.3134 27.4903H23.6004V28.3753H18.2906V25.9311ZM24.3379 35.0547H17.1528V29.0285H17.9535H23.9164H24.3168L24.3379 35.0547Z" fill="white"/>
<path d="M36.2007 27.7226H34.7258V21.591C34.7258 21.4014 34.5783 21.2539 34.3887 21.2539H29.7742C29.5846 21.2539 29.4371 21.4014 29.4371 21.591V27.7226H27.9621C27.7725 27.7226 27.625 27.8701 27.625 28.0597V35.3923C27.625 35.5819 27.7725 35.7294 27.9621 35.7294H36.2007C36.3904 35.7294 36.5379 35.5819 36.5379 35.3923V28.0597C36.5168 27.8701 36.3904 27.7226 36.2007 27.7226ZM30.0692 21.9282H34.0515V24.7095H32.5134C32.3237 24.7095 32.1763 24.857 32.1763 25.0466C32.1763 25.2363 32.3237 25.3837 32.5134 25.3837H34.0515V26.2476H31.1649C30.9752 26.2476 30.8277 26.3951 30.8277 26.5848C30.8277 26.7744 30.9752 26.9219 31.1649 26.9219H34.0726V27.7647H30.0903L30.0692 21.9282ZM35.8847 35.0552H28.2993V28.3968H29.7742H34.4308H35.9058L35.8847 35.0552Z" fill="white"/>
<path d="M29.416 34.1057H34.768V29.3438H29.416V34.1057ZM30.0481 29.9759H34.0726V33.4314H30.0481V29.9759Z" fill="white"/>
<path d="M23.1376 29.9551C22.948 29.9551 22.8005 30.1026 22.8005 30.2922V33.5792H21.8313C21.6416 33.5792 21.4941 33.7267 21.4941 33.9164C21.4941 34.106 21.6416 34.2535 21.8313 34.2535H23.1376C23.3273 34.2535 23.4748 34.106 23.4748 33.9164V30.2711C23.4537 30.1026 23.3062 29.9551 23.1376 29.9551Z" fill="white"/>
<path d="M19.3854 33.5801H18.1633C17.9737 33.5801 17.8262 33.7276 17.8262 33.9172C17.8262 34.1068 17.9737 34.2543 18.1633 34.2543H19.3643C19.554 34.2543 19.7015 34.1068 19.7015 33.9172C19.7015 33.7276 19.554 33.5801 19.3854 33.5801Z" fill="white"/>
</g>
<defs>
<filter id="filter0_d_1116_9024" x="0" y="0" width="53" height="53" filterUnits="userSpaceOnUse" color-interpolation-filters="sRGB">
<feFlood flood-opacity="0" result="BackgroundImageFix"/>
<feColorMatrix in="SourceAlpha" type="matrix" values="0 0 0 0 0 0 0 0 0 0 0 0 0 0 0 0 0 0 127 0" result="hardAlpha"/>
<feOffset/>
<feGaussianBlur stdDeviation="4"/>
<feComposite in2="hardAlpha" operator="out"/>
<feColorMatrix type="matrix" values="0 0 0 0 0.894118 0 0 0 0 0.858824 0 0 0 0 0 0 0 0 0.8 0"/>
<feBlend mode="normal" in2="BackgroundImageFix" result="effect1_dropShadow_1116_9024"/>
<feBlend mode="normal" in="SourceGraphic" in2="effect1_dropShadow_1116_9024" result="shape"/>
</filter>
</defs>
</svg>
