<svg width="53" height="53" viewBox="0 0 53 53" fill="none" xmlns="http://www.w3.org/2000/svg">
<g filter="url(#filter0_d_1116_8980)">
<rect x="8" y="8" width="37" height="37" rx="18.5" fill="#161616"/>
<path d="M25.1956 19.9615C25.5323 19.9615 25.8053 19.6886 25.8053 19.3518C25.8053 19.0151 25.5323 18.7422 25.1956 18.7422C24.8589 18.7422 24.5859 19.0151 24.5859 19.3518C24.5859 19.6886 24.8589 19.9615 25.1956 19.9615Z" fill="white"/>
<path d="M27.4456 19.9615C27.7823 19.9615 28.0553 19.6886 28.0553 19.3518C28.0553 19.0151 27.7823 18.7422 27.4456 18.7422C27.1089 18.7422 26.8359 19.0151 26.8359 19.3518C26.8359 19.6886 27.1089 19.9615 27.4456 19.9615Z" fill="white"/>
<path d="M33.942 29.2119V26.6472C33.942 26.6051 33.942 26.5841 33.921 26.5631C33.7739 25.1756 32.6597 24.0614 31.2511 23.9562V23.1784C31.2511 22.9892 31.104 22.842 30.9148 22.842H27.5511V21.7489H29.0227C29.2119 21.7489 29.3591 21.6017 29.3591 21.4125V19.8358H30.8938C31.083 19.8358 31.2301 19.6886 31.2301 19.4994C31.2301 19.3102 31.083 19.1631 30.8938 19.1631H29.3591V17.5864C29.3591 17.3972 29.2119 17.25 29.0227 17.25H23.5568C23.3676 17.25 23.2205 17.3972 23.2205 17.5864V19.1631H21.6858C21.4966 19.1631 21.3494 19.3102 21.3494 19.4994C21.3494 19.6886 21.4966 19.8358 21.6858 19.8358H23.2205V21.4125C23.2205 21.6017 23.3676 21.7489 23.5568 21.7489H25.0284V22.842H21.6648C21.4756 22.842 21.3284 22.9892 21.3284 23.1784V23.9562C19.9409 24.0824 18.8477 25.1966 18.7006 26.5631C18.7006 26.5841 18.6795 26.6261 18.6795 26.6472V29.233C17.8597 29.3801 17.25 30.1159 17.25 30.9568C17.25 31.146 17.3972 31.2932 17.5864 31.2932C17.7756 31.2932 17.9227 31.146 17.9227 30.9568C17.9227 30.3472 18.4273 29.8636 19.0159 29.8636C19.6256 29.8636 20.1091 30.3682 20.1091 30.9568C20.1091 31.146 20.2563 31.2932 20.4455 31.2932C20.6347 31.2932 20.7818 31.146 20.7818 30.9568C20.7818 30.0949 20.1722 29.3801 19.3523 29.233V26.8364C19.3523 25.6801 20.2142 24.7341 21.3284 24.5869V30.1159C21.3284 30.3051 21.4756 30.4523 21.6648 30.4523H22.6108V31.8187H22.0222C21.833 31.8187 21.6858 31.9659 21.6858 32.1551V35.0773H20.5085C20.3193 35.0773 20.1722 35.2244 20.1722 35.4136C20.1722 35.6028 20.3193 35.75 20.5085 35.75H22.0222H25.533H27.1307H30.6415H32.1551C32.3443 35.75 32.4915 35.6028 32.4915 35.4136C32.4915 35.2244 32.3443 35.0773 32.1551 35.0773H30.9568V32.1761C30.9568 31.9869 30.8097 31.8398 30.6205 31.8398H30.0318V30.4733H30.9148C31.104 30.4733 31.2511 30.3261 31.2511 30.1369V24.608C32.3864 24.7341 33.2693 25.7011 33.2693 26.8574V29.233C32.4494 29.3801 31.8398 30.1159 31.8398 30.9568C31.8398 31.146 31.9869 31.2932 32.1761 31.2932C32.3653 31.2932 32.5125 31.146 32.5125 30.9568C32.5125 30.3472 33.017 29.8636 33.6057 29.8636C34.2153 29.8636 34.6989 30.3682 34.6989 30.9568C34.6989 31.146 34.846 31.2932 35.0352 31.2932C35.2244 31.2932 35.3716 31.146 35.3716 30.9568C35.3716 30.0949 34.7619 29.3801 33.942 29.2119ZM23.9142 21.0761V19.5415C23.9142 19.5205 23.9142 19.5205 23.9142 19.4994C23.9142 19.4784 23.9142 19.4784 23.9142 19.4574V17.9227H28.7284V21.0761H27.2568H25.4068H23.9142ZM26.9205 21.7278V22.821H25.7222V21.7278H26.9205ZM25.1966 35.0773H22.3585V32.4915H22.9472H24.629H25.2176L25.1966 35.0773ZM23.2625 31.8398V30.4733H24.2926V31.8398H23.2625ZM26.7943 32.1761V35.0983H25.8693V32.1761C25.8693 31.9869 25.7222 31.8398 25.533 31.8398H24.9443V30.4733H27.6983V31.8398H27.1097C26.9415 31.8398 26.7943 31.9869 26.7943 32.1761ZM30.2841 32.4915V33.4585H28.8545C28.6653 33.4585 28.5182 33.6057 28.5182 33.7949C28.5182 33.9841 28.6653 34.1312 28.8545 34.1312H30.2841V35.0983H27.446V32.4915H28.0347H29.7165H30.2841ZM28.35 31.8398V30.4733H29.3801V31.8398H28.35ZM30.5994 29.8006H29.7165H28.0347H24.608H22.9261H22.0432V23.4938H25.4068H27.2568H30.6205V29.8006H30.5994Z" fill="white"/>
<path d="M23.8715 25.1973C23.6823 25.1973 23.5352 25.3444 23.5352 25.5336V27.4887C23.5352 27.678 23.6823 27.8251 23.8715 27.8251C24.0607 27.8251 24.2079 27.678 24.2079 27.4887V25.5336C24.2079 25.3444 24.0397 25.1973 23.8715 25.1973Z" fill="white"/>
<path d="M25.5121 25.1973C25.3229 25.1973 25.1758 25.3444 25.1758 25.5336V27.4887C25.1758 27.678 25.3229 27.8251 25.5121 27.8251C25.7013 27.8251 25.8485 27.678 25.8485 27.4887V25.5336C25.8275 25.3444 25.6803 25.1973 25.5121 25.1973Z" fill="white"/>
<path d="M26.8145 25.5121V27.4673C26.8145 27.6565 26.9616 27.8036 27.1508 27.8036C27.34 27.8036 27.4872 27.6565 27.4872 27.4673V25.5121C27.4872 25.3229 27.34 25.1758 27.1508 25.1758C26.9616 25.1968 26.8145 25.344 26.8145 25.5121Z" fill="white"/>
<path d="M28.77 27.8036C28.9592 27.8036 29.1063 27.6565 29.1063 27.4673V25.5121C29.1063 25.3229 28.9592 25.1758 28.77 25.1758C28.5808 25.1758 28.4336 25.3229 28.4336 25.5121V27.4673C28.4546 27.6565 28.6018 27.8036 28.77 27.8036Z" fill="white"/>
</g>
<defs>
<filter id="filter0_d_1116_8980" x="0" y="0" width="53" height="53" filterUnits="userSpaceOnUse" color-interpolation-filters="sRGB">
<feFlood flood-opacity="0" result="BackgroundImageFix"/>
<feColorMatrix in="SourceAlpha" type="matrix" values="0 0 0 0 0 0 0 0 0 0 0 0 0 0 0 0 0 0 127 0" result="hardAlpha"/>
<feOffset/>
<feGaussianBlur stdDeviation="4"/>
<feComposite in2="hardAlpha" operator="out"/>
<feColorMatrix type="matrix" values="0 0 0 0 0.894118 0 0 0 0 0.858824 0 0 0 0 0 0 0 0 0.8 0"/>
<feBlend mode="normal" in2="BackgroundImageFix" result="effect1_dropShadow_1116_8980"/>
<feBlend mode="normal" in="SourceGraphic" in2="effect1_dropShadow_1116_8980" result="shape"/>
</filter>
</defs>
</svg>
