<svg width="53" height="53" viewBox="0 0 53 53" fill="none" xmlns="http://www.w3.org/2000/svg">
<g filter="url(#filter0_d_1116_9095)">
<rect x="8" y="8" width="37" height="37" rx="18.5" fill="#161616"/>
<path d="M35.9355 29.2629L34.0857 32.4708C34.0321 32.567 33.9452 32.6403 33.8413 32.6768C33.7374 32.7134 33.6237 32.7107 33.5217 32.6693L31.2162 31.7398C30.7374 32.1073 30.2126 32.4107 29.6552 32.6422L29.3078 35.0921C29.2924 35.2005 29.2382 35.2996 29.1552 35.371C29.0722 35.4424 28.9661 35.4812 28.8566 35.4801H25.157C25.0475 35.4812 24.9413 35.4424 24.8583 35.371C24.7753 35.2996 24.7211 35.2005 24.7058 35.0921L24.3584 32.6422C23.8017 32.4092 23.2771 32.106 22.7973 31.7398L20.4783 32.6693C20.3763 32.7107 20.2626 32.7134 20.1587 32.6768C20.0548 32.6403 19.9679 32.567 19.9143 32.4708L18.0645 29.2629C18.0073 29.1678 17.9872 29.0549 18.008 28.9458C18.0288 28.8368 18.0891 28.7393 18.1773 28.6719L20.1264 27.1424C20.0871 26.8432 20.066 26.5418 20.0632 26.24C20.0661 25.9383 20.0872 25.6369 20.1264 25.3377L18.1773 23.8082C18.0891 23.7408 18.0288 23.6433 18.008 23.5343C17.9872 23.4252 18.0073 23.3123 18.0645 23.2172L19.9143 20.0093C19.9679 19.9131 20.0548 19.8398 20.1587 19.8033C20.2626 19.7667 20.3763 19.7694 20.4783 19.8108L22.7838 20.7402C23.2626 20.3728 23.7874 20.0694 24.3448 19.8379L24.6922 17.388C24.7076 17.2796 24.7618 17.1805 24.8448 17.1091C24.9278 17.0377 25.0339 16.9989 25.1434 17H28.843C28.9513 17.0034 29.0551 17.0437 29.1372 17.1143C29.2192 17.1849 29.2747 17.2815 29.2942 17.388L29.6416 19.8379C30.1983 20.0709 30.7229 20.3741 31.2027 20.7402L33.5082 19.8108C33.6102 19.7694 33.7239 19.7667 33.8278 19.8033C33.9316 19.8398 34.0186 19.9131 34.0721 20.0093L35.9219 23.2172C35.9792 23.3123 35.9993 23.4252 35.9785 23.5343C35.9577 23.6433 35.8974 23.7408 35.8092 23.8082L33.8736 25.3377C33.9129 25.6369 33.934 25.9383 33.9368 26.24C33.934 26.5418 33.9129 26.8432 33.8736 27.1424L35.8227 28.6719C35.9109 28.7393 35.9712 28.8368 35.992 28.9458C36.0128 29.0549 35.9927 29.1678 35.9355 29.2629ZM27.6655 23.921C27.599 23.8037 27.5025 23.7062 27.386 23.6383C27.2695 23.5705 27.1371 23.5347 27.0023 23.5347C26.8674 23.5347 26.735 23.5705 26.6185 23.6383C26.502 23.7062 26.4056 23.8037 26.339 23.921L24.1328 27.8101C24.0674 27.9261 24.0335 28.0571 24.0345 28.1902C24.0355 28.3233 24.0713 28.4538 24.1384 28.5688C24.2054 28.6838 24.3014 28.7792 24.4168 28.8455C24.5322 28.9119 24.6629 28.9469 24.796 28.9471H29.2085C29.3416 28.9469 29.4723 28.9119 29.5877 28.8455C29.7031 28.7792 29.7991 28.6838 29.8661 28.5688C29.9332 28.4538 29.969 28.3233 29.97 28.1902C29.971 28.0571 29.9371 27.9261 29.8717 27.8101L27.6655 23.921ZM26.0999 27.4221L27.0023 25.8385L27.9046 27.4221H26.0999Z" stroke="white" stroke-width="0.8" stroke-linecap="round" stroke-linejoin="round"/>
</g>
<defs>
<filter id="filter0_d_1116_9095" x="0" y="0" width="53" height="53" filterUnits="userSpaceOnUse" color-interpolation-filters="sRGB">
<feFlood flood-opacity="0" result="BackgroundImageFix"/>
<feColorMatrix in="SourceAlpha" type="matrix" values="0 0 0 0 0 0 0 0 0 0 0 0 0 0 0 0 0 0 127 0" result="hardAlpha"/>
<feOffset/>
<feGaussianBlur stdDeviation="4"/>
<feComposite in2="hardAlpha" operator="out"/>
<feColorMatrix type="matrix" values="0 0 0 0 0.894118 0 0 0 0 0.858824 0 0 0 0 0 0 0 0 0.8 0"/>
<feBlend mode="normal" in2="BackgroundImageFix" result="effect1_dropShadow_1116_9095"/>
<feBlend mode="normal" in="SourceGraphic" in2="effect1_dropShadow_1116_9095" result="shape"/>
</filter>
</defs>
</svg>
