<svg width="52" height="52" viewBox="0 0 52 52" fill="none" xmlns="http://www.w3.org/2000/svg">
<g filter="url(#filter0_d_1116_8962)">
<rect x="8" y="8" width="36" height="36" rx="18" fill="#161616"/>
<path d="M28.8958 17.0134C28.814 16.993 28.7117 16.993 28.6298 17.0339C28.548 17.0748 28.4866 17.1567 28.4661 17.2385C28.1387 18.4663 27.0338 19.3257 25.7651 19.3257C24.4964 19.3257 23.3914 18.4663 23.064 17.2385C23.0436 17.1567 22.9822 17.0748 22.9003 17.0339C22.8185 16.993 22.7366 16.993 22.6343 17.0134C18.8283 18.3435 16.25 21.9449 16.25 25.976C16.25 26.7127 16.3319 27.4698 16.516 28.2064C16.5569 28.3497 16.6797 28.452 16.823 28.452H20.3425V34.6726C20.3425 34.8568 20.4857 35 20.6699 35H30.9421C31.1263 35 31.2695 34.8568 31.2695 34.6726V28.452H34.6867C34.83 28.452 34.9732 28.3497 34.9937 28.2064C35.1778 27.4698 35.2597 26.7331 35.2597 25.976C35.2802 21.9449 32.7019 18.3435 28.8958 17.0134ZM34.4412 27.8177H31.2695V26.3239H33.1521C33.3362 26.3239 33.4795 26.1807 33.4795 25.9965C33.4795 25.8123 33.3362 25.6691 33.1521 25.6691H31.2695V24.7483H32.7019C32.886 24.7483 33.0293 24.605 33.0293 24.4209C33.0293 24.2367 32.886 24.0935 32.7019 24.0935H31.2286C31.1876 24.0935 31.1541 24.0935 31.0923 24.0935C30.898 24.0963 31.0035 24.0935 30.9421 24.0935C30.7579 24.0935 30.6147 24.2367 30.6147 24.4209V34.3452H20.9973V24.4209C20.9973 24.2367 20.8541 24.0935 20.6699 24.0935C20.4857 24.0935 20.3425 24.2367 20.3425 24.4209V27.8177H17.0685C16.9457 27.2242 16.8843 26.6104 16.8843 25.9965C16.8843 22.3337 19.1352 19.0597 22.5115 17.7501C23.0231 19.0802 24.2918 19.9805 25.7242 19.9805C27.1565 19.9805 28.4866 19.0597 28.9982 17.7296C32.3745 19.0597 34.6254 22.3337 34.6254 25.976C34.6254 26.5899 34.564 27.2038 34.4412 27.8177Z" fill="#FFFFFC"/>
<path d="M29.2239 26.8164C29.0397 26.8164 28.8965 26.9596 28.8965 27.1438V27.8805C28.8965 28.0646 29.0397 28.2079 29.2239 28.2079C29.408 28.2079 29.5513 28.0646 29.5513 27.8805V27.1438C29.5513 26.9596 29.408 26.8164 29.2239 26.8164Z" fill="#FFFFFC"/>
<path d="M29.2227 29.6387C29.0385 29.6387 28.8953 29.7819 28.8953 29.9661V32.6671H27.7903C27.6061 32.6671 27.4629 32.8104 27.4629 32.9945C27.4629 33.1787 27.6061 33.3219 27.7903 33.3219H29.2022C29.3864 33.3219 29.5296 33.1787 29.5296 32.9945V29.9661C29.5501 29.7819 29.4068 29.6387 29.2227 29.6387Z" fill="#FFFFFC"/>
</g>
<defs>
<filter id="filter0_d_1116_8962" x="0" y="0" width="52" height="52" filterUnits="userSpaceOnUse" color-interpolation-filters="sRGB">
<feFlood flood-opacity="0" result="BackgroundImageFix"/>
<feColorMatrix in="SourceAlpha" type="matrix" values="0 0 0 0 0 0 0 0 0 0 0 0 0 0 0 0 0 0 127 0" result="hardAlpha"/>
<feOffset/>
<feGaussianBlur stdDeviation="4"/>
<feComposite in2="hardAlpha" operator="out"/>
<feColorMatrix type="matrix" values="0 0 0 0 0.894118 0 0 0 0 0.858824 0 0 0 0 0 0 0 0 0.8 0"/>
<feBlend mode="normal" in2="BackgroundImageFix" result="effect1_dropShadow_1116_8962"/>
<feBlend mode="normal" in="SourceGraphic" in2="effect1_dropShadow_1116_8962" result="shape"/>
</filter>
</defs>
</svg>
