<svg width="53" height="53" viewBox="0 0 53 53" fill="none" xmlns="http://www.w3.org/2000/svg">
<g filter="url(#filter0_d_1116_9090)">
<rect x="8" y="8" width="37" height="37" rx="18.5" fill="#161616" shape-rendering="crispEdges"/>
<path d="M35.5545 20.8257C35.5327 20.7718 35.4981 20.7239 35.4537 20.6862C35.4093 20.6486 35.3564 20.6222 35.2996 20.6095C35.2428 20.5968 35.1837 20.598 35.1275 20.6131C35.0713 20.6282 35.0195 20.6567 34.9767 20.6961L31.2132 24.1699L29.2504 23.7506L28.8292 21.7896L32.303 18.026C32.3427 17.9832 32.3713 17.9314 32.3865 17.8751C32.4017 17.8187 32.403 17.7596 32.3903 17.7026C32.3775 17.6457 32.3511 17.5927 32.3133 17.5482C32.2756 17.5037 32.2275 17.4691 32.1734 17.4473C31.0243 16.982 29.7609 16.8768 28.5506 17.1454C27.3403 17.4141 26.2401 18.044 25.3957 18.9518C24.5514 19.8595 24.0026 21.0024 23.8222 22.2289C23.6418 23.4555 23.8381 24.708 24.3853 25.8205L18.757 30.6802L18.7381 30.6982C18.2655 31.1708 18 31.8117 18 32.4801C18 33.1484 18.2655 33.7894 18.7381 34.262C19.2107 34.7346 19.8516 35.0001 20.52 35.0001C21.1883 35.0001 21.8293 34.7346 22.3019 34.262L22.3199 34.2431L27.1796 28.6148C28.1128 29.0737 29.1476 29.2873 30.1862 29.2353C31.2249 29.1834 32.2332 28.8675 33.1159 28.3177C33.9986 27.7679 34.7266 27.0021 35.2313 26.0928C35.7359 25.1835 36.0005 24.1606 36 23.1206C36.0015 22.334 35.8502 21.5546 35.5545 20.8257ZM29.8803 28.5203C28.9676 28.5204 28.0696 28.2891 27.2705 27.848C27.1978 27.8072 27.1132 27.7929 27.0312 27.8075C26.9491 27.8221 26.8747 27.8647 26.8205 27.9281L21.7808 33.7625C21.4384 34.0727 20.9899 34.2394 20.528 34.228C20.0661 34.2167 19.6263 34.0281 19.2995 33.7014C18.9728 33.3747 18.7843 32.9349 18.7729 32.473C18.7615 32.0111 18.9282 31.5625 19.2385 31.2201L25.0719 26.1804C25.1353 26.1263 25.1779 26.0518 25.1925 25.9698C25.2071 25.8877 25.1928 25.8031 25.152 25.7305C24.6338 24.7934 24.406 23.7234 24.4974 22.6565C24.5888 21.5896 24.9954 20.574 25.6654 19.7387C26.3354 18.9035 27.2387 18.2863 28.2603 17.9656C29.282 17.6449 30.3759 17.6353 31.4031 17.9378L28.1749 21.4368C28.1354 21.4789 28.1066 21.53 28.0909 21.5856C28.0753 21.6412 28.0732 21.6997 28.0849 21.7563L28.5943 24.1277C28.6089 24.1954 28.6427 24.2575 28.6917 24.3065C28.7407 24.3555 28.8028 24.3894 28.8706 24.4039L31.242 24.9133C31.2985 24.925 31.3571 24.923 31.4127 24.9073C31.4683 24.8917 31.5193 24.8628 31.5614 24.8233L35.0595 21.5952C35.2957 22.4004 35.3411 23.2495 35.1922 24.0753C35.0432 24.9011 34.7041 25.6808 34.2015 26.3528C33.699 27.0247 33.0468 27.5704 32.2968 27.9467C31.5468 28.3229 30.7194 28.5193 29.8803 28.5203Z" fill="white"/>
</g>
<defs>
<filter id="filter0_d_1116_9090" x="0" y="0" width="53" height="53" filterUnits="userSpaceOnUse" color-interpolation-filters="sRGB">
<feFlood flood-opacity="0" result="BackgroundImageFix"/>
<feColorMatrix in="SourceAlpha" type="matrix" values="0 0 0 0 0 0 0 0 0 0 0 0 0 0 0 0 0 0 127 0" result="hardAlpha"/>
<feOffset/>
<feGaussianBlur stdDeviation="4"/>
<feComposite in2="hardAlpha" operator="out"/>
<feColorMatrix type="matrix" values="0 0 0 0 0.894118 0 0 0 0 0.858824 0 0 0 0 0 0 0 0 0.8 0"/>
<feBlend mode="normal" in2="BackgroundImageFix" result="effect1_dropShadow_1116_9090"/>
<feBlend mode="normal" in="SourceGraphic" in2="effect1_dropShadow_1116_9090" result="shape"/>
</filter>
</defs>
</svg>
