<svg width="33" height="24" viewBox="0 0 33 24" fill="none" xmlns="http://www.w3.org/2000/svg">
<path d="M10.5916 13.8003C11.1416 13.8003 11.5874 13.3545 11.5874 12.8045C11.5874 12.2545 11.1416 11.8086 10.5916 11.8086C10.0416 11.8086 9.5957 12.2545 9.5957 12.8045C9.5957 13.3545 10.0416 13.8003 10.5916 13.8003Z" fill="#2B292C"/>
<path d="M22.0955 13.8003C22.6455 13.8003 23.0914 13.3545 23.0914 12.8045C23.0914 12.2545 22.6455 11.8086 22.0955 11.8086C21.5455 11.8086 21.0996 12.2545 21.0996 12.8045C21.0996 13.3545 21.5455 13.8003 22.0955 13.8003Z" fill="#2B292C"/>
<path d="M19.2464 16.2727C19.0061 16.1697 18.7313 16.307 18.6627 16.5474C18.5253 16.8908 18.1475 17.1312 17.7698 17.1312C17.3921 17.1312 17.0143 16.8908 16.9113 16.5474C16.9113 16.5131 16.9456 16.4444 16.9456 16.4444C16.9456 16.307 16.8426 16.1353 16.7396 16.0666C17.3577 15.9293 17.8385 15.3455 17.8385 15.1738C17.8385 14.9334 17.186 14.7617 16.3618 14.7617C15.572 14.7617 14.8852 14.9334 14.8852 15.1738C14.8852 15.3455 15.366 15.9293 15.9841 16.0666C15.8811 16.1697 15.7781 16.307 15.7781 16.4444C15.7781 16.5131 15.7781 16.5474 15.8124 16.5474C15.675 16.8908 15.3316 17.1312 14.9539 17.1312C14.5761 17.1312 14.1984 16.8908 14.061 16.5474C13.958 16.307 13.7176 16.204 13.4773 16.2727C13.2369 16.3414 13.1338 16.6161 13.2025 16.8565C13.4773 17.5776 14.1984 18.0927 14.9539 18.0927C15.5377 18.0927 16.0184 17.8523 16.3962 17.4403C16.7396 17.818 17.2547 18.0927 17.8385 18.0927C18.6283 18.0927 19.3495 17.612 19.5898 16.8565C19.6242 16.6504 19.4868 16.3414 19.2464 16.2727Z" fill="#2B292C"/>
<path d="M32.3296 18.0248L28.0027 16.8572C28.3461 16.033 28.5178 15.1402 28.5521 14.1786L32.3296 13.1484C32.5699 13.0798 32.7073 12.805 32.673 12.5647C32.6043 12.3243 32.3296 12.1869 32.0892 12.2212L28.5178 13.2171C28.4834 12.7707 28.4148 12.3586 28.2774 11.9465C28.3117 11.8778 28.3461 11.8092 28.3461 11.7061L27.7623 0.957596C27.728 0.614192 27.5219 0.305133 27.1785 0.167771C26.8351 0.0304095 26.4917 0.0304095 26.217 0.167771L16.3269 4.80372L6.50559 0.133429C6.19653 -0.0382734 5.81879 -0.0382755 5.50972 0.0990861C5.16632 0.236448 4.96028 0.57986 4.92594 0.923264L4.34215 11.6375C4.34215 11.7405 4.37649 11.8092 4.41083 11.9122C4.30781 12.2899 4.23913 12.702 4.17045 13.1828L0.599046 12.1869C0.358663 12.1182 0.0839414 12.2899 0.0152607 12.5303C-0.0534201 12.7707 0.118282 13.0454 0.358665 13.1141L4.13611 14.1786C4.17045 15.1402 4.34215 16.033 4.68556 16.8572L0.358665 18.0248C0.118282 18.0935 -0.0190797 18.3682 0.0152607 18.6086C0.0839414 18.8146 0.255644 18.952 0.461687 18.952C0.496027 18.952 0.564709 18.952 0.564709 18.9176L5.0633 17.6814C7.0207 21.5275 11.8627 24 16.2926 24C20.7569 24 25.5645 21.5275 27.5219 17.6814L32.0205 18.9176C32.0548 18.9176 32.1235 18.952 32.1235 18.952C32.3296 18.952 32.5013 18.8146 32.57 18.6086C32.7073 18.3338 32.5699 18.0935 32.3296 18.0248ZM26.6291 0.923264C26.6634 0.888924 26.6977 0.888924 26.7321 0.923264C26.7664 0.923264 26.8008 0.957598 26.8008 0.991938L27.2815 9.81742C26.7664 9.06193 26.1483 8.40946 25.3928 7.86002V7.82567L25.2898 4.56334C25.2898 4.28861 25.0837 4.11692 24.809 4.11692C24.5343 4.11692 24.3283 4.32296 24.3626 4.59768L24.4313 7.17321C22.5426 6.03998 20.2074 5.35317 17.8036 5.14713L26.6291 0.923264ZM5.88747 0.991938C5.88747 0.957598 5.92181 0.923264 5.95615 0.923264C5.99049 0.923264 6.02483 0.888915 6.05917 0.957596L14.8847 5.14713C11.0042 5.49053 7.26108 7.07019 5.4067 9.85177L5.88747 0.991938ZM16.3269 23.1071C12.2748 23.1071 7.87921 20.9094 5.99049 17.4753L6.57428 17.338C6.81466 17.2693 6.95202 16.9946 6.91768 16.7542C6.88334 16.5138 6.57427 16.3764 6.33389 16.4108L5.5784 16.6168C5.33802 15.8957 5.16632 15.1745 5.09764 14.419L6.33389 14.7624C6.36823 14.7624 6.43691 14.7968 6.43691 14.7968C6.64295 14.7968 6.81466 14.6594 6.88334 14.4534C6.95202 14.213 6.78032 13.9383 6.53993 13.8696L5.0633 13.4918C5.4067 8.6155 10.9012 6.03998 16.2583 6.03998C21.6497 6.03998 27.1098 8.58116 27.4532 13.4918L25.9766 13.8696C25.7362 13.9383 25.5989 14.213 25.6332 14.4534C25.7019 14.6594 25.8736 14.7968 26.0796 14.7968C26.114 14.7968 26.1826 14.7968 26.1826 14.7624L27.4189 14.419C27.3502 15.2089 27.2128 15.93 26.9381 16.6168L26.1826 16.4108C25.9423 16.3421 25.6675 16.5138 25.5989 16.7542C25.5302 16.9946 25.7019 17.2693 25.9423 17.338L26.526 17.4753C24.809 20.9094 20.3791 23.1071 16.3269 23.1071Z" fill="#2B292C"/>
</svg>
