<svg width="25" height="24" viewBox="0 0 25 24" fill="none" xmlns="http://www.w3.org/2000/svg">
<path d="M23.6731 12.9126H23.21V10.6243C23.21 10.3791 23.0193 10.1884 22.7741 10.1884H21.2758V0.43587C21.2758 0.190694 21.0851 0 20.84 0H3.26901C3.02384 0 2.83314 0.190694 2.83314 0.43587V10.2157H1.33485C1.08967 10.2157 0.898979 10.4064 0.898979 10.6515V12.9398H0.43587C0.190694 12.9398 0 13.1305 0 13.3757V19.0965V20.5948V23.5641C0 23.8093 0.190694 24 0.43587 24C0.681046 24 0.871736 23.8093 0.871736 23.5641V20.9762H23.2372V23.5369C23.2372 23.7821 23.4279 23.9728 23.6731 23.9728C23.9183 23.9728 24.109 23.7821 24.109 23.5369V20.5675V19.0692V13.3485C24.109 13.1033 23.9183 12.9126 23.6731 12.9126ZM7.6277 8.88082V6.23836C7.6277 5.66629 8.09081 5.20318 8.66288 5.20318H15.4461C16.0182 5.20318 16.4813 5.66629 16.4813 6.23836V8.88082C16.4813 9.4529 16.0182 9.916 15.4461 9.916H8.66288C8.09081 9.916 7.6277 9.4529 7.6277 8.88082ZM3.70488 0.87174H20.4313V2.23383C20.4041 2.23383 20.3496 2.20658 20.2951 2.20658H16.0726C15.8275 2.20658 15.6368 2.39728 15.6368 2.64245C15.6368 2.88763 15.8275 3.07832 16.0726 3.07832H20.2951C20.3496 3.07832 20.3768 3.07832 20.4313 3.05108V9.916H17.0261C17.2168 9.61634 17.3258 9.2622 17.3258 8.88082V6.23836C17.3258 5.20318 16.4813 4.35868 15.4461 4.35868H8.66288C7.6277 4.35868 6.7832 5.20318 6.7832 6.23836V8.88082C6.7832 9.2622 6.89217 9.61634 7.08286 9.916H3.70488V0.87174ZM1.77071 11.0874H22.3383V12.9398H1.77071V11.0874ZM0.871736 20.1317V19.0692V13.7843H1.33485H22.7741H23.2372V15.1464H15.7457C15.5006 15.1464 15.3099 15.3371 15.3099 15.5823C15.3099 15.8275 15.5006 16.0182 15.7457 16.0182H23.2372V17.4892H20.84C20.5948 17.4892 20.4041 17.6799 20.4041 17.9251C20.4041 18.1703 20.5948 18.361 20.84 18.361H23.2372V19.0692V20.1317H0.871736Z" fill="#2B292C"/>
<path d="M4.4135 17.4883H3.13314C2.88796 17.4883 2.69727 17.679 2.69727 17.9241C2.69727 18.1693 2.88796 18.36 3.13314 18.36H4.4135C4.65867 18.36 4.84937 18.1693 4.84937 17.9241C4.84937 17.679 4.65867 17.4883 4.4135 17.4883Z" fill="#2B292C"/>
<path d="M17.8976 17.4883H7.68196C7.43678 17.4883 7.24609 17.679 7.24609 17.9241C7.24609 18.1693 7.43678 18.36 7.68196 18.36H17.8976C18.1428 18.36 18.3335 18.1693 18.3335 17.9241C18.3335 17.679 18.1156 17.4883 17.8976 17.4883Z" fill="#2B292C"/>
</svg>
