<svg width="28" height="24" viewBox="0 0 28 24" fill="none" xmlns="http://www.w3.org/2000/svg">
<path d="M27.3302 23.4833L22.1914 0.315783C22.134 0.114826 21.9617 0 21.7895 0H18.9474C18.9474 0 18.9474 0 18.9187 0H16.1053C15.9904 0 15.9043 0.0287064 15.8182 0.114831C15.7321 0.0574145 15.6459 0 15.5311 0H8.15311C8.0957 0 8.03828 -7.00925e-06 7.98087 0.0287011C7.92345 -7.00925e-06 7.86603 0 7.80861 0H0.430622C0.172249 0 0 0.200957 0 0.430622V23.5694C0 23.8278 0.200957 24 0.430622 24H7.80861C7.86603 24 7.92345 24 7.98087 23.9713C8.03828 24 8.0957 24 8.15311 24H15.5311C15.7895 24 15.9617 23.799 15.9617 23.5694V1.86603L20.7847 23.6555C20.8421 23.8565 21.0144 23.9713 21.1866 23.9713H24C24 23.9713 24 23.9713 24.0287 23.9713H26.8421C26.9857 23.9713 27.1005 23.9139 27.1579 23.799C27.3302 23.7416 27.3589 23.5981 27.3302 23.4833ZM7.4067 19.4641H1.29187C1.11962 19.4641 0.976076 19.5789 0.91866 19.7225V4.39234C0.976076 4.56459 1.14833 4.65071 1.29187 4.65071H7.4067C7.4067 4.5933 7.4067 19.4641 7.4067 19.4641ZM8.61244 4.622H15.1292V19.4641H8.61244V4.622ZM15.1292 0.861244V3.78947H8.61244V0.861244H15.1292ZM7.4067 0.861244V3.78947H1.29187C1.11962 3.78947 0.976076 3.9043 0.91866 4.04784V0.889945H7.4067V0.861244ZM0.91866 23.1388V20.0383C0.976076 20.2105 1.14833 20.2967 1.29187 20.2967H7.4067V23.1388H0.91866ZM8.61244 23.1388V20.3254H15.1292V23.1675L8.61244 23.1388ZM21.6172 23.1388L16.6794 0.861244H18.6029L23.5407 23.1675L21.6172 23.1388ZM24.4306 23.1388L19.4928 0.861244H21.4163L26.3541 23.1675L24.4306 23.1388Z" fill="#2B292C"/>
<path d="M2.61226 6.89054H5.71274C5.97111 6.89054 6.14336 6.68958 6.14336 6.45992C6.14336 6.23025 5.9424 6.0293 5.71274 6.0293H2.61226C2.35389 6.0293 2.18164 6.23025 2.18164 6.45992C2.18164 6.68958 2.35389 6.89054 2.61226 6.89054Z" fill="#2B292C"/>
<path d="M2.61226 8.98624H5.71274C5.97111 8.98624 6.14336 8.78529 6.14336 8.55562C6.14336 8.29725 5.9424 8.125 5.71274 8.125H2.61226C2.35389 8.125 2.18164 8.32596 2.18164 8.55562C2.18164 8.78529 2.35389 8.98624 2.61226 8.98624Z" fill="#2B292C"/>
<path d="M10.3349 6.89054H13.4354C13.6938 6.89054 13.866 6.68958 13.866 6.45992C13.866 6.23025 13.6651 6.0293 13.4354 6.0293H10.3349C10.0765 6.0293 9.9043 6.23025 9.9043 6.45992C9.9043 6.68958 10.0765 6.89054 10.3349 6.89054Z" fill="#2B292C"/>
<path d="M13.4354 8.15234H10.3349C10.0765 8.15234 9.9043 8.3533 9.9043 8.58297C9.9043 8.81263 10.1053 9.01359 10.3349 9.01359H13.4354C13.6938 9.01359 13.866 8.81263 13.866 8.58297C13.866 8.3533 13.6938 8.15234 13.4354 8.15234Z" fill="#2B292C"/>
</svg>
