<svg width="25" height="24" viewBox="0 0 25 24" fill="none" xmlns="http://www.w3.org/2000/svg">
<path d="M1.77237 10.3364H22.7451C22.8542 10.3364 22.9906 10.2818 23.0724 10.2C23.1542 10.1182 23.1815 9.98182 23.1815 9.87273C22.7451 4.25455 18.0542 0 12.2724 0C6.46328 0 1.77237 4.22728 1.36328 9.87273C1.36328 9.98182 1.39055 10.1182 1.47237 10.2C1.55419 10.3091 1.66328 10.3364 1.77237 10.3364ZM12.2724 0.872731C15.7906 0.872731 18.8451 2.56363 20.6451 5.15454H18.6815C18.436 5.15454 18.2451 5.34545 18.2451 5.59091C18.2451 5.83636 18.436 6.02727 18.6815 6.02727H21.1633C21.3815 6.43637 21.5724 6.84546 21.736 7.28182H15.8178C15.5724 7.28182 15.3815 7.47272 15.3815 7.71818C15.3815 7.96363 15.5724 8.15454 15.8178 8.15454H22.0087C22.1178 8.59091 22.1996 9.02727 22.2542 9.49091H2.26328C2.86328 4.52727 7.09055 0.872731 12.2724 0.872731Z" fill="#2B292C"/>
<path d="M9.21864 2.59015C7.25501 3.13561 5.59137 4.4447 4.6641 6.19016C4.55501 6.40834 4.63682 6.65379 4.82773 6.76288C4.88228 6.79015 4.96409 6.81743 5.01864 6.81743C5.18228 6.81743 5.31864 6.73561 5.40046 6.59925C6.21864 5.0447 7.69137 3.89924 9.43682 3.40833C9.65501 3.35379 9.79137 3.10834 9.73682 2.89015C9.68228 2.67197 9.43682 2.53561 9.21864 2.59015Z" fill="#2B292C"/>
<path d="M24.1364 17.0175C24.1364 15.763 23.1273 14.7539 21.8727 14.7539H2.26364C1.00909 14.7539 0 15.763 0 17.0175C0 18.2175 0.927272 19.1994 2.1 19.2812C1.60909 19.7721 1.30909 20.4812 1.30909 21.2175C1.30909 22.7721 2.56364 23.9994 4.09091 23.9994H20.4C21.9545 23.9994 23.1818 22.7448 23.1818 21.2175C23.1818 21.2175 23.1818 21.2175 23.1818 21.1903V21.163C23.1818 20.3994 22.8545 19.7175 22.3364 19.1994C23.3727 18.9812 24.1364 18.1084 24.1364 17.0175ZM20.4273 23.1539H4.11818C3.05455 23.1539 2.18182 22.2812 2.18182 21.2175C2.18182 20.1539 3.05455 19.2812 4.11818 19.2812H20.4273C21.3273 19.2812 22.1182 19.9085 22.3091 20.7539H16.3909C16.1455 20.7539 15.9545 20.9448 15.9545 21.1903C15.9545 21.4357 16.1455 21.6266 16.3909 21.6266H22.3091C22.1182 22.4721 21.3545 23.1539 20.4273 23.1539ZM21.8727 18.4085H20.4273H4.11818H2.29091C1.5 18.4085 0.872726 17.7812 0.872726 16.9903C0.872726 16.1994 1.5 15.5721 2.29091 15.5721H21.8727C22.6636 15.5721 23.2909 16.1994 23.2909 16.9903C23.2636 17.7812 22.6364 18.4085 21.8727 18.4085Z" fill="#2B292C"/>
<path d="M2.80915 14.1537C3.70915 14.1537 4.41824 13.4174 4.41824 12.5446C4.41824 12.1355 4.74551 11.781 5.18187 11.781C5.61824 11.781 5.94551 12.1083 5.94551 12.5446C5.94551 13.4446 6.68187 14.1537 7.5546 14.1537C8.4546 14.1537 9.16369 13.4174 9.16369 12.5446C9.16369 12.1355 9.49096 11.781 9.92733 11.781C10.3637 11.781 10.691 12.1083 10.691 12.5446C10.691 13.4446 11.4273 14.1537 12.3001 14.1537C13.2001 14.1537 13.9091 13.4174 13.9091 12.5446C13.9091 12.1355 14.2364 11.781 14.6728 11.781C15.0819 11.781 15.4364 12.1083 15.4364 12.5446C15.4364 13.4446 16.1728 14.1537 17.0455 14.1537C17.9182 14.1537 18.6546 13.4174 18.6546 12.5446C18.6546 12.1355 18.9819 11.781 19.4182 11.781C19.8273 11.781 20.1819 12.1083 20.1819 12.5446C20.1819 13.4446 20.9182 14.1537 21.791 14.1537C22.691 14.1537 23.4001 13.4174 23.4001 12.5446C23.4001 12.2992 23.2091 12.1083 22.9637 12.1083C22.7182 12.1083 22.5273 12.2992 22.5273 12.5446C22.5273 12.9537 22.2001 13.3083 21.7637 13.3083C21.3273 13.3083 21.0001 12.981 21.0001 12.5446C21.0001 11.6446 20.2637 10.9355 19.391 10.9355C18.491 10.9355 17.7819 11.6719 17.7819 12.5446C17.7819 12.9537 17.4546 13.3083 17.0182 13.3083C16.6091 13.3083 16.2546 12.981 16.2546 12.5446C16.2546 11.6446 15.5182 10.9355 14.6455 10.9355C13.7728 10.9355 13.0364 11.6719 13.0364 12.5446C13.0364 12.9537 12.7091 13.3083 12.2728 13.3083C11.8637 13.3083 11.5091 12.981 11.5091 12.5446C11.5091 11.6446 10.7728 10.9355 9.90006 10.9355C9.00006 10.9355 8.29096 11.6719 8.29096 12.5446C8.29096 12.9537 7.96369 13.3083 7.52733 13.3083C7.09097 13.3083 6.76369 12.981 6.76369 12.5446C6.76369 11.6446 6.02733 10.9355 5.1546 10.9355C4.28187 10.9355 3.54551 11.6719 3.54551 12.5446C3.54551 12.9537 3.21824 13.3083 2.78187 13.3083C2.37278 13.3083 2.01823 12.981 2.01823 12.5446C2.01823 12.2992 1.82733 12.1083 1.58187 12.1083C1.33642 12.1083 1.14551 12.2992 1.14551 12.5446C1.20005 13.4174 1.90915 14.1537 2.80915 14.1537Z" fill="#2B292C"/>
<path d="M21.5731 16.582H17.4549C17.2095 16.582 17.0186 16.7729 17.0186 17.0184C17.0186 17.2639 17.2095 17.4548 17.4549 17.4548H21.5731C21.8186 17.4548 22.0095 17.2639 22.0095 17.0184C22.0095 16.7457 21.8186 16.582 21.5731 16.582Z" fill="#2B292C"/>
<path d="M8.72708 16.582H8.23617C7.99071 16.582 7.7998 16.7729 7.7998 17.0184C7.7998 17.2639 7.99071 17.4548 8.23617 17.4548H8.72708C8.97253 17.4548 9.16344 17.2639 9.16344 17.0184C9.13617 16.7457 8.94526 16.582 8.72708 16.582Z" fill="#2B292C"/>
<path d="M5.9459 16.582H3.98226C3.73681 16.582 3.5459 16.7729 3.5459 17.0184C3.5459 17.2639 3.73681 17.4548 3.98226 17.4548H5.9459C6.19135 17.4548 6.38226 17.2639 6.38226 17.0184C6.38226 16.7457 6.19135 16.582 5.9459 16.582Z" fill="#2B292C"/>
</svg>
