<svg width="24" height="24" viewBox="0 0 24 24" fill="none" xmlns="http://www.w3.org/2000/svg">
<path d="M23.1283 0H0.43587C0.190694 0 0 0.190694 0 0.43587V17.8434C0 18.0885 0.190694 18.2792 0.43587 18.2792H8.25426V19.6141H5.88422C5.63905 19.6141 5.44835 19.8048 5.44835 20.0499V23.5641C5.44835 23.8093 5.63905 24 5.88422 24H17.6527C17.8978 24 18.0885 23.8093 18.0885 23.5641V20.0227C18.0885 19.7775 17.8978 19.5868 17.6527 19.5868H15.2826V18.252H23.101C23.3462 18.252 23.5369 18.0613 23.5369 17.8161V0.43587C23.5369 0.190694 23.3462 0 23.1283 0ZM14.4381 19.5868H12.504C12.2588 19.5868 12.0681 19.7775 12.0681 20.0227C12.0681 20.2679 12.2588 20.4586 12.504 20.4586H14.8468H17.2168V21.3031H14.8468C14.6016 21.3031 14.4109 21.4938 14.4109 21.7389C14.4109 21.9841 14.6016 22.1748 14.8468 22.1748H17.2168V23.1283H6.32009V20.4586H8.69012C8.9353 20.4586 9.12599 20.2679 9.12599 20.0227V18.252H14.4109V19.5868H14.4381ZM22.6924 17.4075H0.871736V0.87174H22.6924V17.4075Z" fill="#2B292C"/>
<path d="M2.6429 12.8845H20.9221C21.1673 12.8845 21.358 12.6938 21.358 12.4486V2.805C21.358 2.55983 21.1673 2.36914 20.9221 2.36914H2.6429C2.39772 2.36914 2.20703 2.55983 2.20703 2.805V12.4758C2.20703 12.6938 2.39772 12.8845 2.6429 12.8845ZM3.07877 3.24087H20.4863V7.65404H18.0345C17.7893 7.65404 17.5986 7.84474 17.5986 8.08991C17.5986 8.33509 17.7893 8.52577 18.0345 8.52577H20.4863V9.80614H15.6372C15.392 9.80614 15.2014 9.99683 15.2014 10.242C15.2014 10.4872 15.392 10.6779 15.6372 10.6779H20.4863V12.04H3.07877V3.24087Z" fill="#2B292C"/>
<path d="M20.9217 14.2207C20.6766 14.2207 20.4859 14.4114 20.4859 14.6566V15.5011H18.7152C18.47 15.5011 18.2793 15.6918 18.2793 15.9369C18.2793 16.1821 18.47 16.3728 18.7152 16.3728H20.9217C21.1669 16.3728 21.3576 16.1821 21.3576 15.9369V14.6566C21.3576 14.4114 21.1669 14.2207 20.9217 14.2207Z" fill="#2B292C"/>
<path d="M16.427 15.5H11.9593C11.7141 15.5 11.5234 15.6907 11.5234 15.9359C11.5234 16.181 11.7141 16.3717 11.9593 16.3717H16.427C16.6721 16.3717 16.8628 16.181 16.8628 15.9359C16.8628 15.6907 16.6449 15.5 16.427 15.5Z" fill="#2B292C"/>
<path d="M6.86552 4.54883H4.7679C4.52273 4.54883 4.33203 4.73951 4.33203 4.98469V7.38197C4.33203 7.62715 4.52273 7.81784 4.7679 7.81784C5.01308 7.81784 5.20377 7.62715 5.20377 7.38197V5.42056H6.86552C7.11069 5.42056 7.30139 5.22987 7.30139 4.98469C7.30139 4.73951 7.08345 4.54883 6.86552 4.54883Z" fill="#2B292C"/>
</svg>
