<svg width="27" height="24" viewBox="0 0 27 24" fill="none" xmlns="http://www.w3.org/2000/svg">
<path d="M26.5157 4.53976H21.3108V0.462652C21.3108 0.202411 21.1084 0 20.8482 0H6.13012C5.86988 0 5.66747 0.202411 5.66747 0.462652V4.53976H0.462648C0.202407 4.53976 0 4.74217 0 5.00241V23.5373C0 23.7976 0.202407 24 0.462648 24H26.5157C26.7759 24 26.9783 23.7976 26.9783 23.5373V5.00241C26.9783 4.74217 26.747 4.53976 26.5157 4.53976ZM6.59277 0.925305H20.4145V4.56867H6.59277V0.925305ZM0.9253 23.0747V5.43614H6.13012H20.8482H26.053V16.2795H21.7157C21.4554 16.2795 21.253 16.4819 21.253 16.7422C21.253 17.0024 21.4554 17.2048 21.7157 17.2048H26.053V18.4482H23.1904C22.9301 18.4482 22.7277 18.6506 22.7277 18.9108C22.7277 19.1711 22.9301 19.3735 23.1904 19.3735H26.053V20.4723H19.894C19.6337 20.4723 19.4313 20.6747 19.4313 20.9349C19.4313 21.1952 19.6337 21.3976 19.894 21.3976H26.053V23.0747H0.9253Z" fill="#2B292C"/>
<path d="M19.8362 16.4247V12.1162C19.8362 11.856 19.6338 11.6536 19.3735 11.6536H16.1061V8.35718C16.1061 8.09694 15.9036 7.89453 15.6434 7.89453H11.335C11.0747 7.89453 10.8723 8.09694 10.8723 8.35718V11.6536H7.57593C7.31569 11.6536 7.11328 11.856 7.11328 12.1162V16.4247C7.11328 16.6849 7.31569 16.8873 7.57593 16.8873H10.8723V20.1837C10.8723 20.4439 11.0747 20.6463 11.335 20.6463H15.6434C15.9036 20.6463 16.1061 20.4439 16.1061 20.1837V16.8873H19.4024C19.6338 16.8873 19.8362 16.6849 19.8362 16.4247ZM18.9398 15.962H15.6434C15.3832 15.962 15.1808 16.1644 15.1808 16.4247V19.721H11.7976V16.4247C11.7976 16.1644 11.5952 15.962 11.335 15.962H8.03858V12.5789H11.335C11.5952 12.5789 11.7976 12.3765 11.7976 12.1162V8.81984H15.2097V12.1162C15.2097 12.3765 15.4121 12.5789 15.6723 12.5789H18.9687L18.9398 15.962Z" fill="#2B292C"/>
<path d="M6.36179 7.11328H3.00757C2.74733 7.11328 2.54492 7.31569 2.54492 7.57593V11.5374C2.54492 11.7976 2.74733 12 3.00757 12C3.26782 12 3.47023 11.7976 3.47023 11.5374V8.00967H6.36179C6.62203 8.00967 6.82444 7.80726 6.82444 7.54702C6.82444 7.28678 6.59312 7.11328 6.36179 7.11328Z" fill="#2B292C"/>
<path d="M3.00757 13.3008C2.74733 13.3008 2.54492 13.5032 2.54492 13.7634V14.9779C2.54492 15.2381 2.74733 15.4405 3.00757 15.4405C3.26782 15.4405 3.47023 15.2381 3.47023 14.9779V13.7634C3.47023 13.5032 3.26782 13.3008 3.00757 13.3008Z" fill="#2B292C"/>
</svg>
