<svg width="28" height="20" viewBox="0 0 28 20" fill="none" xmlns="http://www.w3.org/2000/svg">
<path d="M27.5226 3.56108C27.5226 3.5032 27.4937 3.38744 27.4647 3.32955C27.4647 3.27167 27.4647 3.24273 27.4358 3.18484C27.4068 3.12696 27.4068 3.06908 27.3779 3.01119C27.349 2.95331 27.349 2.86648 27.32 2.83754C27.32 2.83754 27.32 2.80861 27.2911 2.80861C27.1753 2.4613 27.0017 2.14294 26.7412 1.85352C26.336 1.36151 25.7572 1.04316 25.1783 0.898449C21.5317 0.00125481 14.6725 -1.01171 9.17354 2.14294C3.7325 5.23971 1.15668 11.7227 0.114777 15.3114C-0.17464 16.3823 0.0858328 17.511 0.86726 18.2924C1.27244 18.6976 1.73551 18.9581 2.31435 19.1028C4.07979 19.5369 6.62667 20 9.37614 20C12.2993 20 15.4828 19.4791 18.2902 17.8583C22.6604 15.3693 25.1783 10.7386 26.5675 7.12092C26.9148 6.22373 27.2043 5.38442 27.4068 4.66088C27.5226 4.31357 27.5805 3.93733 27.5226 3.56108ZM0.86726 15.543C1.88022 12.07 4.36921 5.7896 9.60767 2.75072C12.2993 1.18786 15.3381 0.724797 18.1455 0.724797C20.866 0.724797 23.3261 1.18786 25.0336 1.59305C25.2941 1.65093 25.4967 1.7667 25.6993 1.88247C25.5835 1.91141 25.4677 1.94035 25.352 1.94035C25.2652 1.88247 25.1494 1.82458 25.0336 1.85352C24.9179 1.88246 24.831 1.9693 24.7731 2.08506C24.1364 2.25871 23.5286 2.40342 22.8919 2.60601H22.863C21.0686 3.12696 19.2742 3.79263 17.5667 4.54511L16.4958 3.32955C16.3511 3.18484 16.1196 3.1559 15.9749 3.30061C15.8301 3.44532 15.8012 3.67686 15.9459 3.82157L16.872 4.86346C16.2064 5.15288 15.5407 5.50019 14.904 5.84749L13.8332 4.66088C13.6885 4.51617 13.4569 4.48722 13.3122 4.63193C13.1675 4.77664 13.1386 5.00817 13.2833 5.15288L14.2383 6.22373C13.6016 6.57103 12.9939 6.94727 12.3861 7.32351L11.4021 6.22373C11.2573 6.07902 11.0258 6.05008 10.8811 6.19478C10.7364 6.33949 10.7075 6.57103 10.8522 6.71574L11.7204 7.69976C11.1126 8.10494 10.5338 8.48118 9.95497 8.91531L8.94201 7.78658C8.7973 7.64187 8.56577 7.61293 8.42106 7.75764C8.27635 7.90235 8.24741 8.13389 8.39211 8.27859L9.34719 9.37838C8.71047 9.84144 8.1027 10.3624 7.46598 10.8544L6.7135 9.98615C6.56879 9.84145 6.33725 9.8125 6.19254 9.95721C6.04783 10.1019 6.01889 10.3335 6.1636 10.4782L6.91609 11.3175C5.29535 12.7356 3.76144 14.2695 2.34329 15.9192L2.31435 15.9482C1.88022 16.4691 1.4461 16.9901 1.04091 17.511C0.809378 16.9322 0.693609 16.2086 0.86726 15.543ZM17.9718 17.2795C12.7044 20.3184 6.04783 19.3054 2.54588 18.4371C2.45906 18.4082 2.37223 18.3793 2.25646 18.3503C2.22752 18.3503 2.19858 18.3214 2.19858 18.3214C2.1407 18.2924 2.08281 18.2635 2.02493 18.2346C1.99599 18.2056 1.96705 18.2056 1.96705 18.1767C1.88022 18.1188 1.7934 18.0898 1.73551 18.003C2.11175 17.511 2.488 17.019 2.89318 16.5559C3.09577 16.6717 3.29837 16.7585 3.5299 16.8164C5.09276 17.2216 7.23444 17.5689 9.54978 17.5689C10.5049 17.5689 11.4889 17.511 12.4729 17.3374C12.6755 17.3084 12.7913 17.1348 12.7623 16.9322C12.7334 16.7296 12.5597 16.6138 12.3571 16.6428C9.08672 17.1637 5.84524 16.6428 3.70355 16.1218C3.58778 16.0929 3.47202 16.0639 3.35625 16.006C4.68757 14.5011 6.07678 13.0829 7.58175 11.7805L8.76836 13.1119C8.82624 13.1697 8.94201 13.2276 9.05777 13.2276C9.1446 13.2276 9.23143 13.1987 9.28931 13.1408C9.43402 12.9961 9.46296 12.7646 9.31825 12.6199L8.16058 11.3175C8.76836 10.7965 9.37614 10.3335 10.0418 9.84145L11.0258 10.9412C11.0837 10.9991 11.1995 11.057 11.3152 11.057C11.4021 11.057 11.4889 11.0281 11.5468 10.9702C11.6915 10.8255 11.7204 10.5939 11.5757 10.4492L10.6496 9.43626C11.2284 9.03108 11.8072 8.62589 12.415 8.24965L13.4569 9.40732C13.5148 9.4652 13.6306 9.52309 13.7463 9.52309C13.8332 9.52309 13.92 9.49415 13.9779 9.43626C14.1226 9.29155 14.1515 9.06002 14.0068 8.91531L13.0517 7.84447C13.6595 7.46823 14.2673 7.09198 14.904 6.74468L15.888 7.84447C15.9459 7.90235 16.0617 7.96023 16.1774 7.96023C16.2643 7.96023 16.3511 7.93129 16.409 7.87341C16.5537 7.7287 16.5826 7.49716 16.4379 7.35245L15.5697 6.36844C16.2064 6.02114 16.872 5.70278 17.5377 5.38442L18.5217 6.4842C18.5796 6.54209 18.6954 6.59997 18.8111 6.59997C18.898 6.59997 18.9848 6.57103 19.0427 6.51315C19.1874 6.36844 19.2163 6.13691 19.0716 5.9922L18.2323 5.06606C19.6505 4.42934 21.0975 3.90839 22.5736 3.44532C22.1105 4.86346 21.5606 6.22372 20.895 7.46822C20.8081 7.64187 20.866 7.87341 21.0686 7.96023C21.1265 7.98917 21.1844 8.01812 21.2423 8.01812C21.387 8.01812 21.5027 7.96023 21.5606 7.84447C22.3131 6.42632 22.9209 4.89241 23.4418 3.24273C23.9628 3.09802 24.4548 2.95331 24.9757 2.83754C24.9757 3.01119 24.9468 3.21379 24.8889 3.3585C24.1075 6.07902 22.5446 9.98615 19.7373 12.8803C19.5926 13.025 19.5926 13.2566 19.7373 13.4013C19.7952 13.4592 19.9109 13.4881 19.9978 13.4881C20.0846 13.4881 20.1714 13.4302 20.2582 13.3723C23.1813 10.3335 24.7731 6.36844 25.5835 3.53215C25.6703 3.24273 25.6993 2.92437 25.6993 2.63495C25.9887 2.57707 26.2202 2.51918 26.5096 2.4613C26.5096 2.49024 26.5386 2.49025 26.5386 2.51919C26.5675 2.54813 26.5965 2.57707 26.5965 2.60601C26.6254 2.66389 26.6544 2.69284 26.6833 2.75072C26.7122 2.77966 26.7122 2.8086 26.7412 2.83754C26.7701 2.89542 26.7991 2.92437 26.7991 2.98225C26.828 3.04013 26.828 3.04014 26.8569 3.09802C26.8859 3.15591 26.8859 3.18484 26.9148 3.27167C26.9148 3.32955 26.9438 3.32956 26.9438 3.38744C26.9438 3.44532 26.9727 3.5032 26.9727 3.56108C26.9727 3.61897 26.9727 3.61897 27.0017 3.67686C27.0017 3.73474 27.0017 3.79262 27.0017 3.8505C27.0017 3.90839 27.0017 3.90839 27.0017 3.96628C27.0017 4.02416 27.0017 4.08204 26.9727 4.13992C26.9727 4.16886 26.9727 4.19781 26.9727 4.22675C26.9438 4.31357 26.9148 4.4004 26.9148 4.51617C25.6993 7.96023 23.2103 14.2406 17.9718 17.2795Z" fill="#2B292C"/>
<path d="M17.9135 14.3858C17.5083 14.6752 17.0742 14.9646 16.669 15.2251C16.4953 15.3119 16.4374 15.5435 16.5243 15.7461C16.5821 15.8618 16.6979 15.9197 16.8426 15.9197C16.9005 15.9197 16.9584 15.8908 17.0163 15.8618C17.4504 15.6014 17.9135 15.3119 18.3476 14.9936C18.5212 14.8778 18.5212 14.6463 18.4055 14.4726C18.2897 14.3279 18.0582 14.27 17.9135 14.3858Z" fill="#2B292C"/>
</svg>
