<svg width="25" height="24" viewBox="0 0 25 24" fill="none" xmlns="http://www.w3.org/2000/svg">
<path d="M23.6937 5.2065H19.5452C19.6288 4.87239 19.6845 4.53828 19.6845 4.17633C19.6845 1.86543 17.819 0 15.5081 0C13.8376 0 12.5568 1.92111 11.8886 3.48028C11.2204 1.92111 9.93968 0 8.26914 0C5.95824 0 4.09281 1.86543 4.09281 4.17633C4.09281 4.51044 4.14849 4.87239 4.23202 5.2065H0.445477C0.194897 5.2065 0 5.40139 0 5.65197V10.3573C0 10.6079 0.194897 10.8028 0.445477 10.8028H1.55917V23.5545C1.55917 23.8051 1.75406 24 2.00464 24H22.1067C22.3573 24 22.5522 23.8051 22.5522 23.5545V10.7749H23.6659C23.9165 10.7749 24.1114 10.58 24.1114 10.3295V5.62413C24.1114 5.40139 23.9165 5.2065 23.6937 5.2065ZM15.5081 0.863111C17.3179 0.863111 18.8213 2.33875 18.8213 4.17633C18.8213 4.51044 18.7657 4.84455 18.6821 5.15081C18.6821 5.17865 18.6821 5.17866 18.6821 5.2065H16.761C16.8167 4.98376 16.8445 4.76102 16.8445 4.53828C16.8445 3.0348 15.6195 1.80974 14.116 1.80974C14.0603 1.80974 13.9768 1.80974 13.9211 1.80974C14.3944 1.2529 14.9513 0.863111 15.5081 0.863111ZM12.3063 5.03944C12.5568 4.09281 13.3643 2.7007 14.0882 2.7007C15.1183 2.7007 15.9258 3.53596 15.9258 4.53828C15.9258 4.73317 15.8979 4.90023 15.8422 5.06729C15.8422 5.09513 15.8144 5.15081 15.8144 5.17866H12.2227C12.2506 5.15081 12.3063 5.09513 12.3063 5.03944ZM11.471 5.03944C11.4988 5.09513 11.5267 5.15082 11.5545 5.2065H7.93503C7.93503 5.15082 7.93504 5.12297 7.90719 5.06729C7.85151 4.90023 7.82367 4.73317 7.82367 4.53828C7.82367 3.50812 8.65893 2.7007 9.66125 2.7007C10.413 2.67286 11.2204 4.06497 11.471 5.03944ZM8.26914 0.863111C8.82599 0.863111 9.38283 1.2529 9.85615 1.80974C9.80047 1.80974 9.71694 1.80974 9.66125 1.80974C8.15777 1.80974 6.93272 3.0348 6.93272 4.53828C6.93272 4.76102 6.96056 4.98376 7.01624 5.2065H5.09513C5.09513 5.17866 5.09513 5.15081 5.06729 5.12297C4.98376 4.8167 4.92808 4.51044 4.92808 4.17633C4.98376 2.33875 6.4594 0.863111 8.26914 0.863111ZM10.0232 23.0812H2.45012V10.7749H9.74478L6.84919 13.8376C6.68214 14.0046 6.68214 14.2831 6.87703 14.4501C6.96056 14.5336 7.07193 14.5615 7.18329 14.5615C7.29466 14.5615 7.40603 14.5058 7.48956 14.4223L10.0232 11.7494V23.0812ZM10.0232 9.88399H2.03248H0.918794V6.0696H10.051V9.88399H10.0232ZM13.2529 23.0812H10.9142V10.7749H13.2529V23.0812ZM13.2529 9.88399H10.9142V6.0696H13.2529V9.88399ZM21.6891 17.8469H18.5986C18.348 17.8469 18.1531 18.0418 18.1531 18.2923C18.1531 18.5429 18.348 18.7378 18.5986 18.7378H21.6891V20.2135H15.8979C15.6473 20.2135 15.4524 20.4084 15.4524 20.6589C15.4524 20.9095 15.6473 21.1044 15.8979 21.1044H21.6613V23.109H14.116V11.8051L16.594 14.4501C16.6775 14.5336 16.7889 14.5893 16.9002 14.5893C17.0116 14.5893 17.123 14.5615 17.2065 14.478C17.3735 14.3109 17.4014 14.0325 17.2343 13.8654L14.3387 10.8028H21.6613V17.8469H21.6891ZM23.2483 7.37819H17.29C17.0394 7.37819 16.8445 7.57309 16.8445 7.82367C16.8445 8.07425 17.0394 8.26914 17.29 8.26914H23.2204V9.91183H22.1067H14.116V6.0696H23.2483V7.37819Z" fill="#2B292C"/>
</svg>
