<svg width="29" height="24" viewBox="0 0 29 24" fill="none" xmlns="http://www.w3.org/2000/svg">
<path d="M28.4919 3.5829L28.4313 3.52224C28.4313 3.49191 28.4009 3.4919 28.4009 3.4919L28.3706 3.46157L28.3403 3.43123L28.3099 3.4009H28.2796C28.2493 3.4009 28.2493 3.37057 28.219 3.37057H28.1886C28.1583 3.37057 28.128 3.37057 28.128 3.37057C28.128 3.37057 28.128 3.37057 28.0976 3.37057C28.0673 3.37057 28.037 3.37057 28.037 3.37057C28.037 3.37057 28.037 3.37057 28.0066 3.37057C27.8853 3.37057 27.7943 3.34023 27.7336 3.24923C27.673 3.15824 27.673 3.06724 27.7033 2.94591C27.7336 2.88524 27.764 2.85491 27.7943 2.82458C27.9763 2.70324 28.037 2.43025 27.9156 2.24825C27.7943 2.06625 27.5213 2.00559 27.3393 2.12692C27.309 2.15725 27.2483 2.18758 27.218 2.18758C27.0966 2.18758 27.036 2.15725 26.945 2.06625C26.8843 1.97525 26.8843 1.88425 26.9146 1.76292V1.73259C26.9146 1.73259 26.9146 1.70226 26.945 1.67193C26.945 1.64159 26.945 1.64159 26.945 1.61126V1.58092C26.945 1.55059 26.945 1.5506 26.945 1.52026V1.48993C26.945 1.4596 26.945 1.45959 26.945 1.42926V1.39893C26.945 1.3686 26.945 1.3686 26.945 1.33826C26.945 1.33826 26.945 1.30793 26.9146 1.30793C26.9146 1.2776 26.8843 1.2776 26.8843 1.24727V1.21693L26.8236 1.12593C26.763 1.03493 26.672 0.974265 26.5506 0.974265C26.4293 0.943932 26.3383 0.97427 26.217 1.06527L22.6074 3.64357C22.486 3.73457 22.4254 3.82557 22.4254 3.97723L22.395 4.88722C22.395 4.97822 22.4254 5.06922 22.486 5.16021L22.6074 5.37254C22.577 5.37254 22.5467 5.40288 22.5164 5.43321L14.0838 11.3178C14.0838 11.2268 14.0535 11.1358 13.9928 11.0448C12.9008 9.46749 11.4448 8.58783 10.2315 8.7395C9.5642 8.8305 8.68454 9.25516 8.07788 10.7718C7.50156 12.3491 6.8039 12.4704 5.83325 12.0761C5.80292 12.0761 5.77258 12.0458 5.74225 12.0458L5.04459 11.9245C3.98294 11.8335 2.89095 12.1065 1.98097 12.7434C0.949647 13.4411 0.282322 14.5028 0.0699915 15.7161C-0.142339 16.9294 0.130659 18.1427 0.85865 19.174L2.46629 21.449C3.16395 22.4803 4.2256 23.1476 5.43892 23.36C5.71192 23.4206 5.98491 23.451 6.22758 23.451C7.1679 23.451 8.07788 23.1476 8.83621 22.632C9.6552 22.0557 10.2619 21.085 10.3225 20.9333C10.5955 20.5693 10.7169 20.1143 10.8685 19.629C11.0808 18.9314 11.2628 18.2034 11.8998 17.8394C12.4762 17.5057 12.9312 17.5057 13.3861 17.536C13.8411 17.5664 14.2961 17.5664 14.7208 17.2631C15.5095 16.7474 15.8128 16.2317 15.8431 16.2014C15.9341 16.0801 15.9341 15.8677 15.8431 15.7464C15.7521 15.6251 15.6004 15.5341 15.4488 15.5644C15.3881 15.5644 14.1141 15.7161 13.3861 14.7454C13.1435 14.4118 13.2648 14.1691 13.7501 13.5928C14.0838 13.1984 14.5388 12.6524 14.4175 12.0458L22.85 6.13086C22.8804 6.10053 22.9107 6.10054 22.941 6.0702L23.0624 6.28253C23.123 6.37353 23.1837 6.40386 23.2747 6.43419L24.1543 6.73752C24.215 6.76785 24.2453 6.76786 24.2757 6.76786C24.3667 6.76786 24.4273 6.73753 24.5183 6.67686L28.1886 4.09856C28.5829 4.0379 28.6133 3.7649 28.4919 3.5829ZM9.62486 14.6241L9.04854 13.8051C8.92721 13.6231 8.65421 13.5624 8.47221 13.6838L7.10723 14.6544C7.01623 14.7151 6.95557 14.8061 6.95557 14.9274C6.92523 15.0487 6.95557 15.1397 7.04657 15.2611L8.71488 17.6271C8.80588 17.7484 8.92721 17.809 9.04854 17.809C9.13954 17.809 9.2002 17.7787 9.2912 17.718L10.6562 16.7474C10.7472 16.6867 10.8078 16.5957 10.8078 16.4744C10.8382 16.3531 10.8078 16.2621 10.7169 16.1407L10.1102 15.2914L13.5075 12.8951C13.4468 12.9558 13.3861 13.0164 13.3255 13.1074C12.9008 13.6231 12.2335 14.3814 12.9008 15.3217C13.4468 16.0497 14.1748 16.3531 14.7511 16.4441C14.6601 16.5351 14.5691 16.5654 14.4478 16.6564C14.2355 16.7777 14.0231 16.7777 13.6288 16.7777C13.0828 16.7474 12.4458 16.7171 11.6875 17.1721C10.7775 17.7181 10.5045 18.6584 10.2619 19.447C10.1405 19.8717 10.0192 20.2357 9.83719 20.5087C9.83719 20.539 9.80686 20.539 9.80686 20.5693C9.80686 20.5693 9.2912 21.5097 8.56321 22.0253C7.74422 22.6017 6.74324 22.814 5.74225 22.632C4.74126 22.45 3.89194 21.904 3.31561 21.085L1.70797 18.81C0.524984 17.1417 0.949648 14.8061 2.67863 13.5928C3.31562 13.1378 4.07394 12.8951 4.83226 12.8951C4.95359 12.8951 5.04459 12.8951 5.13559 12.8951L5.74225 13.0164C7.28923 13.5928 8.35088 12.9861 9.04854 11.1965C9.3822 10.2865 9.86753 9.77082 10.5045 9.71015C11.3842 9.58882 12.5368 10.3775 13.4468 11.6515C13.5075 11.7425 13.5681 11.7728 13.6591 11.8031L9.62486 14.6241ZM9.74619 16.2621L9.07887 16.7474L7.89589 15.0791L8.56321 14.5938L9.74619 16.2621ZM24.4273 5.94887L23.8813 5.76687L23.305 4.91755L23.3353 4.34122L26.1866 2.33925C26.217 2.43025 26.2776 2.49092 26.308 2.58192C26.4596 2.79425 26.672 2.94591 26.9146 3.00657C26.8843 3.24924 26.9753 3.52223 27.0966 3.73456C27.1573 3.82556 27.218 3.8559 27.2786 3.9469L24.4273 5.94887Z" fill="#2B292C"/>
<path d="M28.8559 5.76617L28.6436 5.4325C28.5223 5.2505 28.2493 5.18984 28.0673 5.31117C27.8853 5.4325 27.8246 5.7055 27.9459 5.8875L28.1583 6.22116C28.2493 6.34249 28.3706 6.40316 28.4919 6.40316C28.5829 6.40316 28.6436 6.37282 28.7346 6.31215C28.9469 6.22116 29.0076 5.9785 28.8559 5.76617Z" fill="#2B292C"/>
<path d="M24.4581 1.00344C24.5491 1.12478 24.6704 1.18544 24.7917 1.18544C24.8827 1.18544 24.9434 1.15511 25.0344 1.09445C25.2164 0.973117 25.2771 0.700113 25.1557 0.518116L24.9434 0.184461C24.8221 0.00246336 24.5491 -0.0582099 24.3671 0.0631218C24.1851 0.184454 24.1244 0.457457 24.2457 0.639455L24.4581 1.00344Z" fill="#2B292C"/>
<path d="M27.3995 6.34266C27.2781 6.16066 27.0051 6.1 26.8231 6.22133C26.6411 6.34266 26.5805 6.61565 26.7018 6.79765L26.9141 7.13132C27.0051 7.25265 27.1265 7.31331 27.2478 7.31331C27.3388 7.31331 27.3995 7.28298 27.4905 7.22231C27.6724 7.10098 27.7331 6.82798 27.6118 6.64599L27.3995 6.34266Z" fill="#2B292C"/>
<path d="M23.2139 1.88234C23.3049 2.00368 23.4263 2.06434 23.5476 2.06434C23.6386 2.06434 23.6993 2.03401 23.7903 1.97335C23.9723 1.85202 24.0329 1.57902 23.9116 1.39702L23.6993 1.06336C23.5779 0.881363 23.3049 0.820699 23.1229 0.942031C22.9409 1.06336 22.8803 1.33636 23.0016 1.51835L23.2139 1.88234Z" fill="#2B292C"/>
<path d="M26.126 7.22156C26.0047 7.03957 25.7317 6.9789 25.5497 7.10023C25.3677 7.22157 25.307 7.49456 25.4284 7.67656L25.6407 8.01022C25.7317 8.13155 25.853 8.19222 25.9744 8.19222C26.0654 8.19222 26.126 8.16188 26.217 8.10122C26.399 7.97989 26.4597 7.70689 26.3383 7.52489L26.126 7.22156Z" fill="#2B292C"/>
<path d="M21.9708 2.76321C22.0618 2.88454 22.1831 2.9452 22.3044 2.9452C22.3954 2.9452 22.4561 2.91487 22.5471 2.85421C22.7291 2.73288 22.7898 2.45988 22.6684 2.27788L22.4561 1.94422C22.3348 1.76222 22.0618 1.70156 21.8798 1.82289C21.6978 1.94422 21.6371 2.21722 21.7584 2.39921L21.9708 2.76321Z" fill="#2B292C"/>
<path d="M5.7118 15.5629C5.5298 15.6842 5.46914 15.9572 5.59047 16.1392L7.25878 18.5052C7.34978 18.6265 7.47111 18.6872 7.59244 18.6872C7.68344 18.6872 7.74411 18.6569 7.83511 18.5962C8.0171 18.4749 8.07777 18.2019 7.95644 18.0199L6.28813 15.6539C6.16679 15.5022 5.92413 15.4719 5.7118 15.5629Z" fill="#2B292C"/>
</svg>
