<svg width="25" height="24" viewBox="0 0 25 24" fill="none" xmlns="http://www.w3.org/2000/svg">
<path d="M23.9727 11.4545C23.9727 10.1727 23.1818 9.02727 22.0091 8.56363V2.7C22.0091 1.2 20.8091 0 19.3091 0H4.82727C3.32727 0 2.12727 1.2 2.12727 2.7V8.50909C0.872728 8.94545 0 10.1182 0 11.4545V18.6545C0 18.9 0.190907 19.0909 0.436361 19.0909H1.55454V21.3C1.55454 21.3273 1.55455 21.3818 1.58182 21.4091C1.71818 22.8545 2.94546 24 4.44546 24C5.91818 24 7.14545 22.8545 7.30909 21.4091C7.30909 21.3818 7.33636 21.3273 7.33636 21.3V19.0636H16.8V21.2727C16.8 21.3 16.8 21.3545 16.8273 21.3818C16.9636 22.8273 18.1909 23.9727 19.6909 23.9727C21.1909 23.9727 22.3909 22.8273 22.5545 21.3818C22.5545 21.3545 22.5818 21.3 22.5818 21.2727V19.0636H23.6455C23.7545 19.0636 23.8636 19.0091 23.9455 18.9273C24.0273 18.8455 24.0818 18.7364 24.0818 18.6273L23.9727 11.4545ZM6.43636 21.1091C6.43636 22.2273 5.53636 23.1273 4.41818 23.1273C3.3 23.1273 2.4 22.2273 2.4 21.1091V19.0636H6.40909L6.43636 21.1091ZM21.6273 21.1091C21.6273 22.2273 20.7273 23.1273 19.6091 23.1273C18.4909 23.1273 17.5909 22.2273 17.5909 21.1091V19.0636H21.6V21.1091H21.6273ZM0.845452 18.2182V11.4545C0.845452 10.4182 1.58182 9.49091 2.61818 9.24545C2.80909 9.19091 2.94546 9.02727 2.94546 8.83636V2.67272C2.94546 1.66363 3.76364 0.845456 4.77273 0.845456H19.2545C20.2636 0.845456 21.0818 1.66363 21.0818 2.67272V8.86364C21.0818 9 21.1364 9.10909 21.2455 9.1909C21.3 9.24545 21.3818 9.27273 21.4909 9.3C22.4182 9.6 23.0727 10.4727 23.0727 11.4545V18.2182H0.845452Z" fill="#2B292C"/>
<path d="M15.0272 14.1278C13.1727 14.5096 11.0727 14.5096 9.16359 14.1278C8.91813 14.0733 8.69995 14.2369 8.67268 14.4551C8.61814 14.7006 8.78177 14.9187 8.99995 14.946C10.009 15.1369 11.0454 15.246 12.0818 15.246C13.1727 15.246 14.209 15.1369 15.1909 14.946C15.4363 14.8915 15.5727 14.6733 15.5181 14.4278C15.4636 14.2369 15.2454 14.0733 15.0272 14.1278Z" fill="#2B292C"/>
<path d="M19.609 14.3997C20.5128 14.3997 21.2454 13.6671 21.2454 12.7633C21.2454 11.8596 20.5128 11.127 19.609 11.127C18.7053 11.127 17.9727 11.8596 17.9727 12.7633C17.9727 13.6671 18.7053 14.3997 19.609 14.3997Z" fill="#2B292C"/>
<path d="M4.41859 14.3997C5.32233 14.3997 6.05495 13.6671 6.05495 12.7633C6.05495 11.8596 5.32233 11.127 4.41859 11.127C3.51485 11.127 2.78223 11.8596 2.78223 12.7633C2.78223 13.6671 3.51485 14.3997 4.41859 14.3997Z" fill="#2B292C"/>
<path d="M19.3368 4.85472V4.33654C19.3368 3.21836 18.4368 2.31836 17.3186 2.31836H16.8822H7.11861H6.68225C5.56406 2.31836 4.66406 3.21836 4.66406 4.33654V4.85472V9.60017H19.3095L19.3368 4.85472ZM18.4913 4.85472V8.72745H5.53679V4.85472V4.33654C5.53679 3.70927 6.05497 3.19108 6.68225 3.19108H7.11861H15.3277L10.8004 5.59109C10.5822 5.70018 10.5004 5.97291 10.6095 6.16382C10.6913 6.30018 10.8277 6.38199 10.9913 6.38199C11.0459 6.38199 11.1277 6.35472 11.1822 6.32745L16.7459 3.38199C16.8277 3.32745 16.9095 3.27291 16.9368 3.16382H17.3186C17.9459 3.16382 18.4641 3.68199 18.4641 4.30927V4.85472H18.4913Z" fill="#2B292C"/>
<path d="M19.6092 22.0091C20.3456 22.0091 20.9456 21.4091 20.9456 20.6727C20.9456 20.4272 20.7547 20.2363 20.5092 20.2363C20.2638 20.2363 20.0729 20.4272 20.0729 20.6727C20.0729 20.9181 19.8547 21.1363 19.6092 21.1363C19.3638 21.1363 19.1729 21.3272 19.1729 21.5727C19.1729 21.8182 19.3638 22.0091 19.6092 22.0091Z" fill="#2B292C"/>
<path d="M9.40965 6.32816L8.18238 6.98271C7.9642 7.0918 7.88238 7.36452 7.99147 7.55543C8.07329 7.69179 8.20965 7.77362 8.37329 7.77362C8.42783 7.77362 8.50965 7.74634 8.56419 7.71907L9.79147 7.06453C10.0096 6.95543 10.0915 6.68271 9.98238 6.4918C9.87328 6.30089 9.62783 6.21907 9.40965 6.32816Z" fill="#2B292C"/>
<path d="M16.7725 4.66335L12.3816 6.98153C12.1634 7.09062 12.0816 7.36334 12.1907 7.55425C12.2725 7.69061 12.4089 7.77243 12.5725 7.77243C12.6271 7.77243 12.7089 7.74516 12.7634 7.71789L17.1543 5.42698C17.3725 5.31789 17.4543 5.04516 17.3452 4.85425C17.2361 4.63607 16.9634 4.55425 16.7725 4.66335Z" fill="#2B292C"/>
</svg>
