<svg width="24" height="24" viewBox="0 0 24 24" fill="none" xmlns="http://www.w3.org/2000/svg">
<path d="M23.7821 9.2622C23.7821 9.23496 23.7821 9.23496 23.7821 9.20772V9.18048V9.15324C23.7821 9.12599 23.7821 9.12599 23.7548 9.12599C23.7548 9.12599 23.7548 9.09875 23.7276 9.09875C23.7276 9.07151 23.7003 9.07151 23.7003 9.07151C23.7003 9.07151 23.7003 9.07151 23.7003 9.04427L23.2917 8.55391V0.43587C23.2917 0.190694 23.101 0 22.8558 0H18.8513C18.6061 0 18.4154 0.190694 18.4154 0.43587V2.94211L16.0454 0.163452L16.0182 0.136209L15.9909 0.108965L15.9637 0.081722L15.9364 0.0544869C15.9364 0.0544869 15.9092 0.0544852 15.9092 0.0272434C15.8819 0.0272434 15.8819 0.0272434 15.8547 0.0272434H15.8275C15.8002 0.0272434 15.8002 0.0272434 15.773 0.0272434C15.773 0.0272434 15.773 0.0272434 15.7457 0.0272434H7.70942C7.70942 0.0272434 7.70942 0.0272434 7.68218 0.0272434H7.65493H7.62769H7.60045H7.57321H7.54597H7.51872H7.49149C7.49149 0.0272434 7.49148 0.0272434 7.46424 0.0272434C7.46424 0.0272434 7.437 0.0272451 7.437 0.0544869C7.437 0.0544869 7.40976 0.0544802 7.40976 0.081722L7.38252 0.108965L0.081722 9.01703C0.081722 9.01703 0.081722 9.01703 0.081722 9.04427C0.081722 9.04427 0.0544827 9.07151 0.0544827 9.09875C0.0544827 9.09875 0.054481 9.12599 0.0272393 9.12599C0.0272393 9.15323 0.0272418 9.15324 0 9.18048V9.20772V9.23496C0 9.2622 0 9.2622 0 9.28944C0 9.28944 0 9.28945 0 9.31669V23.5641C0 23.8093 0.19069 24 0.435866 24H23.3734C23.6186 24 23.8093 23.8093 23.8093 23.5641L23.7821 9.2622C23.7821 9.28944 23.7821 9.28944 23.7821 9.2622ZM19.2872 3.67764V0.87174H22.3927V7.54597L19.2327 3.86833C19.2599 3.81385 19.2872 3.73212 19.2872 3.67764ZM7.73666 1.08967L14.7378 8.85357H1.33484L7.73666 1.08967ZM15.2826 23.101H0.844492V9.72532H15.2826V23.101ZM8.69012 0.87174H15.5278L18.6878 4.54938H17.6799C17.4347 4.54938 17.244 4.74006 17.244 4.98524C17.244 5.23042 17.4347 5.42111 17.6799 5.42111H19.3961H19.4234L20.4858 6.67423H17.9251C17.6799 6.67423 17.4892 6.86493 17.4892 7.1101C17.4892 7.35528 17.6799 7.54597 17.9251 7.54597H21.2213L22.42 8.9353H15.9092L8.69012 0.87174ZM22.9376 15.7185H18.8513C18.6061 15.7185 18.4154 15.9092 18.4154 16.1544C18.4154 16.3995 18.6061 16.5902 18.8513 16.5902H22.9103V18.1158H20.7582C20.5131 18.1158 20.3224 18.3065 20.3224 18.5516C20.3224 18.7968 20.5131 18.9875 20.7582 18.9875H22.9103V20.5675H18.1975C17.9523 20.5675 17.7616 20.7582 17.7616 21.0034C17.7616 21.2486 17.9523 21.4393 18.1975 21.4393H22.9376V23.1283H16.1544V9.72532H22.9376V15.7185Z" fill="#2B292C"/>
<path d="M6.83858 11.5781H4.41406V14.0026H6.83858V11.5781Z" fill="#2B292C"/>
<path d="M10.1608 11.5781H7.73633V14.0026H10.1608V11.5781Z" fill="#2B292C"/>
<path d="M6.83858 14.873H4.41406V17.2976H6.83858V14.873Z" fill="#2B292C"/>
<path d="M10.1608 14.873H7.73633V17.2976H10.1608V14.873Z" fill="#2B292C"/>
<path d="M10.9241 21.4387H13.2942C13.5394 21.4387 13.7301 21.248 13.7301 21.0029V18.5511C13.7301 18.3059 13.5394 18.1152 13.2942 18.1152C13.049 18.1152 12.8583 18.3059 12.8583 18.5511V20.567H10.9241C10.679 20.567 10.4883 20.7577 10.4883 21.0029C10.4883 21.248 10.679 21.4387 10.9241 21.4387Z" fill="#2B292C"/>
<path d="M8.93434 20.5684H8.52571C8.28053 20.5684 8.08984 20.7591 8.08984 21.0042C8.08984 21.2494 8.28053 21.4401 8.52571 21.4401H8.93434C9.17951 21.4401 9.37021 21.2494 9.37021 21.0042C9.37021 20.7591 9.17951 20.5684 8.93434 20.5684Z" fill="#2B292C"/>
</svg>
