<svg width="27" height="24" viewBox="0 0 27 24" fill="none" xmlns="http://www.w3.org/2000/svg">
<path d="M10.6333 14.4055H10.0866V10.8519C10.0866 10.6059 9.89522 10.4146 9.6492 10.4146H8.85649V3.03416C8.85649 2.95216 8.82916 2.87016 8.80182 2.81549L7.18906 0.191339C7.10706 0.0546647 6.97039 0 6.83371 0H4.70159C4.56492 0 4.42825 0.0819996 4.34624 0.191339L2.67881 2.81549C2.62414 2.89749 2.62414 2.95216 2.62414 3.03416V10.4146H1.91344C1.66743 10.4146 1.47608 10.6059 1.47608 10.8519V14.4328H0.437355C0.191342 14.4328 0 14.6241 0 14.8702V23.5626C0 23.8087 0.191342 24 0.437355 24H10.6059C10.8519 24 11.0433 23.8087 11.0433 23.5626V14.8428C11.0433 14.5968 10.8519 14.4055 10.6333 14.4055ZM3.49886 3.14351L4.97494 0.847374H6.64237L8.06378 3.14351V4.51025H6.77904C6.53303 4.51025 6.34169 4.70159 6.34169 4.9476C6.34169 5.19362 6.53303 5.38496 6.77904 5.38496H8.06378V6.64237H7.2164C6.97039 6.64237 6.77904 6.83371 6.77904 7.07973C6.77904 7.32574 6.97039 7.51709 7.2164 7.51709H8.06378V10.4966H3.52619V3.14351H3.49886ZM2.3508 11.262H3.0615H8.44647H9.23918V12.41H4.97494C4.72893 12.41 4.53758 12.6014 4.53758 12.8474C4.53758 13.0934 4.72893 13.2847 4.97494 13.2847H9.23918V14.4328H2.3508V11.262ZM10.1959 23.098H0.874715V15.2802H1.91344H9.6492H10.1686L10.1959 23.098Z" fill="#2B292C"/>
<path d="M25.5852 13.5852H23.6718V5.63071C23.6718 5.3847 23.4805 5.19336 23.2344 5.19336H17.2481C17.0021 5.19336 16.8108 5.3847 16.8108 5.63071V13.5852H14.8973C14.6513 13.5852 14.46 13.7765 14.46 14.0225V23.535C14.46 23.7811 14.6513 23.9724 14.8973 23.9724H25.5852C25.8313 23.9724 26.0226 23.7811 26.0226 23.535V14.0225C25.9953 13.7765 25.8313 13.5852 25.5852 13.5852ZM17.6308 6.06807H22.7971V9.67627H20.8016C20.5556 9.67627 20.3643 9.86762 20.3643 10.1136C20.3643 10.3596 20.5556 10.551 20.8016 10.551H22.7971V11.6717H19.0522C18.8062 11.6717 18.6149 11.8631 18.6149 12.1091C18.6149 12.3551 18.8062 12.5464 19.0522 12.5464H22.8244V13.6398H17.6581L17.6308 6.06807ZM25.1752 23.0977H15.3347V14.4599H17.2481H23.2891H25.2026L25.1752 23.0977Z" fill="#2B292C"/>
<path d="M16.7832 21.8671H23.7263V15.6895H16.7832V21.8671ZM17.6032 16.5095H22.8242V20.9924H17.6032V16.5095Z" fill="#2B292C"/>
<path d="M8.63798 16.4824C8.39197 16.4824 8.20062 16.6738 8.20062 16.9198V21.184H6.94322C6.69721 21.184 6.50586 21.3754 6.50586 21.6214C6.50586 21.8674 6.69721 22.0587 6.94322 22.0587H8.63798C8.88399 22.0587 9.07534 21.8674 9.07534 21.6214V16.8924C9.048 16.6738 8.85666 16.4824 8.63798 16.4824Z" fill="#2B292C"/>
<path d="M3.77278 21.1836H2.18736C1.94135 21.1836 1.75 21.3749 1.75 21.6209C1.75 21.867 1.94135 22.0583 2.18736 22.0583H3.74545C3.99146 22.0583 4.1828 21.867 4.1828 21.6209C4.1828 21.3749 3.99146 21.1836 3.77278 21.1836Z" fill="#2B292C"/>
</svg>
