<svg width="22" height="6" viewBox="0 0 22 6" fill="none" xmlns="http://www.w3.org/2000/svg">
<path d="M3.22222 5.44445C3.66174 5.44445 4.09138 5.31411 4.45682 5.06993C4.82227 4.82575 5.10709 4.47869 5.27529 4.07263C5.44348 3.66657 5.48749 3.21976 5.40175 2.78869C5.316 2.35762 5.10435 1.96166 4.79357 1.65088C4.48279 1.34009 4.08683 1.12845 3.65576 1.0427C3.22469 0.956955 2.77787 1.00096 2.37181 1.16916C1.96576 1.33735 1.61869 1.62218 1.37451 1.98762C1.13033 2.35307 1 2.78271 1 3.22222" stroke="#2B292C" stroke-width="0.9" stroke-linecap="round"/>
<path d="M10.9996 5.44444C12.2269 5.44444 13.2218 4.44952 13.2218 3.22222C13.2218 1.99492 12.2269 1 10.9996 1C9.77227 1 8.77734 1.99492 8.77734 3.22222C8.77734 4.44952 9.77227 5.44444 10.9996 5.44444Z" stroke="#2B292C" stroke-width="0.9"/>
<path d="M21.0001 3.22222C21.0001 3.66174 20.8698 4.09138 20.6256 4.45682C20.3814 4.82227 20.0344 5.10709 19.6283 5.27529C19.2222 5.44348 18.7754 5.48749 18.3444 5.40175C17.9133 5.316 17.5173 5.10435 17.2065 4.79357C16.8958 4.48279 16.6841 4.08683 16.5984 3.65576C16.5126 3.22469 16.5566 2.77787 16.7248 2.37182C16.893 1.96576 17.1778 1.61869 17.5433 1.37451C17.9087 1.13033 18.3384 1 18.7779 1" stroke="#2B292C" stroke-width="0.9" stroke-linecap="round"/>
</svg>
