<svg width="24" height="24" viewBox="0 0 24 24" fill="none" xmlns="http://www.w3.org/2000/svg">
<path d="M10.3085 3.51736C10.7453 3.51736 11.0994 3.16326 11.0994 2.72645C11.0994 2.28965 10.7453 1.93555 10.3085 1.93555C9.87168 1.93555 9.51758 2.28965 9.51758 2.72645C9.51758 3.16326 9.87168 3.51736 10.3085 3.51736Z" fill="#2B292C"/>
<path d="M13.2274 3.51736C13.6642 3.51736 14.0183 3.16326 14.0183 2.72645C14.0183 2.28965 13.6642 1.93555 13.2274 1.93555C12.7906 1.93555 12.4365 2.28965 12.4365 2.72645C12.4365 3.16326 12.7906 3.51736 13.2274 3.51736Z" fill="#2B292C"/>
<path d="M21.6545 15.5182V12.1909C21.6545 12.1364 21.6545 12.1091 21.6273 12.0818C21.4364 10.2818 19.9909 8.83636 18.1636 8.7V7.69091C18.1636 7.44546 17.9727 7.25455 17.7273 7.25455H13.3636V5.83636H15.2727C15.5182 5.83636 15.7091 5.64545 15.7091 5.4V3.35454H17.7C17.9455 3.35454 18.1364 3.16364 18.1364 2.91819C18.1364 2.67273 17.9455 2.48182 17.7 2.48182H15.7091V0.436365C15.7091 0.190911 15.5182 0 15.2727 0H8.18182C7.93636 0 7.74546 0.190911 7.74546 0.436365V2.48182H5.75455C5.50909 2.48182 5.31818 2.67273 5.31818 2.91819C5.31818 3.16364 5.50909 3.35454 5.75455 3.35454H7.74546V5.4C7.74546 5.64545 7.93636 5.83636 8.18182 5.83636H10.0909V7.25455H5.72727C5.48182 7.25455 5.29091 7.44546 5.29091 7.69091V8.7C3.49091 8.86364 2.07273 10.3091 1.88182 12.0818C1.88182 12.1091 1.85455 12.1636 1.85455 12.1909V15.5455C0.79091 15.7364 0 16.6909 0 17.7818C0 18.0273 0.190911 18.2182 0.436365 18.2182C0.68182 18.2182 0.872731 18.0273 0.872731 17.7818C0.872731 16.9909 1.52728 16.3636 2.29091 16.3636C3.08182 16.3636 3.70909 17.0182 3.70909 17.7818C3.70909 18.0273 3.9 18.2182 4.14546 18.2182C4.39091 18.2182 4.58182 18.0273 4.58182 17.7818C4.58182 16.6636 3.79091 15.7364 2.72727 15.5455V12.4364C2.72727 10.9364 3.84546 9.70909 5.29091 9.51818V16.6909C5.29091 16.9364 5.48182 17.1273 5.72727 17.1273H6.95455V18.9H6.19091C5.94546 18.9 5.75455 19.0909 5.75455 19.3364V23.1273H4.22727C3.98182 23.1273 3.79091 23.3182 3.79091 23.5636C3.79091 23.8091 3.98182 24 4.22727 24H6.19091H10.7455H12.8182H17.3727H19.3364C19.5818 24 19.7727 23.8091 19.7727 23.5636C19.7727 23.3182 19.5818 23.1273 19.3364 23.1273H17.7818V19.3636C17.7818 19.1182 17.5909 18.9273 17.3455 18.9273H16.5818V17.1545H17.7273C17.9727 17.1545 18.1636 16.9636 18.1636 16.7182V9.54545C19.6364 9.70909 20.7818 10.9636 20.7818 12.4636V15.5455C19.7182 15.7364 18.9273 16.6909 18.9273 17.7818C18.9273 18.0273 19.1182 18.2182 19.3636 18.2182C19.6091 18.2182 19.8 18.0273 19.8 17.7818C19.8 16.9909 20.4545 16.3636 21.2182 16.3636C22.0091 16.3636 22.6364 17.0182 22.6364 17.7818C22.6364 18.0273 22.8273 18.2182 23.0727 18.2182C23.3182 18.2182 23.5091 18.0273 23.5091 17.7818C23.5091 16.6636 22.7182 15.7364 21.6545 15.5182ZM8.64546 4.96364V2.97273C8.64546 2.94545 8.64546 2.94546 8.64546 2.91819C8.64546 2.89091 8.64546 2.89091 8.64546 2.86364V0.872731H14.8909V4.96364H12.9818H10.5818H8.64546ZM12.5455 5.80909V7.22727H10.9909V5.80909H12.5455ZM10.3091 23.1273H6.62727V19.7727H7.39091H9.57273H10.3364L10.3091 23.1273ZM7.8 18.9273V17.1545H9.13636V18.9273H7.8ZM12.3818 19.3636V23.1545H11.1818V19.3636C11.1818 19.1182 10.9909 18.9273 10.7455 18.9273H9.98182V17.1545H13.5545V18.9273H12.7909C12.5727 18.9273 12.3818 19.1182 12.3818 19.3636ZM16.9091 19.7727V21.0273H15.0545C14.8091 21.0273 14.6182 21.2182 14.6182 21.4636C14.6182 21.7091 14.8091 21.9 15.0545 21.9H16.9091V23.1545H13.2273V19.7727H13.9909H16.1727H16.9091ZM14.4 18.9273V17.1545H15.7364V18.9273H14.4ZM17.3182 16.2818H16.1727H13.9909H9.54545H7.36364H6.21818V8.1H10.5818H12.9818H17.3455V16.2818H17.3182Z" fill="#2B292C"/>
<path d="M8.59066 10.3086C8.3452 10.3086 8.1543 10.4995 8.1543 10.745V13.2813C8.1543 13.5268 8.3452 13.7177 8.59066 13.7177C8.83611 13.7177 9.02702 13.5268 9.02702 13.2813V10.745C9.02702 10.4995 8.80884 10.3086 8.59066 10.3086Z" fill="#2B292C"/>
<path d="M10.7176 10.3086C10.4722 10.3086 10.2812 10.4995 10.2812 10.745V13.2813C10.2812 13.5268 10.4722 13.7177 10.7176 13.7177C10.9631 13.7177 11.154 13.5268 11.154 13.2813V10.745C11.1267 10.4995 10.9358 10.3086 10.7176 10.3086Z" fill="#2B292C"/>
<path d="M12.4092 10.7176V13.254C12.4092 13.4994 12.6001 13.6903 12.8455 13.6903C13.091 13.6903 13.2819 13.4994 13.2819 13.254V10.7176C13.2819 10.4722 13.091 10.2812 12.8455 10.2812C12.6001 10.3085 12.4092 10.4994 12.4092 10.7176Z" fill="#2B292C"/>
<path d="M14.9461 13.6903C15.1916 13.6903 15.3825 13.4994 15.3825 13.254V10.7176C15.3825 10.4722 15.1916 10.2812 14.9461 10.2812C14.7007 10.2812 14.5098 10.4722 14.5098 10.7176V13.254C14.537 13.4994 14.7279 13.6903 14.9461 13.6903Z" fill="#2B292C"/>
</svg>
