<svg width="25" height="26" viewBox="0 0 25 26" fill="none" xmlns="http://www.w3.org/2000/svg">
<path d="M24.2927 16.9258L21.8904 21.0918C21.8208 21.2167 21.7079 21.3119 21.573 21.3594C21.4381 21.4069 21.2905 21.4034 21.158 21.3496L18.1638 20.1426C17.542 20.6198 16.8604 21.0138 16.1365 21.3144L15.6853 24.4961C15.6654 24.6369 15.595 24.7656 15.4872 24.8583C15.3794 24.951 15.2416 25.0014 15.0994 25H10.2947C10.1525 25.0014 10.0147 24.951 9.90688 24.8583C9.79908 24.7656 9.72866 24.6369 9.70876 24.4961L9.25759 21.3144C8.5346 21.0119 7.85328 20.6181 7.23026 20.1426L4.21854 21.3496C4.08603 21.4034 3.93841 21.4069 3.8035 21.3594C3.66859 21.3119 3.5557 21.2167 3.48612 21.0918L1.08379 16.9258C1.0095 16.8022 0.983363 16.6556 1.01039 16.514C1.03741 16.3724 1.1157 16.2457 1.23027 16.1582L3.76151 14.1719C3.71047 13.7833 3.68308 13.3919 3.67948 13C3.68328 12.6081 3.71067 12.2168 3.76151 11.8281L1.23027 9.8418C1.1157 9.75429 1.03741 9.62761 1.01039 9.486C0.983363 9.34439 1.0095 9.19778 1.08379 9.07423L3.48612 4.90822C3.5557 4.78326 3.66859 4.68807 3.8035 4.64058C3.93841 4.59309 4.08603 4.59659 4.21854 4.65041L7.21268 5.85744C7.83454 5.38019 8.51609 4.98623 9.24002 4.68557L9.69119 1.50393C9.71109 1.36315 9.7815 1.2344 9.8893 1.14169C9.99711 1.04898 10.1349 0.998629 10.2771 1.00003H15.0818C15.2223 1.00442 15.3571 1.05682 15.4638 1.1485C15.5704 1.24019 15.6424 1.36563 15.6677 1.50393L16.1189 4.68557C16.8419 4.98812 17.5232 5.38194 18.1462 5.85744L21.1404 4.65041C21.2729 4.59659 21.4205 4.59309 21.5554 4.64058C21.6903 4.68807 21.8032 4.78326 21.8728 4.90822L24.2751 9.07423C24.3494 9.19778 24.3756 9.34439 24.3485 9.486C24.3215 9.62761 24.2432 9.75429 24.1287 9.8418L21.615 11.8281C21.666 12.2167 21.6934 12.6081 21.697 13C21.6934 13.3919 21.666 13.7833 21.615 14.1719L24.1462 16.1582C24.2608 16.2457 24.3391 16.3724 24.3661 16.514C24.3931 16.6556 24.367 16.8022 24.2927 16.9258ZM13.5525 9.98829C13.4661 9.83598 13.3409 9.7093 13.1896 9.62117C13.0383 9.53303 12.8663 9.4866 12.6912 9.4866C12.5161 9.4866 12.3441 9.53303 12.1928 9.62117C12.0415 9.7093 11.9162 9.83598 11.8299 9.98829L8.96463 15.0391C8.87973 15.1896 8.83573 15.3598 8.837 15.5327C8.83827 15.7055 8.88477 15.875 8.97186 16.0243C9.05896 16.1736 9.18363 16.2976 9.33347 16.3837C9.4833 16.4699 9.65309 16.5154 9.82595 16.5156H15.5564C15.7293 16.5154 15.8991 16.4699 16.0489 16.3837C16.1987 16.2976 16.3234 16.1736 16.4105 16.0243C16.4976 15.875 16.5441 15.7055 16.5454 15.5327C16.5466 15.3598 16.5026 15.1896 16.4177 15.0391L13.5525 9.98829ZM11.5193 14.5352L12.6912 12.4785L13.8631 14.5352H11.5193Z" stroke="#2B292C" stroke-width="0.8" stroke-linecap="round" stroke-linejoin="round"/>
</svg>
