<svg width="26" height="24" viewBox="0 0 26 24" fill="none" xmlns="http://www.w3.org/2000/svg">
<path d="M16.8611 0.0179206C16.752 -0.00936279 16.6156 -0.00936113 16.5064 0.0452056C16.3973 0.0997724 16.3155 0.208906 16.2882 0.318039C15.8516 1.95504 14.3783 3.10094 12.6868 3.10094C10.9952 3.10094 9.5219 1.95504 9.08536 0.318039C9.05808 0.208906 8.97623 0.0997724 8.8671 0.0452056C8.75796 -0.00936113 8.64883 -0.00936279 8.51241 0.0179206C3.4377 1.79134 0 6.59321 0 11.968C0 12.9502 0.109134 13.9597 0.354685 14.9419C0.409251 15.1329 0.572952 15.2693 0.763935 15.2693H5.45667V23.5635C5.45667 23.809 5.64766 24 5.89321 24H19.5895C19.835 24 20.026 23.809 20.026 23.5635V15.2693H24.5823C24.7733 15.2693 24.9643 15.1329 24.9916 14.9419C25.2371 13.9597 25.3463 12.9775 25.3463 11.968C25.3735 6.59321 21.9358 1.79134 16.8611 0.0179206ZM24.2549 14.4235H20.026V12.4319H22.5361C22.7816 12.4319 22.9726 12.2409 22.9726 11.9953C22.9726 11.7498 22.7816 11.5588 22.5361 11.5588H20.026V10.331H21.9358C22.1814 10.331 22.3724 10.14 22.3724 9.8945C22.3724 9.64894 22.1814 9.45797 21.9358 9.45797H19.9714C19.9169 9.45797 19.8721 9.45797 19.7897 9.45797C19.5307 9.46168 19.6713 9.45797 19.5895 9.45797C19.3439 9.45797 19.1529 9.64894 19.1529 9.8945V23.1269H6.32974V9.8945C6.32974 9.64894 6.13876 9.45797 5.89321 9.45797C5.64766 9.45797 5.45667 9.64894 5.45667 9.8945V14.4235H1.09133C0.927635 13.6323 0.845786 12.8138 0.845786 11.9953C0.845786 7.11159 3.84696 2.74626 8.34871 1.00012C9.0308 2.77354 10.7224 3.97401 12.6322 3.97401C14.542 3.97401 16.3155 2.74626 16.9975 0.972839C21.4993 2.74626 24.5005 7.11159 24.5005 11.968C24.5005 12.7865 24.4186 13.605 24.2549 14.4235Z" fill="currentColor"/>
<path d="M17.2979 13.0859C17.0523 13.0859 16.8613 13.2769 16.8613 13.5225V14.5047C16.8613 14.7502 17.0523 14.9412 17.2979 14.9412C17.5434 14.9412 17.7344 14.7502 17.7344 14.5047V13.5225C17.7344 13.2769 17.5434 13.0859 17.2979 13.0859Z" fill="currentColor"/>
<path d="M17.2975 16.8516C17.052 16.8516 16.861 17.0425 16.861 17.2881V20.8895H15.3877C15.1422 20.8895 14.9512 21.0805 14.9512 21.326C14.9512 21.5716 15.1422 21.7626 15.3877 21.7626H17.2703C17.5158 21.7626 17.7068 21.5716 17.7068 21.326V17.2881C17.7341 17.0425 17.5431 16.8516 17.2975 16.8516Z" fill="currentColor"/>
</svg>
