<svg width="24" height="24" viewBox="0 0 24 24" fill="none" xmlns="http://www.w3.org/2000/svg">
<path d="M23.406 5.10098C23.3768 5.02901 23.3307 4.96519 23.2715 4.91497C23.2123 4.86476 23.1418 4.82965 23.0661 4.81266C22.9903 4.79567 22.9116 4.79731 22.8366 4.81743C22.7616 4.83755 22.6927 4.87555 22.6356 4.92819L17.6175 9.55991L15.0005 9.00074L14.4389 6.3861L19.0706 1.368C19.1235 1.31094 19.1617 1.24188 19.182 1.16677C19.2023 1.09165 19.204 1.01274 19.187 0.936816C19.17 0.860895 19.1348 0.790244 19.0844 0.73095C19.034 0.671657 18.97 0.625498 18.8978 0.596448C17.3656 -0.0239366 15.6812 -0.164323 14.0674 0.193876C12.4537 0.552076 10.9868 1.39197 9.86097 2.60234C8.73515 3.81272 8.00351 5.33649 7.76292 6.97191C7.52232 8.60732 7.78412 10.2772 8.51366 11.7606L1.00931 18.2402L0.984112 18.2642C0.353995 18.8943 0 19.7489 0 20.64C0 21.5312 0.353995 22.3858 0.984112 23.0159C1.61423 23.646 2.46885 24 3.35997 24C4.25109 24 5.10571 23.646 5.73582 23.0159L5.75982 22.9907L12.2394 15.4863C13.4837 16.0983 14.8634 16.383 16.2483 16.3137C17.6331 16.2444 18.9775 15.8233 20.1545 15.0902C21.3314 14.3571 22.3021 13.3361 22.9749 12.1237C23.6478 10.9113 24.0005 9.5474 23.9999 8.16079C24.0019 7.11202 23.8001 6.07285 23.406 5.10098ZM15.8404 15.3604C14.6234 15.3605 13.4261 15.0521 12.3606 14.464C12.2637 14.4096 12.1509 14.3905 12.0415 14.41C11.9321 14.4295 11.8328 14.4863 11.7607 14.5708L5.04107 22.3499C4.58455 22.7636 3.98646 22.9858 3.37061 22.9706C2.75476 22.9555 2.16833 22.7041 1.73273 22.2685C1.29712 21.8329 1.04572 21.2464 1.03055 20.6306C1.01539 20.0147 1.23763 19.4166 1.65127 18.9601L9.4292 12.2405C9.51371 12.1684 9.57055 12.0691 9.59003 11.9597C9.6095 11.8503 9.5904 11.7375 9.53599 11.6406C8.8451 10.3912 8.54128 8.96452 8.66316 7.542C8.78504 6.11949 9.32711 4.76533 10.2205 3.65164C11.1138 2.53796 12.3182 1.71503 13.6804 1.28747C15.0426 0.859901 16.5011 0.847002 17.8707 1.25041L13.5665 5.91573C13.5138 5.97189 13.4754 6.03992 13.4545 6.11406C13.4336 6.1882 13.4309 6.26628 13.4466 6.3417L14.1257 9.50351C14.1451 9.59386 14.1902 9.67668 14.2556 9.74203C14.3209 9.80737 14.4037 9.85246 14.4941 9.87189L17.6559 10.551C17.7313 10.5667 17.8094 10.564 17.8835 10.5431C17.9577 10.5222 18.0257 10.4838 18.0819 10.4311L22.746 6.12691C23.0609 7.20049 23.1214 8.33264 22.9228 9.43368C22.7243 10.5347 22.272 11.5744 21.602 12.4703C20.9319 13.3663 20.0624 14.0939 19.0624 14.5955C18.0623 15.0971 16.9592 15.359 15.8404 15.3604Z" fill="#2B292C"/>
</svg>
