<svg width="24" height="24" viewBox="0 0 24 24" fill="none" xmlns="http://www.w3.org/2000/svg">
<path fill-rule="evenodd" clip-rule="evenodd" d="M2.00005 6.33334C2.00005 5.59722 2.59727 5 3.33338 5H14.6199C15.356 5 15.9532 5.59722 15.9532 6.33334V8.52345H18.4774C18.9245 8.52345 19.3429 8.74827 19.5894 9.12068L21.7786 12.4298C21.9227 12.6485 22 12.9046 22 13.1659V15.4446C22 16.1807 21.4028 16.7779 20.6667 16.7779H19.9158C19.6198 17.9281 18.5755 18.7779 17.3333 18.7779C16.0912 18.7779 15.0469 17.9281 14.7509 16.7779H9.2491C8.9531 17.9281 7.90883 18.7779 6.66665 18.7779C5.42447 18.7779 4.38021 17.9281 4.0842 16.7779H3.33334C2.59722 16.7779 2 16.1807 2 15.4446L2.00005 6.33334ZM15.9532 13.8289C16.356 13.585 16.8282 13.4444 17.3334 13.4444C18.5756 13.4444 19.6198 14.2942 19.9158 15.4444H20.6667V13.1657L18.4775 9.85657H15.9532L15.9532 13.8289ZM14.6199 15.4444H9.24917C8.95317 14.2942 7.9089 13.4444 6.66672 13.4444C5.42454 13.4444 4.38027 14.2942 4.08427 15.4444H3.33341V6.33323H14.6199L14.6199 15.4444ZM6.66672 14.7777C5.93061 14.7777 5.33339 15.3749 5.33339 16.111C5.33339 16.8471 5.93061 17.4444 6.66672 17.4444C7.40284 17.4444 8.00006 16.8471 8.00006 16.111C8.00006 15.3749 7.40284 14.7777 6.66672 14.7777ZM16.0001 16.111C16.0001 15.3749 16.5973 14.7777 17.3334 14.7777C18.0695 14.7777 18.6668 15.3749 18.6668 16.111C18.6668 16.8471 18.0695 17.4444 17.3334 17.4444C16.5973 17.4444 16.0001 16.8471 16.0001 16.111Z" fill="#2B292C"/>
</svg>
