<svg width="24" height="24" viewBox="0 0 24 24" fill="none" xmlns="http://www.w3.org/2000/svg">
<path d="M5.57132 3C5.4387 3.00007 5.30872 3.03706 5.19593 3.10682C5.08315 3.17659 4.99201 3.27638 4.93273 3.39501L2.07554 9.10939C2.01405 9.23225 1.98929 9.37024 2.00424 9.50682C2.01919 9.64339 2.07321 9.77276 2.15983 9.87941L11.4457 21.3082C11.5127 21.3906 11.5972 21.457 11.6931 21.5026C11.789 21.5483 11.8938 21.5719 12 21.5719C12.1062 21.5719 12.211 21.5483 12.3069 21.5026C12.4028 21.457 12.4873 21.3906 12.5543 21.3082L21.8402 9.87941C21.9268 9.77276 21.9808 9.64339 21.9958 9.50682C22.0107 9.37024 21.986 9.23225 21.9245 9.10939L19.0673 3.39501C19.008 3.27638 18.9169 3.17659 18.8041 3.10682C18.6913 3.03706 18.5613 3.00007 18.4287 3H5.57132ZM3.86986 8.71439L6.01275 4.4286H8.94209L7.87064 8.71439H3.86986ZM4.21486 10.143H7.9035L10.2085 17.5203L4.21486 10.143ZM9.40067 10.143H14.6L12 18.4624L9.39995 10.143H9.40067ZM16.0965 10.143H19.7859L13.7922 17.5203L16.0965 10.143ZM20.1301 8.71439H16.1294L15.0579 4.4286H17.9872L20.1301 8.71439ZM14.6565 8.71439H9.34352L10.415 4.4286H13.585L14.6565 8.71439Z" fill="url(#paint0_linear_1965_11914)"/>
<defs>
<linearGradient id="paint0_linear_1965_11914" x1="3.36016" y1="6.04299" x2="19.2133" y2="21.2652" gradientUnits="userSpaceOnUse">
<stop offset="0.4" stop-color="#ECC440"/>
<stop offset="0.445" stop-color="#FFFA8A"/>
<stop offset="0.5" stop-color="#DDAC17"/>
</linearGradient>
</defs>
</svg>
