<svg width="20" height="20" viewBox="0 0 20 20" fill="none" xmlns="http://www.w3.org/2000/svg">
<path fill-rule="evenodd" clip-rule="evenodd" d="M13.5 3.00251C13.303 3.00251 13.108 3.04131 12.926 3.11669C12.744 3.19207 12.5786 3.30256 12.4393 3.44185C12.3001 3.58113 12.1896 3.74649 12.1142 3.92848C12.0388 4.11047 12 4.30552 12 4.50251C12 4.69949 12.0388 4.89454 12.1142 5.07653C12.1896 5.25852 12.3001 5.42388 12.4393 5.56317C12.5786 5.70245 12.744 5.81294 12.926 5.88833C13.108 5.96371 13.303 6.00251 13.5 6.00251C13.8978 6.00251 14.2794 5.84447 14.5607 5.56317C14.842 5.28186 15 4.90033 15 4.50251C15 4.10468 14.842 3.72315 14.5607 3.44185C14.2794 3.16054 13.8978 3.00251 13.5 3.00251ZM11.05 4.00251C11.1648 3.43736 11.4714 2.92927 11.9179 2.56432C12.3644 2.19937 12.9233 2 13.5 2C14.0767 2 14.6356 2.19937 15.0821 2.56432C15.5286 2.92927 15.8352 3.43736 15.95 4.00251H17.5025C17.7773 4.00251 18 4.22524 18 4.5C18 4.77753 17.775 5.00251 17.4975 5.00251H15.95C15.8352 5.56765 15.5286 6.07574 15.0821 6.4407C14.6356 6.80565 14.0767 7.00501 13.5 7.00501C12.9233 7.00501 12.3644 6.80565 11.9179 6.4407C11.4714 6.07574 11.1648 5.56765 11.05 5.00251H2.50251C2.22498 5.00251 2 4.77753 2 4.5V4.50251C2 4.22636 2.22386 4.00251 2.5 4.00251H11.05ZM6.5 8.00251C6.10218 8.00251 5.72064 8.16054 5.43934 8.44185C5.15804 8.72315 5 9.10468 5 9.50251C5 9.90033 5.15804 10.2819 5.43934 10.5632C5.72064 10.8445 6.10218 11.0025 6.5 11.0025C6.89782 11.0025 7.27936 10.8445 7.56066 10.5632C7.84196 10.2819 8 9.90033 8 9.50251C8 9.10468 7.84196 8.72315 7.56066 8.44185C7.27936 8.16054 6.89782 8.00251 6.5 8.00251ZM4.05 9.00251C4.16476 8.43736 4.47136 7.92927 4.91787 7.56432C5.36438 7.19937 5.92332 7 6.5 7C7.07668 7 7.63562 7.19937 8.08213 7.56432C8.52864 7.92927 8.83524 8.43736 8.95 9.00251H17.5C17.7761 9.00251 18 9.22636 18 9.50251C18 9.77865 17.7761 10.0025 17.5 10.0025H8.95C8.83524 10.5677 8.52864 11.0757 8.08213 11.4407C7.63562 11.8056 7.07668 12.005 6.5 12.005C5.92332 12.005 5.36438 11.8056 4.91787 11.4407C4.47136 11.0757 4.16476 10.5677 4.05 10.0025H2.5C2.22386 10.0025 2 9.77865 2 9.50251C2 9.22636 2.22386 9.00251 2.5 9.00251H4.05ZM13.5 13.0025C13.1022 13.0025 12.7206 13.1605 12.4393 13.4418C12.158 13.7232 12 14.1047 12 14.5025C12 14.9003 12.158 15.2819 12.4393 15.5632C12.7206 15.8445 13.1022 16.0025 13.5 16.0025C13.8978 16.0025 14.2794 15.8445 14.5607 15.5632C14.842 15.2819 15 14.9003 15 14.5025C15 14.1047 14.842 13.7232 14.5607 13.4418C14.2794 13.1605 13.8978 13.0025 13.5 13.0025ZM11.05 14.0025C11.1648 13.4374 11.4714 12.9293 11.9179 12.5643C12.3644 12.1994 12.9233 12 13.5 12C14.0767 12 14.6356 12.1994 15.0821 12.5643C15.5286 12.9293 15.8352 13.4374 15.95 14.0025H17.5C17.7761 14.0025 18 14.2264 18 14.5025C18 14.7786 17.7761 15.0025 17.5 15.0025H15.95C15.8352 15.5677 15.5286 16.0757 15.0821 16.4407C14.6356 16.8056 14.0767 17.005 13.5 17.005C12.9233 17.005 12.3644 16.8056 11.9179 16.4407C11.4714 16.0757 11.1648 15.5677 11.05 15.0025H2.5C2.22386 15.0025 2 14.7786 2 14.5025C2 14.2264 2.22386 14.0025 2.5 14.0025H11.05Z" fill="#2B292C" stroke="#2B292C" stroke-width="0.5"/>
</svg>
