<svg width="80" height="80" viewBox="0 0 80 80" fill="none" xmlns="http://www.w3.org/2000/svg">
<rect width="80" height="80" rx="40" fill="#BEBEBE"/>
<path fill-rule="evenodd" clip-rule="evenodd" d="M40.002 24C31.1734 24 24 31.1734 24 40.002C24 48.8306 31.1731 56.0067 40.002 56.004C43.1453 56.003 46.2173 55.0712 48.8349 53.3333C48.9214 53.2794 48.9961 53.2086 49.0547 53.1253C49.1134 53.042 49.1547 52.9478 49.1763 52.8482C49.1979 52.7487 49.1993 52.6458 49.1804 52.5457C49.1616 52.4456 49.1229 52.3503 49.0665 52.2654C49.0102 52.1805 48.9374 52.1078 48.8525 52.0515C48.7676 51.9952 48.6723 51.9565 48.5721 51.9377C48.472 51.9189 48.3691 51.9204 48.2696 51.9421C48.1701 51.9637 48.0759 52.0051 47.9926 52.0638C45.6235 53.6366 42.8444 54.4791 40.002 54.48C31.9973 54.4824 25.524 48.007 25.524 40.002C25.524 31.997 31.997 25.524 40.002 25.524C48.007 25.524 54.4824 31.9973 54.48 40.002C54.4791 42.8444 53.6366 45.6235 52.0638 47.9926C52.0051 48.0759 51.9637 48.1701 51.9421 48.2696C51.9204 48.3691 51.9189 48.472 51.9377 48.5721C51.9565 48.6723 51.9952 48.7676 52.0515 48.8525C52.1078 48.9374 52.1805 49.0102 52.2654 49.0665C52.3503 49.1229 52.4456 49.1616 52.5457 49.1804C52.6458 49.1993 52.7487 49.1979 52.8482 49.1763C52.9478 49.1547 53.042 49.1134 53.1253 49.0547C53.2086 48.9961 53.2794 48.9214 53.3333 48.8349C55.0712 46.2173 56.003 43.1453 56.004 40.002C56.0067 31.1731 48.8306 24 40.002 24ZM40.002 27.048C37.6441 27.048 35.4294 27.6831 33.5243 28.7856C33.4351 28.8343 33.3566 28.9005 33.2933 28.98C33.2301 29.0596 33.1834 29.151 33.156 29.2489C33.1287 29.3468 33.1211 29.4491 33.1339 29.55C33.1467 29.6508 33.1795 29.7481 33.2304 29.836C33.2814 29.924 33.3494 30.0009 33.4305 30.0621C33.5116 30.1234 33.6041 30.1679 33.7026 30.1929C33.8011 30.2178 33.9036 30.2229 34.0041 30.2076C34.1046 30.1924 34.2011 30.1572 34.2877 30.1042C35.9699 29.1308 37.9171 28.572 40.002 28.572C46.3236 28.572 51.4326 33.6805 51.432 40.002C51.4317 42.8792 50.2989 45.5861 48.384 47.6771V46.098C48.384 44.0004 46.6716 42.288 44.574 42.288H43.7249C44.7169 41.3188 45.336 39.9696 45.336 38.4795C45.336 35.5426 42.9374 33.144 40.0005 33.144C37.0637 33.144 34.6687 35.5426 34.6687 38.4795C34.6687 39.9696 35.2871 41.3188 36.2783 42.288H35.43C33.3324 42.288 31.62 44.0004 31.62 46.098V47.6666C29.7071 45.5782 28.5742 42.8748 28.572 40.0013C28.5704 37.9171 29.1306 35.9702 30.1042 34.2877C30.1572 34.2011 30.1924 34.1046 30.2076 34.0041C30.2229 33.9036 30.2178 33.8011 30.1929 33.7026C30.1679 33.6041 30.1234 33.5116 30.0621 33.4305C30.0009 33.3494 29.924 33.2814 29.836 33.2304C29.7481 33.1795 29.6508 33.1467 29.55 33.1339C29.4491 33.1211 29.3468 33.1287 29.2489 33.156C29.151 33.1834 29.0596 33.2301 28.98 33.2933C28.9005 33.3566 28.8343 33.4351 28.7856 33.5243C27.6833 35.4291 27.0462 37.6441 27.048 40.0027C27.051 43.9306 28.84 47.6447 31.9057 50.0992C32.0178 50.1889 32.1529 50.2451 32.2955 50.2614C32.4381 50.2777 33.5 50.5 33.5 50.5C33.5 50.5 33.5 50.5 33.5 50.4865C35 50.4865 34.9131 50.4865 36.1927 50.4865H44.574C45.8536 50.4865 45 50.5 46.5 50.4865V50.5C46.5 50.5 47.5659 50.2888 47.7085 50.2726C47.8511 50.2563 47.9862 50.2001 48.0982 50.1104C51.1673 47.6532 52.9556 43.9337 52.956 40.002C52.9567 32.8566 47.1473 27.048 40.002 27.048ZM50.7898 50.0166C50.6878 50.015 50.5865 50.0338 50.4919 50.072C50.3973 50.1103 50.3114 50.1671 50.2391 50.2391C50.1683 50.3099 50.1121 50.394 50.0737 50.4865C50.0354 50.579 50.0156 50.6781 50.0156 50.7783C50.0156 50.8784 50.0354 50.9776 50.0737 51.0701C50.1121 51.1626 50.1683 51.2466 50.2391 51.3174C50.3099 51.3883 50.394 51.4445 50.4865 51.4828C50.579 51.5212 50.6781 51.5409 50.7783 51.5409C50.8784 51.5409 50.9776 51.5212 51.0701 51.4828C51.1626 51.4445 51.2466 51.3883 51.3174 51.3174C51.3883 51.2466 51.4445 51.1626 51.4828 51.0701C51.5212 50.9776 51.5409 50.8784 51.5409 50.7783C51.5409 50.6781 51.5212 50.579 51.4828 50.4865C51.4445 50.394 51.3883 50.3099 51.3174 50.2391C51.1771 50.0992 50.9879 50.0194 50.7898 50.0166Z" fill="white"/>
</svg>
