<svg width="36" height="29" viewBox="0 0 36 29" fill="none" xmlns="http://www.w3.org/2000/svg">
<path fill-rule="evenodd" clip-rule="evenodd" d="M1.34509 0.000111446C0.218304 -0.0158239 0.218304 1.68249 1.34509 1.66656H4.90988C5.60359 1.66656 5.93338 1.82589 6.12717 1.99041C6.32096 2.15493 6.42724 2.37555 6.49008 2.67228L10.1932 20.9942C10.3531 21.7938 10.7715 22.4279 11.3071 22.8104C11.7274 23.1105 12.194 23.2564 12.644 23.3067C12.3482 23.8042 12.1745 24.3815 12.1745 24.9984C12.1745 26.8293 13.6742 28.3289 15.505 28.3289C17.3358 28.3289 18.8387 26.8293 18.8387 24.9984C18.8387 24.3914 18.6706 23.8225 18.383 23.3303H24.2937C24.0066 23.8224 23.8388 24.3915 23.8388 24.9984C23.8388 26.8293 25.3393 28.3289 27.1701 28.3289C29.0009 28.3289 30.5038 26.8293 30.5038 24.9984C30.5038 24.3914 30.3358 23.8225 30.0481 23.3303H30.0725C30.628 23.3303 31.24 23.1929 31.7756 22.8104C32.3113 22.4279 32.7297 21.7938 32.8896 20.9942L35.4503 8.18913C35.5885 7.49763 35.4427 6.73169 34.9596 6.09142C34.4765 5.45116 33.6219 4.99945 32.573 4.99945H30.0213L25.2628 0.24422C25.1037 0.0859394 24.8875 -0.00148282 24.6631 0.00173883C24.4463 0.00432182 24.2391 0.0913174 24.0854 0.24422L22.0235 2.30612C21.0245 0.88277 19.3795 0.000545555 17.5929 0.000111446C14.7519 -0.000578879 12.4128 2.21171 12.1981 4.99945H8.68624L8.11991 2.32728C8.00711 1.79466 7.74876 1.1816 7.20531 0.720231C6.66187 0.258865 5.88262 0.000111446 4.90988 0.000111446H1.34509ZM17.5929 1.66656C18.9336 1.66688 20.1524 2.37857 20.8192 3.51039L19.3302 4.99945H13.8678C14.0735 3.11728 15.6536 1.66609 17.5929 1.66656ZM24.6761 2.01319L27.6624 4.99945H21.6899L24.6761 2.01319ZM9.02717 6.66589H32.573C33.1892 6.66589 33.4548 6.8625 33.63 7.09471C33.8052 7.32691 33.8572 7.65759 33.8164 7.86202L33.3892 9.99878H19.676C18.5492 9.98285 18.5492 11.6812 19.676 11.6652H33.0556L31.2557 20.6671C31.1656 21.1174 31.0001 21.3165 30.8065 21.4548C30.6129 21.593 30.3503 21.6639 30.0726 21.6639H13.0102C12.7325 21.6639 12.469 21.593 12.2754 21.4548C12.0818 21.3165 11.9171 21.1174 11.8271 20.6671L10.0272 11.6652H13.0102C14.137 11.6812 14.137 9.98285 13.0102 9.99878H9.69359L9.02717 6.66589ZM16.3431 9.99878C15.8829 9.99878 15.5099 10.3718 15.5099 10.832C15.5099 11.2922 15.8829 11.6652 16.3431 11.6652C16.8033 11.6652 17.1763 11.2922 17.1763 10.832C17.1763 10.3718 16.8033 9.99878 16.3431 9.99878ZM15.505 23.3312C16.4352 23.3312 17.1714 24.0682 17.1714 24.9984C17.1714 25.9286 16.4352 26.6616 15.505 26.6616C14.5748 26.6616 13.841 25.9286 13.841 24.9984C13.841 24.0682 14.5748 23.3312 15.505 23.3312ZM27.1701 23.3312C28.1003 23.3312 28.8366 24.0682 28.8366 24.9984C28.8366 25.9286 28.1003 26.6616 27.1701 26.6616C26.2399 26.6616 25.5061 25.9286 25.5061 24.9984C25.5061 24.0682 26.2399 23.3312 27.1701 23.3312Z" fill="#2B292C"/>
</svg>
