<svg width="25" height="28" viewBox="0 0 25 28" fill="none" xmlns="http://www.w3.org/2000/svg">
<path fill-rule="evenodd" clip-rule="evenodd" d="M12.1161 0C7.47867 0 3.71735 3.76285 3.71613 8.4L3.71431 15.019L0.45402 19.9135C-0.756575 21.7309 0.601382 24.2648 2.78462 24.2648H7.54425C7.97928 26.3887 9.86874 28 12.1161 28C12.9666 28 13.7665 27.7665 14.4504 27.3702C15.5695 26.7583 14.603 25.0891 13.5152 25.7551C13.0997 25.9958 12.6277 26.1333 12.1161 26.1333C10.8865 26.1333 9.85616 25.3574 9.47563 24.2648H21.4486C23.632 24.2648 24.9912 21.7307 23.7792 19.9135L20.5161 15.0217V8.4C20.5161 6.86877 20.1016 5.43276 19.3905 4.2C19.3292 4.09381 19.2476 4.00073 19.1504 3.92607C19.0531 3.85142 18.9421 3.79665 18.8237 3.7649C18.7053 3.73314 18.5818 3.72503 18.4602 3.74101C18.3387 3.757 18.2214 3.79677 18.1153 3.85806C18.0091 3.91935 17.916 4.00096 17.8414 4.09822C17.7667 4.19548 17.712 4.3065 17.6803 4.42492C17.6485 4.54334 17.6404 4.66685 17.6564 4.7884C17.6724 4.90996 17.7122 5.02716 17.7736 5.13333C18.329 6.09634 18.6495 7.20419 18.6495 8.4V15.3043C18.6495 15.4886 18.704 15.6687 18.8062 15.822L22.226 20.949C22.6672 21.6104 22.2444 22.3982 21.4486 22.3982H2.78462C1.98852 22.3982 1.56603 21.6112 2.00714 20.949L5.4242 15.8193C5.52641 15.666 5.58096 15.4858 5.58097 15.3016L5.5828 8.4C5.58376 4.76409 8.48052 1.86667 12.1161 1.86667C13.3119 1.86667 14.4198 2.18711 15.3828 2.74258C15.489 2.80397 15.6062 2.84384 15.7278 2.8599C15.8494 2.87597 15.9729 2.86792 16.0914 2.83621C16.2099 2.8045 16.321 2.74975 16.4183 2.6751C16.5156 2.60045 16.5972 2.50735 16.6585 2.40113C16.7198 2.29491 16.7596 2.17765 16.7756 2.05605C16.7916 1.93445 16.7834 1.81089 16.7516 1.69244C16.7198 1.57399 16.665 1.46296 16.5903 1.36571C16.5156 1.26846 16.4224 1.18688 16.3161 1.12565C15.0834 0.414583 13.6473 0 12.1161 0Z" fill="#E4DB00"/>
</svg>
