<svg width="60" height="59" viewBox="0 0 60 59" fill="none" xmlns="http://www.w3.org/2000/svg">
<path fill-rule="evenodd" clip-rule="evenodd" d="M5.05809 8.45084C8.73641 5.24995 14.8907 10.3409 19.5218 8.81497C23.4125 7.53296 24.5085 1.20787 28.5737 0.702423C32.489 0.215614 35.101 5.02 38.79 6.41925C42.6436 7.88096 47.2336 6.90713 50.7214 9.10314C54.3773 11.405 57.5592 14.9045 58.8263 19.0346C60.0905 23.1555 58.0012 27.4747 57.6763 31.7728C57.3482 36.1133 58.417 40.5889 56.8887 44.6647C55.2994 48.9033 53.0612 53.8268 48.8168 55.4006C44.2539 57.0924 39.4251 52.3862 34.5895 52.9328C30.4732 53.3982 27.6477 58.0119 23.5127 58.2612C19.3031 58.515 14.0154 57.7994 11.6371 54.3166C8.93985 50.3669 13.3133 44.3912 11.1339 40.1338C9.1709 36.2993 2.09645 36.8895 0.640382 32.8352C-0.69008 29.1308 3.85969 25.7067 4.56138 21.8336C5.36595 17.3926 1.6534 11.4136 5.05809 8.45084Z" fill="#FFFCB7"/>
</svg>
