<svg width="36" height="36" viewBox="0 0 36 36" fill="none" xmlns="http://www.w3.org/2000/svg">
<path d="M13.4544 17.2269C13.3525 17.2269 13.2489 17.213 13.1461 17.1834L11.1096 16.5986C10.5193 16.4292 10.1775 15.8135 10.3478 15.2265C10.5193 14.6395 11.1376 14.3 11.7274 14.4693L13.7644 15.0538C14.3546 15.2231 14.696 15.8388 14.5257 16.4258C14.3852 16.9106 13.9385 17.2269 13.4544 17.2269ZM13.3873 16.3524C13.4506 16.3709 13.516 16.3633 13.5733 16.3317C13.6306 16.3 13.6718 16.2485 13.6901 16.186C13.7274 16.0572 13.6527 15.922 13.5232 15.8849L11.4862 15.3004C11.3584 15.2645 11.2212 15.338 11.1835 15.4668C11.1461 15.5952 11.2212 15.7303 11.3508 15.7675L13.3873 16.3524Z" fill="#262626"/>
<path d="M18.0018 29.8132C17.9504 29.8132 17.8986 29.8039 17.8489 29.7853L6.63987 25.5978C6.47001 25.5345 6.35749 25.3732 6.35791 25.1924L6.39103 10.9838C6.39146 10.844 6.45982 10.7127 6.57447 10.632C6.68913 10.5509 6.83732 10.5315 6.96853 10.5763L18.1445 14.4432C18.3194 14.5036 18.4366 14.6675 18.4366 14.8516V29.3808C18.4366 29.5227 18.3666 29.6553 18.2494 29.7363C18.1755 29.787 18.0893 29.8132 18.0018 29.8132ZM7.22841 24.8943L17.567 28.7566V15.159L7.25941 11.5923L7.22841 24.8943Z" fill="#262626"/>
<path d="M17.9803 15.1836L20.8245 19.6031L29.268 16.6752V25.1275L18.0017 29.3813L17.9803 15.1836Z" fill="#262626"/>
<path d="M18.0018 29.8126C17.9147 29.8126 17.8285 29.7864 17.7551 29.7365C17.6374 29.6555 17.5674 29.5229 17.5669 29.381L17.5453 15.1833C17.5449 14.9907 17.6723 14.8218 17.8578 14.7674C18.043 14.7137 18.2425 14.7872 18.3461 14.9494L21.0056 19.0811L29.1251 16.2657C29.2584 16.2196 29.4049 16.2399 29.52 16.3214C29.6346 16.4025 29.703 16.5338 29.703 16.674V25.1267C29.703 25.3066 29.5913 25.4671 29.4223 25.5313L18.1559 29.7847C18.1062 29.8033 18.054 29.8126 18.0018 29.8126ZM18.4171 16.6639L18.4357 28.7534L28.8333 24.8286V17.283L20.9674 20.0102C20.7768 20.0769 20.5666 20.0034 20.4583 19.8353L18.4171 16.6639Z" fill="#262626"/>
<path d="M20.8227 20.0255C20.68 20.0255 20.5424 19.9554 20.46 19.8312L17.4842 15.3565C17.4116 15.2476 17.3925 15.1116 17.4324 14.987C17.4719 14.8624 17.5661 14.7628 17.6889 14.7151L29.0436 10.3067C29.2368 10.2315 29.461 10.3046 29.5714 10.4819L32.56 15.2881C32.6288 15.3992 32.6441 15.5352 32.6007 15.6581C32.5574 15.7809 32.461 15.8785 32.3375 15.9224L20.97 20.0001C20.922 20.017 20.8719 20.0255 20.8227 20.0255ZM18.5067 15.3261L20.9968 19.0711L31.5383 15.2898L29.0224 11.2433L18.5067 15.3261Z" fill="#262626"/>
<path d="M18.0018 15.2833C17.9521 15.2833 17.902 15.2749 17.8545 15.258L6.83437 11.3133C6.66409 11.2525 6.54944 11.0929 6.54689 10.9126C6.54434 10.7322 6.65474 10.5697 6.82332 10.5038L17.8434 6.21703C17.9419 6.1786 18.0515 6.17775 18.1517 6.21407L29.3514 10.3019C29.5221 10.364 29.6359 10.5257 29.6364 10.7069C29.6368 10.8876 29.5238 11.0498 29.3531 11.1131L18.1534 15.2563C18.1046 15.2745 18.0532 15.2833 18.0018 15.2833ZM8.21867 10.8898L17.9993 14.3906L27.9472 10.7103L18.0069 7.08231L8.21867 10.8898Z" fill="#262626"/>
<path d="M18.0914 13.781C17.854 13.781 17.66 13.5914 17.6566 13.3545L17.567 6.87389C17.5636 6.63529 17.7555 6.43893 17.9959 6.43555C17.998 6.43555 18.0001 6.43555 18.0018 6.43555C18.2392 6.43555 18.4332 6.62516 18.4366 6.86207L18.5262 13.3427C18.5296 13.5813 18.3377 13.7776 18.0973 13.781C18.0952 13.781 18.0931 13.781 18.0914 13.781Z" fill="#262626"/>
<path d="M6.75376 11.0508L3.80963 15.7189L6.79264 14.8516L6.75376 11.0508Z" fill="#262626"/>
<path d="M3.8097 16.1518C3.67594 16.1518 3.54643 16.0902 3.46277 15.9804C3.35407 15.8372 3.34557 15.6417 3.44154 15.4897L6.38553 10.8216C6.48786 10.6594 6.68659 10.5838 6.87173 10.6349C7.05772 10.6873 7.18639 10.855 7.18851 11.0471L7.22758 14.8478C7.2297 15.0412 7.10188 15.2127 6.91462 15.2671L3.93157 16.1345C3.89123 16.1464 3.85046 16.1518 3.8097 16.1518ZM6.33415 12.5306L4.78636 14.985L6.35453 14.529L6.33415 12.5306Z" fill="#262626"/>
</svg>
