<svg width="24" height="24" viewBox="0 0 24 24" fill="none" xmlns="http://www.w3.org/2000/svg">
<path d="M20.6364 18.9004L21.1789 19.4756L20.6354 18.9004H20.6364ZM7.70836 16.5695L8.24985 15.9944L7.70733 16.5695H7.70836ZM3.47696 5.11843L2.93547 4.54436L3.47799 5.11951L3.47696 5.11843ZM15.7199 15.6657L16.1886 15.176L15.1025 14.0257L14.6369 14.5154L15.7199 15.6657ZM17.7566 14.9706L19.7165 16.0939L20.4497 14.6689L18.4909 13.5468L17.7566 14.9706ZM20.0928 18.3253L18.6366 19.8529L19.7206 21.0021L21.1768 19.4756L20.0928 18.3253ZM17.7484 20.3437C16.2614 20.4907 12.4156 20.3599 8.24985 15.9944L7.16482 17.1436C11.71 21.9081 16.0368 22.1416 17.892 21.9589L17.7474 20.3437H17.7484ZM8.24985 15.9944C4.27996 11.8321 3.62156 8.33257 3.53952 6.81361L2.00325 6.9055C2.10581 8.8169 2.92112 12.6959 7.16482 17.1436L8.24985 15.9944ZM9.65997 9.31313L9.9543 9.00394L8.87133 7.85472L8.577 8.16283L9.661 9.31205L9.65997 9.31313ZM10.1881 5.0741L8.89594 3.25352L7.66426 4.22651L8.95645 6.04602L10.1881 5.0741ZM4.54661 2.85675L2.9365 4.54328L4.02153 5.69358L5.63061 4.00705L4.54661 2.85675ZM9.11848 8.73798C8.57495 8.16283 8.57495 8.16283 8.57495 8.165H8.57289L8.56982 8.16932C8.5214 8.22142 8.47779 8.27825 8.43957 8.33905C8.38419 8.42554 8.32369 8.53906 8.27241 8.68285C8.14753 9.05401 8.11643 9.45304 8.18216 9.84071C8.31958 10.7759 8.93081 12.0116 10.4958 13.6527L11.5808 12.5024C10.1153 10.9672 9.76663 10.0332 9.70202 9.59206C9.67125 9.38232 9.70305 9.27854 9.71228 9.25475C9.7174 9.23962 9.71945 9.23854 9.71228 9.24827C9.70323 9.26326 9.69293 9.27737 9.68151 9.29043L9.67125 9.30124C9.66794 9.3046 9.66452 9.30785 9.661 9.31097L9.11746 8.73798H9.11848ZM10.4958 13.6527C12.0618 15.2938 13.2401 15.9338 14.1283 16.0766C14.5826 16.1501 14.9487 16.0917 15.2266 15.9825C15.382 15.9219 15.5274 15.8358 15.6574 15.7274C15.675 15.7118 15.6921 15.6956 15.7086 15.6787L15.7158 15.6722L15.7189 15.669L15.7199 15.6668C15.7199 15.6668 15.7209 15.6657 15.1784 15.0906C14.6349 14.5154 14.638 14.5143 14.638 14.5143L14.64 14.5122L14.6421 14.51L14.6482 14.5046L14.6585 14.4938C14.6708 14.4821 14.6838 14.4713 14.6974 14.4614C14.7077 14.4538 14.7046 14.4571 14.6903 14.4635C14.6646 14.4733 14.5641 14.5068 14.3621 14.4743C13.9375 14.4052 13.0453 14.0376 11.5808 12.5024L10.4958 13.6527ZM8.89594 3.25243C7.84989 1.78213 5.79469 1.54861 4.54661 2.85675L5.63061 4.00705C6.1762 3.43514 7.14431 3.4946 7.66426 4.22651L8.89492 3.25243H8.89594ZM3.54055 6.81469C3.52004 6.44063 3.6831 6.04926 4.02153 5.69466L2.93547 4.54436C2.38476 5.12167 1.95095 5.93899 2.00325 6.9055L3.54055 6.81469ZM18.6366 19.8529C18.3556 20.1491 18.052 20.3156 17.7495 20.3448L17.892 21.9589C18.6458 21.8843 19.2621 21.4843 19.7216 21.0032L18.6366 19.8529ZM9.9543 9.00394C10.9645 7.94553 11.0393 6.27305 10.1892 5.07518L8.95747 6.0471C9.37077 6.62982 9.30924 7.39416 8.8703 7.8558L9.9543 9.00394ZM19.7175 16.0949C20.5554 16.5749 20.6856 17.7058 20.0939 18.3263L21.1789 19.4756C22.5531 18.0344 22.1296 15.6311 20.4508 14.67L19.7175 16.0949ZM16.1886 15.1771C16.5824 14.7641 17.2162 14.6625 17.7577 14.9717L18.492 13.5478C17.3803 12.91 16.0019 13.0862 15.1036 14.0268L16.1886 15.1771Z" fill="#2B292C"/>
</svg>
