<svg width="16" height="16" viewBox="0 0 16 16" fill="none" xmlns="http://www.w3.org/2000/svg">
<path d="M4.25032 3.72265C4.09714 3.95241 4.15923 4.26285 4.38899 4.41603C4.61876 4.5692 4.92919 4.50711 5.08237 4.27735L4.25032 3.72265ZM5.60385 2.59373L6.01988 2.87108V2.87108L5.60385 2.59373ZM10.3955 2.59373L10.8115 2.31638L10.3955 2.59373ZM10.917 4.27735C11.0702 4.50711 11.3806 4.5692 11.6104 4.41603C11.8401 4.26285 11.9022 3.95241 11.749 3.72265L10.917 4.27735ZM9.49967 9C9.49967 9.82843 8.8281 10.5 7.99967 10.5V11.5C9.38039 11.5 10.4997 10.3807 10.4997 9H9.49967ZM7.99967 10.5C7.17125 10.5 6.49967 9.82843 6.49967 9H5.49967C5.49967 10.3807 6.61896 11.5 7.99967 11.5V10.5ZM6.49967 9C6.49967 8.17157 7.17125 7.5 7.99967 7.5V6.5C6.61896 6.5 5.49967 7.61929 5.49967 9H6.49967ZM7.99967 7.5C8.8281 7.5 9.49967 8.17157 9.49967 9H10.4997C10.4997 7.61929 9.38039 6.5 7.99967 6.5V7.5ZM5.08237 4.27735L6.01988 2.87108L5.18783 2.31638L4.25032 3.72265L5.08237 4.27735ZM6.71325 2.5H9.2861V1.5H6.71325V2.5ZM9.97947 2.87108L10.917 4.27735L11.749 3.72265L10.8115 2.31638L9.97947 2.87108ZM9.2861 2.5C9.56472 2.5 9.82492 2.63925 9.97947 2.87108L10.8115 2.31638C10.4715 1.80635 9.89908 1.5 9.2861 1.5V2.5ZM6.01988 2.87108C6.17443 2.63925 6.43463 2.5 6.71325 2.5V1.5C6.10027 1.5 5.52785 1.80635 5.18783 2.31638L6.01988 2.87108ZM3.99967 4.5H11.9997V3.5H3.99967V4.5ZM14.1663 6.66667V11.3333H15.1663V6.66667H14.1663ZM11.9997 13.5H3.99967V14.5H11.9997V13.5ZM1.83301 11.3333V6.66667H0.833008V11.3333H1.83301ZM3.99967 13.5C2.80306 13.5 1.83301 12.53 1.83301 11.3333H0.833008C0.833008 13.0822 2.25077 14.5 3.99967 14.5V13.5ZM14.1663 11.3333C14.1663 12.53 13.1963 13.5 11.9997 13.5V14.5C13.7486 14.5 15.1663 13.0822 15.1663 11.3333H14.1663ZM11.9997 4.5C13.1963 4.5 14.1663 5.47005 14.1663 6.66667H15.1663C15.1663 4.91777 13.7486 3.5 11.9997 3.5V4.5ZM3.99967 3.5C2.25077 3.5 0.833008 4.91777 0.833008 6.66667H1.83301C1.83301 5.47005 2.80306 4.5 3.99967 4.5V3.5Z" fill="#FEFEFE"/>
</svg>
