<svg width="30" height="30" viewBox="0 0 30 30" fill="none" xmlns="http://www.w3.org/2000/svg">
<rect x="0.75" y="0.75" width="28.5" height="28.5" rx="14.25" fill="#141718"/>
<rect x="0.75" y="0.75" width="28.5" height="28.5" rx="14.25" stroke="white" stroke-width="1.5"/>
<path d="M11.2532 10.7226C11.1001 10.9524 11.1622 11.2628 11.3919 11.416C11.6217 11.5692 11.9321 11.5071 12.0853 11.2774L11.2532 10.7226ZM12.6068 9.59373L13.0228 9.87108V9.87108L12.6068 9.59373ZM17.3984 9.59373L17.8145 9.31638L17.3984 9.59373ZM17.9199 11.2774C18.0731 11.5071 18.3835 11.5692 18.6133 11.416C18.8431 11.2628 18.9051 10.9524 18.752 10.7226L17.9199 11.2774ZM16.5026 16C16.5026 16.8284 15.831 17.5 15.0026 17.5V18.5C16.3833 18.5 17.5026 17.3807 17.5026 16H16.5026ZM15.0026 17.5C14.1742 17.5 13.5026 16.8284 13.5026 16H12.5026C12.5026 17.3807 13.6219 18.5 15.0026 18.5V17.5ZM13.5026 16C13.5026 15.1716 14.1742 14.5 15.0026 14.5V13.5C13.6219 13.5 12.5026 14.6193 12.5026 16H13.5026ZM15.0026 14.5C15.831 14.5 16.5026 15.1716 16.5026 16H17.5026C17.5026 14.6193 16.3833 13.5 15.0026 13.5V14.5ZM12.0853 11.2774L13.0228 9.87108L12.1908 9.31638L11.2532 10.7226L12.0853 11.2774ZM13.7162 9.5H16.289V8.5H13.7162V9.5ZM16.9824 9.87108L17.9199 11.2774L18.752 10.7226L17.8145 9.31638L16.9824 9.87108ZM16.289 9.5C16.5677 9.5 16.8278 9.63925 16.9824 9.87108L17.8145 9.31638C17.4744 8.80635 16.902 8.5 16.289 8.5V9.5ZM13.0228 9.87108C13.1774 9.63925 13.4376 9.5 13.7162 9.5V8.5C13.1032 8.5 12.5308 8.80635 12.1908 9.31638L13.0228 9.87108ZM11.0026 11.5H19.0026V10.5H11.0026V11.5ZM21.1693 13.6667V18.3333H22.1693V13.6667H21.1693ZM19.0026 20.5H11.0026V21.5H19.0026V20.5ZM8.83594 18.3333V13.6667H7.83594V18.3333H8.83594ZM11.0026 20.5C9.80599 20.5 8.83594 19.53 8.83594 18.3333H7.83594C7.83594 20.0822 9.2537 21.5 11.0026 21.5V20.5ZM21.1693 18.3333C21.1693 19.53 20.1992 20.5 19.0026 20.5V21.5C20.7515 21.5 22.1693 20.0822 22.1693 18.3333H21.1693ZM19.0026 11.5C20.1992 11.5 21.1693 12.47 21.1693 13.6667H22.1693C22.1693 11.9178 20.7515 10.5 19.0026 10.5V11.5ZM11.0026 10.5C9.2537 10.5 7.83594 11.9178 7.83594 13.6667H8.83594C8.83594 12.47 9.80599 11.5 11.0026 11.5V10.5Z" fill="#FEFEFE"/>
</svg>
