<svg width="36" height="36" viewBox="0 0 36 36" fill="none" xmlns="http://www.w3.org/2000/svg">
<g clip-path="url(#clip0_1189_8309)">
<path d="M18 2C14.8355 2 11.7421 2.93838 9.11088 4.69649C6.4797 6.45459 4.42894 8.95345 3.21793 11.8771C2.00693 14.8007 1.69008 18.0177 2.30744 21.1214C2.92481 24.2251 4.44866 27.0761 6.6863 29.3137C8.92394 31.5513 11.7749 33.0752 14.8786 33.6926C17.9823 34.3099 21.1993 33.9931 24.1229 32.7821C27.0466 31.5711 29.5454 29.5203 31.3035 26.8891C33.0616 24.2579 34 21.1645 34 18C34 13.7565 32.3143 9.68687 29.3137 6.68629C26.3131 3.68571 22.2435 2 18 2Z" fill="#E4DB00"/>
<path d="M28.0391 18.2201L20.4291 25.8301C20.3394 25.9348 20.2291 26.0198 20.105 26.0799C19.981 26.1399 19.8458 26.1736 19.7081 26.1789C19.5704 26.1843 19.4331 26.1611 19.3047 26.1108C19.1764 26.0605 19.0599 25.9842 18.9624 25.8868C18.865 25.7893 18.7887 25.6728 18.7384 25.5445C18.6881 25.4161 18.6649 25.2788 18.6703 25.1411C18.6756 25.0034 18.7093 24.8682 18.7693 24.7442C18.8294 24.6201 18.9144 24.5098 19.0191 24.4201L24.1191 19.3001H9.11906C8.85385 19.3001 8.59949 19.1948 8.41196 19.0073C8.22442 18.8197 8.11906 18.5654 8.11906 18.3001C8.11906 18.0349 8.22442 17.7806 8.41196 17.593C8.59949 17.4055 8.85385 17.3001 9.11906 17.3001H24.2991L19.0191 12.0201C18.9144 11.9305 18.8294 11.8202 18.7693 11.6961C18.7093 11.572 18.6756 11.4369 18.6703 11.2992C18.6649 11.1615 18.6881 11.0241 18.7384 10.8958C18.7887 10.7675 18.865 10.6509 18.9624 10.5535C19.0599 10.456 19.1764 10.3798 19.3047 10.3295C19.4331 10.2792 19.5704 10.256 19.7081 10.2613C19.8458 10.2667 19.981 10.3004 20.105 10.3604C20.2291 10.4204 20.3394 10.5055 20.4291 10.6101L28.0391 18.2201Z" fill="white"/>
</g>
<defs>
<clipPath id="clip0_1189_8309">
<rect width="36" height="36" fill="white"/>
</clipPath>
</defs>
</svg>
