<svg width="36" height="32" viewBox="0 0 36 32" fill="none" xmlns="http://www.w3.org/2000/svg">
<path d="M8.8319 5.74064e-06C8.61089 2.78275e-05 8.39893 0.0878343 8.24265 0.244113C8.08637 0.400393 7.99857 0.612346 7.99855 0.833358V3.33423H3.83422C3.61321 3.33425 3.40126 3.42206 3.24498 3.57834C3.0887 3.73462 3.00089 3.94657 3.00087 4.16758V7.49855H1.33335C0.873124 7.4986 0.500046 7.87168 0.5 8.3319V26.6673C0.5 28.0379 1.63026 29.1682 3.00087 29.1682H3.9449C4.31834 30.5989 5.62224 31.6658 7.16519 31.6658C8.15876 31.6658 9.05336 31.2221 9.66607 30.5256C10.2788 31.2219 11.1736 31.6658 12.1669 31.6658C13.7099 31.6658 15.0155 30.5989 15.3897 29.1682H26.0263C26.4004 30.599 27.7069 31.6658 29.2499 31.6658C30.7928 31.6658 32.0993 30.599 32.4734 29.1682H34.6666C35.1269 29.1681 35.5 28.795 35.5 28.3348V16.6679C35.5006 16.4464 35.413 16.2338 35.2567 16.077L30.2557 11.0761C30.0989 10.9197 29.8864 10.8322 29.6649 10.8328H24.6672V9.99942C24.6672 8.62881 23.537 7.49855 22.1664 7.49855H21.3322V3.33423C21.3326 3.22464 21.3114 3.11604 21.2698 3.01466C21.2282 2.91328 21.167 2.8211 21.0897 2.7434L18.5888 0.242524C18.5111 0.16524 18.4189 0.104039 18.3175 0.0624244C18.2162 0.0208098 18.1076 -0.000400997 17.998 5.74064e-06H8.8319ZM9.66607 1.66671H17.6537L19.6655 3.67848V7.49855H17.998V5.83185C17.9981 5.72234 17.9766 5.61389 17.9347 5.5127C17.8929 5.4115 17.8315 5.31954 17.7541 5.24208C17.6768 5.16461 17.5849 5.10315 17.4837 5.06121C17.3825 5.01928 17.2741 4.99769 17.1646 4.99768H13.0003V4.16758C13.0003 3.94657 12.9125 3.73462 12.7562 3.57834C12.5999 3.42206 12.3879 3.33425 12.1669 3.33423H9.66607V1.66671ZM4.66432 4.99768H11.3328V7.49855H4.66432V4.99768ZM13.0003 6.6652H16.3345V7.49855H13.0003V6.6652ZM2.16671 9.16607H22.1664C22.6424 9.16607 22.9997 9.52335 22.9997 9.99942V27.5006H15.3897C15.0155 26.0692 13.7099 25.0006 12.1669 25.0006C11.1735 25.0006 10.2788 25.4452 9.66607 26.1424C9.05336 25.4449 8.15883 25.0006 7.16519 25.0006C5.62224 25.0006 4.31834 26.0692 3.9449 27.5006H3.00087C2.52478 27.5006 2.16671 27.1434 2.16671 26.6673V9.16607ZM24.6672 12.5003H29.3207L33.8325 17.0121V27.5006H32.4734C32.0993 26.0692 30.7928 25.0006 29.2499 25.0006C27.7069 25.0006 26.4004 26.0692 26.0263 27.5006H24.6672V12.5003ZM7.16519 26.6673C8.09556 26.6673 8.8319 27.4044 8.8319 28.3348C8.8319 29.2652 8.09556 29.9983 7.16519 29.9983C6.23483 29.9983 5.49767 29.2652 5.49767 28.3348C5.49767 27.4044 6.23483 26.6673 7.16519 26.6673ZM12.1669 26.6673C13.0973 26.6673 13.8336 27.4044 13.8336 28.3348C13.8336 29.2652 13.0973 29.9983 12.1669 29.9983C11.2366 29.9983 10.4994 29.2652 10.4994 28.3348C10.4994 27.4044 11.2366 26.6673 12.1669 26.6673ZM29.2499 26.6673C30.1802 26.6673 30.9174 27.4044 30.9174 28.3348C30.9174 29.2652 30.1802 29.9983 29.2499 29.9983C28.3195 29.9983 27.5823 29.2652 27.5823 28.3348C27.5823 27.4044 28.3195 26.6673 29.2499 26.6673Z" fill="#2B292C"/>
<path d="M27.1695 14.168C27.06 14.168 26.9516 14.1895 26.8505 14.2314C26.7494 14.2733 26.6575 14.3347 26.5801 14.4121C26.5026 14.4895 26.4412 14.5814 26.3994 14.6825C26.3575 14.7836 26.3359 14.8921 26.3359 15.0015V19.9998C26.3359 20.1093 26.3575 20.2177 26.3994 20.3188C26.4412 20.42 26.5026 20.5119 26.58 20.5893C26.6575 20.6667 26.7493 20.728 26.8505 20.7699C26.9516 20.8118 27.06 20.8334 27.1695 20.8334H31.3342C31.4437 20.8334 31.5521 20.8118 31.6532 20.7699C31.7544 20.728 31.8463 20.6667 31.9237 20.5893C32.0011 20.5119 32.0625 20.42 32.1043 20.3188C32.1462 20.2177 32.1678 20.1093 32.1678 19.9998V17.9174C32.1681 17.8079 32.1468 17.6993 32.1051 17.598C32.0634 17.4967 32.0021 17.4045 31.9248 17.3269L29.0089 14.411C28.9312 14.3336 28.8391 14.2723 28.7378 14.2306C28.6364 14.1889 28.5279 14.1677 28.4183 14.168H27.1695ZM28.0031 15.8351H28.0738L30.5006 18.2619V19.1662H28.003L28.0031 15.8351Z" fill="#2B292C"/>
<path d="M8.83356 12.5C8.61249 12.5 8.40047 12.5878 8.24414 12.7441C8.08782 12.9005 8 13.1125 8 13.3336C8 13.5546 8.08782 13.7666 8.24414 13.923C8.40047 14.0793 8.61249 14.1671 8.83356 14.1671H15.502C15.7231 14.1671 15.9351 14.0793 16.0914 13.923C16.2478 13.7666 16.3356 13.5546 16.3356 13.3336C16.3356 13.1125 16.2478 12.9005 16.0914 12.7441C15.9351 12.5878 15.7231 12.5 15.502 12.5H8.83356Z" fill="#2B292C"/>
<path d="M12.1633 15.8334C12.0499 15.8268 11.9364 15.8435 11.8297 15.8823C11.723 15.9211 11.6254 15.9813 11.5428 16.0592C11.4602 16.1371 11.3944 16.2311 11.3494 16.3353C11.3044 16.4396 11.2812 16.5519 11.2812 16.6655C11.2812 16.779 11.3044 16.8913 11.3494 16.9956C11.3944 17.0998 11.4602 17.1938 11.5428 17.2717C11.6254 17.3496 11.723 17.4098 11.8297 17.4487C11.9364 17.4875 12.0499 17.5041 12.1633 17.4975H18.8286C18.942 17.5041 19.0555 17.4875 19.1622 17.4487C19.2689 17.4098 19.3665 17.3496 19.4491 17.2717C19.5317 17.1938 19.5975 17.0998 19.6425 16.9956C19.6875 16.8913 19.7107 16.779 19.7107 16.6655C19.7107 16.5519 19.6875 16.4396 19.6425 16.3353C19.5975 16.2311 19.5317 16.1371 19.4491 16.0592C19.3665 15.9813 19.2689 15.9211 19.1622 15.8823C19.0555 15.8435 18.942 15.8268 18.8286 15.8334H12.1633Z" fill="#2B292C"/>
<path d="M7.16168 19.166C6.94061 19.166 6.72859 19.2538 6.57227 19.4102C6.41595 19.5665 6.32812 19.7785 6.32812 19.9996C6.32812 20.2206 6.41595 20.4327 6.57227 20.589C6.72859 20.7453 6.94061 20.8331 7.16168 20.8331H15.4973C15.7183 20.8331 15.9303 20.7453 16.0867 20.589C16.243 20.4327 16.3308 20.2206 16.3308 19.9996C16.3308 19.7785 16.243 19.5665 16.0867 19.4102C15.9303 19.2538 15.7183 19.166 15.4973 19.166H7.16168Z" fill="#2B292C"/>
<path d="M10.4948 16.6654C10.4948 16.7748 10.4733 16.8832 10.4314 16.9843C10.3895 17.0854 10.3281 17.1773 10.2507 17.2547C10.1734 17.332 10.0815 17.3934 9.98039 17.4353C9.87928 17.4772 9.77092 17.4988 9.66148 17.4988C9.55204 17.4988 9.44367 17.4772 9.34257 17.4353C9.24146 17.3934 9.14959 17.332 9.07221 17.2547C8.99482 17.1773 8.93344 17.0854 8.89156 16.9843C8.84968 16.8832 8.82812 16.7748 8.82813 16.6654C8.82813 16.4444 8.91593 16.2324 9.07221 16.0761C9.2285 15.9198 9.44046 15.832 9.66148 15.832C9.88249 15.832 10.0945 15.9198 10.2507 16.0761C10.407 16.2324 10.4948 16.4444 10.4948 16.6654Z" fill="#2B292C"/>
</svg>
