<svg width="25" height="24" viewBox="0 0 25 24" fill="none" xmlns="http://www.w3.org/2000/svg">
<rect x="0.5" width="24" height="24" rx="12" fill="#2B292C"/>
<path d="M7.35705 5C7.25096 5.00006 7.14697 5.02965 7.05675 5.08546C6.96652 5.14127 6.89361 5.2211 6.84619 5.31601L4.56043 9.88752C4.51124 9.9858 4.49143 10.0962 4.50339 10.2055C4.51535 10.3147 4.55857 10.4182 4.62786 10.5035L12.0566 19.6465C12.1101 19.7125 12.1778 19.7656 12.2545 19.8021C12.3312 19.8386 12.415 19.8576 12.5 19.8576C12.585 19.8576 12.6688 19.8386 12.7455 19.8021C12.8223 19.7656 12.8899 19.7125 12.9434 19.6465L20.3721 10.5035C20.4414 10.4182 20.4846 10.3147 20.4966 10.2055C20.5086 10.0962 20.4888 9.9858 20.4396 9.88752L18.1538 5.31601C18.1064 5.2211 18.0335 5.14127 17.9433 5.08546C17.853 5.02965 17.749 5.00006 17.6429 5H7.35705ZM5.99589 9.57151L7.7102 6.14288H10.0537L9.19651 9.57151H5.99589ZM6.27189 10.7144H9.2228L11.0668 16.6162L6.27189 10.7144ZM10.4205 10.7144H14.58L12.5 17.3699L10.42 10.7144H10.4205ZM15.7772 10.7144H18.7287L13.9337 16.6162L15.7772 10.7144ZM19.0041 9.57151H15.8035L14.9463 6.14288H17.2898L19.0041 9.57151ZM14.6252 9.57151H10.3748L11.232 6.14288H13.768L14.6252 9.57151Z" fill="url(#paint0_linear_1759_11989)"/>
<defs>
<linearGradient id="paint0_linear_1759_11989" x1="5.58813" y1="7.43439" x2="18.2707" y2="19.6122" gradientUnits="userSpaceOnUse">
<stop stop-color="#ECC440"/>
<stop offset="0.374151" stop-color="#FFFA8A"/>
<stop offset="0.669771" stop-color="#DDAC17"/>
<stop offset="1" stop-color="#FFFF95"/>
</linearGradient>
</defs>
</svg>
