<svg width="20" height="20" viewBox="0 0 20 20" fill="none" xmlns="http://www.w3.org/2000/svg">
<path d="M19.9991 9.99875V9.99375C19.9991 7.03471 18.7109 4.37733 16.6651 2.54991L16.6551 2.54158C16.6299 2.51434 16.6016 2.49002 16.5709 2.46908L16.5693 2.46825C14.7524 0.872923 12.4158 -0.00469288 9.9979 1.88742e-05C7.47135 1.88742e-05 5.16478 0.938311 3.40652 2.48658L3.41735 2.47741C3.39616 2.49349 3.37662 2.51163 3.35902 2.53158C2.30201 3.46753 1.45593 4.61823 0.876846 5.90584C0.297758 7.19345 -0.00112236 8.58941 3.16708e-06 10.0013C3.16708e-06 12.9595 1.28661 15.6168 3.33069 17.4451L3.34069 17.4534C3.36716 17.4834 3.39677 17.5105 3.42902 17.5343L3.43069 17.5351C5.24714 19.1281 7.58191 20.0044 9.9979 20C12.4252 20.0037 14.77 19.1193 16.5901 17.5134L16.5793 17.5226C17.6546 16.5877 18.5166 15.4327 19.1069 14.1358C19.6972 12.8389 20.002 11.4303 20.0008 10.0054V9.99958L19.9991 9.99875ZM16.281 16.5026C15.7856 16.102 15.2529 15.7498 14.6902 15.451L14.636 15.4243C15.1468 13.9519 15.4543 12.2545 15.4835 10.4887V10.4754H19.0342C18.9144 12.7598 17.9312 14.9134 16.2835 16.5001L16.281 16.5026ZM10.4762 15.2485C11.5453 15.306 12.5445 15.541 13.4661 15.9235L13.4061 15.9018C12.6678 17.5851 11.6287 18.7417 10.4762 18.9959V15.2485ZM10.4762 14.2952V10.4754H14.5327C14.5005 12.0572 14.2262 13.6248 13.7194 15.1235L13.7519 15.0144C12.7173 14.5891 11.617 14.3461 10.4995 14.2961L10.477 14.2952H10.4762ZM10.4762 9.52211V5.70227C11.6238 5.6499 12.7536 5.39868 13.8152 4.9598L13.7494 4.98397C14.2119 6.33308 14.496 7.88801 14.5327 9.50461V9.52211H10.4762ZM10.4762 4.74898V1.00331C11.6287 1.25746 12.6678 2.40908 13.4061 4.09734C12.5445 4.45566 11.5453 4.68982 10.5004 4.74815L10.4762 4.74898ZM12.8544 1.41579C13.8364 1.74331 14.7547 2.23714 15.5693 2.87573L15.5502 2.86073C15.181 3.15072 14.7669 3.42404 14.3302 3.66153L14.2836 3.68486C13.9307 2.85217 13.4456 2.08199 12.8469 1.40412L12.8544 1.41329V1.41579ZM9.52126 1.00581V4.74898C8.49338 4.69654 7.4821 4.46825 6.53139 4.07401L6.59138 4.09567C7.33302 2.41241 8.37047 1.25663 9.52292 1.00248L9.52126 1.00581ZM5.71475 3.68236C5.26305 3.43933 4.83265 3.15863 4.42814 2.84323L4.44814 2.85823C5.23905 2.23838 6.12867 1.75611 7.0797 1.43162L7.14303 1.41246C6.56006 2.07196 6.08505 2.81949 5.73559 3.62736L5.71475 3.68236ZM9.52292 5.70144V9.52127H5.46643C5.5031 7.88718 5.78725 6.33224 6.28223 4.87397L6.24973 4.98314C7.2839 5.40768 8.38363 5.6504 9.50042 5.7006L9.52292 5.70144ZM9.52292 10.4746V14.2944C8.37533 14.3468 7.24555 14.598 6.1839 15.0369L6.24973 15.0127C5.78725 13.6644 5.5031 12.1087 5.46643 10.4921V10.4746H9.52292ZM9.52292 15.2477V18.9934C8.37047 18.7392 7.33135 17.5876 6.59305 15.8993C7.45468 15.541 8.4538 15.3077 9.49876 15.2494L9.52292 15.2477ZM7.14803 18.5809C6.16636 18.2543 5.24806 17.7616 4.43314 17.1243L4.45314 17.1393C4.82229 16.8493 5.23644 16.576 5.67309 16.3385L5.71975 16.3151C6.06964 17.1482 6.55477 17.9177 7.15553 18.5925L7.14803 18.5842V18.5809ZM14.2844 16.3143C14.7677 16.5768 15.1818 16.8493 15.571 17.1534L15.551 17.1384C14.7601 17.7583 13.8705 18.2406 12.9194 18.565L12.8561 18.5842C13.4391 17.925 13.9141 17.1778 14.2636 16.3701L14.2844 16.316V16.3143ZM19.0342 9.52211H15.4835C15.458 7.79797 15.1604 6.08868 14.6019 4.45732L14.636 4.57232C15.2247 4.26239 15.782 3.89625 16.3001 3.47903L16.2801 3.49403C17.9244 5.07482 18.908 7.2204 19.0325 9.49794L19.0333 9.52127L19.0342 9.52211ZM3.71817 3.49487C4.19815 3.88485 4.7373 4.24233 5.30894 4.54649L5.3631 4.57315C4.85229 6.04559 4.54481 7.74302 4.51564 9.50877V9.52211H0.964128C1.08387 7.2377 2.06712 5.08414 3.71484 3.49737L3.71817 3.49487ZM0.964961 10.4754H4.51564C4.54118 12.1995 4.83872 13.9088 5.39727 15.5402L5.3631 15.4252C4.7373 15.7577 4.19899 16.1152 3.69901 16.5185L3.71901 16.5035C2.07469 14.9227 1.09109 12.7771 0.966628 10.4996L0.965795 10.4762L0.964961 10.4754Z" fill="#2B292C"/>
</svg>
