<svg width="24" height="24" viewBox="0 0 24 24" fill="none" xmlns="http://www.w3.org/2000/svg">
<path d="M5.25 4H18.75C19.5801 3.99995 20.3788 4.31065 20.9822 4.86837C21.5856 5.4261 21.948 6.18856 21.995 6.99935L22 7.17935V16.4728C22.0001 17.2849 21.6824 18.0662 21.1123 18.6565C20.5422 19.2468 19.7628 19.6013 18.934 19.6473L18.75 19.6522H5.25C4.41986 19.6522 3.62117 19.3415 3.01777 18.7838C2.41437 18.2261 2.052 17.4636 2.005 16.6528L2 16.4728V7.17935C1.99995 6.36726 2.31755 5.58593 2.88767 4.99564C3.45779 4.40536 4.23719 4.05087 5.066 4.00489L5.25 4ZM20.5 9.2562L12.35 13.4529C12.258 13.5005 12.1568 13.5288 12.053 13.536C11.9492 13.5433 11.845 13.5293 11.747 13.495L11.651 13.4539L3.5 9.25717V16.4728C3.50002 16.9025 3.66517 17.3164 3.96268 17.6324C4.26019 17.9485 4.6683 18.1436 5.106 18.1789L5.25 18.1848H18.75C19.1893 18.1847 19.6126 18.023 19.9357 17.7318C20.2588 17.4406 20.4581 17.0411 20.494 16.6127L20.5 16.4728V9.2562ZM18.75 5.46739H5.25C4.81081 5.46741 4.38768 5.62897 4.06461 5.92001C3.74154 6.21105 3.54214 6.61029 3.506 7.03848L3.5 7.17935V7.59902L12 11.9748L20.5 7.59804V7.17935C20.5 6.74955 20.3347 6.33549 20.037 6.01942C19.7392 5.70334 19.3309 5.50838 18.893 5.47326L18.75 5.46739Z" fill="#2B292C"/>
</svg>
