<svg width="24" height="24" viewBox="0 0 24 24" fill="none" xmlns="http://www.w3.org/2000/svg">
<path d="M15.6098 12C15.6098 12.7139 15.3982 13.4117 15.0017 14.0052C14.6052 14.5988 14.0416 15.0614 13.3822 15.3346C12.7229 15.6078 11.9973 15.6792 11.2974 15.54C10.5974 15.4007 9.95443 15.0569 9.44978 14.5522C8.94513 14.0474 8.60146 13.4043 8.46222 12.7041C8.32299 12.004 8.39445 11.2783 8.66757 10.6188C8.94068 9.95926 9.40319 9.39556 9.9966 8.99896C10.59 8.60236 11.2877 8.39068 12.0013 8.39068C12.958 8.39177 13.8752 8.77238 14.5517 9.44903C15.2282 10.1257 15.6087 11.0431 15.6098 12ZM12.0013 7.42965e-07C10.1229 -0.000660375 8.27048 0.439903 6.59334 1.28622C4.91621 2.13253 3.46119 3.36094 2.34546 4.87254C1.22973 6.38413 0.484458 8.13667 0.169661 9.98903C-0.145137 11.8414 -0.020664 13.7418 0.533056 15.5372C1.08678 17.3327 2.05427 18.973 3.35763 20.3261C4.66099 21.6791 6.2638 22.7072 8.03699 23.3274C9.81018 23.9476 11.7042 24.1427 13.5665 23.8969C15.4289 23.6511 17.2075 22.9713 18.7591 21.9123L18.7934 21.889L17.1776 20.0096L17.1502 20.0274C15.2887 21.2206 13.071 21.7308 10.8754 21.4711C8.67977 21.2114 6.64225 20.1978 5.11036 18.6032C3.57848 17.0086 2.64714 14.9318 2.47521 12.727C2.30327 10.5223 2.90139 8.32614 4.16754 6.51323C5.43368 4.70033 7.28943 3.38296 9.41823 2.78583C11.547 2.1887 13.817 2.34881 15.841 3.23883C17.8649 4.12886 19.5175 5.69367 20.5168 7.66636C21.516 9.63904 21.8001 11.8974 21.3206 14.0562C21.2671 14.4971 21.051 14.9021 20.7146 15.1919C20.3782 15.4817 19.9458 15.6355 19.5019 15.623C19.2988 15.609 19.1004 15.5547 18.9184 15.4634C18.7363 15.372 18.5743 15.2453 18.4417 15.0907C18.3091 14.9361 18.2085 14.7566 18.1458 14.5628C18.0832 14.369 18.0596 14.1646 18.0767 13.9616V12C18.0789 10.5924 17.5927 9.22764 16.7011 8.13859C15.8095 7.04955 14.5677 6.30371 13.1877 6.02834C11.8076 5.75297 10.3747 5.96513 9.13363 6.62863C7.89251 7.29212 6.92002 8.36584 6.38211 9.66655C5.8442 10.9673 5.77419 12.4144 6.18405 13.761C6.5939 15.1075 7.4582 16.2702 8.62949 17.0504C9.80077 17.8307 11.2064 18.1802 12.6066 18.0394C14.0069 17.8986 15.3148 17.2761 16.3074 16.2783C16.6337 16.7891 17.0744 17.2169 17.5946 17.5279C18.1148 17.8389 18.7003 18.0244 19.3046 18.0699C19.4115 18.0781 19.5198 18.0836 19.628 18.0836C20.5071 18.0813 21.3616 17.7925 22.062 17.2611C22.8052 16.68 23.3481 15.8811 23.6147 14.976C23.6627 14.8239 23.7518 14.4729 23.7518 14.4702V14.4578C23.9297 13.651 24.0125 12.8261 23.9985 12C23.9948 8.81852 22.7297 5.76838 20.4806 3.51873C18.2315 1.26908 15.1821 0.00362885 12.0013 7.42965e-07Z" fill="#FF9E00"/>
</svg>
