<svg width="30" height="22" viewBox="0 0 30 22" fill="none" xmlns="http://www.w3.org/2000/svg">
<path fill-rule="evenodd" clip-rule="evenodd" d="M3.00095 0C1.35626 0 0 1.35529 0 2.99998V19.0008C0 20.6455 1.35627 21.9979 3.00095 21.9979H26.9988C28.6435 21.9979 29.9998 20.6455 29.9998 19.0008V12.9989C30.0027 12.8657 29.979 12.7333 29.9301 12.6094C29.8812 12.4855 29.808 12.3726 29.7148 12.2773C29.6217 12.1821 29.5105 12.1064 29.3877 12.0548C29.2649 12.0031 29.133 11.9765 28.9998 11.9765C28.8665 11.9765 28.7347 12.0031 28.6119 12.0548C28.4891 12.1064 28.3778 12.1821 28.2847 12.2773C28.1915 12.3726 28.1183 12.4855 28.0694 12.6094C28.0205 12.7333 27.9968 12.8657 27.9998 12.9989V19.0008C27.9998 19.5721 27.5701 19.9969 26.9988 19.9969H3.00095C2.42965 19.9969 2.00096 19.5721 2.00096 19.0008V6.41108L13.411 13.5438C14.3814 14.1504 15.6193 14.1504 16.5897 13.5438L27.9998 6.41206V8.99797C27.9968 9.13116 28.0205 9.2636 28.0694 9.38751C28.1183 9.51142 28.1915 9.62431 28.2847 9.71955C28.3778 9.81479 28.4891 9.89047 28.6119 9.94213C28.7347 9.99379 28.8665 10.0204 28.9998 10.0204C29.133 10.0204 29.2649 9.99379 29.3877 9.94213C29.5105 9.89047 29.6217 9.81479 29.7148 9.71955C29.808 9.62431 29.8812 9.51142 29.9301 9.38751C29.979 9.2636 30.0027 9.13116 29.9998 8.99797V2.99998C29.9998 1.35529 28.6435 0 26.9988 0H3.00095ZM3.00095 1.99998H26.9988C27.5701 1.99998 27.9998 2.4287 27.9998 2.99998V4.05368L15.5292 11.8485C15.2035 12.0521 14.7972 12.0521 14.4716 11.8485L2.00096 4.0527V2.99998C2.00096 2.4287 2.42966 1.99998 3.00095 1.99998Z" fill="#E4DB00"/>
</svg>
