<svg width="24" height="24" viewBox="0 0 24 24" fill="none" xmlns="http://www.w3.org/2000/svg">
<path d="M12.0017 4.53033C13.1441 3.50766 14.6348 2.9614 16.1675 3.0038C17.7002 3.0462 19.1584 3.67404 20.2426 4.7583C21.3258 5.84134 21.9537 7.29771 21.9975 8.82885C22.0414 10.36 21.4979 11.8499 20.4785 12.9932L11.9997 21.4841L3.52277 12.9932C2.50216 11.8493 1.95818 10.3581 2.00251 8.82574C2.04684 7.29337 2.67611 5.83611 3.76114 4.75313C4.84616 3.67015 6.30462 3.04363 7.83707 3.00219C9.36952 2.96076 10.8597 3.50756 12.0017 4.53033ZM18.8268 6.17111C18.1044 5.44933 17.1333 5.03134 16.1125 5.00289C15.0918 4.97445 14.0989 5.3377 13.3375 6.01813L12.0027 7.21597L10.6668 6.01913C9.9086 5.34111 8.92052 4.97746 7.90366 5.00218C6.8868 5.02691 5.91756 5.43814 5.19318 6.15221C4.46879 6.86627 4.04369 7.82951 4.00438 8.84591C3.96508 9.86232 4.31451 10.8555 4.98158 11.6234L12.0007 18.6535L19.0197 11.6244C19.684 10.8599 20.0335 9.87186 19.9977 8.85973C19.9619 7.84759 19.5434 6.88674 18.8268 6.17111Z" fill="#2B292C"/>
</svg>
