<svg width="24" height="24" viewBox="0 0 24 24" fill="none" xmlns="http://www.w3.org/2000/svg">
<rect width="24" height="24" rx="12" fill="#2B292C"/>
<path d="M12.1164 6.24187C13.0435 5.41197 14.2532 4.96868 15.497 5.00308C16.7408 5.03749 17.9242 5.54699 18.804 6.42687C19.683 7.30577 20.1926 8.48763 20.2282 9.73016C20.2638 10.9727 19.8228 12.1818 18.9955 13.1096L12.1148 20L5.23574 13.1096C4.40751 12.1813 3.96607 10.9712 4.00204 9.72764C4.03801 8.48411 4.54867 7.30152 5.42918 6.42268C6.30969 5.54383 7.49323 5.0354 8.73683 5.00178C9.98043 4.96816 11.1897 5.41189 12.1164 6.24187ZM17.6551 7.57338C17.0689 6.98765 16.2808 6.64845 15.4525 6.62537C14.6241 6.60228 13.8183 6.89706 13.2005 7.44924L12.1172 8.4213L11.0332 7.45005C10.4179 6.89983 9.61607 6.60473 8.79087 6.62479C7.96568 6.64485 7.17913 6.97857 6.59129 7.55804C6.00345 8.13751 5.65848 8.91919 5.62658 9.74401C5.59468 10.5688 5.87825 11.3748 6.41958 11.998L12.1156 17.7029L17.8117 11.9988C18.3507 11.3784 18.6343 10.5766 18.6053 9.75522C18.5762 8.93386 18.2366 8.15412 17.6551 7.57338Z" fill="#E4DB00"/>
</svg>
