<svg width="24" height="24" viewBox="0 0 24 24" fill="none" xmlns="http://www.w3.org/2000/svg">
<rect width="24" height="24" rx="12" fill="#2B292C"/>
<path d="M6.6 6H17.4C18.0641 5.99996 18.7031 6.24852 19.1858 6.6947C19.6685 7.14088 19.9584 7.75085 19.996 8.39948L20 8.54348V15.9783C20 16.6279 19.746 17.253 19.2899 17.7252C18.8338 18.1975 18.2102 18.481 17.5472 18.5178L17.4 18.5217H6.6C5.93589 18.5218 5.29694 18.2732 4.81422 17.827C4.33149 17.3809 4.0416 16.7709 4.004 16.1223L4 15.9783V8.54348C3.99996 7.89381 4.25404 7.26874 4.71014 6.79652C5.16623 6.32429 5.78976 6.04069 6.4528 6.00391L6.6 6ZM18.8 10.205L12.28 13.5623C12.2064 13.6004 12.1255 13.623 12.0424 13.6288C11.9594 13.6346 11.876 13.6234 11.7976 13.596L11.7208 13.5631L5.2 10.2057V15.9783C5.20001 16.322 5.33214 16.6531 5.57014 16.906C5.80815 17.1588 6.13464 17.3148 6.4848 17.3431L6.6 17.3478H17.4C17.7515 17.3478 18.0901 17.2184 18.3486 16.9854C18.607 16.7524 18.7665 16.4329 18.7952 16.0902L18.8 15.9783V10.205ZM17.4 7.17391H6.6C6.24865 7.17393 5.91015 7.30318 5.65169 7.53601C5.39323 7.76884 5.23371 8.08823 5.2048 8.43078L5.2 8.54348V8.87922L12 12.3798L18.8 8.87843V8.54348C18.8 8.19964 18.6677 7.86839 18.4296 7.61553C18.1914 7.36267 17.8647 7.20671 17.5144 7.17861L17.4 7.17391Z" fill="#E4DB00"/>
</svg>
