<svg width="20" height="19" viewBox="0 0 20 19" fill="none" xmlns="http://www.w3.org/2000/svg">
<path d="M10.0017 1.53033C11.1441 0.507661 12.6348 -0.0385983 14.1675 0.00380096C15.7002 0.0462002 17.1584 0.674038 18.2426 1.7583C19.3258 2.84134 19.9537 4.29771 19.9975 5.82885C20.0414 7.35998 19.4979 8.84991 18.4785 9.99321L9.99965 18.4841L1.52277 9.99321C0.502165 8.84932 -0.0418163 7.35811 0.00251095 5.82574C0.0468382 4.29337 0.676111 2.83611 1.76114 1.75313C2.84616 0.670146 4.30462 0.043627 5.83707 0.00219376C7.36952 -0.0392395 8.85969 0.507557 10.0017 1.53033ZM16.8268 3.17111C16.1044 2.44933 15.1333 2.03134 14.1125 2.00289C13.0918 1.97445 12.0989 2.3377 11.3375 3.01813L10.0027 4.21597L8.66683 3.01913C7.9086 2.34111 6.92052 1.97746 5.90366 2.00218C4.8868 2.02691 3.91756 2.43814 3.19318 3.15221C2.46879 3.86627 2.04369 4.82951 2.00438 5.84591C1.96508 6.86232 2.31451 7.85551 2.98158 8.62339L10.0007 15.6535L17.0197 8.62439C17.684 7.8599 18.0335 6.87186 17.9977 5.85973C17.9619 4.84759 17.5434 3.88674 16.8268 3.17111Z" fill="#2B292C"/>
</svg>
