<svg width="12" height="12" viewBox="0 0 12 12" fill="none" xmlns="http://www.w3.org/2000/svg">
<g clip-path="url(#clip0_2366_11221)">
<path fill-rule="evenodd" clip-rule="evenodd" d="M3.5567 0.761719C2.01662 0.761719 0.762943 2.0154 0.762943 3.55547C0.762943 4.31819 1.0428 5.00891 1.50535 5.68545C1.54091 5.73746 1.57954 5.78946 1.61722 5.84147H1.5247C1.10694 5.84147 0.762695 6.18572 0.762695 6.60347V10.6675C0.762695 11.0852 1.10694 11.4295 1.5247 11.4295H6.0967C6.12402 11.4294 6.15115 11.425 6.17706 11.4163L7.6207 10.9351L9.06433 11.4163C9.09024 11.425 9.11737 11.4294 9.1447 11.4295H10.6687C11.0865 11.4295 11.4307 11.0852 11.4307 10.6675V9.14347C11.4356 8.79998 10.9178 8.79998 10.9227 9.14347V10.6675C10.9227 10.8126 10.8138 10.9215 10.6687 10.9215H9.39919V6.34947H10.6687C10.8138 6.34947 10.9227 6.45836 10.9227 6.60347V7.61947C10.9178 7.96296 11.4356 7.96296 11.4307 7.61947V6.60347C11.4307 6.18572 11.0864 5.84147 10.6687 5.84147H9.18587L7.70106 5.34662C7.67689 5.3385 7.65164 5.33407 7.62615 5.33347C7.597 5.3329 7.56797 5.33734 7.54033 5.34662L6.05552 5.84147H5.49593C5.5336 5.78946 5.57224 5.73746 5.6078 5.68545C6.07034 5.00891 6.35045 4.31819 6.35045 3.55547C6.35045 2.0154 5.09677 0.761719 3.5567 0.761719ZM3.5567 1.26972C4.82223 1.26972 5.8422 2.28994 5.8422 3.55547C5.8422 4.19555 5.6153 4.7747 5.18884 5.39846C4.80472 5.9603 4.21633 6.57037 3.5567 7.23698C2.89707 6.57037 2.30867 5.9603 1.92455 5.39846C1.49809 4.7747 1.27094 4.19555 1.27094 3.55547C1.27094 2.28994 2.29116 1.26972 3.5567 1.26972ZM3.5567 2.28497C2.8583 2.28497 2.2862 2.85708 2.2862 3.55547C2.2862 4.25386 2.8583 4.82572 3.5567 4.82572C4.25509 4.82572 4.82694 4.25386 4.82694 3.55547C4.82694 2.85708 4.25509 2.28497 3.5567 2.28497ZM3.5567 2.79322C3.98055 2.79322 4.31894 3.13162 4.31894 3.55547C4.31894 3.97932 3.98055 4.31772 3.5567 4.31772C3.13285 4.31772 2.79445 3.97932 2.79445 3.55547C2.79445 3.13162 3.13285 2.79322 3.5567 2.79322ZM7.3667 5.9397V10.4844L6.35045 10.8232V6.27853L7.3667 5.9397ZM7.8747 5.9397L8.89094 6.27853V10.8232L7.8747 10.4844V5.9397ZM1.5247 6.34947H2.01533C2.40257 6.81078 2.86138 7.28432 3.37661 7.79955C3.47589 7.8992 3.63725 7.8992 3.73653 7.79955C4.25176 7.28432 4.71057 6.81078 5.09781 6.34947H5.8422V10.9215H1.5247C1.37959 10.9215 1.2707 10.8126 1.2707 10.6675V9.90497H3.5567C3.91709 9.9281 3.91709 9.37484 3.5567 9.39797H1.2707V7.87347H2.2862C2.63247 7.88116 2.63247 7.35778 2.2862 7.36547H1.2707V6.60347C1.2707 6.45836 1.37959 6.34947 1.5247 6.34947ZM4.5727 9.39747C4.43242 9.39747 4.3187 9.51119 4.3187 9.65147C4.3187 9.79175 4.43242 9.90547 4.5727 9.90547C4.71298 9.90547 4.8267 9.79175 4.8267 9.65147C4.8267 9.51119 4.71298 9.39747 4.5727 9.39747Z" fill="#868686"/>
</g>
<defs>
<clipPath id="clip0_2366_11221">
<rect width="12" height="12" fill="white"/>
</clipPath>
</defs>
</svg>
