<svg width="20" height="20" viewBox="0 0 20 20" fill="none" xmlns="http://www.w3.org/2000/svg">
<path d="M9.52384 17.1431L9.20152 16.7909C9.00007 16.5952 4.28613 11.194 4.28613 7.94548C4.28613 5.12748 6.62296 2.85742 9.52384 2.85742C12.4247 2.85742 14.7616 5.12748 14.7616 7.94548C14.7616 11.194 10.0476 16.5952 9.84616 16.83L9.52384 17.1431ZM9.52384 3.6402C7.06615 3.6402 5.09193 5.55801 5.09193 7.94548C5.09193 10.4504 8.4763 14.6774 9.52384 15.9298C10.5714 14.6774 13.9558 10.4504 13.9558 7.94548C13.9558 5.55801 11.9815 3.6402 9.52384 3.6402Z" fill="#868686"/>
<path d="M9.52329 9.90218C8.39517 9.90218 7.50879 9.04112 7.50879 7.94523C7.50879 6.84934 8.39517 5.98828 9.52329 5.98828C10.6514 5.98828 11.5378 6.84934 11.5378 7.94523C11.5378 9.04112 10.6514 9.90218 9.52329 9.90218ZM9.52329 6.77106C8.83836 6.77106 8.31459 7.27987 8.31459 7.94523C8.31459 8.61059 8.83836 9.1194 9.52329 9.1194C10.2082 9.1194 10.732 8.61059 10.732 7.94523C10.732 7.27987 10.2082 6.77106 9.52329 6.77106Z" fill="#868686"/>
</svg>
