<svg width="120" height="27" viewBox="0 0 120 27" fill="none" xmlns="http://www.w3.org/2000/svg">
<path d="M52.8105 7.84645C52.8113 7.89434 52.8333 7.90769 52.8764 7.88649C54.3876 7.14072 55.9514 6.99078 57.5678 7.43667C60.1006 8.13495 61.4277 10.3228 61.5796 12.8475C61.7845 16.2647 60.7318 19.371 56.8895 20.0822C55.1161 20.4096 53.3828 20.1768 51.6895 19.384C50.9535 19.0389 50.3118 18.4855 50.3094 17.6012C50.2921 12.785 50.2859 7.96931 50.2906 3.15397C50.2906 3.04642 50.302 2.93966 50.3247 2.83368C50.3326 2.79443 50.3561 2.76892 50.3954 2.75714C51.1302 2.52517 52.469 2.36384 52.7528 3.29881C52.7921 3.42912 52.8093 3.80633 52.8046 4.43042C52.796 5.57891 52.7979 6.71759 52.8105 7.84645ZM56.2937 17.9662C58.624 17.507 59.1292 15.3862 59.0715 13.3538C59.0185 11.445 58.2319 9.80587 56.1877 9.4326C54.9905 9.21436 53.8809 9.49893 52.8588 10.2863C52.8313 10.3075 52.8176 10.3354 52.8176 10.3699V17.3138C52.8176 17.3578 52.8368 17.3904 52.8753 17.4116C53.9743 18.0129 55.1138 18.1978 56.2937 17.9662Z" fill="#E4DB00"/>
<path d="M16.775 7.34576C18.7073 7.71904 20.0144 9.03788 20.0956 11.0373C20.1529 12.4622 20.151 15.3503 20.0898 19.7017C20.089 19.7386 20.0717 19.7641 20.0379 19.7782C19.6423 19.9438 19.2247 20.018 18.785 20.0008C17.9623 19.9686 17.5529 19.536 17.5569 18.7031C17.5686 16.4846 17.5753 14.2661 17.5769 12.0477C17.5769 10.8065 17.4415 9.80093 16.1638 9.48181C14.8474 9.1521 13.6349 9.44335 12.5264 10.3555C12.4997 10.3783 12.4884 10.407 12.4923 10.4415C12.53 10.7759 12.5724 11.1186 12.5724 11.4542C12.5755 14.201 12.5759 16.9439 12.5735 19.6828C12.5735 19.7067 12.5662 19.7299 12.5528 19.7495C12.5393 19.769 12.5203 19.784 12.4982 19.7923C11.6668 20.1032 10.0571 20.2492 10.0465 18.895C10.0387 17.8572 10.0383 15.3668 10.0454 11.4236C10.0501 8.7435 6.58575 9.15799 5.08439 10.1059C5.07033 10.1146 5.05872 10.1267 5.05068 10.1411C5.04264 10.1556 5.03843 10.1718 5.03847 10.1883V19.6699C5.03847 19.7162 5.01767 19.7488 4.97606 19.7676C4.30251 20.0714 2.98014 20.221 2.61274 19.3755C2.54445 19.2193 2.50991 18.9135 2.50912 18.4582C2.50441 15.921 2.5048 13.3834 2.5103 10.8454C2.51148 9.79975 2.46791 9.21216 3.20858 8.59748C3.60894 8.26542 3.99282 8.08526 4.51918 7.85446C6.63757 6.92891 9.53431 6.83353 11.3642 8.44794C11.3956 8.4762 11.4286 8.47777 11.4631 8.45265C13.0292 7.3332 14.7999 6.96424 16.775 7.34576Z" fill="#E4DB00"/>
<path d="M25.5152 15.1666C26.3866 18.5733 30.5009 18.7134 32.8972 16.9447C32.9317 16.9196 32.9686 16.9141 33.0078 16.9282C33.5189 17.1096 33.818 17.6772 33.8203 18.1552C33.8286 19.6272 31.1226 20.1382 30.0864 20.2006C26.7681 20.4032 23.7018 18.9642 23.0259 15.4281C22.4524 12.4312 23.2402 9.10939 26.1911 7.75168C30.0087 5.99597 34.6823 8.47116 34.3279 12.9564C34.2607 13.7972 33.6555 13.9667 32.8771 14.0786C30.4341 14.4287 27.9923 14.773 25.5517 15.1113C25.5455 15.1123 25.5396 15.1145 25.5344 15.1179C25.5291 15.1212 25.5246 15.1257 25.5212 15.1309C25.5177 15.1361 25.5154 15.142 25.5144 15.1481C25.5134 15.1543 25.5136 15.1606 25.5152 15.1666ZM25.4881 13.0306L31.941 12.1239C31.944 12.1235 31.9468 12.1224 31.9493 12.1209C31.9519 12.1194 31.9541 12.1173 31.9559 12.1149C31.9576 12.1125 31.9589 12.1097 31.9596 12.1068C31.9603 12.1039 31.9603 12.1009 31.9598 12.098L31.9563 12.0768C31.8382 11.2366 31.3839 10.4787 30.6933 9.96996C30.0028 9.46118 29.1326 9.24311 28.2742 9.36373L28.2506 9.36727C27.3922 9.48816 26.616 9.93778 26.0927 10.6173C25.5693 11.2967 25.3417 12.1504 25.4598 12.9906L25.4622 13.0117C25.4626 13.0147 25.4636 13.0175 25.4652 13.0201C25.4667 13.0227 25.4688 13.0249 25.4712 13.0266C25.4736 13.0284 25.4763 13.0296 25.4792 13.0303C25.4822 13.031 25.4852 13.0311 25.4881 13.0306Z" fill="#E4DB00"/>
<path d="M38.884 15.1657C39.7695 18.577 43.8814 18.7277 46.273 16.9226C46.2883 16.9111 46.3066 16.9044 46.3257 16.9034C46.3448 16.9023 46.3637 16.907 46.3802 16.9167C46.8547 17.1922 47.2445 17.675 47.1832 18.2308C47.0678 19.2882 45.5441 19.8452 44.6986 20.0219C42.0551 20.5741 38.7792 20.023 37.2319 17.5749C35.8365 15.3682 35.8494 11.8097 37.3061 9.63126C39.0582 7.01006 43.0418 6.39892 45.5747 8.26178C47.0427 9.34119 47.7504 10.8775 47.6978 12.8707C47.6731 13.7715 47.036 13.9622 46.22 14.08C43.7896 14.4301 41.358 14.772 38.9252 15.1056C38.8891 15.1103 38.8753 15.1304 38.884 15.1657ZM43.0607 9.45581C40.6891 8.84937 38.7615 10.5721 38.7238 12.9036C38.723 12.9829 38.7619 13.0175 38.8404 13.0073L45.2179 12.1512C45.2587 12.1457 45.2756 12.1225 45.2686 12.0817C45.0268 10.6451 44.2908 9.76982 43.0607 9.45581Z" fill="#E4DB00"/>
<path d="M82.4489 18.8055C81.8853 18.4703 81.4358 17.9745 81.1006 17.3183C79.5898 14.3626 78.3899 11.2716 77.3773 8.11227C77.3655 8.07616 77.3706 8.0424 77.3926 8.011C77.8345 7.39005 78.4288 7.17966 79.1753 7.37984C79.7735 7.54117 80.0279 8.17821 80.2387 8.76934C81.1988 11.4635 82.2558 14.1189 83.4098 16.7354C83.4357 16.7927 83.462 16.7931 83.4887 16.7365C83.7854 16.1077 84.1018 15.3208 84.4378 14.3756C85.2903 11.9797 85.965 9.73099 86.4619 7.62948C86.4714 7.59101 86.4937 7.56315 86.5291 7.54587C87.4522 7.09252 88.9948 7.24796 88.7511 8.68691C88.6302 9.39893 88.4712 10.1039 88.2742 10.8018C87.086 14.9973 85.4128 19.1611 83.0176 22.7243C82.4701 23.538 81.5752 24.6802 80.5201 24.7685C79.8112 24.8286 78.9045 24.3046 78.8986 23.4944C78.8986 23.4513 78.9143 23.4148 78.9457 23.3849C80.3533 22.0645 81.5273 20.562 82.4677 18.8773C82.4842 18.8475 82.4779 18.8235 82.4489 18.8055Z" fill="#E4DB00"/>
<path d="M64.3751 14.9582C64.3327 12.5642 64.3798 10.1621 64.381 7.76812C64.381 7.73384 64.3914 7.70041 64.4108 7.67224C64.4301 7.64407 64.4575 7.62249 64.4893 7.61033C65.3253 7.29122 66.8891 7.19702 66.8868 8.51821C66.8844 10.8309 66.8883 13.144 66.8985 15.4574C66.9127 18.552 70.6219 18.3907 72.5389 17.5158C72.5758 17.4993 72.5943 17.4706 72.5943 17.4298L72.6343 7.68452C72.6343 7.67033 72.6386 7.65652 72.6466 7.64494C72.6546 7.63336 72.666 7.62457 72.6791 7.61975C73.5504 7.28887 75.0942 7.16287 75.1024 8.53941C75.1173 10.8466 75.1158 13.9376 75.0977 17.8125C75.0942 18.7616 74.4571 19.1738 73.5599 19.5329C70.7149 20.6739 65.6409 20.8094 64.567 16.9812C64.4563 16.5847 64.3924 15.9104 64.3751 14.9582Z" fill="#E4DB00"/>
<rect x="94.5" y="2" width="23.5" height="23.5" rx="4.77785" fill="#E4DB00"/>
<path d="M111.156 8.16353C112.873 8.49343 114.034 9.65899 114.106 11.4261C114.157 12.6853 114.155 15.2377 114.101 19.0834C114.1 19.116 114.085 19.1385 114.055 19.151C113.703 19.2974 113.332 19.363 112.942 19.3477C112.211 19.3193 111.847 18.937 111.85 18.2009C111.861 16.2402 111.867 14.2796 111.868 12.319C111.868 11.2221 111.748 10.3333 110.613 10.0513C109.443 9.75993 108.365 10.0173 107.381 10.8235C107.357 10.8436 107.347 10.8689 107.35 10.8995C107.384 11.195 107.421 11.4979 107.421 11.7945C107.424 14.222 107.424 16.6461 107.422 19.0667C107.422 19.0878 107.416 19.1083 107.404 19.1256C107.392 19.1429 107.375 19.1561 107.355 19.1635C106.617 19.4382 105.186 19.5673 105.177 18.3705C105.17 17.4533 105.17 15.2523 105.176 11.7674C105.18 9.39882 102.102 9.76514 100.768 10.6029C100.755 10.6105 100.745 10.6213 100.738 10.634C100.731 10.6468 100.727 10.6611 100.727 10.6757V19.0553C100.727 19.0962 100.708 19.125 100.672 19.1416C100.073 19.4101 98.898 19.5423 98.5715 18.7951C98.5108 18.657 98.4802 18.3868 98.4795 17.9844C98.4753 15.7421 98.4756 13.4994 98.4805 11.2564C98.4816 10.3323 98.4428 9.81301 99.101 9.26977C99.4567 8.9763 99.7978 8.81708 100.266 8.61311C102.148 7.79513 104.722 7.71084 106.348 9.13761C106.376 9.16258 106.405 9.16397 106.436 9.14177C107.827 8.15243 109.401 7.82635 111.156 8.16353Z" fill="#2B292C"/>
</svg>
