<svg width="359" height="98" viewBox="0 0 359 98" fill="none" xmlns="http://www.w3.org/2000/svg">
<g filter="url(#filter0_d_3513_10937)">
<path d="M208.663 25.4344C208.666 25.6292 208.755 25.6835 208.931 25.5973C215.079 22.5631 221.442 21.953 228.018 23.7672C238.323 26.6081 243.722 35.5095 244.34 45.7811C245.174 59.6841 240.891 72.3224 225.258 75.2161C218.043 76.5479 210.991 75.6009 204.102 72.3751C201.108 70.9714 198.497 68.7197 198.487 65.1217C198.417 45.5272 198.391 25.9342 198.41 6.34285C198.41 5.90528 198.457 5.47091 198.549 5.03973C198.581 4.88004 198.677 4.77624 198.837 4.72833C201.826 3.78453 207.274 3.12819 208.428 6.93212C208.588 7.46231 208.658 8.99697 208.639 11.5361C208.604 16.2088 208.612 20.8415 208.663 25.4344ZM222.834 66.6069C232.315 64.7385 234.371 56.1102 234.136 47.8412C233.92 40.0752 230.72 33.4063 222.403 31.8876C217.532 30.9997 213.018 32.1575 208.859 35.361C208.748 35.4472 208.692 35.5606 208.692 35.7012V63.9528C208.692 64.1316 208.77 64.2642 208.926 64.3504C213.398 66.797 218.034 67.5491 222.834 66.6069Z" stroke="#E4DB00" shape-rendering="crispEdges"/>
</g>
<g filter="url(#filter1_d_3513_10937)">
<path d="M62.0544 23.4016C69.9162 24.9203 75.2341 30.286 75.5646 38.4209C75.7978 44.2178 75.7898 55.9682 75.5407 73.672C75.5375 73.8221 75.4672 73.9259 75.3299 73.9834C73.7202 74.6573 72.021 74.9591 70.2324 74.8888C66.8852 74.7579 65.2196 72.998 65.2356 69.6093C65.2835 60.5834 65.3106 51.5574 65.317 42.5314C65.317 37.4819 64.766 33.3905 59.568 32.0922C54.2118 30.7507 49.2788 31.9357 44.769 35.647C44.6604 35.7396 44.6141 35.8562 44.6301 35.9967C44.7834 37.3573 44.9559 38.7515 44.9559 40.1168C44.9687 51.2923 44.9703 62.4518 44.9607 73.5953C44.9604 73.6923 44.9309 73.7869 44.8762 73.8665C44.8214 73.946 44.744 74.0068 44.6541 74.0409C41.2717 75.3056 34.7226 75.8997 34.6795 70.3902C34.6476 66.1679 34.646 56.0352 34.6747 39.9923C34.6939 29.0883 20.5992 30.7747 14.4909 34.6313C14.4336 34.6666 14.3864 34.7159 14.3537 34.7746C14.321 34.8333 14.3039 34.8995 14.304 34.9667V73.5426C14.304 73.7311 14.2194 73.8636 14.0501 73.9403C11.3097 75.1763 5.92961 75.7847 4.43486 72.3449C4.15699 71.7093 4.01646 70.4653 4.01327 68.6128C3.9941 58.2901 3.9957 47.9659 4.01806 37.64C4.02285 33.3857 3.84559 30.9951 6.85903 28.4942C8.48792 27.1432 10.0497 26.4102 12.1912 25.4712C20.81 21.7056 32.5955 21.3176 40.0405 27.8858C40.1682 28.0008 40.3024 28.0072 40.4429 27.905C46.8147 23.3505 54.0186 21.8493 62.0544 23.4016Z" stroke="#E4DB00" shape-rendering="crispEdges"/>
</g>
<g filter="url(#filter2_d_3513_10937)">
<path d="M97.6125 55.2156C101.158 69.0756 117.897 69.6457 127.646 62.4498C127.787 62.3476 127.937 62.3252 128.097 62.3827C130.176 63.1205 131.393 65.4297 131.402 67.3748C131.436 73.3634 120.426 75.4426 116.21 75.6965C102.71 76.5205 90.2346 70.6661 87.4846 56.2792C85.1515 44.0865 88.3565 30.5715 100.362 25.0476C115.894 17.9045 134.909 27.9748 133.467 46.2232C133.194 49.6439 130.732 50.3337 127.565 50.7889C117.625 52.2134 107.691 53.6139 97.761 54.9905C97.7359 54.9943 97.7118 55.0034 97.6905 55.0172C97.6691 55.0309 97.6508 55.0489 97.6368 55.0701C97.6228 55.0913 97.6134 55.1152 97.6092 55.1403C97.605 55.1654 97.6061 55.191 97.6125 55.2156ZM97.5023 46.525L123.756 42.8361C123.768 42.8343 123.78 42.8302 123.79 42.8239C123.8 42.8176 123.809 42.8093 123.817 42.7995C123.824 42.7897 123.829 42.7785 123.832 42.7667C123.834 42.7549 123.835 42.7426 123.833 42.7307L123.818 42.6444C123.338 39.2261 121.489 36.1428 118.68 34.0728C115.87 32.0028 112.33 31.1155 108.837 31.6063L108.742 31.6207C105.249 32.1125 102.091 33.9418 99.962 36.7063C97.8328 39.4708 96.9066 42.944 97.3873 46.3621L97.3969 46.4484C97.3986 46.4604 97.4027 46.4719 97.409 46.4823C97.4153 46.4927 97.4236 46.5018 97.4334 46.5089C97.4432 46.5161 97.4544 46.5212 97.4662 46.5239C97.478 46.5267 97.4903 46.5271 97.5023 46.525Z" stroke="#E4DB00" shape-rendering="crispEdges"/>
</g>
<g filter="url(#filter3_d_3513_10937)">
<path d="M152.007 55.2176C155.61 69.0967 172.339 69.7099 182.069 62.3656C182.132 62.3189 182.206 62.2917 182.284 62.2874C182.361 62.2832 182.439 62.302 182.505 62.3416C184.436 63.4627 186.022 65.4269 185.773 67.6882C185.303 71.9904 179.104 74.2564 175.664 74.9751C164.909 77.222 151.581 74.9799 145.285 65.0197C139.608 56.0416 139.661 41.5637 145.587 32.7006C152.716 22.0362 168.923 19.5497 179.229 27.1288C185.201 31.5204 188.08 37.7709 187.866 45.8802C187.766 49.5452 185.174 50.3213 181.854 50.8004C171.966 52.2249 162.073 53.6159 152.175 54.9733C152.028 54.9924 151.972 55.0739 152.007 55.2176ZM169 31.9868C159.351 29.5195 151.509 36.5285 151.355 46.0144C151.352 46.337 151.51 46.4775 151.83 46.436L177.777 42.953C177.943 42.9307 178.012 42.8364 177.983 42.6704C176.999 36.8255 174.005 33.2643 169 31.9868Z" stroke="#E4DB00" shape-rendering="crispEdges"/>
</g>
<g filter="url(#filter4_d_3513_10937)">
<path d="M329.255 70.0256C326.962 68.6618 325.133 66.6449 323.769 63.9748C317.623 51.9497 312.741 39.3738 308.621 26.5199C308.573 26.373 308.594 26.2357 308.683 26.1079C310.481 23.5815 312.899 22.7256 315.936 23.54C318.37 24.1964 319.405 26.7882 320.263 29.1932C324.169 40.1547 328.469 50.958 333.164 61.6033C333.27 61.8365 333.377 61.838 333.485 61.6081C334.693 59.0498 335.98 55.8479 337.347 52.0024C340.815 42.2547 343.56 33.1057 345.582 24.5557C345.62 24.3992 345.711 24.2858 345.855 24.2155C349.611 22.371 355.887 23.0034 354.896 28.8579C354.404 31.7547 353.757 34.6228 352.955 37.4622C348.121 54.532 341.313 71.4724 331.569 85.9695C329.341 89.28 325.7 93.9271 321.408 94.2865C318.523 94.5308 314.834 92.3989 314.811 89.1028C314.811 88.9271 314.874 88.7786 315.002 88.6572C320.729 83.2851 325.505 77.1719 329.332 70.3178C329.399 70.1965 329.373 70.0991 329.255 70.0256Z" stroke="#E4DB00" shape-rendering="crispEdges"/>
</g>
<g filter="url(#filter5_d_3513_10937)">
<path d="M255.714 54.3739C255.542 44.6341 255.734 34.8608 255.738 25.121C255.739 24.9815 255.781 24.8455 255.86 24.7309C255.938 24.6163 256.05 24.5285 256.179 24.479C259.581 23.1807 265.943 22.7974 265.933 28.1728C265.924 37.582 265.94 46.9928 265.981 56.4053C266.039 68.9956 281.13 68.3393 288.929 64.7797C289.079 64.7126 289.154 64.596 289.154 64.4299L289.317 24.7808C289.317 24.7231 289.335 24.6669 289.368 24.6198C289.4 24.5727 289.446 24.537 289.499 24.5174C293.045 23.1711 299.325 22.6585 299.359 28.259C299.42 37.6459 299.413 50.2219 299.34 65.987C299.325 69.8484 296.734 71.5252 293.083 72.9864C281.508 77.6287 260.865 78.1797 256.495 62.6046C256.045 60.9917 255.785 58.2481 255.714 54.3739Z" stroke="#E4DB00" shape-rendering="crispEdges"/>
</g>
<defs>
<filter id="filter0_d_3513_10937" x="194.904" y="0.5" width="53.0352" height="78.8008" filterUnits="userSpaceOnUse" color-interpolation-filters="sRGB">
<feFlood flood-opacity="0" result="BackgroundImageFix"/>
<feColorMatrix in="SourceAlpha" type="matrix" values="0 0 0 0 0 0 0 0 0 0 0 0 0 0 0 0 0 0 127 0" result="hardAlpha"/>
<feOffset/>
<feGaussianBlur stdDeviation="1.5"/>
<feComposite in2="hardAlpha" operator="out"/>
<feColorMatrix type="matrix" values="0 0 0 0 1 0 0 0 0 0.908213 0 0 0 0 0 0 0 0 0.8 0"/>
<feBlend mode="normal" in2="BackgroundImageFix" result="effect1_dropShadow_3513_10937"/>
<feBlend mode="normal" in="SourceGraphic" in2="effect1_dropShadow_3513_10937" result="shape"/>
</filter>
<filter id="filter1_d_3513_10937" x="0.5" y="19.2656" width="78.7344" height="59.1504" filterUnits="userSpaceOnUse" color-interpolation-filters="sRGB">
<feFlood flood-opacity="0" result="BackgroundImageFix"/>
<feColorMatrix in="SourceAlpha" type="matrix" values="0 0 0 0 0 0 0 0 0 0 0 0 0 0 0 0 0 0 127 0" result="hardAlpha"/>
<feOffset/>
<feGaussianBlur stdDeviation="1.5"/>
<feComposite in2="hardAlpha" operator="out"/>
<feColorMatrix type="matrix" values="0 0 0 0 1 0 0 0 0 0.908213 0 0 0 0 0 0 0 0 0.8 0"/>
<feBlend mode="normal" in2="BackgroundImageFix" result="effect1_dropShadow_3513_10937"/>
<feBlend mode="normal" in="SourceGraphic" in2="effect1_dropShadow_3513_10937" result="shape"/>
</filter>
<filter id="filter2_d_3513_10937" x="83.2773" y="19.2363" width="53.7676" height="60.0352" filterUnits="userSpaceOnUse" color-interpolation-filters="sRGB">
<feFlood flood-opacity="0" result="BackgroundImageFix"/>
<feColorMatrix in="SourceAlpha" type="matrix" values="0 0 0 0 0 0 0 0 0 0 0 0 0 0 0 0 0 0 127 0" result="hardAlpha"/>
<feOffset/>
<feGaussianBlur stdDeviation="1.5"/>
<feComposite in2="hardAlpha" operator="out"/>
<feColorMatrix type="matrix" values="0 0 0 0 1 0 0 0 0 0.908213 0 0 0 0 0 0 0 0 0.8 0"/>
<feBlend mode="normal" in2="BackgroundImageFix" result="effect1_dropShadow_3513_10937"/>
<feBlend mode="normal" in="SourceGraphic" in2="effect1_dropShadow_3513_10937" result="shape"/>
</filter>
<filter id="filter3_d_3513_10937" x="137.584" y="19.2422" width="53.793" height="60.0312" filterUnits="userSpaceOnUse" color-interpolation-filters="sRGB">
<feFlood flood-opacity="0" result="BackgroundImageFix"/>
<feColorMatrix in="SourceAlpha" type="matrix" values="0 0 0 0 0 0 0 0 0 0 0 0 0 0 0 0 0 0 127 0" result="hardAlpha"/>
<feOffset/>
<feGaussianBlur stdDeviation="1.5"/>
<feComposite in2="hardAlpha" operator="out"/>
<feColorMatrix type="matrix" values="0 0 0 0 1 0 0 0 0 0.908213 0 0 0 0 0 0 0 0 0.8 0"/>
<feBlend mode="normal" in2="BackgroundImageFix" result="effect1_dropShadow_3513_10937"/>
<feBlend mode="normal" in="SourceGraphic" in2="effect1_dropShadow_3513_10937" result="shape"/>
</filter>
<filter id="filter4_d_3513_10937" x="305.096" y="19.7422" width="53.4043" height="78.0625" filterUnits="userSpaceOnUse" color-interpolation-filters="sRGB">
<feFlood flood-opacity="0" result="BackgroundImageFix"/>
<feColorMatrix in="SourceAlpha" type="matrix" values="0 0 0 0 0 0 0 0 0 0 0 0 0 0 0 0 0 0 127 0" result="hardAlpha"/>
<feOffset/>
<feGaussianBlur stdDeviation="1.5"/>
<feComposite in2="hardAlpha" operator="out"/>
<feColorMatrix type="matrix" values="0 0 0 0 1 0 0 0 0 0.908213 0 0 0 0 0 0 0 0 0.8 0"/>
<feBlend mode="normal" in2="BackgroundImageFix" result="effect1_dropShadow_3513_10937"/>
<feBlend mode="normal" in="SourceGraphic" in2="effect1_dropShadow_3513_10937" result="shape"/>
</filter>
<filter id="filter5_d_3513_10937" x="252.143" y="20.1328" width="50.7578" height="59.2168" filterUnits="userSpaceOnUse" color-interpolation-filters="sRGB">
<feFlood flood-opacity="0" result="BackgroundImageFix"/>
<feColorMatrix in="SourceAlpha" type="matrix" values="0 0 0 0 0 0 0 0 0 0 0 0 0 0 0 0 0 0 127 0" result="hardAlpha"/>
<feOffset/>
<feGaussianBlur stdDeviation="1.5"/>
<feComposite in2="hardAlpha" operator="out"/>
<feColorMatrix type="matrix" values="0 0 0 0 1 0 0 0 0 0.908213 0 0 0 0 0 0 0 0 0.8 0"/>
<feBlend mode="normal" in2="BackgroundImageFix" result="effect1_dropShadow_3513_10937"/>
<feBlend mode="normal" in="SourceGraphic" in2="effect1_dropShadow_3513_10937" result="shape"/>
</filter>
</defs>
</svg>
