<svg width="36" height="36" viewBox="0 0 36 36" fill="none" xmlns="http://www.w3.org/2000/svg">
<path d="M28.8161 10.2363V18.1218C28.8161 20.8904 26.4976 23.1349 23.6377 23.1349H16.7317C16.2379 23.1349 15.7681 23.3311 15.4427 23.6733L13.1193 26.1164H19.5096C19.85 26.1164 20.1748 26.2477 20.4054 26.4784L25.8982 31.976L27.2903 26.7761C27.393 26.3929 27.7275 26.1019 28.1474 26.0244C30.3441 25.6192 32 23.8365 32 21.6931V14.3969C32 12.4775 30.6707 10.8484 28.8161 10.2363Z" fill="#262626"/>
<path d="M6.50317 13.8971L6.50372 13.8965L6.5025 13.8978L6.50317 13.8971Z" fill="#262626"/>
<path d="M6.47174 18.393L6.47241 18.3937L6.47137 18.3926L6.47174 18.393Z" fill="#262626"/>
<path d="M15.9822 22.0014H22.4097C23.856 22.0014 25.1724 21.4609 26.1284 20.5798C27.0846 19.7002 27.6848 18.4698 27.6843 17.1123V9.88904C27.6848 8.5315 27.0846 7.30111 26.1284 6.42153C25.1725 5.54051 23.856 5 22.4097 5H8.27454C6.82829 5 5.51182 5.54051 4.55587 6.42153C3.59971 7.30111 2.99953 8.5315 3 9.88904V17.1123C2.99953 18.3259 3.48013 19.4386 4.26589 20.287C5.05168 21.1364 6.14316 21.7292 7.37849 21.9253C7.51429 21.9459 7.61952 22.0465 7.64894 22.1591L7.65297 22.1742L9.70397 28.2823L15.3117 22.2688C15.4779 22.1026 15.7227 22.001 15.9822 22.0014ZM14.5567 21.5639L10.1379 26.3024L8.64988 21.871L8.64854 21.8714C8.5034 21.38 8.08088 21.0042 7.5458 20.9184C6.54399 20.7596 5.66546 20.279 5.04044 19.603C4.4154 18.926 4.04448 18.0614 4.04398 17.1123V9.88904C4.04446 8.82814 4.50816 7.86902 5.27211 7.16373C6.0362 6.45983 7.09601 6.02011 8.27454 6.02011H22.4097C23.5883 6.02011 24.6481 6.45983 25.4122 7.16373C26.1761 7.86902 26.6398 8.82814 26.6403 9.88904V17.1123C26.6398 18.1732 26.1761 19.1323 25.4122 19.8377C24.648 20.5415 23.5882 20.9813 22.4097 20.9813H15.9822C15.4477 20.9816 14.935 21.1861 14.563 21.5576L14.5567 21.5639Z" fill="#262626"/>
<path d="M24.3691 18.2563L24.3687 18.2568L24.3697 18.2559L24.3691 18.2563Z" fill="#262626"/>
<path d="M9.13969 9.80196H16.5583C16.9308 9.80196 17.2327 9.50001 17.2327 9.12754C17.2327 8.75506 16.9308 8.45312 16.5583 8.45312H9.13969C8.76722 8.45312 8.46527 8.75506 8.46527 9.12754C8.46527 9.50001 8.76722 9.80196 9.13969 9.80196Z" fill="#262626"/>
<path d="M9.13969 13.8488H21.6164C21.9889 13.8488 22.2909 13.5469 22.2909 13.1744C22.2909 12.8019 21.9889 12.5 21.6164 12.5H9.13969C8.76722 12.5 8.46527 12.8019 8.46527 13.1744C8.46527 13.5469 8.76722 13.8488 9.13969 13.8488Z" fill="#262626"/>
<path d="M22.2909 17.2975C22.2909 16.925 21.9889 16.623 21.6164 16.623H9.13969C8.76722 16.623 8.46527 16.925 8.46527 17.2975C8.46527 17.6699 8.76722 17.9719 9.13969 17.9719H21.6164C21.9889 17.9719 22.2909 17.6699 22.2909 17.2975Z" fill="#262626"/>
</svg>
