<svg width="53" height="24" viewBox="0 0 53 24" fill="none" xmlns="http://www.w3.org/2000/svg">
<rect width="53" height="24" rx="12" fill="#2B292C"/>
<path d="M9.32163 16V7.54H10.3176V11.284H15.4176V7.54H16.4016V16H15.4176V12.136H10.3176V16H9.32163ZM20.9331 16.108C20.3571 16.108 19.8531 15.984 19.4211 15.736C18.9971 15.48 18.6691 15.12 18.4371 14.656C18.2051 14.184 18.0891 13.628 18.0891 12.988C18.0891 12.34 18.2051 11.784 18.4371 11.32C18.6691 10.856 18.9971 10.5 19.4211 10.252C19.8531 9.996 20.3571 9.868 20.9331 9.868C21.5171 9.868 22.0211 9.996 22.4451 10.252C22.8771 10.5 23.2091 10.856 23.4411 11.32C23.6811 11.784 23.8011 12.34 23.8011 12.988C23.8011 13.628 23.6811 14.184 23.4411 14.656C23.2091 15.12 22.8771 15.48 22.4451 15.736C22.0211 15.984 21.5171 16.108 20.9331 16.108ZM20.9331 15.316C21.5091 15.316 21.9651 15.12 22.3011 14.728C22.6371 14.328 22.8051 13.748 22.8051 12.988C22.8051 12.22 22.6331 11.64 22.2891 11.248C21.9531 10.848 21.5011 10.648 20.9331 10.648C20.3651 10.648 19.9131 10.848 19.5771 11.248C19.2411 11.64 19.0731 12.22 19.0731 12.988C19.0731 13.748 19.2411 14.328 19.5771 14.728C19.9131 15.12 20.3651 15.316 20.9331 15.316ZM25.3858 16V9.976H28.2898C28.9858 9.976 29.5058 10.112 29.8498 10.384C30.2018 10.648 30.3778 11.04 30.3778 11.56C30.3778 11.944 30.2418 12.268 29.9698 12.532C29.7058 12.788 29.3618 12.94 28.9378 12.988V12.844C29.4338 12.86 29.8298 13.004 30.1258 13.276C30.4218 13.548 30.5698 13.9 30.5698 14.332C30.5698 14.852 30.3778 15.26 29.9938 15.556C29.6178 15.852 29.0818 16 28.3858 16H25.3858ZM26.3098 15.34H28.3378C28.7618 15.34 29.0858 15.252 29.3098 15.076C29.5418 14.892 29.6578 14.632 29.6578 14.296C29.6578 13.96 29.5418 13.704 29.3098 13.528C29.0858 13.352 28.7618 13.264 28.3378 13.264H26.3098V15.34ZM26.3098 12.604H28.2298C28.6218 12.604 28.9258 12.516 29.1418 12.34C29.3578 12.164 29.4658 11.92 29.4658 11.608C29.4658 11.296 29.3578 11.056 29.1418 10.888C28.9258 10.712 28.6218 10.624 28.2298 10.624H26.3098V12.604ZM34.5972 16.108C34.0212 16.108 33.5172 15.984 33.0852 15.736C32.6612 15.48 32.3332 15.12 32.1012 14.656C31.8692 14.184 31.7532 13.628 31.7532 12.988C31.7532 12.34 31.8692 11.784 32.1012 11.32C32.3332 10.856 32.6612 10.5 33.0852 10.252C33.5172 9.996 34.0212 9.868 34.5972 9.868C35.1812 9.868 35.6852 9.996 36.1092 10.252C36.5412 10.5 36.8732 10.856 37.1052 11.32C37.3452 11.784 37.4652 12.34 37.4652 12.988C37.4652 13.628 37.3452 14.184 37.1052 14.656C36.8732 15.12 36.5412 15.48 36.1092 15.736C35.6852 15.984 35.1812 16.108 34.5972 16.108ZM34.5972 15.316C35.1732 15.316 35.6292 15.12 35.9652 14.728C36.3012 14.328 36.4692 13.748 36.4692 12.988C36.4692 12.22 36.2972 11.64 35.9532 11.248C35.6172 10.848 35.1652 10.648 34.5972 10.648C34.0292 10.648 33.5772 10.848 33.2412 11.248C32.9052 11.64 32.7372 12.22 32.7372 12.988C32.7372 13.748 32.9052 14.328 33.2412 14.728C33.5772 15.12 34.0292 15.316 34.5972 15.316ZM41.7738 16.108C40.8298 16.108 40.0858 15.836 39.5418 15.292C38.9978 14.74 38.7258 13.976 38.7258 13C38.7258 12.368 38.8458 11.82 39.0858 11.356C39.3258 10.884 39.6618 10.52 40.0938 10.264C40.5258 10 41.0218 9.868 41.5818 9.868C42.1338 9.868 42.5978 9.984 42.9738 10.216C43.3498 10.448 43.6378 10.78 43.8378 11.212C44.0378 11.636 44.1378 12.14 44.1378 12.724V13.084H39.4698V12.472H43.5018L43.2978 12.628C43.2978 11.988 43.1538 11.488 42.8658 11.128C42.5778 10.768 42.1498 10.588 41.5818 10.588C40.9818 10.588 40.5138 10.8 40.1778 11.224C39.8418 11.64 39.6738 12.204 39.6738 12.916V13.024C39.6738 13.776 39.8578 14.348 40.2258 14.74C40.6018 15.124 41.1258 15.316 41.7978 15.316C42.1578 15.316 42.4938 15.264 42.8058 15.16C43.1258 15.048 43.4298 14.868 43.7178 14.62L44.0538 15.304C43.7898 15.56 43.4538 15.76 43.0458 15.904C42.6458 16.04 42.2218 16.108 41.7738 16.108Z" fill="#E4DB00"/>
</svg>
