<svg width="24" height="15" viewBox="0 0 24 15" fill="none" xmlns="http://www.w3.org/2000/svg">
<path d="M21.8173 8.82507C22.0336 9.02888 22.062 9.39161 21.8803 9.63442C21.7795 9.77029 21.6346 9.84 21.4886 9.84C21.3731 9.84 21.2566 9.79569 21.161 9.70531L19.7648 8.38543C19.2043 8.74956 18.5459 9.13156 17.8132 9.48853L18.6867 10.8892C18.8489 11.1491 18.7933 11.5071 18.5623 11.6897C18.473 11.7606 18.3706 11.7943 18.2693 11.7943C18.1087 11.7943 17.9501 11.7092 17.8509 11.5497L16.8393 9.92766C16.0322 10.2577 15.1525 10.5336 14.2238 10.7155L14.5515 12.2946C14.6155 12.6036 14.4449 12.9126 14.1703 12.9846C14.1312 12.9953 14.0921 13 14.0535 13C13.8217 13 13.6117 12.821 13.5566 12.5557L13.2066 10.8695C12.8104 10.9125 12.4096 10.943 12 10.943C11.5904 10.943 11.1895 10.9125 10.7933 10.8694L10.4428 12.5563C10.3877 12.821 10.1779 13 9.94613 13C9.90755 13 9.86843 12.9953 9.82906 12.9846C9.55448 12.9126 9.38412 12.603 9.44843 12.294L9.77616 10.7154C8.84749 10.5334 7.96785 10.2577 7.16068 9.92751L6.14877 11.5497C6.04928 11.7092 5.89099 11.7943 5.73034 11.7943C5.62901 11.7943 5.52663 11.76 5.43712 11.6897C5.20638 11.5071 5.15073 11.1485 5.31296 10.8892L6.18647 9.48816C5.45405 9.13131 4.79573 8.74949 4.23535 8.38547L2.83913 9.70531C2.74358 9.79569 2.62703 9.84 2.511 9.84C2.36531 9.84 2.22067 9.77029 2.11961 9.63501C1.93822 9.39161 1.96631 9.02947 2.18235 8.82507L3.31774 7.75139C2.92234 7.46007 2.61334 7.20852 2.40784 7.03328C2.18313 6.84187 2.13877 6.48151 2.30914 6.22866C2.47976 5.97463 2.79975 5.92442 3.02472 6.1176C4.03641 6.97952 7.67391 9.79333 12 9.79333C16.3268 9.79333 19.9635 6.97952 20.9752 6.1176C21.1999 5.92619 21.5207 5.97581 21.6903 6.22866C21.8609 6.48151 21.8168 6.84187 21.5916 7.03328C21.3862 7.20855 21.0773 7.46014 20.6819 7.7515L21.8173 8.82507Z" fill="#4D4D4D"/>
</svg>
