<svg width="24" height="15" viewBox="0 0 24 15" fill="none" xmlns="http://www.w3.org/2000/svg">
<path d="M21.7441 6.41627C21.909 6.57319 22 6.78042 22 7.00012C22 7.21981 21.909 7.42704 21.7441 7.58397C20.6519 8.62013 16.7235 12 12.0001 12C7.27674 12 3.34811 8.62013 2.25654 7.58443C2.09102 7.4275 2 7.21981 2 7.00012C2 6.78042 2.09102 6.57273 2.25654 6.4158C3.34788 5.37987 7.27584 2 12.0001 2C16.7244 2 20.6523 5.37987 21.7437 6.4158L21.7441 6.41627ZM4.24482 5.89766C6.4164 5.28061 9.2489 4.95895 12.0001 4.95895C14.7516 4.95895 17.5843 5.28096 19.756 5.8981C18.0526 4.59793 15.2113 2.89816 12.0001 2.89816C8.78907 2.89816 5.94825 4.59756 4.24482 5.89766ZM13.5199 5.89103C13.0613 5.87228 12.5919 5.85988 12.1046 5.85852C12.0554 5.96257 12.0254 6.07781 12.0254 6.20104C12.0254 6.63905 12.3738 6.99414 12.8036 6.99414C13.2334 6.99414 13.5818 6.63905 13.5818 6.20104C13.5818 6.09099 13.5597 5.98628 13.5199 5.89103ZM8.56941 10.4843C7.69551 9.59043 7.15425 8.35852 7.15425 7.00012C7.15425 6.72256 7.18233 6.45212 7.22571 6.18691C5.52889 6.43637 4.15972 6.80448 3.17091 7.21609C4.11075 8.05731 6.08673 9.61934 8.56941 10.4843ZM15.9645 7.00012C15.9645 6.67885 15.9237 6.3678 15.8538 6.06803C15.3267 6.00832 14.777 5.95865 14.1974 5.92368C14.352 6.25066 14.4461 6.61274 14.4461 6.99997C14.4461 8.37681 13.351 9.49296 12.0001 9.49296C10.6492 9.49296 9.55409 8.37681 9.55409 6.99997C9.55409 6.61274 9.64814 6.25066 9.80272 5.92368C9.22306 5.95865 8.67342 6.00835 8.14617 6.06806C8.07635 6.36783 8.03548 6.67888 8.03548 7.00012C8.03548 9.22844 9.81402 11.0409 12.0001 11.0409C14.1862 11.0409 15.9645 9.22844 15.9645 7.00012ZM20.8294 7.21606C19.8405 6.80445 18.4712 6.43631 16.7743 6.18688C16.8177 6.45209 16.8458 6.72256 16.8458 7.00012C16.8458 8.35858 16.3045 9.59052 15.4305 10.4844C17.9134 9.6194 19.8895 8.05728 20.8294 7.21606Z" fill="#4D4D4D"/>
</svg>
