<svg width="19" height="19" viewBox="0 0 19 19" fill="none" xmlns="http://www.w3.org/2000/svg">
<path d="M11.5082 2.76685C11.5082 2.76685 11.6059 4.44129 13.0832 5.91769C14.5604 7.39493 16.234 7.49353 16.234 7.49353L17.0219 6.70561C17.6487 6.07881 18.0009 5.22869 18.0009 4.34227C18.0009 3.45584 17.6487 2.60572 17.0219 1.97893C16.3951 1.35213 15.545 1 14.6586 1C13.7722 1 12.922 1.35213 12.2952 1.97893L11.5073 2.76685L9.50139 4.77278M16.234 7.49268L11.7632 11.9652L9.12741 14.5993L8.99141 14.7361C8.50013 15.2266 8.25449 15.4722 7.9842 15.683C7.66523 15.9319 7.32009 16.1454 6.95488 16.3196C6.64549 16.4667 6.31656 16.5763 5.65783 16.7956L2.86908 17.7255M2.86908 17.7255L2.1874 17.9533C2.02851 18.0065 1.8579 18.0144 1.69475 17.9761C1.53161 17.9377 1.38239 17.8546 1.26389 17.7361C1.14538 17.6176 1.06228 17.4684 1.02392 17.3052C0.985558 17.1421 0.993463 16.9715 1.04674 16.8126L1.27454 16.1309M2.86908 17.7255L1.27454 16.1309M1.27454 16.1309L2.2044 13.3422C2.4237 12.6834 2.53334 12.3545 2.68039 12.0451C2.85463 11.6796 3.06797 11.3345 3.31701 11.0158C3.52781 10.7455 3.77345 10.4999 4.26388 10.0094L6.5265 7.74767" stroke="black" stroke-width="1.5" stroke-linecap="round"/>
</svg>
