<svg width="24" height="24" viewBox="0 0 24 24" fill="none" xmlns="http://www.w3.org/2000/svg">
<rect width="24" height="24" rx="12" fill="#2B292C"/>
<path d="M18.0455 16.8303L18.4252 17.2329L18.0447 16.8303H18.0455ZM8.99585 15.1987L9.37489 14.7961L8.99513 15.1987H8.99585ZM6.03387 7.1829L5.65483 6.78105L6.03459 7.18366L6.03387 7.1829ZM14.6039 14.566L14.932 14.2232L14.1718 13.418L13.8459 13.7608L14.6039 14.566ZM16.0297 14.0794L17.4015 14.8657L17.9148 13.8683L16.5437 13.0827L16.0297 14.0794ZM17.665 16.4277L16.6456 17.497L17.4044 18.3015L18.4238 17.2329L17.665 16.4277ZM16.0239 17.8406C14.983 17.9435 12.2909 17.8519 9.37489 14.7961L8.61538 15.6005C11.797 18.9356 14.8258 19.0991 16.1244 18.9712L16.0232 17.8406H16.0239ZM9.37489 14.7961C6.59597 11.8825 6.13509 9.4328 6.07766 8.36953L5.00228 8.43385C5.07407 9.77183 5.64478 12.4871 8.61538 15.6005L9.37489 14.7961ZM10.362 10.1192L10.568 9.90276L9.80993 9.0983L9.6039 9.31398L10.3627 10.1184L10.362 10.1192ZM10.7317 7.15187L9.82716 5.87746L8.96498 6.55856L9.86951 7.83221L10.7317 7.15187ZM6.78262 5.59972L5.65555 6.7803L6.41507 7.58551L7.54142 6.40493L6.78262 5.59972ZM9.98294 9.71659C9.60246 9.31398 9.60246 9.31398 9.60246 9.3155H9.60103L9.59887 9.31852C9.56498 9.35499 9.53445 9.39478 9.5077 9.43734C9.46894 9.49788 9.42658 9.57734 9.39069 9.67799C9.30327 9.93781 9.2815 10.2171 9.32751 10.4885C9.42371 11.1431 9.85157 12.0081 10.9471 13.1569L11.7066 12.3517C10.6807 11.2771 10.4366 10.6232 10.3914 10.3144C10.3699 10.1676 10.3921 10.095 10.3986 10.0783C10.4022 10.0677 10.4036 10.067 10.3986 10.0738C10.3923 10.0843 10.3851 10.0942 10.3771 10.1033L10.3699 10.1109C10.3676 10.1132 10.3652 10.1155 10.3627 10.1177L9.98222 9.71659H9.98294ZM10.9471 13.1569C12.0433 14.3057 12.8681 14.7537 13.4898 14.8536C13.8078 14.905 14.0641 14.8642 14.2586 14.7877C14.3674 14.7453 14.4692 14.685 14.5602 14.6091C14.5725 14.5983 14.5845 14.5869 14.596 14.5751L14.6011 14.5706L14.6032 14.5683L14.6039 14.5668C14.6039 14.5668 14.6047 14.566 14.2249 14.1634C13.8444 13.7608 13.8466 13.76 13.8466 13.76L13.848 13.7585L13.8494 13.757L13.8538 13.7532L13.8609 13.7457C13.8696 13.7375 13.8787 13.7299 13.8882 13.723C13.8954 13.7177 13.8932 13.7199 13.8832 13.7245C13.8652 13.7313 13.7949 13.7547 13.6535 13.732C13.3563 13.6836 12.7317 13.4263 11.7066 12.3517L10.9471 13.1569ZM9.82716 5.8767C9.09492 4.84749 7.65629 4.68402 6.78262 5.59972L7.54142 6.40493C7.92334 6.0046 8.60102 6.04622 8.96498 6.55856L9.82644 5.8767H9.82716ZM6.07838 8.37028C6.06402 8.10844 6.17817 7.83449 6.41507 7.58626L5.65483 6.78105C5.26933 7.18517 4.96567 7.75729 5.00228 8.43385L6.07838 8.37028ZM16.6456 17.497C16.4489 17.7044 16.2364 17.8209 16.0246 17.8413L16.1244 18.9712C16.6521 18.919 17.0835 18.639 17.4051 18.3022L16.6456 17.497ZM10.568 9.90276C11.2751 9.16187 11.3275 7.99114 10.7324 7.15263L9.87023 7.83297C10.1595 8.24087 10.1165 8.77591 9.80921 9.09906L10.568 9.90276ZM17.4022 14.8665C17.9888 15.2025 18.0799 15.994 17.6657 16.4284L18.4252 17.2329C19.3872 16.2241 19.0907 14.5418 17.9155 13.869L17.4022 14.8665ZM14.932 14.2239C15.2077 13.9349 15.6513 13.8637 16.0304 14.0802L16.5444 13.0835C15.7662 12.637 14.8014 12.7603 14.1725 13.4187L14.932 14.2239Z" fill="#E4DB00"/>
</svg>
