<svg width="36" height="36" viewBox="0 0 36 36" fill="none" xmlns="http://www.w3.org/2000/svg">
<rect width="36" height="36" rx="18" fill="#2B292C"/>
<path d="M11.5713 9C11.4387 9.00007 11.3087 9.03706 11.1959 9.10682C11.0831 9.17659 10.992 9.27638 10.9327 9.39501L8.07554 15.1094C8.01405 15.2323 7.98929 15.3702 8.00424 15.5068C8.01919 15.6434 8.07321 15.7728 8.15983 15.8794L17.4457 27.3082C17.5127 27.3906 17.5972 27.457 17.6931 27.5026C17.789 27.5483 17.8938 27.5719 18 27.5719C18.1062 27.5719 18.211 27.5483 18.3069 27.5026C18.4028 27.457 18.4873 27.3906 18.5543 27.3082L27.8402 15.8794C27.9268 15.7728 27.9808 15.6434 27.9958 15.5068C28.0107 15.3702 27.986 15.2323 27.9245 15.1094L25.0673 9.39501C25.008 9.27638 24.9169 9.17659 24.8041 9.10682C24.6913 9.03706 24.5613 9.00007 24.4287 9H11.5713ZM9.86986 14.7144L12.0128 10.4286H14.9421L13.8706 14.7144H9.86986ZM10.2149 16.143H13.9035L16.2085 23.5203L10.2149 16.143ZM15.4007 16.143H20.6L18 24.4624L15.4 16.143H15.4007ZM22.0965 16.143H25.7859L19.7922 23.5203L22.0965 16.143ZM26.1301 14.7144H22.1294L21.0579 10.4286H23.9872L26.1301 14.7144ZM20.6565 14.7144H15.3435L16.415 10.4286H19.585L20.6565 14.7144Z" fill="#E4DB00"/>
</svg>
