<svg width="36" height="36" viewBox="0 0 36 36" fill="currentColor" xmlns="http://www.w3.org/2000/svg">
<path fill-rule="evenodd" clip-rule="evenodd" d="M18.002 2C9.17336 2 2 9.17336 2 18.002C2 26.8306 9.17309 34.0067 18.002 34.004C21.1453 34.003 24.2173 33.0712 26.8349 31.3333C26.9214 31.2794 26.9961 31.2086 27.0547 31.1253C27.1134 31.042 27.1547 30.9478 27.1763 30.8482C27.1979 30.7487 27.1993 30.6458 27.1804 30.5457C27.1616 30.4456 27.1229 30.3503 27.0665 30.2654C27.0102 30.1805 26.9374 30.1078 26.8525 30.0515C26.7676 29.9952 26.6723 29.9565 26.5721 29.9377C26.472 29.9189 26.3691 29.9204 26.2696 29.9421C26.1701 29.9637 26.0759 30.0051 25.9926 30.0638C23.6235 31.6366 20.8444 32.4791 18.002 32.48C9.99728 32.4824 3.524 26.007 3.524 18.002C3.524 9.997 9.997 3.524 18.002 3.524C26.007 3.524 32.4824 9.99728 32.48 18.002C32.4791 20.8444 31.6366 23.6235 30.0638 25.9926C30.0051 26.0759 29.9637 26.1701 29.9421 26.2696C29.9204 26.3691 29.9189 26.472 29.9377 26.5721C29.9565 26.6723 29.9952 26.7676 30.0515 26.8525C30.1078 26.9374 30.1805 27.0102 30.2654 27.0665C30.3503 27.1229 30.4456 27.1616 30.5457 27.1804C30.6458 27.1993 30.7487 27.1979 30.8482 27.1763C30.9478 27.1547 31.042 27.1134 31.1253 27.0547C31.2086 26.9961 31.2794 26.9214 31.3333 26.8349C33.0712 24.2173 34.003 21.1453 34.004 18.002C34.0067 9.17309 26.8306 2 18.002 2ZM18.002 5.048C15.6441 5.048 13.4294 5.68308 11.5243 6.78557C11.4351 6.83434 11.3566 6.90046 11.2933 6.98003C11.2301 7.0596 11.1834 7.15102 11.156 7.2489C11.1287 7.34678 11.1211 7.44915 11.1339 7.54998C11.1467 7.65081 11.1795 7.74807 11.2304 7.83603C11.2814 7.92398 11.3494 8.00087 11.4305 8.06215C11.5116 8.12343 11.6041 8.16787 11.7026 8.19286C11.8011 8.21784 11.9036 8.22287 12.0041 8.20764C12.1046 8.19241 12.2011 8.15724 12.2877 8.10419C13.9699 7.13077 15.9171 6.572 18.002 6.572C24.3236 6.572 29.4326 11.6805 29.432 18.002C29.4317 20.8792 28.2989 23.5861 26.384 25.6771V24.098C26.384 22.0004 24.6716 20.288 22.574 20.288H21.7249C22.7169 19.3188 23.336 17.9696 23.336 16.4795C23.336 13.5426 20.9374 11.144 18.0005 11.144C15.0637 11.144 12.6687 13.5426 12.6687 16.4795C12.6687 17.9696 13.2871 19.3188 14.2783 20.288H13.43C11.3324 20.288 9.62 22.0004 9.62 24.098V25.6666C7.70709 23.5782 6.57416 20.8748 6.572 18.0013C6.57043 15.9171 7.13059 13.9702 8.10419 12.2877C8.15724 12.2011 8.19241 12.1046 8.20764 12.0041C8.22287 11.9036 8.21784 11.8011 8.19286 11.7026C8.16787 11.6041 8.12343 11.5116 8.06215 11.4305C8.00087 11.3494 7.92398 11.2814 7.83603 11.2304C7.74807 11.1795 7.65081 11.1467 7.54998 11.1339C7.44915 11.1211 7.34678 11.1287 7.2489 11.156C7.15102 11.1834 7.0596 11.2301 6.98003 11.2933C6.90046 11.3566 6.83434 11.4351 6.78557 11.5243C5.68326 13.4291 5.04622 15.6441 5.048 18.0027C5.05095 21.9306 6.84003 25.6447 9.90575 28.0992C10.0178 28.1889 10.1529 28.2451 10.2955 28.2614C10.4381 28.2777 11.5 28.5 11.5 28.5C11.5 28.5 11.5 28.5 11.5 28.4865C13 28.4865 12.9131 28.4865 14.1927 28.4865H22.574C23.8536 28.4865 23 28.5 24.5 28.4865V28.5C24.5 28.5 25.5659 28.2888 25.7085 28.2726C25.8511 28.2563 25.9862 28.2001 26.0982 28.1104C29.1673 25.6532 30.9556 21.9337 30.956 18.002C30.9567 10.8566 25.1473 5.048 18.002 5.048ZM28.7898 28.0166C28.6878 28.015 28.5865 28.0338 28.4919 28.072C28.3973 28.1103 28.3114 28.1671 28.2391 28.2391C28.1683 28.3099 28.1121 28.394 28.0737 28.4865C28.0354 28.579 28.0156 28.6781 28.0156 28.7783C28.0156 28.8784 28.0354 28.9776 28.0737 29.0701C28.1121 29.1626 28.1683 29.2466 28.2391 29.3174C28.3099 29.3883 28.394 29.4445 28.4865 29.4828C28.579 29.5212 28.6781 29.5409 28.7783 29.5409C28.8784 29.5409 28.9776 29.5212 29.0701 29.4828C29.1626 29.4445 29.2466 29.3883 29.3174 29.3174C29.3883 29.2466 29.4445 29.1626 29.4828 29.0701C29.5212 28.9776 29.5409 28.8784 29.5409 28.7783C29.5409 28.6781 29.5212 28.579 29.4828 28.4865C29.4445 28.394 29.3883 28.3099 29.3174 28.2391C29.1771 28.0992 28.9879 28.0194 28.7898 28.0166Z" fill="currentColor"/>
</svg>
