<svg width="18" height="18" viewBox="0 0 18 18" fill="none" xmlns="http://www.w3.org/2000/svg">
<path d="M14.3995 0.00195344C14.5553 0.00180344 14.7063 0.0555351 14.827 0.154036L14.8945 0.217029L17.8398 3.39366L17.8668 3.42786C17.9586 3.55024 18 3.68883 18 3.82381L17.9982 5.55161C17.9982 6.44611 17.658 7.26141 17.0983 7.87334V17.3249C17.0983 17.488 17.0392 17.6456 16.932 17.7685C16.8248 17.8914 16.6768 17.9714 16.5152 17.9936L16.4234 17.9999H1.5778C1.41455 18.0001 1.25676 17.9411 1.13366 17.8339C1.01055 17.7267 0.930483 17.5785 0.908281 17.4167L0.902882 17.3249L0.901082 7.87424C0.369104 7.29185 0.0535957 6.54422 0.00748517 5.75679L0.00118593 5.55161V3.86251C-0.00652687 3.73431 0.023508 3.60666 0.0875759 3.49535L0.146069 3.40986L0.182065 3.36846L3.10583 0.217928C3.21147 0.103903 3.35324 0.0298403 3.50718 0.00825268L3.60077 0.00195344H14.3995ZM11.7736 7.59887L11.7628 7.61507C11.442 8.04518 11.0252 8.39444 10.5455 8.63503C10.0659 8.87563 9.53673 9.00091 9.00014 9.00091C8.4602 9.00121 7.92774 8.87465 7.44568 8.63144C6.96362 8.38822 6.54545 8.03514 6.22487 7.60067C5.90446 8.0349 5.48658 8.38782 5.00485 8.63103C4.52313 8.87424 3.99102 9.00093 3.45139 9.00091C3.02934 9.00091 2.62528 8.92532 2.25093 8.78674L2.25182 16.65H3.60077V10.5775C3.60081 10.4143 3.66 10.2566 3.76738 10.1337C3.87476 10.0107 4.02306 9.93089 4.1848 9.90891L4.27569 9.90081H8.32162C8.48472 9.90081 8.64229 9.95988 8.76521 10.0671C8.88812 10.1743 8.96806 10.3224 8.99024 10.4839L8.99654 10.5757V16.6482H15.7476V8.78584C15.046 9.04605 14.2788 9.07088 13.5619 8.85658C12.845 8.64229 12.2173 8.20051 11.7736 7.59797M7.6458 11.2507H4.95061V16.6482H7.6458V11.2507ZM13.7291 9.90081C13.8922 9.90081 14.0498 9.95988 14.1727 10.0671C14.2956 10.1743 14.3755 10.3224 14.3977 10.4839L14.404 10.5757V13.7272C14.404 13.8903 14.3449 14.0478 14.2377 14.1707C14.1305 14.2937 13.9825 14.3736 13.8209 14.3958L13.7291 14.4021H10.5786C10.4155 14.4021 10.2579 14.343 10.135 14.2358C10.0121 14.1286 9.93212 13.9805 9.90994 13.819L9.90364 13.7272V10.5757C9.90365 10.4126 9.96271 10.2551 10.0699 10.1321C10.1771 10.0092 10.3252 9.92929 10.4868 9.90711L10.5786 9.90081H13.7291ZM13.0542 11.2507H11.2526V13.0522H13.0533L13.0542 11.2507ZM5.54904 4.50323H1.35193V5.55161L1.35823 5.70459L1.38343 5.91337L1.41312 6.05375L1.45812 6.20854L1.50671 6.34172L1.54271 6.42631C1.5709 6.4875 1.6018 6.5469 1.6354 6.60449L1.72809 6.75027L1.77668 6.81686L1.89277 6.95725L2.02055 7.08683L2.10694 7.16332L2.14474 7.19392C2.4282 7.41889 2.77016 7.57368 3.14542 7.62857L3.3074 7.64567L3.45139 7.65017C3.98338 7.65069 4.49568 7.44898 4.88451 7.08588C5.27333 6.72279 5.5096 6.22548 5.54544 5.69469L5.55084 5.55071L5.54904 4.50323ZM11.0969 4.50323H6.89979V5.55161C6.89979 6.61349 7.68989 7.49269 8.71488 7.63127L8.85526 7.64567L8.99924 7.65017C9.53124 7.65069 10.0435 7.44898 10.4324 7.08588C10.8212 6.72279 11.0575 6.22548 11.0933 5.69469L11.0987 5.55071L11.0969 4.50323ZM16.6466 4.50323H12.4485L12.4494 5.55161C12.4494 6.61349 13.2396 7.49269 14.2636 7.63127L14.4049 7.64567L14.5489 7.65017C15.0564 7.65017 15.5217 7.47019 15.8852 7.16962L15.9662 7.09943L16.0706 6.99774L16.202 6.84476C16.2506 6.78297 16.2956 6.71818 16.337 6.65038L16.4306 6.483L16.4873 6.35882L16.5395 6.21933L16.5665 6.13294L16.6007 5.99616L16.6259 5.85488L16.6421 5.70459L16.6475 5.55161L16.6466 4.50323ZM6.35625 1.3509H3.89503L2.22393 3.15339H5.80281L6.35625 1.3509ZM10.2321 1.3509H7.76819L7.21385 3.15339H10.7864L10.2321 1.3509ZM14.1044 1.3509H11.644L12.1984 3.15339H15.7764L14.1044 1.3509Z" fill="#2B292C"/>
</svg>
