<svg width="24" height="24" viewBox="0 0 24 24" fill="none" xmlns="http://www.w3.org/2000/svg">
<path d="M10.0418 1C5.05444 1 0.999997 5.05496 1 10.0423C1 15.0296 5.05444 19.0841 10.0418 19.0841C12.3445 19.0841 14.4472 18.2181 16.045 16.7966L16.5478 17.2999C16.2678 17.8928 16.3698 18.6281 16.8569 19.1152L20.6184 22.8767C21.2369 23.4953 22.2556 23.4939 22.8741 22.8757C23.4927 22.2571 23.4927 21.24 22.8741 20.6215L19.1126 16.86C18.6262 16.3736 17.893 16.2705 17.3009 16.5489L16.7971 16.045C18.2184 14.4473 19.0841 12.3448 19.0841 10.0423C19.0841 5.05496 15.0291 1 10.0418 1ZM10.0418 2.06426C14.4542 2.06426 18.0198 5.62984 18.0198 10.0423C18.0198 14.4547 14.4542 18.0203 10.0418 18.0203C5.62933 18.0203 2.06374 14.4547 2.06374 10.0423C2.06374 5.62984 5.62932 2.06426 10.0418 2.06426Z" fill="#4D4D4D"/>
<path d="M8.47384 3.05473C8.42549 3.05409 8.37727 3.06005 8.33053 3.07243C7.06632 3.38664 5.8877 4.03704 4.96185 4.9629C3.62727 6.29748 2.85935 8.15631 2.85938 10.0434C2.85937 10.1133 2.87314 10.1824 2.89987 10.247C2.92661 10.3115 2.96579 10.3702 3.01519 10.4196C3.06459 10.469 3.12324 10.5081 3.18779 10.5349C3.25233 10.5616 3.32151 10.5754 3.39137 10.5754C3.46124 10.5754 3.53042 10.5616 3.59496 10.5349C3.65951 10.5081 3.71815 10.469 3.76756 10.4196C3.81696 10.3702 3.85614 10.3115 3.88288 10.247C3.90961 10.1824 3.92337 10.1133 3.92337 10.0434C3.92335 8.448 4.58777 6.84464 5.71568 5.71673C6.49816 4.93425 7.50834 4.3733 8.5877 4.10502C8.71458 4.07581 8.82635 4.00107 8.90181 3.89497C8.97728 3.78887 9.01122 3.65876 8.99718 3.52931C8.98315 3.39987 8.92213 3.28007 8.82567 3.19261C8.72922 3.10515 8.60403 3.05608 8.47384 3.05473Z" fill="#4D4D4D"/>
<path d="M10.5735 3.39321C10.5735 3.53426 10.5175 3.66955 10.4177 3.76929C10.318 3.86904 10.1827 3.92508 10.0416 3.92508C9.90058 3.92508 9.76529 3.86904 9.66555 3.76929C9.5658 3.66955 9.50977 3.53426 9.50977 3.39321C9.50977 3.32336 9.52352 3.25419 9.55025 3.18966C9.57698 3.12513 9.61616 3.06651 9.66555 3.01712C9.71493 2.96773 9.77357 2.92855 9.8381 2.90182C9.90263 2.87509 9.97179 2.86133 10.0416 2.86133C10.1115 2.86133 10.1806 2.87509 10.2452 2.90182C10.3097 2.92855 10.3683 2.96773 10.4177 3.01712C10.4671 3.06651 10.5063 3.12513 10.533 3.18966C10.5597 3.25419 10.5735 3.32336 10.5735 3.39321Z" fill="#4D4D4D"/>
</svg>
