<svg width="22" height="22" viewBox="0 0 22 22" fill="none" xmlns="http://www.w3.org/2000/svg">
<path d="M15.3407 8.31888C15.4368 8.22931 15.5143 8.12171 15.5688 8.0022C15.6232 7.8827 15.6536 7.75363 15.6582 7.62238C15.6628 7.49112 15.6415 7.36025 15.5956 7.23722C15.5496 7.1142 15.4798 7.00144 15.3902 6.90538C15.3007 6.80931 15.1931 6.73183 15.0736 6.67736C14.9541 6.62288 14.825 6.59248 14.6937 6.58788C14.5625 6.58328 14.4316 6.60459 14.3086 6.65057C14.1856 6.69655 14.0728 6.76631 13.9767 6.85588L11.0507 9.58388L8.32274 6.65688C8.14021 6.46992 7.89175 6.36183 7.63054 6.35574C7.36932 6.34965 7.1161 6.44604 6.92505 6.62428C6.734 6.80252 6.6203 7.04846 6.60828 7.30947C6.59626 7.57048 6.68688 7.82583 6.86074 8.02088L9.58874 10.9469L6.66174 13.6749C6.56229 13.7635 6.48155 13.8712 6.42427 13.9915C6.367 14.1117 6.33433 14.2423 6.32821 14.3754C6.32208 14.5085 6.34261 14.6414 6.38859 14.7665C6.43457 14.8915 6.50507 15.0061 6.59596 15.1035C6.68685 15.201 6.79629 15.2792 6.91785 15.3338C7.03941 15.3883 7.17064 15.418 7.30383 15.4211C7.43703 15.4242 7.5695 15.4006 7.69347 15.3518C7.81744 15.303 7.93041 15.2299 8.02574 15.1369L10.9517 12.4099L13.6797 15.3359C13.7678 15.4372 13.8754 15.5197 13.9961 15.5785C14.1167 15.6374 14.248 15.6713 14.382 15.6783C14.5161 15.6853 14.6502 15.6653 14.7763 15.6194C14.9024 15.5735 15.0181 15.5027 15.1162 15.4111C15.2144 15.3196 15.2932 15.2092 15.3478 15.0866C15.4024 14.964 15.4318 14.8316 15.4342 14.6974C15.4366 14.5632 15.4119 14.4299 15.3616 14.3054C15.3114 14.1809 15.2366 14.0678 15.1417 13.9729L12.4147 11.0469L15.3407 8.31888Z" fill="#A0A0A0"/>
<path fill-rule="evenodd" clip-rule="evenodd" d="M0 11C0 4.925 4.925 0 11 0C17.075 0 22 4.925 22 11C22 17.075 17.075 22 11 22C4.925 22 0 17.075 0 11ZM11 20C9.8181 20 8.64778 19.7672 7.55585 19.3149C6.46392 18.8626 5.47177 18.1997 4.63604 17.364C3.80031 16.5282 3.13738 15.5361 2.68508 14.4442C2.23279 13.3522 2 12.1819 2 11C2 9.8181 2.23279 8.64778 2.68508 7.55585C3.13738 6.46392 3.80031 5.47177 4.63604 4.63604C5.47177 3.80031 6.46392 3.13738 7.55585 2.68508C8.64778 2.23279 9.8181 2 11 2C13.3869 2 15.6761 2.94821 17.364 4.63604C19.0518 6.32387 20 8.61305 20 11C20 13.3869 19.0518 15.6761 17.364 17.364C15.6761 19.0518 13.3869 20 11 20Z" fill="#A0A0A0"/>
</svg>
