<svg width="34" height="37" viewBox="0 0 34 37" fill="none" xmlns="http://www.w3.org/2000/svg">
<path d="M21.876 35.5469C21.876 35.8577 21.7526 36.1557 21.5328 36.3755C21.313 36.5953 21.015 36.7188 20.7042 36.7188H15.2354C14.9246 36.7188 14.6266 36.5953 14.4068 36.3755C14.187 36.1557 14.0635 35.8577 14.0635 35.5469V24.6094C14.0635 24.2986 14.187 24.0005 14.4068 23.7807C14.6266 23.561 14.9246 23.4375 15.2354 23.4375C15.5462 23.4375 15.8443 23.561 16.0641 23.7807C16.2838 24.0005 16.4073 24.2986 16.4073 24.6094V34.375H20.7042C21.015 34.375 21.313 34.4985 21.5328 34.7182C21.7526 34.938 21.876 35.2361 21.876 35.5469ZM9.66511 23.6543C9.41246 23.4742 9.09867 23.4016 8.79258 23.4525C8.48648 23.5034 8.21307 23.6736 8.0323 23.9258L5.07917 28.0605L2.12605 23.9258C2.03628 23.8006 1.92273 23.6944 1.7919 23.6131C1.66106 23.5318 1.51549 23.4771 1.36351 23.452C1.21153 23.427 1.0561 23.4322 0.906109 23.4672C0.756117 23.5022 0.614495 23.5665 0.489329 23.6562C0.364163 23.746 0.257904 23.8596 0.176619 23.9904C0.0953346 24.1212 0.0406159 24.2668 0.0155876 24.4188C-0.00944066 24.5708 -0.00428809 24.7262 0.0307503 24.8762C0.0657887 25.0262 0.130027 25.1678 0.219798 25.293L3.63972 30.0781L0.219798 34.8633C0.130027 34.9884 0.0657887 35.1301 0.0307503 35.2801C-0.00428809 35.4301 -0.00944065 35.5855 0.0155876 35.7375C0.0406159 35.8894 0.0953346 36.035 0.176619 36.1658C0.257904 36.2967 0.364163 36.4102 0.489329 36.5C0.614495 36.5898 0.756117 36.654 0.906109 36.689C1.0561 36.7241 1.21153 36.7292 1.36351 36.7042C1.51549 36.6792 1.66106 36.6245 1.7919 36.5432C1.92273 36.4619 2.03628 36.3556 2.12605 36.2305L5.07917 32.0918L8.0323 36.2246C8.1403 36.377 8.28315 36.5013 8.44895 36.5872C8.61474 36.6732 8.79867 36.7183 8.98542 36.7188C9.22941 36.7195 9.46736 36.6429 9.66511 36.5C9.79042 36.4106 9.8969 36.2974 9.97846 36.1669C10.06 36.0364 10.1151 35.8911 10.1405 35.7393C10.1658 35.5875 10.1611 35.4321 10.1264 35.2822C10.0918 35.1322 10.028 34.9905 9.93855 34.8652L6.51863 30.0781L9.93855 25.291C10.0283 25.1657 10.0924 25.0238 10.1272 24.8737C10.162 24.7235 10.1668 24.568 10.1414 24.4159C10.116 24.2639 10.0609 24.1184 9.97914 23.9877C9.89741 23.857 9.79069 23.7437 9.66511 23.6543ZM29.1026 28.7539C26.9835 28.1426 26.4835 27.8379 26.5636 27.209C26.5748 27.0115 26.6313 26.8193 26.7289 26.6472C26.8265 26.4751 26.9624 26.3278 27.1261 26.2168C28.2198 25.4766 30.5733 25.8594 31.3136 26.0527C31.6128 26.1287 31.9299 26.0834 32.196 25.9269C32.4621 25.7703 32.6556 25.5151 32.7346 25.2167C32.8136 24.9182 32.7716 24.6007 32.6178 24.333C32.464 24.0653 32.2108 23.8691 31.9132 23.7871C31.5225 23.6816 27.9874 22.8105 25.8175 24.2715C25.3771 24.5702 25.0077 24.9618 24.735 25.4187C24.4623 25.8756 24.2932 26.3867 24.2393 26.916C23.8878 29.6875 26.6339 30.4805 28.4522 31.0059C30.8194 31.6895 31.337 32.0469 31.2257 32.9121C31.2156 33.1195 31.1575 33.3217 31.0558 33.5027C30.9541 33.6838 30.8116 33.8386 30.6397 33.9551C29.544 34.6836 27.2257 34.2754 26.501 34.0762C26.2108 34.0176 25.9091 34.0711 25.6567 34.2259C25.4043 34.3807 25.2198 34.6253 25.1404 34.9106C25.061 35.1959 25.0925 35.5006 25.2286 35.7636C25.3647 36.0266 25.5953 36.2283 25.8741 36.3281C26.8098 36.5775 27.773 36.7087 28.7413 36.7188C29.8136 36.7188 30.9952 36.5332 31.9366 35.9102C32.3893 35.6081 32.7696 35.2096 33.0502 34.7433C33.3308 34.277 33.5048 33.7544 33.5596 33.2129C33.9522 30.1543 31.0382 29.3125 29.1026 28.7539ZM0.00104783 16.7969V2.73438C0.00104783 2.00917 0.289133 1.31367 0.801928 0.80088C1.31472 0.288085 2.01022 0 2.73542 0H21.4854C21.7961 0.000273519 22.094 0.123918 22.3136 0.34375L33.2511 11.2812C33.4709 11.5008 33.5945 11.7987 33.5948 12.1094V16.7969C33.5948 17.1077 33.4713 17.4057 33.2516 17.6255C33.0318 17.8453 32.7337 17.9688 32.4229 17.9688C32.1121 17.9688 31.8141 17.8453 31.5943 17.6255C31.3745 17.4057 31.2511 17.1077 31.2511 16.7969V13.2812H21.4854C21.1746 13.2812 20.8766 13.1578 20.6568 12.938C20.437 12.7182 20.3135 12.4202 20.3135 12.1094V2.34375H2.73542C2.63182 2.34375 2.53247 2.3849 2.45921 2.45816C2.38595 2.53142 2.3448 2.63077 2.3448 2.73438V16.7969C2.3448 17.1077 2.22133 17.4057 2.00156 17.6255C1.78179 17.8453 1.48372 17.9688 1.17292 17.9688C0.862122 17.9688 0.564051 17.8453 0.344282 17.6255C0.124513 17.4057 0.00104783 17.1077 0.00104783 16.7969ZM22.6573 10.9375H29.5909L22.6573 4V10.9375Z" fill="#2B292C"/>
</svg>
