<svg width="16" height="16" viewBox="0 0 16 16" fill="none" xmlns="http://www.w3.org/2000/svg">
<path d="M8.77094 0.500923C9.31824 0.498823 9.86555 0.504323 10.4127 0.517423L10.5582 0.522673C10.7262 0.528673 10.8919 0.536173 11.0922 0.545173C11.8902 0.582673 12.4347 0.708673 12.9124 0.893923C13.4074 1.08442 13.8244 1.34242 14.2414 1.75942C14.6227 2.13413 14.9178 2.58738 15.1062 3.08767C15.2914 3.56542 15.4174 4.11067 15.4549 4.90867C15.4639 5.10817 15.4714 5.27467 15.4774 5.44267L15.4819 5.58817C15.4953 6.13507 15.501 6.68212 15.4992 7.22917L15.4999 7.78867V8.77117C15.5018 9.31848 15.496 9.86578 15.4827 10.4129L15.4782 10.5584C15.4722 10.7264 15.4647 10.8922 15.4557 11.0924C15.4182 11.8904 15.2907 12.4349 15.1062 12.9127C14.9184 13.4135 14.6233 13.8671 14.2414 14.2417C13.8664 14.6229 13.4129 14.918 12.9124 15.1064C12.4347 15.2917 11.8902 15.4177 11.0922 15.4552C10.8919 15.4642 10.7262 15.4717 10.5582 15.4777L10.4127 15.4822C9.86555 15.4955 9.31825 15.5013 8.77094 15.4994L8.21144 15.5002H7.22969C6.68239 15.502 6.13509 15.4963 5.58794 15.4829L5.44244 15.4784C5.2644 15.472 5.0864 15.4645 4.90844 15.4559C4.11044 15.4184 3.56594 15.2909 3.08744 15.1064C2.58696 14.9184 2.13362 14.6233 1.75919 14.2417C1.37748 13.8669 1.08211 13.4133 0.893695 12.9127C0.708445 12.4349 0.582444 11.8904 0.544944 11.0924C0.536592 10.9145 0.529092 10.7365 0.522444 10.5584L0.518695 10.4129C0.504867 9.86579 0.498617 9.31848 0.499944 8.77117V7.22917C0.497851 6.68212 0.503352 6.13507 0.516445 5.58817L0.521695 5.44267C0.527695 5.27467 0.535194 5.10817 0.544194 4.90867C0.581694 4.10992 0.707694 3.56617 0.892944 3.08767C1.08147 2.58714 1.37742 2.13401 1.75994 1.76017C2.13412 1.37824 2.58717 1.0826 3.08744 0.893923C3.56594 0.708673 4.10969 0.582673 4.90844 0.545173L5.44244 0.522673L5.58794 0.518923C6.13483 0.505103 6.68188 0.498852 7.22894 0.500173L8.77094 0.500923ZM7.99994 4.25092C7.50307 4.2439 7.00976 4.33569 6.54868 4.52097C6.08759 4.70626 5.66793 4.98133 5.31408 5.33021C4.96023 5.6791 4.67924 6.09483 4.48746 6.55325C4.29567 7.01166 4.19691 7.50363 4.19691 8.00055C4.19691 8.49747 4.29567 8.98943 4.48746 9.44785C4.67924 9.90627 4.96023 10.322 5.31408 10.6709C5.66793 11.0198 6.08759 11.2948 6.54868 11.4801C7.00976 11.6654 7.50307 11.7572 7.99994 11.7502C8.99451 11.7502 9.94833 11.3551 10.6516 10.6518C11.3549 9.94856 11.7499 8.99473 11.7499 8.00017C11.7499 7.00561 11.3549 6.05178 10.6516 5.34852C9.94833 4.64526 8.99451 4.25092 7.99994 4.25092ZM7.99994 5.75092C8.29882 5.74542 8.59581 5.79952 8.87354 5.91008C9.15128 6.02064 9.4042 6.18543 9.61753 6.39483C9.83086 6.60423 10.0003 6.85405 10.116 7.12968C10.2317 7.40531 10.2913 7.70123 10.2914 8.00017C10.2914 8.2991 10.2319 8.59504 10.1163 8.87071C10.0007 9.14638 9.83133 9.39625 9.61806 9.60573C9.4048 9.8152 9.15194 9.98008 8.87424 10.0907C8.59654 10.2014 8.29958 10.2556 8.00069 10.2502C7.40396 10.2502 6.83166 10.0131 6.4097 9.59116C5.98775 9.16921 5.75069 8.59691 5.75069 8.00017C5.75069 7.40344 5.98775 6.83114 6.4097 6.40918C6.83166 5.98723 7.40396 5.75017 8.00069 5.75017L7.99994 5.75092ZM11.9374 3.12592C11.6955 3.13561 11.4667 3.23854 11.2989 3.41315C11.1311 3.58777 11.0374 3.82052 11.0374 4.06267C11.0374 4.30482 11.1311 4.53758 11.2989 4.71219C11.4667 4.88681 11.6955 4.98974 11.9374 4.99942C12.1861 4.99942 12.4245 4.90065 12.6004 4.72484C12.7762 4.54902 12.8749 4.31056 12.8749 4.06192C12.8749 3.81328 12.7762 3.57483 12.6004 3.39901C12.4245 3.2232 12.1861 3.12442 11.9374 3.12442V3.12592Z" fill="black"/>
</svg>
