<svg width="16" height="16" viewBox="0 0 16 16" fill="none" xmlns="http://www.w3.org/2000/svg">
<path d="M15.5 8C15.5 9.98912 14.7098 11.8968 13.3033 13.3033C11.8968 14.7098 9.98912 15.5 8 15.5C6.01088 15.5 4.10322 14.7098 2.6967 13.3033C1.29018 11.8968 0.5 9.98912 0.5 8C0.5 6.01088 1.29018 4.10322 2.6967 2.6967C4.10322 1.29018 6.01088 0.5 8 0.5C9.98912 0.5 11.8968 1.29018 13.3033 2.6967C14.7098 4.10322 15.5 6.01088 15.5 8ZM8.26906 6.03687C7.53969 6.34062 6.08094 6.96875 3.89469 7.92125C3.54031 8.06187 3.35375 8.20062 3.33687 8.33562C3.30875 8.56344 3.59469 8.65344 3.98375 8.77625L4.14781 8.82781C4.53031 8.9525 5.04594 9.09781 5.31312 9.10344C5.55687 9.10906 5.82781 9.00969 6.12687 8.80344C8.16969 7.42438 9.22437 6.72781 9.29 6.71281C9.33687 6.70156 9.4025 6.68844 9.44562 6.72781C9.48969 6.76625 9.485 6.84031 9.48031 6.86C9.45219 6.98094 8.33 8.02344 7.74969 8.56344C7.56875 8.73219 7.44031 8.85125 7.41406 8.87844C7.35626 8.93751 7.2975 8.99564 7.23781 9.05281C6.88156 9.39594 6.61531 9.65281 7.25187 10.0728C7.55844 10.2753 7.80406 10.4412 8.04875 10.6081C8.315 10.79 8.58125 10.9709 8.92625 11.1978C9.01344 11.2541 9.09781 11.315 9.17937 11.3731C9.48969 11.5944 9.77 11.7931 10.1141 11.7612C10.3147 11.7425 10.5219 11.555 10.6269 10.9925C10.8753 9.66406 11.3637 6.78687 11.4762 5.60094C11.4831 5.50235 11.479 5.40331 11.4641 5.30562C11.4552 5.2268 11.4171 5.15418 11.3572 5.10219C11.2719 5.0433 11.1702 5.0128 11.0666 5.015C10.7853 5.01969 10.3512 5.17062 8.26906 6.03687Z" fill="black"/>
</svg>
