<svg width="69" height="68" viewBox="0 0 69 68" fill="none" xmlns="http://www.w3.org/2000/svg">
<g filter="url(#filter0_d_1500_37304)">
<rect x="10" y="10" width="48.0818" height="48" rx="24" fill="#FFFFFC"/>
<path d="M45.9727 33.4545C45.9727 32.1727 45.1818 31.0273 44.0091 30.5636V24.7C44.0091 23.2 42.8091 22 41.3091 22H26.8273C25.3273 22 24.1273 23.2 24.1273 24.7V30.5091C22.8727 30.9454 22 32.1182 22 33.4545V40.6545C22 40.9 22.1909 41.0909 22.4364 41.0909H23.5545V43.3C23.5545 43.3273 23.5545 43.3818 23.5818 43.4091C23.7182 44.8545 24.9455 46 26.4455 46C27.9182 46 29.1455 44.8545 29.3091 43.4091C29.3091 43.3818 29.3364 43.3273 29.3364 43.3V41.0636H38.8V43.2727C38.8 43.3 38.8 43.3545 38.8273 43.3818C38.9636 44.8273 40.1909 45.9727 41.6909 45.9727C43.1909 45.9727 44.3909 44.8273 44.5545 43.3818C44.5545 43.3545 44.5818 43.3 44.5818 43.2727V41.0636H45.6455C45.7545 41.0636 45.8636 41.0091 45.9455 40.9273C46.0273 40.8455 46.0818 40.7364 46.0818 40.6273L45.9727 33.4545ZM28.4364 43.1091C28.4364 44.2273 27.5364 45.1273 26.4182 45.1273C25.3 45.1273 24.4 44.2273 24.4 43.1091V41.0636H28.4091L28.4364 43.1091ZM43.6273 43.1091C43.6273 44.2273 42.7273 45.1273 41.6091 45.1273C40.4909 45.1273 39.5909 44.2273 39.5909 43.1091V41.0636H43.6V43.1091H43.6273ZM22.8455 40.2182V33.4545C22.8455 32.4182 23.5818 31.4909 24.6182 31.2455C24.8091 31.1909 24.9455 31.0273 24.9455 30.8364V24.6727C24.9455 23.6636 25.7636 22.8455 26.7727 22.8455H41.2545C42.2636 22.8455 43.0818 23.6636 43.0818 24.6727V30.8636C43.0818 31 43.1364 31.1091 43.2455 31.1909C43.3 31.2455 43.3818 31.2727 43.4909 31.3C44.4182 31.6 45.0727 32.4727 45.0727 33.4545V40.2182H22.8455Z" fill="#2B292C"/>
<path d="M37.0272 36.1278C35.1727 36.5096 33.0727 36.5096 31.1636 36.1278C30.9181 36.0733 30.7 36.2369 30.6727 36.4551C30.6181 36.7006 30.7818 36.9187 31 36.946C32.009 37.1369 33.0454 37.246 34.0818 37.246C35.1727 37.246 36.209 37.1369 37.1909 36.946C37.4363 36.8915 37.5727 36.6733 37.5181 36.4278C37.4636 36.2369 37.2454 36.0733 37.0272 36.1278Z" fill="#2B292C"/>
<path d="M41.609 36.3997C42.5128 36.3997 43.2454 35.6671 43.2454 34.7633C43.2454 33.8596 42.5128 33.127 41.609 33.127C40.7053 33.127 39.9727 33.8596 39.9727 34.7633C39.9727 35.6671 40.7053 36.3997 41.609 36.3997Z" fill="#2B292C"/>
<path d="M26.4186 36.3997C27.3223 36.3997 28.055 35.6671 28.055 34.7633C28.055 33.8596 27.3223 33.127 26.4186 33.127C25.5149 33.127 24.7822 33.8596 24.7822 34.7633C24.7822 35.6671 25.5149 36.3997 26.4186 36.3997Z" fill="#2B292C"/>
<path d="M41.3368 26.8547V26.3365C41.3368 25.2184 40.4368 24.3184 39.3186 24.3184H38.8822H29.1186H28.6822C27.5641 24.3184 26.6641 25.2184 26.6641 26.3365V26.8547V31.6002H41.3095L41.3368 26.8547ZM40.4913 26.8547V30.7275H27.5368V26.8547V26.3365C27.5368 25.7093 28.055 25.1911 28.6822 25.1911H29.1186H37.3277L32.8004 27.5911C32.5822 27.7002 32.5004 27.9729 32.6095 28.1638C32.6913 28.3002 32.8277 28.382 32.9913 28.382C33.0459 28.382 33.1277 28.3547 33.1822 28.3274L38.7459 25.382C38.8277 25.3274 38.9095 25.2729 38.9368 25.1638H39.3186C39.9459 25.1638 40.4641 25.682 40.4641 26.3093V26.8547H40.4913Z" fill="#2B292C"/>
<path d="M41.6092 44.0091C42.3456 44.0091 42.9456 43.4091 42.9456 42.6727C42.9456 42.4272 42.7547 42.2363 42.5092 42.2363C42.2638 42.2363 42.0729 42.4272 42.0729 42.6727C42.0729 42.9181 41.8547 43.1363 41.6092 43.1363C41.3638 43.1363 41.1729 43.3272 41.1729 43.5727C41.1729 43.8182 41.3638 44.0091 41.6092 44.0091Z" fill="#2B292C"/>
<path d="M31.4097 28.3282L30.1824 28.9827C29.9642 29.0918 29.8824 29.3645 29.9915 29.5554C30.0733 29.6918 30.2097 29.7736 30.3733 29.7736C30.4278 29.7736 30.5096 29.7463 30.5642 29.7191L31.7915 29.0645C32.0096 28.9554 32.0915 28.6827 31.9824 28.4918C31.8733 28.3009 31.6278 28.2191 31.4097 28.3282Z" fill="#2B292C"/>
<path d="M38.7725 26.6633L34.3816 28.9815C34.1634 29.0906 34.0816 29.3633 34.1907 29.5542C34.2725 29.6906 34.4089 29.7724 34.5725 29.7724C34.6271 29.7724 34.7089 29.7452 34.7634 29.7179L39.1543 27.427C39.3725 27.3179 39.4543 27.0452 39.3452 26.8542C39.2361 26.6361 38.9634 26.5543 38.7725 26.6633Z" fill="#2B292C"/>
</g>
<defs>
<filter id="filter0_d_1500_37304" x="0" y="0" width="68.082" height="68" filterUnits="userSpaceOnUse" color-interpolation-filters="sRGB">
<feFlood flood-opacity="0" result="BackgroundImageFix"/>
<feColorMatrix in="SourceAlpha" type="matrix" values="0 0 0 0 0 0 0 0 0 0 0 0 0 0 0 0 0 0 127 0" result="hardAlpha"/>
<feOffset/>
<feGaussianBlur stdDeviation="5"/>
<feComposite in2="hardAlpha" operator="out"/>
<feColorMatrix type="matrix" values="0 0 0 0 0.69292 0 0 0 0 0.69292 0 0 0 0 0.69292 0 0 0 0.5 0"/>
<feBlend mode="normal" in2="BackgroundImageFix" result="effect1_dropShadow_1500_37304"/>
<feBlend mode="normal" in="SourceGraphic" in2="effect1_dropShadow_1500_37304" result="shape"/>
</filter>
</defs>
</svg>
