<svg width="68" height="68" viewBox="0 0 68 68" fill="none" xmlns="http://www.w3.org/2000/svg">
<g filter="url(#filter0_d_1500_37340)">
<rect x="10" y="10" width="48" height="48" rx="24" fill="#FFFFFC"/>
<path d="M47.3302 45.4833L42.1914 22.3158C42.134 22.1148 41.9617 22 41.7895 22H38.9474C38.9474 22 38.9474 22 38.9187 22H36.1053C35.9904 22 35.9043 22.0287 35.8182 22.1148C35.7321 22.0574 35.6459 22 35.5311 22H28.1531C28.0957 22 28.0383 22 27.9809 22.0287C27.9234 22 27.866 22 27.8086 22H20.4306C20.1722 22 20 22.201 20 22.4306V45.5694C20 45.8278 20.201 46 20.4306 46H27.8086C27.866 46 27.9234 46 27.9809 45.9713C28.0383 46 28.0957 46 28.1531 46H35.5311C35.7895 46 35.9617 45.799 35.9617 45.5694V23.866L40.7847 45.6555C40.8421 45.8565 41.0144 45.9713 41.1866 45.9713H44C44 45.9713 44 45.9713 44.0287 45.9713H46.8421C46.9857 45.9713 47.1005 45.9139 47.1579 45.799C47.3302 45.7416 47.3589 45.5981 47.3302 45.4833ZM27.4067 41.4641H21.2919C21.1196 41.4641 20.9761 41.5789 20.9187 41.7225V26.3923C20.9761 26.5646 21.1483 26.6507 21.2919 26.6507H27.4067C27.4067 26.5933 27.4067 41.4641 27.4067 41.4641ZM28.6124 26.622H35.1292V41.4641H28.6124V26.622ZM35.1292 22.8612V25.7895H28.6124V22.8612H35.1292ZM27.4067 22.8612V25.7895H21.2919C21.1196 25.7895 20.9761 25.9043 20.9187 26.0478V22.8899H27.4067V22.8612ZM20.9187 45.1388V42.0383C20.9761 42.2105 21.1483 42.2967 21.2919 42.2967H27.4067V45.1388H20.9187ZM28.6124 45.1388V42.3254H35.1292V45.1675L28.6124 45.1388ZM41.6172 45.1388L36.6794 22.8612H38.6029L43.5407 45.1675L41.6172 45.1388ZM44.4306 45.1388L39.4928 22.8612H41.4163L46.3541 45.1675L44.4306 45.1388Z" fill="#2B292C"/>
<path d="M22.6123 28.8905H25.7127C25.9711 28.8905 26.1434 28.6896 26.1434 28.4599C26.1434 28.2303 25.9424 28.0293 25.7127 28.0293H22.6123C22.3539 28.0293 22.1816 28.2303 22.1816 28.4599C22.1816 28.6896 22.3539 28.8905 22.6123 28.8905Z" fill="#2B292C"/>
<path d="M22.6123 30.9862H25.7127C25.9711 30.9862 26.1434 30.7853 26.1434 30.5556C26.1434 30.2972 25.9424 30.125 25.7127 30.125H22.6123C22.3539 30.125 22.1816 30.326 22.1816 30.5556C22.1816 30.7853 22.3539 30.9862 22.6123 30.9862Z" fill="#2B292C"/>
<path d="M30.3349 28.8905H33.4354C33.6938 28.8905 33.866 28.6896 33.866 28.4599C33.866 28.2303 33.6651 28.0293 33.4354 28.0293H30.3349C30.0765 28.0293 29.9043 28.2303 29.9043 28.4599C29.9043 28.6896 30.0765 28.8905 30.3349 28.8905Z" fill="#2B292C"/>
<path d="M33.4354 30.1523H30.3349C30.0765 30.1523 29.9043 30.3533 29.9043 30.583C29.9043 30.8126 30.1053 31.0136 30.3349 31.0136H33.4354C33.6938 31.0136 33.866 30.8126 33.866 30.583C33.866 30.3533 33.6938 30.1523 33.4354 30.1523Z" fill="#2B292C"/>
</g>
<defs>
<filter id="filter0_d_1500_37340" x="0" y="0" width="68" height="68" filterUnits="userSpaceOnUse" color-interpolation-filters="sRGB">
<feFlood flood-opacity="0" result="BackgroundImageFix"/>
<feColorMatrix in="SourceAlpha" type="matrix" values="0 0 0 0 0 0 0 0 0 0 0 0 0 0 0 0 0 0 127 0" result="hardAlpha"/>
<feOffset/>
<feGaussianBlur stdDeviation="5"/>
<feComposite in2="hardAlpha" operator="out"/>
<feColorMatrix type="matrix" values="0 0 0 0 0.69292 0 0 0 0 0.69292 0 0 0 0 0.69292 0 0 0 0.5 0"/>
<feBlend mode="normal" in2="BackgroundImageFix" result="effect1_dropShadow_1500_37340"/>
<feBlend mode="normal" in="SourceGraphic" in2="effect1_dropShadow_1500_37340" result="shape"/>
</filter>
</defs>
</svg>
