<svg width="68" height="68" viewBox="0 0 68 68" fill="none" xmlns="http://www.w3.org/2000/svg">
<g filter="url(#filter0_d_1500_37361)">
<rect x="10" y="10" width="48" height="48" rx="24" fill="#FFFFFC" shape-rendering="crispEdges"/>
<path d="M45.406 27.101C45.3768 27.029 45.3307 26.9652 45.2715 26.915C45.2123 26.8648 45.1418 26.8296 45.0661 26.8127C44.9903 26.7957 44.9116 26.7973 44.8366 26.8174C44.7616 26.8375 44.6927 26.8756 44.6356 26.9282L39.6175 31.5599L37.0005 31.0007L36.4389 28.3861L41.0706 23.368C41.1235 23.3109 41.1617 23.2419 41.182 23.1668C41.2023 23.0917 41.204 23.0127 41.187 22.9368C41.17 22.8609 41.1348 22.7902 41.0844 22.731C41.034 22.6717 40.97 22.6255 40.8978 22.5964C39.3656 21.9761 37.6812 21.8357 36.0674 22.1939C34.4537 22.5521 32.9868 23.392 31.861 24.6023C30.7352 25.8127 30.0035 27.3365 29.7629 28.9719C29.5223 30.6073 29.7841 32.2772 30.5137 33.7606L23.0093 40.2402L22.9841 40.2642C22.354 40.8943 22 41.7489 22 42.64C22 43.5312 22.354 44.3858 22.9841 45.0159C23.6142 45.646 24.4688 46 25.36 46C26.2511 46 27.1057 45.646 27.7358 45.0159L27.7598 44.9907L34.2394 37.4863C35.4837 38.0983 36.8634 38.383 38.2483 38.3137C39.6331 38.2444 40.9775 37.8233 42.1545 37.0902C43.3314 36.3571 44.3021 35.3361 44.9749 34.1237C45.6478 32.9113 46.0005 31.5474 45.9999 30.1608C46.0019 29.112 45.8001 28.0728 45.406 27.101ZM37.8404 37.3604C36.6234 37.3605 35.4261 37.0521 34.3606 36.464C34.2637 36.4096 34.1509 36.3905 34.0415 36.41C33.9321 36.4295 33.8328 36.4863 33.7607 36.5708L27.0411 44.3499C26.5846 44.7636 25.9865 44.9858 25.3706 44.9706C24.7548 44.9555 24.1683 44.7041 23.7327 44.2685C23.2971 43.8329 23.0457 43.2464 23.0306 42.6306C23.0154 42.0147 23.2376 41.4166 23.6513 40.9601L31.4292 34.2405C31.5137 34.1684 31.5705 34.0691 31.59 33.9597C31.6095 33.8503 31.5904 33.7375 31.536 33.6406C30.8451 32.3912 30.5413 30.9645 30.6632 29.542C30.785 28.1195 31.3271 26.7653 32.2205 25.6516C33.1138 24.538 34.3182 23.715 35.6804 23.2875C37.0426 22.8599 38.5011 22.847 39.8707 23.2504L35.5665 27.9157C35.5138 27.9719 35.4754 28.0399 35.4545 28.1141C35.4336 28.1882 35.4309 28.2663 35.4466 28.3417L36.1257 31.5035C36.1451 31.5939 36.1902 31.6767 36.2556 31.742C36.3209 31.8074 36.4037 31.8525 36.4941 31.8719L39.6559 32.551C39.7313 32.5667 39.8094 32.564 39.8835 32.5431C39.9577 32.5222 40.0257 32.4838 40.0819 32.4311L44.746 28.1269C45.0609 29.2005 45.1214 30.3326 44.9228 31.4337C44.7243 32.5347 44.272 33.5744 43.602 34.4703C42.9319 35.3663 42.0624 36.0939 41.0624 36.5955C40.0623 37.0971 38.9592 37.359 37.8404 37.3604Z" fill="#2B292C"/>
</g>
<defs>
<filter id="filter0_d_1500_37361" x="0" y="0" width="68" height="68" filterUnits="userSpaceOnUse" color-interpolation-filters="sRGB">
<feFlood flood-opacity="0" result="BackgroundImageFix"/>
<feColorMatrix in="SourceAlpha" type="matrix" values="0 0 0 0 0 0 0 0 0 0 0 0 0 0 0 0 0 0 127 0" result="hardAlpha"/>
<feOffset/>
<feGaussianBlur stdDeviation="5"/>
<feComposite in2="hardAlpha" operator="out"/>
<feColorMatrix type="matrix" values="0 0 0 0 0.69292 0 0 0 0 0.69292 0 0 0 0 0.69292 0 0 0 0.5 0"/>
<feBlend mode="normal" in2="BackgroundImageFix" result="effect1_dropShadow_1500_37361"/>
<feBlend mode="normal" in="SourceGraphic" in2="effect1_dropShadow_1500_37361" result="shape"/>
</filter>
</defs>
</svg>
