<svg width="68" height="68" viewBox="0 0 68 68" fill="none" xmlns="http://www.w3.org/2000/svg">
<g filter="url(#filter0_d_1500_37295)">
<rect x="10" y="10" width="48" height="48" rx="24" fill="#FFFFFC"/>
<path d="M31.6333 36.4055H31.0866V32.8519C31.0866 32.6059 30.8952 32.4146 30.6492 32.4146H29.8565V25.0342C29.8565 24.9522 29.8292 24.8702 29.8018 24.8155L28.1891 22.1913C28.1071 22.0547 27.9704 22 27.8337 22H25.7016C25.5649 22 25.4282 22.082 25.3462 22.1913L23.6788 24.8155C23.6241 24.8975 23.6241 24.9522 23.6241 25.0342V32.4146H22.9134C22.6674 32.4146 22.4761 32.6059 22.4761 32.8519V36.4328H21.4374C21.1913 36.4328 21 36.6241 21 36.8702V45.5626C21 45.8087 21.1913 46 21.4374 46H31.6059C31.8519 46 32.0433 45.8087 32.0433 45.5626V36.8428C32.0433 36.5968 31.8519 36.4055 31.6333 36.4055ZM24.4989 25.1435L25.9749 22.8474H27.6424L29.0638 25.1435V26.5103H27.779C27.533 26.5103 27.3417 26.7016 27.3417 26.9476C27.3417 27.1936 27.533 27.385 27.779 27.385H29.0638V28.6424H28.2164C27.9704 28.6424 27.779 28.8337 27.779 29.0797C27.779 29.3257 27.9704 29.5171 28.2164 29.5171H29.0638V32.4966H24.5262V25.1435H24.4989ZM23.3508 33.262H24.0615H29.4465H30.2392V34.41H25.9749C25.7289 34.41 25.5376 34.6014 25.5376 34.8474C25.5376 35.0934 25.7289 35.2847 25.9749 35.2847H30.2392V36.4328H23.3508V33.262ZM31.1959 45.098H21.8747V37.2802H22.9134H30.6492H31.1686L31.1959 45.098Z" fill="#2B292C"/>
<path d="M46.5852 35.5852H44.6718V27.6307C44.6718 27.3847 44.4805 27.1934 44.2344 27.1934H38.2481C38.0021 27.1934 37.8108 27.3847 37.8108 27.6307V35.5852H35.8973C35.6513 35.5852 35.46 35.7765 35.46 36.0225V45.535C35.46 45.7811 35.6513 45.9724 35.8973 45.9724H46.5852C46.8313 45.9724 47.0226 45.7811 47.0226 45.535V36.0225C46.9953 35.7765 46.8313 35.5852 46.5852 35.5852ZM38.6308 28.0681H43.7971V31.6763H41.8016C41.5556 31.6763 41.3643 31.8676 41.3643 32.1136C41.3643 32.3596 41.5556 32.551 41.8016 32.551H43.7971V33.6717H40.0522C39.8062 33.6717 39.6149 33.8631 39.6149 34.1091C39.6149 34.3551 39.8062 34.5464 40.0522 34.5464H43.8244V35.6398H38.6581L38.6308 28.0681ZM46.1752 45.0977H36.3347V36.4599H38.2481H44.2891H46.2026L46.1752 45.0977Z" fill="#2B292C"/>
<path d="M37.7832 43.8671H44.7263V37.6895H37.7832V43.8671ZM38.6032 38.5095H43.8242V42.9924H38.6032V38.5095Z" fill="#2B292C"/>
<path d="M29.638 38.4824C29.392 38.4824 29.2006 38.6738 29.2006 38.9198V43.184H27.9432C27.6972 43.184 27.5059 43.3754 27.5059 43.6214C27.5059 43.8674 27.6972 44.0587 27.9432 44.0587H29.638C29.884 44.0587 30.0753 43.8674 30.0753 43.6214V38.8924C30.048 38.6738 29.8567 38.4824 29.638 38.4824Z" fill="#2B292C"/>
<path d="M24.7728 43.1836H23.1874C22.9413 43.1836 22.75 43.3749 22.75 43.6209C22.75 43.867 22.9413 44.0583 23.1874 44.0583H24.7454C24.9915 44.0583 25.1828 43.867 25.1828 43.6209C25.1828 43.3749 24.9915 43.1836 24.7728 43.1836Z" fill="#2B292C"/>
</g>
<defs>
<filter id="filter0_d_1500_37295" x="0" y="0" width="68" height="68" filterUnits="userSpaceOnUse" color-interpolation-filters="sRGB">
<feFlood flood-opacity="0" result="BackgroundImageFix"/>
<feColorMatrix in="SourceAlpha" type="matrix" values="0 0 0 0 0 0 0 0 0 0 0 0 0 0 0 0 0 0 127 0" result="hardAlpha"/>
<feOffset/>
<feGaussianBlur stdDeviation="5"/>
<feComposite in2="hardAlpha" operator="out"/>
<feColorMatrix type="matrix" values="0 0 0 0 0.69292 0 0 0 0 0.69292 0 0 0 0 0.69292 0 0 0 0.5 0"/>
<feBlend mode="normal" in2="BackgroundImageFix" result="effect1_dropShadow_1500_37295"/>
<feBlend mode="normal" in="SourceGraphic" in2="effect1_dropShadow_1500_37295" result="shape"/>
</filter>
</defs>
</svg>
