<svg width="68" height="68" viewBox="0 0 68 68" fill="none" xmlns="http://www.w3.org/2000/svg">
<g filter="url(#filter0_d_1500_37278)">
<rect x="10" y="10" width="48" height="48" rx="24" fill="#FFFFFC"/>
<path d="M45.1283 22H22.4359C22.1907 22 22 22.1907 22 22.4359V39.8434C22 40.0885 22.1907 40.2792 22.4359 40.2792H30.2543V41.6141H27.8842C27.639 41.6141 27.4484 41.8048 27.4484 42.0499V45.5641C27.4484 45.8093 27.639 46 27.8842 46H39.6527C39.8978 46 40.0885 45.8093 40.0885 45.5641V42.0227C40.0885 41.7775 39.8978 41.5868 39.6527 41.5868H37.2826V40.252H45.101C45.3462 40.252 45.5369 40.0613 45.5369 39.8161V22.4359C45.5369 22.1907 45.3462 22 45.1283 22ZM36.4381 41.5868H34.504C34.2588 41.5868 34.0681 41.7775 34.0681 42.0227C34.0681 42.2679 34.2588 42.4586 34.504 42.4586H36.8468H39.2168V43.3031H36.8468C36.6016 43.3031 36.4109 43.4938 36.4109 43.7389C36.4109 43.9841 36.6016 44.1748 36.8468 44.1748H39.2168V45.1283H28.3201V42.4586H30.6901C30.9353 42.4586 31.126 42.2679 31.126 42.0227V40.252H36.4109V41.5868H36.4381ZM44.6924 39.4075H22.8717V22.8717H44.6924V39.4075Z" fill="#2B292C"/>
<path d="M24.6429 34.8845H42.9221C43.1673 34.8845 43.358 34.6938 43.358 34.4486V24.805C43.358 24.5598 43.1673 24.3691 42.9221 24.3691H24.6429C24.3977 24.3691 24.207 24.5598 24.207 24.805V34.4758C24.207 34.6938 24.3977 34.8845 24.6429 34.8845ZM25.0788 25.2409H42.4863V29.654H40.0345C39.7893 29.654 39.5986 29.8447 39.5986 30.0899C39.5986 30.3351 39.7893 30.5258 40.0345 30.5258H42.4863V31.8061H37.6372C37.392 31.8061 37.2014 31.9968 37.2014 32.242C37.2014 32.4872 37.392 32.6779 37.6372 32.6779H42.4863V34.04H25.0788V25.2409Z" fill="#2B292C"/>
<path d="M42.9217 36.2207C42.6766 36.2207 42.4859 36.4114 42.4859 36.6566V37.5011H40.7152C40.47 37.5011 40.2793 37.6918 40.2793 37.9369C40.2793 38.1821 40.47 38.3728 40.7152 38.3728H42.9217C43.1669 38.3728 43.3576 38.1821 43.3576 37.9369V36.6566C43.3576 36.4114 43.1669 36.2207 42.9217 36.2207Z" fill="#2B292C"/>
<path d="M38.427 37.5H33.9593C33.7141 37.5 33.5234 37.6907 33.5234 37.9359C33.5234 38.181 33.7141 38.3717 33.9593 38.3717H38.427C38.6721 38.3717 38.8628 38.181 38.8628 37.9359C38.8628 37.6907 38.6449 37.5 38.427 37.5Z" fill="#2B292C"/>
<path d="M28.8655 26.5488H26.7679C26.5227 26.5488 26.332 26.7395 26.332 26.9847V29.382C26.332 29.6271 26.5227 29.8178 26.7679 29.8178C27.0131 29.8178 27.2038 29.6271 27.2038 29.382V27.4206H28.8655C29.1107 27.4206 29.3014 27.2299 29.3014 26.9847C29.3014 26.7395 29.0835 26.5488 28.8655 26.5488Z" fill="#2B292C"/>
</g>
<defs>
<filter id="filter0_d_1500_37278" x="0" y="0" width="68" height="68" filterUnits="userSpaceOnUse" color-interpolation-filters="sRGB">
<feFlood flood-opacity="0" result="BackgroundImageFix"/>
<feColorMatrix in="SourceAlpha" type="matrix" values="0 0 0 0 0 0 0 0 0 0 0 0 0 0 0 0 0 0 127 0" result="hardAlpha"/>
<feOffset/>
<feGaussianBlur stdDeviation="5"/>
<feComposite in2="hardAlpha" operator="out"/>
<feColorMatrix type="matrix" values="0 0 0 0 0.69292 0 0 0 0 0.69292 0 0 0 0 0.69292 0 0 0 0.5 0"/>
<feBlend mode="normal" in2="BackgroundImageFix" result="effect1_dropShadow_1500_37278"/>
<feBlend mode="normal" in="SourceGraphic" in2="effect1_dropShadow_1500_37278" result="shape"/>
</filter>
</defs>
</svg>
