<svg width="68" height="68" viewBox="0 0 68 68" fill="none" xmlns="http://www.w3.org/2000/svg">
<g filter="url(#filter0_d_1500_37288)">
<rect x="10" y="10" width="48" height="48" rx="24" fill="#FFFFFC"/>
<path d="M45.6731 34.9126H45.21V32.6243C45.21 32.3791 45.0193 32.1884 44.7741 32.1884H43.2758V22.4359C43.2758 22.1907 43.0851 22 42.84 22H25.269C25.0238 22 24.8331 22.1907 24.8331 22.4359V32.2157H23.3348C23.0897 32.2157 22.899 32.4064 22.899 32.6515V34.9398H22.4359C22.1907 34.9398 22 35.1305 22 35.3757V41.0965V42.5948V45.5641C22 45.8093 22.1907 46 22.4359 46C22.681 46 22.8717 45.8093 22.8717 45.5641V42.9762H45.2372V45.5369C45.2372 45.7821 45.4279 45.9728 45.6731 45.9728C45.9183 45.9728 46.109 45.7821 46.109 45.5369V42.5675V41.0692V35.3485C46.109 35.1033 45.9183 34.9126 45.6731 34.9126ZM29.6277 30.8808V28.2384C29.6277 27.6663 30.0908 27.2032 30.6629 27.2032H37.4461C38.0182 27.2032 38.4813 27.6663 38.4813 28.2384V30.8808C38.4813 31.4529 38.0182 31.916 37.4461 31.916H30.6629C30.0908 31.916 29.6277 31.4529 29.6277 30.8808ZM25.7049 22.8717H42.4313V24.2338C42.4041 24.2338 42.3496 24.2066 42.2951 24.2066H38.0726C37.8275 24.2066 37.6368 24.3973 37.6368 24.6425C37.6368 24.8876 37.8275 25.0783 38.0726 25.0783H42.2951C42.3496 25.0783 42.3768 25.0783 42.4313 25.0511V31.916H39.0261C39.2168 31.6163 39.3258 31.2622 39.3258 30.8808V28.2384C39.3258 27.2032 38.4813 26.3587 37.4461 26.3587H30.6629C29.6277 26.3587 28.7832 27.2032 28.7832 28.2384V30.8808C28.7832 31.2622 28.8922 31.6163 29.0829 31.916H25.7049V22.8717ZM23.7707 33.0874H44.3383V34.9398H23.7707V33.0874ZM22.8717 42.1317V41.0692V35.7843H23.3348H44.7741H45.2372V37.1464H37.7457C37.5006 37.1464 37.3099 37.3371 37.3099 37.5823C37.3099 37.8275 37.5006 38.0182 37.7457 38.0182H45.2372V39.4892H42.84C42.5948 39.4892 42.4041 39.6799 42.4041 39.9251C42.4041 40.1703 42.5948 40.361 42.84 40.361H45.2372V41.0692V42.1317H22.8717Z" fill="#2B292C"/>
<path d="M26.4135 39.4883H25.1331C24.888 39.4883 24.6973 39.679 24.6973 39.9241C24.6973 40.1693 24.888 40.36 25.1331 40.36H26.4135C26.6587 40.36 26.8494 40.1693 26.8494 39.9241C26.8494 39.679 26.6587 39.4883 26.4135 39.4883Z" fill="#2B292C"/>
<path d="M39.8976 39.4883H29.682C29.4368 39.4883 29.2461 39.679 29.2461 39.9241C29.2461 40.1693 29.4368 40.36 29.682 40.36H39.8976C40.1428 40.36 40.3335 40.1693 40.3335 39.9241C40.3335 39.679 40.1156 39.4883 39.8976 39.4883Z" fill="#2B292C"/>
</g>
<defs>
<filter id="filter0_d_1500_37288" x="0" y="0" width="68" height="68" filterUnits="userSpaceOnUse" color-interpolation-filters="sRGB">
<feFlood flood-opacity="0" result="BackgroundImageFix"/>
<feColorMatrix in="SourceAlpha" type="matrix" values="0 0 0 0 0 0 0 0 0 0 0 0 0 0 0 0 0 0 127 0" result="hardAlpha"/>
<feOffset/>
<feGaussianBlur stdDeviation="5"/>
<feComposite in2="hardAlpha" operator="out"/>
<feColorMatrix type="matrix" values="0 0 0 0 0.69292 0 0 0 0 0.69292 0 0 0 0 0.69292 0 0 0 0.5 0"/>
<feBlend mode="normal" in2="BackgroundImageFix" result="effect1_dropShadow_1500_37288"/>
<feBlend mode="normal" in="SourceGraphic" in2="effect1_dropShadow_1500_37288" result="shape"/>
</filter>
</defs>
</svg>
