<svg width="68" height="68" viewBox="0 0 68 68" fill="none" xmlns="http://www.w3.org/2000/svg">
<g filter="url(#filter0_d_1500_37263)">
<rect x="10" y="10" width="48" height="48" rx="24" fill="#FFFFFC"/>
<path d="M45.7821 31.2622C45.7821 31.235 45.7821 31.235 45.7821 31.2077V31.1805V31.1532C45.7821 31.126 45.7821 31.126 45.7548 31.126C45.7548 31.126 45.7548 31.0987 45.7276 31.0987C45.7276 31.0715 45.7003 31.0715 45.7003 31.0715C45.7003 31.0715 45.7003 31.0715 45.7003 31.0443L45.2917 30.5539V22.4359C45.2917 22.1907 45.101 22 44.8558 22H40.8513C40.6061 22 40.4154 22.1907 40.4154 22.4359V24.9421L38.0454 22.1635L38.0182 22.1362L37.9909 22.109L37.9637 22.0817L37.9364 22.0545C37.9364 22.0545 37.9092 22.0545 37.9092 22.0272C37.8819 22.0272 37.8819 22.0272 37.8547 22.0272H37.8275C37.8002 22.0272 37.8002 22.0272 37.773 22.0272C37.773 22.0272 37.773 22.0272 37.7457 22.0272H29.7094C29.7094 22.0272 29.7094 22.0272 29.6822 22.0272H29.6549H29.6277H29.6005H29.5732H29.546H29.5187H29.4915C29.4915 22.0272 29.4915 22.0272 29.4642 22.0272C29.4642 22.0272 29.437 22.0272 29.437 22.0545C29.437 22.0545 29.4098 22.0545 29.4098 22.0817L29.3825 22.109L22.0817 31.017C22.0817 31.017 22.0817 31.017 22.0817 31.0443C22.0817 31.0443 22.0545 31.0715 22.0545 31.0987C22.0545 31.0987 22.0545 31.126 22.0272 31.126C22.0272 31.1532 22.0272 31.1532 22 31.1805V31.2077V31.235C22 31.2622 22 31.2622 22 31.2894C22 31.2894 22 31.2894 22 31.3167V45.5641C22 45.8093 22.1907 46 22.4359 46H45.3734C45.6186 46 45.8093 45.8093 45.8093 45.5641L45.7821 31.2622C45.7821 31.2894 45.7821 31.2894 45.7821 31.2622ZM41.2872 25.6776V22.8717H44.3927V29.546L41.2327 25.8683C41.2599 25.8139 41.2872 25.7321 41.2872 25.6776ZM29.7367 23.0897L36.7378 30.8536H23.3348L29.7367 23.0897ZM37.2826 45.101H22.8445V31.7253H37.2826V45.101ZM30.6901 22.8717H37.5278L40.6878 26.5494H39.6799C39.4347 26.5494 39.244 26.7401 39.244 26.9852C39.244 27.2304 39.4347 27.4211 39.6799 27.4211H41.3961H41.4234L42.4858 28.6742H39.9251C39.6799 28.6742 39.4892 28.8649 39.4892 29.1101C39.4892 29.3553 39.6799 29.546 39.9251 29.546H43.2213L44.42 30.9353H37.9092L30.6901 22.8717ZM44.9376 37.7185H40.8513C40.6061 37.7185 40.4154 37.9092 40.4154 38.1544C40.4154 38.3995 40.6061 38.5902 40.8513 38.5902H44.9103V40.1158H42.7582C42.5131 40.1158 42.3224 40.3065 42.3224 40.5516C42.3224 40.7968 42.5131 40.9875 42.7582 40.9875H44.9103V42.5675H40.1975C39.9523 42.5675 39.7616 42.7582 39.7616 43.0034C39.7616 43.2486 39.9523 43.4393 40.1975 43.4393H44.9376V45.1283H38.1544V31.7253H44.9376V37.7185Z" fill="#2B292C"/>
<path d="M28.8386 33.5781H26.4141V36.0026H28.8386V33.5781Z" fill="#2B292C"/>
<path d="M32.1608 33.5781H29.7363V36.0026H32.1608V33.5781Z" fill="#2B292C"/>
<path d="M28.8386 36.873H26.4141V39.2976H28.8386V36.873Z" fill="#2B292C"/>
<path d="M32.1608 36.873H29.7363V39.2976H32.1608V36.873Z" fill="#2B292C"/>
<path d="M32.9241 43.4387H35.2942C35.5394 43.4387 35.7301 43.248 35.7301 43.0029V40.5511C35.7301 40.3059 35.5394 40.1152 35.2942 40.1152C35.049 40.1152 34.8583 40.3059 34.8583 40.5511V42.567H32.9241C32.679 42.567 32.4883 42.7577 32.4883 43.0029C32.4883 43.248 32.679 43.4387 32.9241 43.4387Z" fill="#2B292C"/>
<path d="M30.9343 42.5684H30.5257C30.2805 42.5684 30.0898 42.7591 30.0898 43.0042C30.0898 43.2494 30.2805 43.4401 30.5257 43.4401H30.9343C31.1795 43.4401 31.3702 43.2494 31.3702 43.0042C31.3702 42.7591 31.1795 42.5684 30.9343 42.5684Z" fill="#2B292C"/>
</g>
<defs>
<filter id="filter0_d_1500_37263" x="0" y="0" width="68" height="68" filterUnits="userSpaceOnUse" color-interpolation-filters="sRGB">
<feFlood flood-opacity="0" result="BackgroundImageFix"/>
<feColorMatrix in="SourceAlpha" type="matrix" values="0 0 0 0 0 0 0 0 0 0 0 0 0 0 0 0 0 0 127 0" result="hardAlpha"/>
<feOffset/>
<feGaussianBlur stdDeviation="5"/>
<feComposite in2="hardAlpha" operator="out"/>
<feColorMatrix type="matrix" values="0 0 0 0 0.69292 0 0 0 0 0.69292 0 0 0 0 0.69292 0 0 0 0.5 0"/>
<feBlend mode="normal" in2="BackgroundImageFix" result="effect1_dropShadow_1500_37263"/>
<feBlend mode="normal" in="SourceGraphic" in2="effect1_dropShadow_1500_37263" result="shape"/>
</filter>
</defs>
</svg>
