<svg width="68" height="68" viewBox="0 0 68 68" fill="none" xmlns="http://www.w3.org/2000/svg">
<g filter="url(#filter0_d_1500_37317)">
<rect x="10" y="10" width="48" height="48" rx="24" fill="#FFFFFC"/>
<path d="M47.5157 26.5398H42.3108V22.4627C42.3108 22.2024 42.1084 22 41.8482 22H27.1301C26.8699 22 26.6675 22.2024 26.6675 22.4627V26.5398H21.4626C21.2024 26.5398 21 26.7422 21 27.0024V45.5373C21 45.7976 21.2024 46 21.4626 46H47.5157C47.7759 46 47.9783 45.7976 47.9783 45.5373V27.0024C47.9783 26.7422 47.747 26.5398 47.5157 26.5398ZM27.5928 22.9253H41.4145V26.5687H27.5928V22.9253ZM21.9253 45.0747V27.4361H27.1301H41.8482H47.053V38.2795H42.7157C42.4554 38.2795 42.253 38.4819 42.253 38.7422C42.253 39.0024 42.4554 39.2048 42.7157 39.2048H47.053V40.4482H44.1904C43.9301 40.4482 43.7277 40.6506 43.7277 40.9108C43.7277 41.1711 43.9301 41.3735 44.1904 41.3735H47.053V42.4723H40.894C40.6337 42.4723 40.4313 42.6747 40.4313 42.9349C40.4313 43.1952 40.6337 43.3976 40.894 43.3976H47.053V45.0747H21.9253Z" fill="#2B292C"/>
<path d="M40.8362 38.4247V34.1162C40.8362 33.856 40.6338 33.6536 40.3735 33.6536H37.1061V30.3572C37.1061 30.0969 36.9036 29.8945 36.6434 29.8945H32.335C32.0747 29.8945 31.8723 30.0969 31.8723 30.3572V33.6536H28.5759C28.3157 33.6536 28.1133 33.856 28.1133 34.1162V38.4247C28.1133 38.6849 28.3157 38.8873 28.5759 38.8873H31.8723V42.1837C31.8723 42.4439 32.0747 42.6463 32.335 42.6463H36.6434C36.9036 42.6463 37.1061 42.4439 37.1061 42.1837V38.8873H40.4024C40.6338 38.8873 40.8362 38.6849 40.8362 38.4247ZM39.9398 37.962H36.6434C36.3832 37.962 36.1808 38.1644 36.1808 38.4247V41.721H32.7976V38.4247C32.7976 38.1644 32.5952 37.962 32.335 37.962H29.0386V34.5789H32.335C32.5952 34.5789 32.7976 34.3765 32.7976 34.1162V30.8198H36.2097V34.1162C36.2097 34.3765 36.4121 34.5789 36.6723 34.5789H39.9687L39.9398 37.962Z" fill="#2B292C"/>
<path d="M27.3618 29.1133H24.0076C23.7473 29.1133 23.5449 29.3157 23.5449 29.5759V33.5374C23.5449 33.7976 23.7473 34 24.0076 34C24.2678 34 24.4702 33.7976 24.4702 33.5374V30.0097H27.3618C27.622 30.0097 27.8244 29.8073 27.8244 29.547C27.8244 29.2868 27.5931 29.1133 27.3618 29.1133Z" fill="#2B292C"/>
<path d="M24.0076 35.3008C23.7473 35.3008 23.5449 35.5032 23.5449 35.7634V36.9779C23.5449 37.2381 23.7473 37.4405 24.0076 37.4405C24.2678 37.4405 24.4702 37.2381 24.4702 36.9779V35.7634C24.4702 35.5032 24.2678 35.3008 24.0076 35.3008Z" fill="#2B292C"/>
</g>
<defs>
<filter id="filter0_d_1500_37317" x="0" y="0" width="68" height="68" filterUnits="userSpaceOnUse" color-interpolation-filters="sRGB">
<feFlood flood-opacity="0" result="BackgroundImageFix"/>
<feColorMatrix in="SourceAlpha" type="matrix" values="0 0 0 0 0 0 0 0 0 0 0 0 0 0 0 0 0 0 127 0" result="hardAlpha"/>
<feOffset/>
<feGaussianBlur stdDeviation="5"/>
<feComposite in2="hardAlpha" operator="out"/>
<feColorMatrix type="matrix" values="0 0 0 0 0.69292 0 0 0 0 0.69292 0 0 0 0 0.69292 0 0 0 0.5 0"/>
<feBlend mode="normal" in2="BackgroundImageFix" result="effect1_dropShadow_1500_37317"/>
<feBlend mode="normal" in="SourceGraphic" in2="effect1_dropShadow_1500_37317" result="shape"/>
</filter>
</defs>
</svg>
