<svg width="68" height="68" viewBox="0 0 68 68" fill="none" xmlns="http://www.w3.org/2000/svg">
<g filter="url(#filter0_d_1500_37349)">
<rect x="10" y="10" width="48" height="48" rx="24" fill="#FFFFFC"/>
<path d="M48.4919 25.5829L48.4313 25.5222C48.4313 25.4919 48.4009 25.4919 48.4009 25.4919L48.3706 25.4616L48.3403 25.4312L48.3099 25.4009H48.2796C48.2493 25.4009 48.2493 25.3706 48.219 25.3706H48.1886C48.1583 25.3706 48.128 25.3706 48.128 25.3706C48.128 25.3706 48.128 25.3706 48.0976 25.3706C48.0673 25.3706 48.037 25.3706 48.037 25.3706C48.037 25.3706 48.037 25.3706 48.0066 25.3706C47.8853 25.3706 47.7943 25.3402 47.7336 25.2492C47.673 25.1582 47.673 25.0672 47.7033 24.9459C47.7336 24.8852 47.764 24.8549 47.7943 24.8246C47.9763 24.7032 48.037 24.4302 47.9156 24.2483C47.7943 24.0663 47.5213 24.0056 47.3393 24.1269C47.309 24.1573 47.2483 24.1876 47.218 24.1876C47.0966 24.1876 47.036 24.1573 46.945 24.0663C46.8843 23.9753 46.8843 23.8843 46.9146 23.7629V23.7326C46.9146 23.7326 46.9146 23.7023 46.945 23.6719C46.945 23.6416 46.945 23.6416 46.945 23.6113V23.5809C46.945 23.5506 46.945 23.5506 46.945 23.5203V23.4899C46.945 23.4596 46.945 23.4596 46.945 23.4293V23.3989C46.945 23.3686 46.945 23.3686 46.945 23.3383C46.945 23.3383 46.945 23.3079 46.9146 23.3079C46.9146 23.2776 46.8843 23.2776 46.8843 23.2473V23.2169L46.8236 23.1259C46.763 23.0349 46.672 22.9743 46.5506 22.9743C46.4293 22.9439 46.3383 22.9743 46.217 23.0653L42.6074 25.6436C42.486 25.7346 42.4254 25.8256 42.4254 25.9772L42.395 26.8872C42.395 26.9782 42.4254 27.0692 42.486 27.1602L42.6074 27.3725C42.577 27.3725 42.5467 27.4029 42.5164 27.4332L34.0838 33.3178C34.0838 33.2268 34.0535 33.1358 33.9928 33.0448C32.9008 31.4675 31.4448 30.5878 30.2315 30.7395C29.5642 30.8305 28.6845 31.2552 28.0779 32.7718C27.5016 34.3491 26.8039 34.4704 25.8332 34.0761C25.8029 34.0761 25.7726 34.0458 25.7422 34.0458L25.0446 33.9245C23.9829 33.8335 22.891 34.1065 21.981 34.7434C20.9496 35.4411 20.2823 36.5028 20.07 37.7161C19.8577 38.9294 20.1307 40.1427 20.8586 41.174L22.4663 43.449C23.1639 44.4803 24.2256 45.1476 25.4389 45.36C25.7119 45.4206 25.9849 45.451 26.2276 45.451C27.1679 45.451 28.0779 45.1476 28.8362 44.632C29.6552 44.0557 30.2619 43.085 30.3225 42.9333C30.5955 42.5693 30.7169 42.1143 30.8685 41.629C31.0808 40.9314 31.2628 40.2034 31.8998 39.8394C32.4762 39.5057 32.9312 39.5057 33.3861 39.536C33.8411 39.5664 34.2961 39.5664 34.7208 39.2631C35.5095 38.7474 35.8128 38.2317 35.8431 38.2014C35.9341 38.0801 35.9341 37.8677 35.8431 37.7464C35.7521 37.6251 35.6004 37.5341 35.4488 37.5644C35.3881 37.5644 34.1141 37.7161 33.3861 36.7454C33.1435 36.4118 33.2648 36.1691 33.7501 35.5928C34.0838 35.1984 34.5388 34.6524 34.4175 34.0458L42.85 28.1309C42.8804 28.1005 42.9107 28.1005 42.941 28.0702L43.0624 28.2825C43.123 28.3735 43.1837 28.4039 43.2747 28.4342L44.1543 28.7375C44.215 28.7679 44.2453 28.7679 44.2757 28.7679C44.3667 28.7679 44.4273 28.7375 44.5183 28.6769L48.1886 26.0986C48.5829 26.0379 48.6133 25.7649 48.4919 25.5829ZM29.6249 36.6241L29.0485 35.8051C28.9272 35.6231 28.6542 35.5624 28.4722 35.6838L27.1072 36.6544C27.0162 36.7151 26.9556 36.8061 26.9556 36.9274C26.9252 37.0487 26.9556 37.1397 27.0466 37.2611L28.7149 39.6271C28.8059 39.7484 28.9272 39.809 29.0485 39.809C29.1395 39.809 29.2002 39.7787 29.2912 39.718L30.6562 38.7474C30.7472 38.6867 30.8078 38.5957 30.8078 38.4744C30.8382 38.3531 30.8078 38.2621 30.7169 38.1407L30.1102 37.2914L33.5075 34.8951C33.4468 34.9558 33.3861 35.0164 33.3255 35.1074C32.9008 35.6231 32.2335 36.3814 32.9008 37.3217C33.4468 38.0497 34.1748 38.3531 34.7511 38.4441C34.6601 38.5351 34.5691 38.5654 34.4478 38.6564C34.2355 38.7777 34.0231 38.7777 33.6288 38.7777C33.0828 38.7474 32.4458 38.7171 31.6875 39.1721C30.7775 39.7181 30.5045 40.6584 30.2619 41.447C30.1405 41.8717 30.0192 42.2357 29.8372 42.5087C29.8372 42.539 29.8069 42.539 29.8069 42.5693C29.8069 42.5693 29.2912 43.5097 28.5632 44.0253C27.7442 44.6017 26.7432 44.814 25.7422 44.632C24.7413 44.45 23.8919 43.904 23.3156 43.085L21.708 40.81C20.525 39.1417 20.9496 36.8061 22.6786 35.5928C23.3156 35.1378 24.0739 34.8951 24.8323 34.8951C24.9536 34.8951 25.0446 34.8951 25.1356 34.8951L25.7422 35.0164C27.2892 35.5928 28.3509 34.9861 29.0485 33.1965C29.3822 32.2865 29.8675 31.7708 30.5045 31.7102C31.3842 31.5888 32.5368 32.3775 33.4468 33.6515C33.5075 33.7425 33.5681 33.7728 33.6591 33.8031L29.6249 36.6241ZM29.7462 38.2621L29.0789 38.7474L27.8959 37.0791L28.5632 36.5938L29.7462 38.2621ZM44.4273 27.9489L43.8813 27.7669L43.305 26.9175L43.3353 26.3412L46.1866 24.3392C46.217 24.4302 46.2776 24.4909 46.308 24.5819C46.4596 24.7942 46.672 24.9459 46.9146 25.0066C46.8843 25.2492 46.9753 25.5222 47.0966 25.7346C47.1573 25.8256 47.218 25.8559 47.2786 25.9469L44.4273 27.9489Z" fill="#2B292C"/>
<path d="M48.8559 27.7662L48.6436 27.4325C48.5223 27.2505 48.2493 27.1898 48.0673 27.3112C47.8853 27.4325 47.8246 27.7055 47.9459 27.8875L48.1583 28.2212C48.2493 28.3425 48.3706 28.4032 48.4919 28.4032C48.5829 28.4032 48.6436 28.3728 48.7346 28.3122C48.9469 28.2212 49.0076 27.9785 48.8559 27.7662Z" fill="#2B292C"/>
<path d="M44.4581 23.0034C44.5491 23.1248 44.6704 23.1854 44.7917 23.1854C44.8827 23.1854 44.9434 23.1551 45.0344 23.0944C45.2164 22.9731 45.2771 22.7001 45.1557 22.5181L44.9434 22.1845C44.8221 22.0025 44.5491 21.9418 44.3671 22.0631C44.1851 22.1845 44.1244 22.4575 44.2457 22.6395L44.4581 23.0034Z" fill="#2B292C"/>
<path d="M47.3995 28.3427C47.2781 28.1607 47.0051 28.1 46.8231 28.2213C46.6411 28.3427 46.5805 28.6157 46.7018 28.7977L46.9141 29.1313C47.0051 29.2526 47.1265 29.3133 47.2478 29.3133C47.3388 29.3133 47.3995 29.283 47.4905 29.2223C47.6724 29.101 47.7331 28.828 47.6118 28.646L47.3995 28.3427Z" fill="#2B292C"/>
<path d="M43.2139 23.8823C43.3049 24.0037 43.4263 24.0643 43.5476 24.0643C43.6386 24.0643 43.6993 24.034 43.7903 23.9733C43.9723 23.852 44.0329 23.579 43.9116 23.397L43.6993 23.0634C43.5779 22.8814 43.3049 22.8207 43.1229 22.942C42.9409 23.0634 42.8803 23.3364 43.0016 23.5184L43.2139 23.8823Z" fill="#2B292C"/>
<path d="M46.126 29.2216C46.0047 29.0396 45.7317 28.9789 45.5497 29.1002C45.3677 29.2216 45.307 29.4946 45.4284 29.6766L45.6407 30.0102C45.7317 30.1316 45.853 30.1922 45.9744 30.1922C46.0654 30.1922 46.126 30.1619 46.217 30.1012C46.399 29.9799 46.4597 29.7069 46.3383 29.5249L46.126 29.2216Z" fill="#2B292C"/>
<path d="M41.9708 24.7632C42.0618 24.8845 42.1831 24.9452 42.3044 24.9452C42.3954 24.9452 42.4561 24.9149 42.5471 24.8542C42.7291 24.7329 42.7898 24.4599 42.6684 24.2779L42.4561 23.9442C42.3348 23.7622 42.0618 23.7016 41.8798 23.8229C41.6978 23.9442 41.6371 24.2172 41.7584 24.3992L41.9708 24.7632Z" fill="#2B292C"/>
<path d="M25.7118 37.5629C25.5298 37.6842 25.4691 37.9572 25.5905 38.1392L27.2588 40.5052C27.3498 40.6265 27.4711 40.6872 27.5924 40.6872C27.6834 40.6872 27.7441 40.6569 27.8351 40.5962C28.0171 40.4749 28.0778 40.2019 27.9564 40.0199L26.2881 37.6539C26.1668 37.5022 25.9241 37.4719 25.7118 37.5629Z" fill="#2B292C"/>
</g>
<defs>
<filter id="filter0_d_1500_37349" x="0" y="0" width="68" height="68" filterUnits="userSpaceOnUse" color-interpolation-filters="sRGB">
<feFlood flood-opacity="0" result="BackgroundImageFix"/>
<feColorMatrix in="SourceAlpha" type="matrix" values="0 0 0 0 0 0 0 0 0 0 0 0 0 0 0 0 0 0 127 0" result="hardAlpha"/>
<feOffset/>
<feGaussianBlur stdDeviation="5"/>
<feComposite in2="hardAlpha" operator="out"/>
<feColorMatrix type="matrix" values="0 0 0 0 0.69292 0 0 0 0 0.69292 0 0 0 0 0.69292 0 0 0 0.5 0"/>
<feBlend mode="normal" in2="BackgroundImageFix" result="effect1_dropShadow_1500_37349"/>
<feBlend mode="normal" in="SourceGraphic" in2="effect1_dropShadow_1500_37349" result="shape"/>
</filter>
</defs>
</svg>
