<svg width="68" height="68" viewBox="0 0 68 68" fill="none" xmlns="http://www.w3.org/2000/svg">
<g filter="url(#filter0_d_1500_37370)">
<rect x="10" y="10" width="48" height="48" rx="24" fill="#FFFFFC"/>
<path d="M26.2222 36.4444C26.6617 36.4444 27.0914 36.3141 27.4568 36.0699C27.8223 35.8258 28.1071 35.4787 28.2753 35.0726C28.4435 34.6666 28.4875 34.2198 28.4017 33.7887C28.316 33.3576 28.1044 32.9617 27.7936 32.6509C27.4828 32.3401 27.0868 32.1284 26.6558 32.0427C26.2247 31.957 25.7779 32.001 25.3718 32.1692C24.9658 32.3374 24.6187 32.6222 24.3745 32.9876C24.1303 33.3531 24 33.7827 24 34.2222" stroke="#2B292C" stroke-width="0.9" stroke-linecap="round"/>
<path d="M33.9996 36.4444C35.2269 36.4444 36.2218 35.4495 36.2218 34.2222C36.2218 32.9949 35.2269 32 33.9996 32C32.7723 32 31.7773 32.9949 31.7773 34.2222C31.7773 35.4495 32.7723 36.4444 33.9996 36.4444Z" stroke="#2B292C" stroke-width="0.9"/>
<path d="M44.0001 34.2222C44.0001 34.6617 43.8698 35.0914 43.6256 35.4568C43.3814 35.8223 43.0344 36.1071 42.6283 36.2753C42.2222 36.4435 41.7754 36.4875 41.3444 36.4017C40.9133 36.316 40.5173 36.1044 40.2065 35.7936C39.8958 35.4828 39.6841 35.0868 39.5984 34.6558C39.5126 34.2247 39.5566 33.7779 39.7248 33.3718C39.893 32.9658 40.1778 32.6187 40.5433 32.3745C40.9087 32.1303 41.3384 32 41.7779 32" stroke="#2B292C" stroke-width="0.9" stroke-linecap="round"/>
</g>
<defs>
<filter id="filter0_d_1500_37370" x="0" y="0" width="68" height="68" filterUnits="userSpaceOnUse" color-interpolation-filters="sRGB">
<feFlood flood-opacity="0" result="BackgroundImageFix"/>
<feColorMatrix in="SourceAlpha" type="matrix" values="0 0 0 0 0 0 0 0 0 0 0 0 0 0 0 0 0 0 127 0" result="hardAlpha"/>
<feOffset/>
<feGaussianBlur stdDeviation="5"/>
<feComposite in2="hardAlpha" operator="out"/>
<feColorMatrix type="matrix" values="0 0 0 0 0.69292 0 0 0 0 0.69292 0 0 0 0 0.69292 0 0 0 0.5 0"/>
<feBlend mode="normal" in2="BackgroundImageFix" result="effect1_dropShadow_1500_37370"/>
<feBlend mode="normal" in="SourceGraphic" in2="effect1_dropShadow_1500_37370" result="shape"/>
</filter>
</defs>
</svg>
