<svg width="68" height="68" viewBox="0 0 68 68" fill="none" xmlns="http://www.w3.org/2000/svg">
<g filter="url(#filter0_d_1500_37331)">
<rect x="10" y="10" width="48" height="48" rx="24" fill="#FFFFFC"/>
<path d="M28.5916 35.8003C29.1416 35.8003 29.5874 35.3545 29.5874 34.8045C29.5874 34.2545 29.1416 33.8086 28.5916 33.8086C28.0416 33.8086 27.5957 34.2545 27.5957 34.8045C27.5957 35.3545 28.0416 35.8003 28.5916 35.8003Z" fill="#2B292C"/>
<path d="M40.0955 35.8003C40.6455 35.8003 41.0914 35.3545 41.0914 34.8045C41.0914 34.2545 40.6455 33.8086 40.0955 33.8086C39.5455 33.8086 39.0996 34.2545 39.0996 34.8045C39.0996 35.3545 39.5455 35.8003 40.0955 35.8003Z" fill="#2B292C"/>
<path d="M37.2464 38.2727C37.0061 38.1697 36.7313 38.307 36.6627 38.5474C36.5253 38.8908 36.1475 39.1312 35.7698 39.1312C35.3921 39.1312 35.0143 38.8908 34.9113 38.5474C34.9113 38.5131 34.9456 38.4444 34.9456 38.4444C34.9456 38.307 34.8426 38.1353 34.7396 38.0666C35.3577 37.9293 35.8385 37.3455 35.8385 37.1738C35.8385 36.9334 35.186 36.7617 34.3618 36.7617C33.572 36.7617 32.8852 36.9334 32.8852 37.1738C32.8852 37.3455 33.366 37.9293 33.9841 38.0666C33.8811 38.1697 33.7781 38.307 33.7781 38.4444C33.7781 38.5131 33.7781 38.5474 33.8124 38.5474C33.675 38.8908 33.3316 39.1312 32.9539 39.1312C32.5761 39.1312 32.1984 38.8908 32.061 38.5474C31.958 38.307 31.7176 38.204 31.4773 38.2727C31.2369 38.3414 31.1338 38.6161 31.2025 38.8565C31.4773 39.5776 32.1984 40.0927 32.9539 40.0927C33.5377 40.0927 34.0184 39.8523 34.3962 39.4403C34.7396 39.818 35.2547 40.0927 35.8385 40.0927C36.6283 40.0927 37.3495 39.612 37.5898 38.8565C37.6242 38.6504 37.4868 38.3414 37.2464 38.2727Z" fill="#2B292C"/>
<path d="M50.3296 40.0248L46.0027 38.8572C46.3461 38.033 46.5178 37.1402 46.5521 36.1786L50.3296 35.1484C50.5699 35.0798 50.7073 34.805 50.673 34.5647C50.6043 34.3243 50.3296 34.1869 50.0892 34.2212L46.5178 35.2171C46.4834 34.7707 46.4148 34.3586 46.2774 33.9465C46.3117 33.8778 46.3461 33.8092 46.3461 33.7061L45.7623 22.9576C45.728 22.6142 45.5219 22.3051 45.1785 22.1678C44.8351 22.0304 44.4917 22.0304 44.217 22.1678L34.3269 26.8037L24.5056 22.1334C24.1965 21.9617 23.8188 21.9617 23.5097 22.0991C23.1663 22.2364 22.9603 22.5799 22.9259 22.9233L22.3422 33.6375C22.3422 33.7405 22.3765 33.8092 22.4108 33.9122C22.3078 34.2899 22.2391 34.702 22.1704 35.1828L18.599 34.1869C18.3587 34.1182 18.0839 34.2899 18.0153 34.5303C17.9466 34.7707 18.1183 35.0454 18.3587 35.1141L22.1361 36.1786C22.1704 37.1402 22.3422 38.033 22.6856 38.8572L18.3587 40.0248C18.1183 40.0935 17.9809 40.3682 18.0153 40.6086C18.0839 40.8146 18.2556 40.952 18.4617 40.952C18.496 40.952 18.5647 40.952 18.5647 40.9176L23.0633 39.6814C25.0207 43.5275 29.8627 46 34.2926 46C38.7569 46 43.5645 43.5275 45.5219 39.6814L50.0205 40.9176C50.0548 40.9176 50.1235 40.952 50.1235 40.952C50.3296 40.952 50.5013 40.8146 50.57 40.6086C50.7073 40.3338 50.5699 40.0935 50.3296 40.0248ZM44.6291 22.9233C44.6634 22.8889 44.6977 22.8889 44.7321 22.9233C44.7664 22.9233 44.8008 22.9576 44.8008 22.9919L45.2815 31.8174C44.7664 31.0619 44.1483 30.4095 43.3928 29.86V29.8257L43.2898 26.5633C43.2898 26.2886 43.0837 26.1169 42.809 26.1169C42.5343 26.1169 42.3283 26.323 42.3626 26.5977L42.4313 29.1732C40.5426 28.04 38.2074 27.3532 35.8036 27.1471L44.6291 22.9233ZM23.8875 22.9919C23.8875 22.9576 23.9218 22.9233 23.9561 22.9233C23.9905 22.9233 24.0248 22.8889 24.0592 22.9576L32.8847 27.1471C29.0042 27.4905 25.2611 29.0702 23.4067 31.8518L23.8875 22.9919ZM34.3269 45.1071C30.2748 45.1071 25.8792 42.9094 23.9905 39.4753L24.5743 39.338C24.8147 39.2693 24.952 38.9946 24.9177 38.7542C24.8833 38.5138 24.5743 38.3764 24.3339 38.4108L23.5784 38.6168C23.338 37.8957 23.1663 37.1745 23.0976 36.419L24.3339 36.7624C24.3682 36.7624 24.4369 36.7968 24.4369 36.7968C24.643 36.7968 24.8147 36.6594 24.8833 36.4534C24.952 36.213 24.7803 35.9383 24.5399 35.8696L23.0633 35.4918C23.4067 30.6155 28.9012 28.04 34.2583 28.04C39.6497 28.04 45.1098 30.5812 45.4532 35.4918L43.9766 35.8696C43.7362 35.9383 43.5989 36.213 43.6332 36.4534C43.7019 36.6594 43.8736 36.7968 44.0796 36.7968C44.114 36.7968 44.1826 36.7968 44.1826 36.7624L45.4189 36.419C45.3502 37.2089 45.2128 37.93 44.9381 38.6168L44.1826 38.4108C43.9423 38.3421 43.6675 38.5138 43.5989 38.7542C43.5302 38.9946 43.7019 39.2693 43.9423 39.338L44.526 39.4753C42.809 42.9094 38.3791 45.1071 34.3269 45.1071Z" fill="#2B292C"/>
</g>
<defs>
<filter id="filter0_d_1500_37331" x="0" y="0" width="68" height="68" filterUnits="userSpaceOnUse" color-interpolation-filters="sRGB">
<feFlood flood-opacity="0" result="BackgroundImageFix"/>
<feColorMatrix in="SourceAlpha" type="matrix" values="0 0 0 0 0 0 0 0 0 0 0 0 0 0 0 0 0 0 127 0" result="hardAlpha"/>
<feOffset/>
<feGaussianBlur stdDeviation="5"/>
<feComposite in2="hardAlpha" operator="out"/>
<feColorMatrix type="matrix" values="0 0 0 0 0.69292 0 0 0 0 0.69292 0 0 0 0 0.69292 0 0 0 0.5 0"/>
<feBlend mode="normal" in2="BackgroundImageFix" result="effect1_dropShadow_1500_37331"/>
<feBlend mode="normal" in="SourceGraphic" in2="effect1_dropShadow_1500_37331" result="shape"/>
</filter>
</defs>
</svg>
