<svg width="68" height="68" viewBox="0 0 68 68" fill="none" xmlns="http://www.w3.org/2000/svg">
<g filter="url(#filter0_d_1500_37274)">
<rect x="10" y="10" width="48" height="48" rx="24" fill="#FFFFFC"/>
<path d="M45.6937 27.2065H41.5452C41.6288 26.8724 41.6845 26.5383 41.6845 26.1763C41.6845 23.8654 39.819 22 37.5081 22C35.8376 22 34.5568 23.9211 33.8886 25.4803C33.2204 23.9211 31.9397 22 30.2691 22C27.9582 22 26.0928 23.8654 26.0928 26.1763C26.0928 26.5104 26.1485 26.8724 26.232 27.2065H22.4455C22.1949 27.2065 22 27.4014 22 27.652V32.3573C22 32.6079 22.1949 32.8028 22.4455 32.8028H23.5592V45.5545C23.5592 45.8051 23.7541 46 24.0046 46H44.1067C44.3573 46 44.5522 45.8051 44.5522 45.5545V32.7749H45.6659C45.9165 32.7749 46.1114 32.58 46.1114 32.3295V27.6241C46.1114 27.4014 45.9165 27.2065 45.6937 27.2065ZM37.5081 22.8631C39.3179 22.8631 40.8213 24.3387 40.8213 26.1763C40.8213 26.5104 40.7657 26.8445 40.6821 27.1508C40.6821 27.1787 40.6821 27.1787 40.6821 27.2065H38.761C38.8167 26.9838 38.8445 26.761 38.8445 26.5383C38.8445 25.0348 37.6195 23.8097 36.116 23.8097C36.0603 23.8097 35.9768 23.8097 35.9211 23.8097C36.3944 23.2529 36.9513 22.8631 37.5081 22.8631ZM34.3063 27.0394C34.5568 26.0928 35.3643 24.7007 36.0882 24.7007C37.1183 24.7007 37.9258 25.536 37.9258 26.5383C37.9258 26.7332 37.8979 26.9002 37.8422 27.0673C37.8422 27.0951 37.8144 27.1508 37.8144 27.1787H34.2227C34.2506 27.1508 34.3063 27.0951 34.3063 27.0394ZM33.471 27.0394C33.4988 27.0951 33.5267 27.1508 33.5545 27.2065H29.935C29.935 27.1508 29.935 27.123 29.9072 27.0673C29.8515 26.9002 29.8237 26.7332 29.8237 26.5383C29.8237 25.5081 30.6589 24.7007 31.6613 24.7007C32.413 24.6729 33.2204 26.065 33.471 27.0394ZM30.2691 22.8631C30.826 22.8631 31.3828 23.2529 31.8561 23.8097C31.8005 23.8097 31.7169 23.8097 31.6613 23.8097C30.1578 23.8097 28.9327 25.0348 28.9327 26.5383C28.9327 26.761 28.9606 26.9838 29.0162 27.2065H27.0951C27.0951 27.1787 27.0951 27.1508 27.0673 27.123C26.9838 26.8167 26.9281 26.5104 26.9281 26.1763C26.9838 24.3387 28.4594 22.8631 30.2691 22.8631ZM32.0232 45.0812H24.4501V32.7749H31.7448L28.8492 35.8376C28.6821 36.0046 28.6821 36.2831 28.877 36.4501C28.9606 36.5336 29.0719 36.5615 29.1833 36.5615C29.2947 36.5615 29.406 36.5058 29.4896 36.4223L32.0232 33.7494V45.0812ZM32.0232 31.884H24.0325H22.9188V28.0696H32.051V31.884H32.0232ZM35.2529 45.0812H32.9142V32.7749H35.2529V45.0812ZM35.2529 31.884H32.9142V28.0696H35.2529V31.884ZM43.6891 39.8469H40.5986C40.348 39.8469 40.1531 40.0418 40.1531 40.2923C40.1531 40.5429 40.348 40.7378 40.5986 40.7378H43.6891V42.2135H37.8979C37.6473 42.2135 37.4524 42.4084 37.4524 42.6589C37.4524 42.9095 37.6473 43.1044 37.8979 43.1044H43.6613V45.109H36.116V33.8051L38.594 36.4501C38.6775 36.5336 38.7889 36.5893 38.9002 36.5893C39.0116 36.5893 39.123 36.5615 39.2065 36.478C39.3735 36.3109 39.4014 36.0325 39.2343 35.8654L36.3387 32.8028H43.6613V39.8469H43.6891ZM45.2483 29.3782H39.29C39.0394 29.3782 38.8445 29.5731 38.8445 29.8237C38.8445 30.0742 39.0394 30.2691 39.29 30.2691H45.2204V31.9118H44.1067H36.116V28.0696H45.2483V29.3782Z" fill="#2B292C"/>
</g>
<defs>
<filter id="filter0_d_1500_37274" x="0" y="0" width="68" height="68" filterUnits="userSpaceOnUse" color-interpolation-filters="sRGB">
<feFlood flood-opacity="0" result="BackgroundImageFix"/>
<feColorMatrix in="SourceAlpha" type="matrix" values="0 0 0 0 0 0 0 0 0 0 0 0 0 0 0 0 0 0 127 0" result="hardAlpha"/>
<feOffset/>
<feGaussianBlur stdDeviation="5"/>
<feComposite in2="hardAlpha" operator="out"/>
<feColorMatrix type="matrix" values="0 0 0 0 0.69292 0 0 0 0 0.69292 0 0 0 0 0.69292 0 0 0 0.5 0"/>
<feBlend mode="normal" in2="BackgroundImageFix" result="effect1_dropShadow_1500_37274"/>
<feBlend mode="normal" in="SourceGraphic" in2="effect1_dropShadow_1500_37274" result="shape"/>
</filter>
</defs>
</svg>
