<svg width="68" height="68" viewBox="0 0 68 68" fill="none" xmlns="http://www.w3.org/2000/svg">
<g filter="url(#filter0_d_1500_37240)">
<rect x="10" y="10" width="48" height="48" rx="24" fill="#FFFFFC"/>
<path d="M23.7724 32.3364H44.7451C44.8542 32.3364 44.9906 32.2818 45.0724 32.2C45.1542 32.1182 45.1815 31.9818 45.1815 31.8727C44.7451 26.2545 40.0542 22 34.2724 22C28.4633 22 23.7724 26.2273 23.3633 31.8727C23.3633 31.9818 23.3906 32.1182 23.4724 32.2C23.5542 32.3091 23.6633 32.3364 23.7724 32.3364ZM34.2724 22.8727C37.7906 22.8727 40.8451 24.5636 42.6451 27.1545H40.6815C40.436 27.1545 40.2451 27.3455 40.2451 27.5909C40.2451 27.8364 40.436 28.0273 40.6815 28.0273H43.1633C43.3815 28.4364 43.5724 28.8455 43.736 29.2818H37.8178C37.5724 29.2818 37.3815 29.4727 37.3815 29.7182C37.3815 29.9636 37.5724 30.1545 37.8178 30.1545H44.0087C44.1178 30.5909 44.1996 31.0273 44.2542 31.4909H24.2633C24.8633 26.5273 29.0906 22.8727 34.2724 22.8727Z" fill="#2B292C"/>
<path d="M31.2186 24.5902C29.255 25.1356 27.5914 26.4447 26.6641 28.1902C26.555 28.4083 26.6368 28.6538 26.8277 28.7629C26.8823 28.7901 26.9641 28.8174 27.0186 28.8174C27.1823 28.8174 27.3186 28.7356 27.4005 28.5992C28.2186 27.0447 29.6914 25.8992 31.4368 25.4083C31.655 25.3538 31.7914 25.1083 31.7368 24.8902C31.6823 24.672 31.4368 24.5356 31.2186 24.5902Z" fill="#2B292C"/>
<path d="M46.1364 39.0175C46.1364 37.763 45.1273 36.7539 43.8727 36.7539H24.2636C23.0091 36.7539 22 37.763 22 39.0175C22 40.2175 22.9273 41.1994 24.1 41.2812C23.6091 41.7721 23.3091 42.4812 23.3091 43.2175C23.3091 44.7721 24.5636 45.9994 26.0909 45.9994H42.4C43.9545 45.9994 45.1818 44.7448 45.1818 43.2175C45.1818 43.2175 45.1818 43.2175 45.1818 43.1903V43.163C45.1818 42.3994 44.8545 41.7175 44.3364 41.1994C45.3727 40.9812 46.1364 40.1084 46.1364 39.0175ZM42.4273 45.1539H26.1182C25.0545 45.1539 24.1818 44.2812 24.1818 43.2175C24.1818 42.1539 25.0545 41.2812 26.1182 41.2812H42.4273C43.3273 41.2812 44.1182 41.9085 44.3091 42.7539H38.3909C38.1455 42.7539 37.9545 42.9448 37.9545 43.1903C37.9545 43.4357 38.1455 43.6266 38.3909 43.6266H44.3091C44.1182 44.4721 43.3545 45.1539 42.4273 45.1539ZM43.8727 40.4085H42.4273H26.1182H24.2909C23.5 40.4085 22.8727 39.7812 22.8727 38.9903C22.8727 38.1994 23.5 37.5721 24.2909 37.5721H43.8727C44.6636 37.5721 45.2909 38.1994 45.2909 38.9903C45.2636 39.7812 44.6364 40.4085 43.8727 40.4085Z" fill="#2B292C"/>
<path d="M24.8091 36.1537C25.7091 36.1537 26.4182 35.4174 26.4182 34.5446C26.4182 34.1355 26.7455 33.781 27.1819 33.781C27.6182 33.781 27.9455 34.1083 27.9455 34.5446C27.9455 35.4446 28.6819 36.1537 29.5546 36.1537C30.4546 36.1537 31.1637 35.4174 31.1637 34.5446C31.1637 34.1355 31.491 33.781 31.9273 33.781C32.3637 33.781 32.691 34.1083 32.691 34.5446C32.691 35.4446 33.4273 36.1537 34.3001 36.1537C35.2001 36.1537 35.9091 35.4174 35.9091 34.5446C35.9091 34.1355 36.2364 33.781 36.6728 33.781C37.0819 33.781 37.4364 34.1083 37.4364 34.5446C37.4364 35.4446 38.1728 36.1537 39.0455 36.1537C39.9182 36.1537 40.6546 35.4174 40.6546 34.5446C40.6546 34.1355 40.9819 33.781 41.4182 33.781C41.8273 33.781 42.1819 34.1083 42.1819 34.5446C42.1819 35.4446 42.9182 36.1537 43.791 36.1537C44.691 36.1537 45.4001 35.4174 45.4001 34.5446C45.4001 34.2992 45.2091 34.1083 44.9637 34.1083C44.7182 34.1083 44.5273 34.2992 44.5273 34.5446C44.5273 34.9537 44.2001 35.3083 43.7637 35.3083C43.3273 35.3083 43.0001 34.981 43.0001 34.5446C43.0001 33.6446 42.2637 32.9355 41.391 32.9355C40.491 32.9355 39.7819 33.6719 39.7819 34.5446C39.7819 34.9537 39.4546 35.3083 39.0182 35.3083C38.6091 35.3083 38.2546 34.981 38.2546 34.5446C38.2546 33.6446 37.5182 32.9355 36.6455 32.9355C35.7728 32.9355 35.0364 33.6719 35.0364 34.5446C35.0364 34.9537 34.7091 35.3083 34.2728 35.3083C33.8637 35.3083 33.5091 34.981 33.5091 34.5446C33.5091 33.6446 32.7728 32.9355 31.9001 32.9355C31.0001 32.9355 30.291 33.6719 30.291 34.5446C30.291 34.9537 29.9637 35.3083 29.5273 35.3083C29.091 35.3083 28.7637 34.981 28.7637 34.5446C28.7637 33.6446 28.0273 32.9355 27.1546 32.9355C26.2819 32.9355 25.5455 33.6719 25.5455 34.5446C25.5455 34.9537 25.2182 35.3083 24.7819 35.3083C24.3728 35.3083 24.0182 34.981 24.0182 34.5446C24.0182 34.2992 23.8273 34.1083 23.5819 34.1083C23.3364 34.1083 23.1455 34.2992 23.1455 34.5446C23.2001 35.4174 23.9091 36.1537 24.8091 36.1537Z" fill="#2B292C"/>
<path d="M43.5731 38.582H39.4549C39.2095 38.582 39.0186 38.7729 39.0186 39.0184C39.0186 39.2639 39.2095 39.4548 39.4549 39.4548H43.5731C43.8186 39.4548 44.0095 39.2639 44.0095 39.0184C44.0095 38.7457 43.8186 38.582 43.5731 38.582Z" fill="#2B292C"/>
<path d="M30.7271 38.582H30.2362C29.9907 38.582 29.7998 38.7729 29.7998 39.0184C29.7998 39.2639 29.9907 39.4548 30.2362 39.4548H30.7271C30.9725 39.4548 31.1634 39.2639 31.1634 39.0184C31.1362 38.7457 30.9453 38.582 30.7271 38.582Z" fill="#2B292C"/>
<path d="M27.9459 38.582H25.9823C25.7368 38.582 25.5459 38.7729 25.5459 39.0184C25.5459 39.2639 25.7368 39.4548 25.9823 39.4548H27.9459C28.1914 39.4548 28.3823 39.2639 28.3823 39.0184C28.3823 38.7457 28.1914 38.582 27.9459 38.582Z" fill="#2B292C"/>
</g>
<defs>
<filter id="filter0_d_1500_37240" x="0" y="0" width="68" height="68" filterUnits="userSpaceOnUse" color-interpolation-filters="sRGB">
<feFlood flood-opacity="0" result="BackgroundImageFix"/>
<feColorMatrix in="SourceAlpha" type="matrix" values="0 0 0 0 0 0 0 0 0 0 0 0 0 0 0 0 0 0 127 0" result="hardAlpha"/>
<feOffset/>
<feGaussianBlur stdDeviation="5"/>
<feComposite in2="hardAlpha" operator="out"/>
<feColorMatrix type="matrix" values="0 0 0 0 0.69292 0 0 0 0 0.69292 0 0 0 0 0.69292 0 0 0 0.5 0"/>
<feBlend mode="normal" in2="BackgroundImageFix" result="effect1_dropShadow_1500_37240"/>
<feBlend mode="normal" in="SourceGraphic" in2="effect1_dropShadow_1500_37240" result="shape"/>
</filter>
</defs>
</svg>
