<svg width="68" height="68" viewBox="0 0 68 68" fill="none" xmlns="http://www.w3.org/2000/svg">
<g filter="url(#filter0_d_1500_37366)">
<rect x="10" y="10" width="48" height="48" rx="24" fill="#FFFFFC"/>
<path d="M45.2927 37.9258L42.8904 42.0918C42.8208 42.2167 42.7079 42.3119 42.573 42.3594C42.4381 42.4069 42.2905 42.4034 42.158 42.3496L39.1638 41.1426C38.542 41.6198 37.8604 42.0138 37.1365 42.3144L36.6853 45.4961C36.6654 45.6369 36.595 45.7656 36.4872 45.8583C36.3794 45.951 36.2416 46.0014 36.0994 46H31.2947C31.1525 46.0014 31.0147 45.951 30.9069 45.8583C30.7991 45.7656 30.7287 45.6369 30.7088 45.4961L30.2576 42.3144C29.5346 42.0119 28.8533 41.6181 28.2303 41.1426L25.2185 42.3496C25.086 42.4034 24.9384 42.4069 24.8035 42.3594C24.6686 42.3119 24.5557 42.2167 24.4861 42.0918L22.0838 37.9258C22.0095 37.8022 21.9834 37.6556 22.0104 37.514C22.0374 37.3724 22.1157 37.2457 22.2303 37.1582L24.7615 35.1719C24.7105 34.7833 24.6831 34.3919 24.6795 34C24.6833 33.6081 24.7107 33.2168 24.7615 32.8281L22.2303 30.8418C22.1157 30.7543 22.0374 30.6276 22.0104 30.486C21.9834 30.3444 22.0095 30.1978 22.0838 30.0742L24.4861 25.9082C24.5557 25.7833 24.6686 25.6881 24.8035 25.6406C24.9384 25.5931 25.086 25.5966 25.2185 25.6504L28.2127 26.8574C28.8345 26.3802 29.5161 25.9862 30.24 25.6856L30.6912 22.5039C30.7111 22.3631 30.7815 22.2344 30.8893 22.1417C30.9971 22.049 31.1349 21.9986 31.2771 22H36.0818C36.2223 22.0044 36.3571 22.0568 36.4638 22.1485C36.5704 22.2402 36.6424 22.3656 36.6677 22.5039L37.1189 25.6856C37.8419 25.9881 38.5232 26.3819 39.1462 26.8574L42.1404 25.6504C42.2729 25.5966 42.4205 25.5931 42.5554 25.6406C42.6903 25.6881 42.8032 25.7833 42.8728 25.9082L45.2751 30.0742C45.3494 30.1978 45.3756 30.3444 45.3485 30.486C45.3215 30.6276 45.2432 30.7543 45.1287 30.8418L42.615 32.8281C42.666 33.2167 42.6934 33.6081 42.697 34C42.6934 34.3919 42.666 34.7833 42.615 35.1719L45.1462 37.1582C45.2608 37.2457 45.3391 37.3724 45.3661 37.514C45.3931 37.6556 45.367 37.8022 45.2927 37.9258ZM34.5525 30.9883C34.4661 30.836 34.3409 30.7093 34.1896 30.6212C34.0383 30.533 33.8663 30.4866 33.6912 30.4866C33.5161 30.4866 33.3441 30.533 33.1928 30.6212C33.0415 30.7093 32.9162 30.836 32.8299 30.9883L29.9646 36.0391C29.8797 36.1896 29.8357 36.3598 29.837 36.5327C29.8383 36.7055 29.8848 36.875 29.9719 37.0243C30.059 37.1736 30.1836 37.2976 30.3335 37.3837C30.4833 37.4699 30.6531 37.5154 30.826 37.5156H36.5564C36.7293 37.5154 36.8991 37.4699 37.0489 37.3837C37.1987 37.2976 37.3234 37.1736 37.4105 37.0243C37.4976 36.875 37.5441 36.7055 37.5454 36.5327C37.5466 36.3598 37.5026 36.1896 37.4177 36.0391L34.5525 30.9883ZM32.5193 35.5352L33.6912 33.4785L34.8631 35.5352H32.5193Z" stroke="#2B292C" stroke-width="0.8" stroke-linecap="round" stroke-linejoin="round"/>
</g>
<defs>
<filter id="filter0_d_1500_37366" x="0" y="0" width="68" height="68" filterUnits="userSpaceOnUse" color-interpolation-filters="sRGB">
<feFlood flood-opacity="0" result="BackgroundImageFix"/>
<feColorMatrix in="SourceAlpha" type="matrix" values="0 0 0 0 0 0 0 0 0 0 0 0 0 0 0 0 0 0 127 0" result="hardAlpha"/>
<feOffset/>
<feGaussianBlur stdDeviation="5"/>
<feComposite in2="hardAlpha" operator="out"/>
<feColorMatrix type="matrix" values="0 0 0 0 0.69292 0 0 0 0 0.69292 0 0 0 0 0.69292 0 0 0 0.5 0"/>
<feBlend mode="normal" in2="BackgroundImageFix" result="effect1_dropShadow_1500_37366"/>
<feBlend mode="normal" in="SourceGraphic" in2="effect1_dropShadow_1500_37366" result="shape"/>
</filter>
</defs>
</svg>
