<svg width="68" height="68" viewBox="0 0 68 68" fill="none" xmlns="http://www.w3.org/2000/svg">
<g filter="url(#filter0_d_1500_37325)">
<rect x="10" y="10" width="48" height="48" rx="24" fill="#FFFFFC"/>
<path d="M47.5226 27.5611C47.5226 27.5032 47.4937 27.3874 47.4647 27.3296C47.4647 27.2717 47.4647 27.2427 47.4358 27.1848C47.4068 27.127 47.4068 27.0691 47.3779 27.0112C47.349 26.9533 47.349 26.8665 47.32 26.8375C47.32 26.8375 47.32 26.8086 47.2911 26.8086C47.1753 26.4613 47.0017 26.1429 46.7412 25.8535C46.336 25.3615 45.7572 25.0432 45.1783 24.8984C41.5317 24.0013 34.6725 22.9883 29.1735 26.1429C23.7325 29.2397 21.1567 35.7227 20.1148 39.3114C19.8254 40.3823 20.0858 41.511 20.8673 42.2924C21.2724 42.6976 21.7355 42.9581 22.3143 43.1028C24.0798 43.5369 26.6267 44 29.3761 44C32.2993 44 35.4828 43.4791 38.2902 41.8583C42.6604 39.3693 45.1783 34.7386 46.5675 31.1209C46.9148 30.2237 47.2043 29.3844 47.4068 28.6609C47.5226 28.3136 47.5805 27.9373 47.5226 27.5611ZM20.8673 39.543C21.8802 36.07 24.3692 29.7896 29.6077 26.7507C32.2993 25.1879 35.3381 24.7248 38.1455 24.7248C40.866 24.7248 43.3261 25.1879 45.0336 25.593C45.2941 25.6509 45.4967 25.7667 45.6993 25.8825C45.5835 25.9114 45.4677 25.9404 45.352 25.9404C45.2652 25.8825 45.1494 25.8246 45.0336 25.8535C44.9179 25.8825 44.831 25.9693 44.7731 26.0851C44.1364 26.2587 43.5286 26.4034 42.8919 26.606H42.863C41.0686 27.127 39.2742 27.7926 37.5667 28.5451L36.4958 27.3296C36.3511 27.1848 36.1196 27.1559 35.9749 27.3006C35.8301 27.4453 35.8012 27.6769 35.9459 27.8216L36.872 28.8635C36.2064 29.1529 35.5407 29.5002 34.904 29.8475L33.8332 28.6609C33.6885 28.5162 33.4569 28.4872 33.3122 28.6319C33.1675 28.7766 33.1386 29.0082 33.2833 29.1529L34.2383 30.2237C33.6016 30.571 32.9939 30.9473 32.3861 31.3235L31.4021 30.2237C31.2573 30.079 31.0258 30.0501 30.8811 30.1948C30.7364 30.3395 30.7075 30.571 30.8522 30.7157L31.7204 31.6998C31.1126 32.1049 30.5338 32.4812 29.955 32.9153L28.942 31.7866C28.7973 31.6419 28.5658 31.6129 28.4211 31.7576C28.2763 31.9023 28.2474 32.1339 28.3921 32.2786L29.3472 33.3784C28.7105 33.8414 28.1027 34.3624 27.466 34.8544L26.7135 33.9862C26.5688 33.8414 26.3373 33.8125 26.1925 33.9572C26.0478 34.1019 26.0189 34.3335 26.1636 34.4782L26.9161 35.3175C25.2953 36.7356 23.7614 38.2695 22.3433 39.9192L22.3143 39.9482C21.8802 40.4691 21.4461 40.9901 21.0409 41.511C20.8094 40.9322 20.6936 40.2086 20.8673 39.543ZM37.9718 41.2795C32.7044 44.3184 26.0478 43.3054 22.5459 42.4371C22.4591 42.4082 22.3722 42.3793 22.2565 42.3503C22.2275 42.3503 22.1986 42.3214 22.1986 42.3214C22.1407 42.2924 22.0828 42.2635 22.0249 42.2346C21.996 42.2056 21.967 42.2056 21.967 42.1767C21.8802 42.1188 21.7934 42.0898 21.7355 42.003C22.1118 41.511 22.488 41.019 22.8932 40.5559C23.0958 40.6717 23.2984 40.7585 23.5299 40.8164C25.0928 41.2216 27.2344 41.5689 29.5498 41.5689C30.5049 41.5689 31.4889 41.511 32.4729 41.3374C32.6755 41.3084 32.7913 41.1348 32.7623 40.9322C32.7334 40.7296 32.5597 40.6138 32.3571 40.6428C29.0867 41.1637 25.8452 40.6428 23.7036 40.1218C23.5878 40.0929 23.472 40.0639 23.3563 40.006C24.6876 38.5011 26.0768 37.0829 27.5817 35.7805L28.7684 37.1119C28.8262 37.1697 28.942 37.2276 29.0578 37.2276C29.1446 37.2276 29.2314 37.1987 29.2893 37.1408C29.434 36.9961 29.463 36.7646 29.3183 36.6199L28.1606 35.3175C28.7684 34.7965 29.3761 34.3335 30.0418 33.8414L31.0258 34.9412C31.0837 34.9991 31.1995 35.057 31.3152 35.057C31.4021 35.057 31.4889 35.0281 31.5468 34.9702C31.6915 34.8255 31.7204 34.5939 31.5757 34.4492L30.6496 33.4363C31.2284 33.0311 31.8072 32.6259 32.415 32.2497L33.4569 33.4073C33.5148 33.4652 33.6306 33.5231 33.7463 33.5231C33.8332 33.5231 33.92 33.4941 33.9779 33.4363C34.1226 33.2916 34.1515 33.06 34.0068 32.9153L33.0517 31.8445C33.6595 31.4682 34.2673 31.092 34.904 30.7447L35.888 31.8445C35.9459 31.9024 36.0617 31.9602 36.1774 31.9602C36.2643 31.9602 36.3511 31.9313 36.409 31.8734C36.5537 31.7287 36.5826 31.4972 36.4379 31.3525L35.5697 30.3684C36.2064 30.0211 36.872 29.7028 37.5377 29.3844L38.5217 30.4842C38.5796 30.5421 38.6954 30.6 38.8111 30.6C38.898 30.6 38.9848 30.571 39.0427 30.5131C39.1874 30.3684 39.2163 30.1369 39.0716 29.9922L38.2323 29.0661C39.6505 28.4293 41.0975 27.9084 42.5736 27.4453C42.1105 28.8635 41.5606 30.2237 40.895 31.4682C40.8081 31.6419 40.866 31.8734 41.0686 31.9602C41.1265 31.9892 41.1844 32.0181 41.2423 32.0181C41.387 32.0181 41.5027 31.9602 41.5606 31.8445C42.3131 30.4263 42.9209 28.8924 43.4418 27.2427C43.9628 27.098 44.4548 26.9533 44.9757 26.8375C44.9757 27.0112 44.9468 27.2138 44.8889 27.3585C44.1075 30.079 42.5446 33.9862 39.7373 36.8803C39.5926 37.025 39.5926 37.2566 39.7373 37.4013C39.7952 37.4592 39.9109 37.4881 39.9978 37.4881C40.0846 37.4881 40.1714 37.4302 40.2582 37.3723C43.1813 34.3335 44.7731 30.3684 45.5835 27.5321C45.6703 27.2427 45.6993 26.9244 45.6993 26.635C45.9887 26.5771 46.2202 26.5192 46.5096 26.4613C46.5096 26.4902 46.5386 26.4902 46.5386 26.5192C46.5675 26.5481 46.5965 26.5771 46.5965 26.606C46.6254 26.6639 46.6544 26.6928 46.6833 26.7507C46.7122 26.7797 46.7122 26.8086 46.7412 26.8375C46.7701 26.8954 46.7991 26.9244 46.7991 26.9822C46.828 27.0401 46.828 27.0401 46.8569 27.098C46.8859 27.1559 46.8859 27.1848 46.9148 27.2717C46.9148 27.3296 46.9438 27.3296 46.9438 27.3874C46.9438 27.4453 46.9727 27.5032 46.9727 27.5611C46.9727 27.619 46.9727 27.619 47.0017 27.6769C47.0017 27.7347 47.0017 27.7926 47.0017 27.8505C47.0017 27.9084 47.0017 27.9084 47.0017 27.9663C47.0017 28.0242 47.0017 28.082 46.9727 28.1399C46.9727 28.1689 46.9727 28.1978 46.9727 28.2267C46.9438 28.3136 46.9148 28.4004 46.9148 28.5162C45.6993 31.9602 43.2103 38.2406 37.9718 41.2795Z" fill="#2B292C"/>
<path d="M37.9135 38.3858C37.5083 38.6752 37.0742 38.9646 36.669 39.2251C36.4953 39.3119 36.4374 39.5435 36.5243 39.7461C36.5821 39.8618 36.6979 39.9197 36.8426 39.9197C36.9005 39.9197 36.9584 39.8908 37.0163 39.8618C37.4504 39.6014 37.9135 39.3119 38.3476 38.9936C38.5212 38.8778 38.5212 38.6463 38.4055 38.4726C38.2897 38.3279 38.0582 38.27 37.9135 38.3858Z" fill="#2B292C"/>
</g>
<defs>
<filter id="filter0_d_1500_37325" x="0" y="0" width="68" height="68" filterUnits="userSpaceOnUse" color-interpolation-filters="sRGB">
<feFlood flood-opacity="0" result="BackgroundImageFix"/>
<feColorMatrix in="SourceAlpha" type="matrix" values="0 0 0 0 0 0 0 0 0 0 0 0 0 0 0 0 0 0 127 0" result="hardAlpha"/>
<feOffset/>
<feGaussianBlur stdDeviation="5"/>
<feComposite in2="hardAlpha" operator="out"/>
<feColorMatrix type="matrix" values="0 0 0 0 0.69292 0 0 0 0 0.69292 0 0 0 0 0.69292 0 0 0 0.5 0"/>
<feBlend mode="normal" in2="BackgroundImageFix" result="effect1_dropShadow_1500_37325"/>
<feBlend mode="normal" in="SourceGraphic" in2="effect1_dropShadow_1500_37325" result="shape"/>
</filter>
</defs>
</svg>
