<svg width="68" height="68" viewBox="0 0 68 68" fill="none" xmlns="http://www.w3.org/2000/svg">
<g filter="url(#filter0_d_1500_37233)">
<rect x="10" y="10" width="48" height="48" rx="24" fill="white"/>
<path d="M37.8611 22.0179C37.752 21.9906 37.6156 21.9906 37.5064 22.0452C37.3973 22.0998 37.3155 22.2089 37.2882 22.318C36.8516 23.955 35.3783 25.1009 33.6868 25.1009C31.9952 25.1009 30.5219 23.955 30.0854 22.318C30.0581 22.2089 29.9762 22.0998 29.8671 22.0452C29.758 21.9906 29.6488 21.9906 29.5124 22.0179C24.4377 23.7913 21 28.5932 21 33.968C21 34.9502 21.1091 35.9597 21.3547 36.9419C21.4093 37.1329 21.573 37.2693 21.7639 37.2693H26.4567V45.5635C26.4567 45.809 26.6477 46 26.8932 46H40.5895C40.835 46 41.026 45.809 41.026 45.5635V37.2693H45.5823C45.7733 37.2693 45.9643 37.1329 45.9916 36.9419C46.2371 35.9597 46.3463 34.9775 46.3463 33.968C46.3735 28.5932 42.9358 23.7913 37.8611 22.0179ZM45.2549 36.4235H41.026V34.4319H43.5361C43.7816 34.4319 43.9726 34.2409 43.9726 33.9953C43.9726 33.7498 43.7816 33.5588 43.5361 33.5588H41.026V32.331H42.9358C43.1814 32.331 43.3724 32.14 43.3724 31.8945C43.3724 31.6489 43.1814 31.458 42.9358 31.458H40.9714C40.9169 31.458 40.8721 31.458 40.7897 31.458C40.5307 31.4617 40.6713 31.458 40.5895 31.458C40.3439 31.458 40.1529 31.6489 40.1529 31.8945V45.1269H27.3297V31.8945C27.3297 31.6489 27.1388 31.458 26.8932 31.458C26.6477 31.458 26.4567 31.6489 26.4567 31.8945V36.4235H22.0913C21.9276 35.6323 21.8458 34.8138 21.8458 33.9953C21.8458 29.1116 24.847 24.7463 29.3487 23.0001C30.0308 24.7735 31.7224 25.974 33.6322 25.974C35.542 25.974 37.3155 24.7463 37.9975 22.9728C42.4993 24.7463 45.5005 29.1116 45.5005 33.968C45.5005 34.7865 45.4186 35.605 45.2549 36.4235Z" fill="#2B292C"/>
<path d="M38.2979 35.0859C38.0523 35.0859 37.8613 35.2769 37.8613 35.5225V36.5047C37.8613 36.7502 38.0523 36.9412 38.2979 36.9412C38.5434 36.9412 38.7344 36.7502 38.7344 36.5047V35.5225C38.7344 35.2769 38.5434 35.0859 38.2979 35.0859Z" fill="#2B292C"/>
<path d="M38.2975 38.8516C38.052 38.8516 37.861 39.0425 37.861 39.2881V42.8895H36.3877C36.1422 42.8895 35.9512 43.0805 35.9512 43.326C35.9512 43.5716 36.1422 43.7626 36.3877 43.7626H38.2703C38.5158 43.7626 38.7068 43.5716 38.7068 43.326V39.2881C38.7341 39.0425 38.5431 38.8516 38.2975 38.8516Z" fill="#2B292C"/>
</g>
<defs>
<filter id="filter0_d_1500_37233" x="0" y="0" width="68" height="68" filterUnits="userSpaceOnUse" color-interpolation-filters="sRGB">
<feFlood flood-opacity="0" result="BackgroundImageFix"/>
<feColorMatrix in="SourceAlpha" type="matrix" values="0 0 0 0 0 0 0 0 0 0 0 0 0 0 0 0 0 0 127 0" result="hardAlpha"/>
<feOffset/>
<feGaussianBlur stdDeviation="5"/>
<feComposite in2="hardAlpha" operator="out"/>
<feColorMatrix type="matrix" values="0 0 0 0 0.69292 0 0 0 0 0.69292 0 0 0 0 0.69292 0 0 0 0.5 0"/>
<feBlend mode="normal" in2="BackgroundImageFix" result="effect1_dropShadow_1500_37233"/>
<feBlend mode="normal" in="SourceGraphic" in2="effect1_dropShadow_1500_37233" result="shape"/>
</filter>
</defs>
</svg>
