<svg width="68" height="68" viewBox="0 0 68 68" fill="none" xmlns="http://www.w3.org/2000/svg">
<g filter="url(#filter0_d_1500_37251)">
<rect x="10" y="10" width="48" height="48" rx="24" fill="#FFFFFC"/>
<path d="M32.3085 25.5174C32.7453 25.5174 33.0994 25.1633 33.0994 24.7265C33.0994 24.2896 32.7453 23.9355 32.3085 23.9355C31.8717 23.9355 31.5176 24.2896 31.5176 24.7265C31.5176 25.1633 31.8717 25.5174 32.3085 25.5174Z" fill="#2B292C"/>
<path d="M35.2274 25.5174C35.6642 25.5174 36.0183 25.1633 36.0183 24.7265C36.0183 24.2896 35.6642 23.9355 35.2274 23.9355C34.7906 23.9355 34.4365 24.2896 34.4365 24.7265C34.4365 25.1633 34.7906 25.5174 35.2274 25.5174Z" fill="#2B292C"/>
<path d="M43.6545 37.5182V34.1909C43.6545 34.1364 43.6545 34.1091 43.6273 34.0818C43.4364 32.2818 41.9909 30.8364 40.1636 30.7V29.6909C40.1636 29.4455 39.9727 29.2545 39.7273 29.2545H35.3636V27.8364H37.2727C37.5182 27.8364 37.7091 27.6455 37.7091 27.4V25.3545H39.7C39.9455 25.3545 40.1364 25.1636 40.1364 24.9182C40.1364 24.6727 39.9455 24.4818 39.7 24.4818H37.7091V22.4364C37.7091 22.1909 37.5182 22 37.2727 22H30.1818C29.9364 22 29.7455 22.1909 29.7455 22.4364V24.4818H27.7545C27.5091 24.4818 27.3182 24.6727 27.3182 24.9182C27.3182 25.1636 27.5091 25.3545 27.7545 25.3545H29.7455V27.4C29.7455 27.6455 29.9364 27.8364 30.1818 27.8364H32.0909V29.2545H27.7273C27.4818 29.2545 27.2909 29.4455 27.2909 29.6909V30.7C25.4909 30.8636 24.0727 32.3091 23.8818 34.0818C23.8818 34.1091 23.8545 34.1636 23.8545 34.1909V37.5455C22.7909 37.7364 22 38.6909 22 39.7818C22 40.0273 22.1909 40.2182 22.4364 40.2182C22.6818 40.2182 22.8727 40.0273 22.8727 39.7818C22.8727 38.9909 23.5273 38.3636 24.2909 38.3636C25.0818 38.3636 25.7091 39.0182 25.7091 39.7818C25.7091 40.0273 25.9 40.2182 26.1455 40.2182C26.3909 40.2182 26.5818 40.0273 26.5818 39.7818C26.5818 38.6636 25.7909 37.7364 24.7273 37.5455V34.4364C24.7273 32.9364 25.8455 31.7091 27.2909 31.5182V38.6909C27.2909 38.9364 27.4818 39.1273 27.7273 39.1273H28.9545V40.9H28.1909C27.9455 40.9 27.7545 41.0909 27.7545 41.3364V45.1273H26.2273C25.9818 45.1273 25.7909 45.3182 25.7909 45.5636C25.7909 45.8091 25.9818 46 26.2273 46H28.1909H32.7455H34.8182H39.3727H41.3364C41.5818 46 41.7727 45.8091 41.7727 45.5636C41.7727 45.3182 41.5818 45.1273 41.3364 45.1273H39.7818V41.3636C39.7818 41.1182 39.5909 40.9273 39.3455 40.9273H38.5818V39.1545H39.7273C39.9727 39.1545 40.1636 38.9636 40.1636 38.7182V31.5455C41.6364 31.7091 42.7818 32.9636 42.7818 34.4636V37.5455C41.7182 37.7364 40.9273 38.6909 40.9273 39.7818C40.9273 40.0273 41.1182 40.2182 41.3636 40.2182C41.6091 40.2182 41.8 40.0273 41.8 39.7818C41.8 38.9909 42.4545 38.3636 43.2182 38.3636C44.0091 38.3636 44.6364 39.0182 44.6364 39.7818C44.6364 40.0273 44.8273 40.2182 45.0727 40.2182C45.3182 40.2182 45.5091 40.0273 45.5091 39.7818C45.5091 38.6636 44.7182 37.7364 43.6545 37.5182ZM30.6455 26.9636V24.9727C30.6455 24.9455 30.6455 24.9455 30.6455 24.9182C30.6455 24.8909 30.6455 24.8909 30.6455 24.8636V22.8727H36.8909V26.9636H34.9818H32.5818H30.6455ZM34.5455 27.8091V29.2273H32.9909V27.8091H34.5455ZM32.3091 45.1273H28.6273V41.7727H29.3909H31.5727H32.3364L32.3091 45.1273ZM29.8 40.9273V39.1545H31.1364V40.9273H29.8ZM34.3818 41.3636V45.1545H33.1818V41.3636C33.1818 41.1182 32.9909 40.9273 32.7455 40.9273H31.9818V39.1545H35.5545V40.9273H34.7909C34.5727 40.9273 34.3818 41.1182 34.3818 41.3636ZM38.9091 41.7727V43.0273H37.0545C36.8091 43.0273 36.6182 43.2182 36.6182 43.4636C36.6182 43.7091 36.8091 43.9 37.0545 43.9H38.9091V45.1545H35.2273V41.7727H35.9909H38.1727H38.9091ZM36.4 40.9273V39.1545H37.7364V40.9273H36.4ZM39.3182 38.2818H38.1727H35.9909H31.5455H29.3636H28.2182V30.1H32.5818H34.9818H39.3455V38.2818H39.3182Z" fill="#2B292C"/>
<path d="M30.5907 32.3086C30.3452 32.3086 30.1543 32.4995 30.1543 32.745V35.2813C30.1543 35.5268 30.3452 35.7177 30.5907 35.7177C30.8361 35.7177 31.027 35.5268 31.027 35.2813V32.745C31.027 32.4995 30.8088 32.3086 30.5907 32.3086Z" fill="#2B292C"/>
<path d="M32.7176 32.3086C32.4722 32.3086 32.2812 32.4995 32.2812 32.745V35.2813C32.2812 35.5268 32.4722 35.7177 32.7176 35.7177C32.9631 35.7177 33.154 35.5268 33.154 35.2813V32.745C33.1267 32.4995 32.9358 32.3086 32.7176 32.3086Z" fill="#2B292C"/>
<path d="M34.4092 32.7176V35.254C34.4092 35.4994 34.6001 35.6903 34.8455 35.6903C35.091 35.6903 35.2819 35.4994 35.2819 35.254V32.7176C35.2819 32.4722 35.091 32.2812 34.8455 32.2812C34.6001 32.3085 34.4092 32.4994 34.4092 32.7176Z" fill="#2B292C"/>
<path d="M36.9461 35.6903C37.1916 35.6903 37.3825 35.4994 37.3825 35.254V32.7176C37.3825 32.4722 37.1916 32.2812 36.9461 32.2812C36.7007 32.2812 36.5098 32.4722 36.5098 32.7176V35.254C36.537 35.4994 36.7279 35.6903 36.9461 35.6903Z" fill="#2B292C"/>
</g>
<defs>
<filter id="filter0_d_1500_37251" x="0" y="0" width="68" height="68" filterUnits="userSpaceOnUse" color-interpolation-filters="sRGB">
<feFlood flood-opacity="0" result="BackgroundImageFix"/>
<feColorMatrix in="SourceAlpha" type="matrix" values="0 0 0 0 0 0 0 0 0 0 0 0 0 0 0 0 0 0 127 0" result="hardAlpha"/>
<feOffset/>
<feGaussianBlur stdDeviation="5"/>
<feComposite in2="hardAlpha" operator="out"/>
<feColorMatrix type="matrix" values="0 0 0 0 0.69292 0 0 0 0 0.69292 0 0 0 0 0.69292 0 0 0 0.5 0"/>
<feBlend mode="normal" in2="BackgroundImageFix" result="effect1_dropShadow_1500_37251"/>
<feBlend mode="normal" in="SourceGraphic" in2="effect1_dropShadow_1500_37251" result="shape"/>
</filter>
</defs>
</svg>
