<svg width="42" height="44" viewBox="0 0 42 44" fill="none" xmlns="http://www.w3.org/2000/svg">
<g filter="url(#filter0_d_2058_500)">
<rect x="2" y="3" width="36" height="36" rx="18" fill="white"/>
<path d="M20.7714 13.5009C21.3187 13.4988 21.866 13.5043 22.4132 13.5174L22.5587 13.5227C22.7267 13.5287 22.8924 13.5362 23.0927 13.5452C23.8907 13.5827 24.4352 13.7087 24.9129 13.8939C25.4079 14.0844 25.8249 14.3424 26.2419 14.7594C26.6232 15.1341 26.9183 15.5874 27.1067 16.0877C27.2919 16.5654 27.4179 17.1107 27.4554 17.9087C27.4644 18.1082 27.4719 18.2747 27.4779 18.4427L27.4824 18.5882C27.4958 19.1351 27.5015 19.6821 27.4997 20.2292L27.5004 20.7887V21.7712C27.5023 22.3185 27.4965 22.8658 27.4832 23.4129L27.4787 23.5584C27.4727 23.7264 27.4652 23.8922 27.4562 24.0924C27.4187 24.8904 27.2912 25.4349 27.1067 25.9127C26.9189 26.4135 26.6238 26.8671 26.2419 27.2417C25.8669 27.6229 25.4134 27.918 24.9129 28.1064C24.4352 28.2917 23.8907 28.4177 23.0927 28.4552C22.8924 28.4642 22.7267 28.4717 22.5587 28.4777L22.4132 28.4822C21.866 28.4955 21.3187 28.5013 20.7714 28.4994L20.2119 28.5002H19.2302C18.6829 28.502 18.1356 28.4963 17.5884 28.4829L17.4429 28.4784C17.2649 28.472 17.0869 28.4645 16.9089 28.4559C16.1109 28.4184 15.5664 28.2909 15.0879 28.1064C14.5874 27.9184 14.1341 27.6233 13.7597 27.2417C13.378 26.8669 13.0826 26.4133 12.8942 25.9127C12.7089 25.4349 12.5829 24.8904 12.5454 24.0924C12.5371 23.9145 12.5296 23.7365 12.5229 23.5584L12.5192 23.4129C12.5054 22.8658 12.4991 22.3185 12.5004 21.7712V20.2292C12.4983 19.6821 12.5038 19.1351 12.5169 18.5882L12.5222 18.4427C12.5282 18.2747 12.5357 18.1082 12.5447 17.9087C12.5822 17.1099 12.7082 16.5662 12.8934 16.0877C13.082 15.5871 13.3779 15.134 13.7604 14.7602C14.1346 14.3782 14.5877 14.0826 15.0879 13.8939C15.5664 13.7087 16.1102 13.5827 16.9089 13.5452L17.4429 13.5227L17.5884 13.5189C18.1353 13.5051 18.6824 13.4989 19.2294 13.5002L20.7714 13.5009ZM20.0004 17.2509C19.5036 17.2439 19.0103 17.3357 18.5492 17.521C18.0881 17.7063 17.6684 17.9813 17.3146 18.3302C16.9607 18.6791 16.6797 19.0948 16.4879 19.5532C16.2962 20.0117 16.1974 20.5036 16.1974 21.0005C16.1974 21.4975 16.2962 21.9894 16.4879 22.4479C16.6797 22.9063 16.9607 23.322 17.3146 23.6709C17.6684 24.0198 18.0881 24.2948 18.5492 24.4801C19.0103 24.6654 19.5036 24.7572 20.0004 24.7502C20.995 24.7502 21.9488 24.3551 22.6521 23.6518C23.3553 22.9486 23.7504 21.9947 23.7504 21.0002C23.7504 20.0056 23.3553 19.0518 22.6521 18.3485C21.9488 17.6453 20.995 17.2509 20.0004 17.2509ZM20.0004 18.7509C20.2993 18.7454 20.5963 18.7995 20.874 18.9101C21.1518 19.0206 21.4047 19.1854 21.618 19.3948C21.8313 19.6042 22.0008 19.854 22.1165 20.1297C22.2322 20.4053 22.2918 20.7012 22.2919 21.0002C22.2919 21.2991 22.2324 21.595 22.1168 21.8707C22.0012 22.1464 21.8318 22.3963 21.6186 22.6057C21.4053 22.8152 21.1524 22.9801 20.8747 23.0907C20.597 23.2014 20.3001 23.2556 20.0012 23.2502C19.4044 23.2502 18.8321 23.0131 18.4102 22.5912C17.9882 22.1692 17.7512 21.5969 17.7512 21.0002C17.7512 20.4034 17.9882 19.8311 18.4102 19.4092C18.8321 18.9872 19.4044 18.7502 20.0012 18.7502L20.0004 18.7509ZM23.9379 16.1259C23.696 16.1356 23.4672 16.2385 23.2994 16.4132C23.1316 16.5878 23.0379 16.8205 23.0379 17.0627C23.0379 17.3048 23.1316 17.5376 23.2994 17.7122C23.4672 17.8868 23.696 17.9897 23.9379 17.9994C24.1866 17.9994 24.425 17.9007 24.6008 17.7248C24.7767 17.549 24.8754 17.3106 24.8754 17.0619C24.8754 16.8133 24.7767 16.5748 24.6008 16.399C24.425 16.2232 24.1866 16.1244 23.9379 16.1244V16.1259Z" fill="black"/>
</g>
<defs>
<filter id="filter0_d_2058_500" x="-2" y="0" width="44" height="44" filterUnits="userSpaceOnUse" color-interpolation-filters="sRGB">
<feFlood flood-opacity="0" result="BackgroundImageFix"/>
<feColorMatrix in="SourceAlpha" type="matrix" values="0 0 0 0 0 0 0 0 0 0 0 0 0 0 0 0 0 0 127 0" result="hardAlpha"/>
<feOffset dy="1"/>
<feGaussianBlur stdDeviation="2"/>
<feComposite in2="hardAlpha" operator="out"/>
<feColorMatrix type="matrix" values="0 0 0 0 0.894118 0 0 0 0 0.858824 0 0 0 0 0 0 0 0 0.6 0"/>
<feBlend mode="normal" in2="BackgroundImageFix" result="effect1_dropShadow_2058_500"/>
<feBlend mode="normal" in="SourceGraphic" in2="effect1_dropShadow_2058_500" result="shape"/>
</filter>
</defs>
</svg>
