<svg width="44" height="44" viewBox="0 0 44 44" fill="none" xmlns="http://www.w3.org/2000/svg">
<g filter="url(#filter0_d_2058_504)">
<rect x="4" y="3" width="36" height="36" rx="18" fill="white"/>
<path d="M29.5 21C29.5 22.9891 28.7098 24.8968 27.3033 26.3033C25.8968 27.7098 23.9891 28.5 22 28.5C20.0109 28.5 18.1032 27.7098 16.6967 26.3033C15.2902 24.8968 14.5 22.9891 14.5 21C14.5 19.0109 15.2902 17.1032 16.6967 15.6967C18.1032 14.2902 20.0109 13.5 22 13.5C23.9891 13.5 25.8968 14.2902 27.3033 15.6967C28.7098 17.1032 29.5 19.0109 29.5 21ZM22.2691 19.0369C21.5397 19.3406 20.0809 19.9687 17.8947 20.9212C17.5403 21.0619 17.3537 21.2006 17.3369 21.3356C17.3087 21.5634 17.5947 21.6534 17.9837 21.7762L18.1478 21.8278C18.5303 21.9525 19.0459 22.0978 19.3131 22.1034C19.5569 22.1091 19.8278 22.0097 20.1269 21.8034C22.1697 20.4244 23.2244 19.7278 23.29 19.7128C23.3369 19.7016 23.4025 19.6884 23.4456 19.7278C23.4897 19.7662 23.485 19.8403 23.4803 19.86C23.4522 19.9809 22.33 21.0234 21.7497 21.5634C21.5687 21.7322 21.4403 21.8512 21.4141 21.8784C21.3563 21.9375 21.2975 21.9956 21.2378 22.0528C20.8816 22.3959 20.6153 22.6528 21.2519 23.0728C21.5584 23.2753 21.8041 23.4412 22.0487 23.6081C22.315 23.79 22.5812 23.9709 22.9262 24.1978C23.0134 24.2541 23.0978 24.315 23.1794 24.3731C23.4897 24.5944 23.77 24.7931 24.1141 24.7612C24.3147 24.7425 24.5219 24.555 24.6269 23.9925C24.8753 22.6641 25.3637 19.7869 25.4762 18.6009C25.4831 18.5024 25.479 18.4033 25.4641 18.3056C25.4552 18.2268 25.4171 18.1542 25.3572 18.1022C25.2719 18.0433 25.1702 18.0128 25.0666 18.015C24.7853 18.0197 24.3512 18.1706 22.2691 19.0369Z" fill="black"/>
</g>
<defs>
<filter id="filter0_d_2058_504" x="0" y="0" width="44" height="44" filterUnits="userSpaceOnUse" color-interpolation-filters="sRGB">
<feFlood flood-opacity="0" result="BackgroundImageFix"/>
<feColorMatrix in="SourceAlpha" type="matrix" values="0 0 0 0 0 0 0 0 0 0 0 0 0 0 0 0 0 0 127 0" result="hardAlpha"/>
<feOffset dy="1"/>
<feGaussianBlur stdDeviation="2"/>
<feComposite in2="hardAlpha" operator="out"/>
<feColorMatrix type="matrix" values="0 0 0 0 0.894118 0 0 0 0 0.858824 0 0 0 0 0 0 0 0 0.6 0"/>
<feBlend mode="normal" in2="BackgroundImageFix" result="effect1_dropShadow_2058_504"/>
<feBlend mode="normal" in="SourceGraphic" in2="effect1_dropShadow_2058_504" result="shape"/>
</filter>
</defs>
</svg>
