<svg width="44" height="44" viewBox="0 0 44 44" fill="none" xmlns="http://www.w3.org/2000/svg">
<g filter="url(#filter0_d_2058_502)">
<rect x="4" y="3" width="36" height="36" rx="18" fill="white"/>
<path d="M28.8782 16.4687C26.6344 12.9999 22.0533 11.9686 18.5006 14.1249C15.0413 16.2812 13.9194 20.9687 16.1632 24.4375L16.3502 24.7187L15.6023 27.5312L18.4071 26.7812L18.6875 26.9687C19.9029 27.625 21.2118 28 22.5207 28C23.9231 28 25.3255 27.625 26.5409 26.875C30.0001 24.625 31.0285 20.0312 28.8782 16.4687ZM26.9149 23.6875C26.5409 24.25 26.0734 24.625 25.419 24.7187C25.045 24.7187 24.5776 24.9062 22.7077 24.1562C21.1183 23.4062 19.8094 22.1875 18.8745 20.7812C18.3136 20.1249 18.0331 19.2812 17.9396 18.4374C17.9396 17.6874 18.2201 17.0312 18.6875 16.5624C18.8745 16.3749 19.0615 16.2812 19.2485 16.2812H19.716C19.9029 16.2812 20.0899 16.2812 20.1834 16.6562C20.3704 17.1249 20.8379 18.2499 20.8379 18.3437C20.9314 18.4374 20.9314 18.6249 20.8379 18.7187C20.9314 18.9062 20.8379 19.0937 20.7444 19.1874C20.6509 19.2812 20.5574 19.4687 20.4639 19.5624C20.2769 19.6562 20.1834 19.8437 20.2769 20.0312C20.6509 20.5937 21.1183 21.1562 21.5858 21.625C22.1468 22.0937 22.7077 22.4687 23.3622 22.75C23.5491 22.8437 23.7361 22.8437 23.8296 22.6562C23.9231 22.4687 24.3906 22 24.5776 21.8125C24.7645 21.625 24.858 21.625 25.045 21.7187L26.5409 22.4687C26.7279 22.5625 26.9149 22.6562 27.0084 22.75C27.1019 23.0312 27.1019 23.4062 26.9149 23.6875Z" fill="black"/>
</g>
<defs>
<filter id="filter0_d_2058_502" x="0" y="0" width="44" height="44" filterUnits="userSpaceOnUse" color-interpolation-filters="sRGB">
<feFlood flood-opacity="0" result="BackgroundImageFix"/>
<feColorMatrix in="SourceAlpha" type="matrix" values="0 0 0 0 0 0 0 0 0 0 0 0 0 0 0 0 0 0 127 0" result="hardAlpha"/>
<feOffset dy="1"/>
<feGaussianBlur stdDeviation="2"/>
<feComposite in2="hardAlpha" operator="out"/>
<feColorMatrix type="matrix" values="0 0 0 0 0.894118 0 0 0 0 0.858824 0 0 0 0 0 0 0 0 0.6 0"/>
<feBlend mode="normal" in2="BackgroundImageFix" result="effect1_dropShadow_2058_502"/>
<feBlend mode="normal" in="SourceGraphic" in2="effect1_dropShadow_2058_502" result="shape"/>
</filter>
</defs>
</svg>
