<svg width="44" height="44" viewBox="0 0 44 44" fill="none" xmlns="http://www.w3.org/2000/svg">
<g filter="url(#filter0_d_2058_506)">
<rect x="4" y="3" width="36" height="36" rx="18" fill="white"/>
<path d="M29.1842 17.1416C29.2893 16.7929 29.1842 16.5371 28.6877 16.5371H27.043C26.6245 16.5371 26.4332 16.7584 26.3282 17.0014C26.3282 17.0014 25.492 19.0406 24.307 20.3629C23.9245 20.7476 23.7498 20.8691 23.5413 20.8691C23.437 20.8691 23.2855 20.7476 23.2855 20.3989V17.1416C23.2855 16.7231 23.1648 16.5371 22.816 16.5371H20.2315C19.9705 16.5371 19.813 16.7306 19.813 16.9151C19.813 17.3111 20.4055 17.4026 20.4662 18.5186V20.9396C20.4662 21.4699 20.371 21.5666 20.161 21.5666C19.6038 21.5666 18.2477 19.5199 17.443 17.1769C17.2862 16.7216 17.128 16.5379 16.708 16.5379H15.064C14.5938 16.5379 14.5 16.7591 14.5 17.0021C14.5 17.4386 15.0573 19.5986 17.0957 22.4554C18.4548 24.4061 20.368 25.4636 22.111 25.4636C23.1558 25.4636 23.2847 25.2289 23.2847 24.8239V23.3494C23.2847 22.8799 23.3845 22.7854 23.7153 22.7854C23.9583 22.7854 24.3767 22.9084 25.3525 23.8481C26.467 24.9626 26.6515 25.4629 27.2778 25.4629H28.9218C29.3912 25.4629 29.626 25.2281 29.491 24.7646C29.3433 24.3034 28.8108 23.6321 28.1042 22.8379C27.7203 22.3849 27.1465 21.8974 26.9718 21.6536C26.728 21.3394 26.7985 21.2006 26.9718 20.9216C26.9725 20.9224 28.9757 18.1009 29.1842 17.1416Z" fill="black"/>
</g>
<defs>
<filter id="filter0_d_2058_506" x="0" y="0" width="44" height="44" filterUnits="userSpaceOnUse" color-interpolation-filters="sRGB">
<feFlood flood-opacity="0" result="BackgroundImageFix"/>
<feColorMatrix in="SourceAlpha" type="matrix" values="0 0 0 0 0 0 0 0 0 0 0 0 0 0 0 0 0 0 127 0" result="hardAlpha"/>
<feOffset dy="1"/>
<feGaussianBlur stdDeviation="2"/>
<feComposite in2="hardAlpha" operator="out"/>
<feColorMatrix type="matrix" values="0 0 0 0 0.894118 0 0 0 0 0.858824 0 0 0 0 0 0 0 0 0.6 0"/>
<feBlend mode="normal" in2="BackgroundImageFix" result="effect1_dropShadow_2058_506"/>
<feBlend mode="normal" in="SourceGraphic" in2="effect1_dropShadow_2058_506" result="shape"/>
</filter>
</defs>
</svg>
