<svg width="16" height="13" viewBox="0 0 16 13" fill="none" xmlns="http://www.w3.org/2000/svg">
<g clip-path="url(#clip0_2001_11923)">
<path fill-rule="evenodd" clip-rule="evenodd" d="M15.2957 0.704347C15.3604 0.768958 15.4118 0.845714 15.4469 0.930218C15.4819 1.01472 15.5 1.10531 15.5 1.1968C15.5 1.28829 15.4819 1.37889 15.4469 1.46339C15.4118 1.54789 15.3604 1.62465 15.2957 1.68926L5.55781 11.4271C5.4932 11.4919 5.41645 11.5433 5.33194 11.5783C5.24744 11.6134 5.15685 11.6314 5.06536 11.6314C4.97387 11.6314 4.88328 11.6134 4.79877 11.5783C4.71427 11.5433 4.63751 11.4919 4.5729 11.4271L-0.296018 6.55818C-0.426626 6.42757 -0.5 6.25043 -0.5 6.06572C-0.5 5.88102 -0.426626 5.70387 -0.296018 5.57327C-0.16541 5.44266 0.0117315 5.36928 0.196438 5.36928C0.381145 5.36928 0.558288 5.44266 0.688895 5.57327L5.06536 9.95112L14.3107 0.704347C14.3754 0.639572 14.4521 0.58818 14.5366 0.553115C14.6211 0.51805 14.7117 0.5 14.8032 0.5C14.8947 0.5 14.9853 0.51805 15.0698 0.553115C15.1543 0.58818 15.231 0.639572 15.2957 0.704347Z" fill="#C1BA01"/>
</g>
<defs>
<clipPath id="clip0_2001_11923">
<rect width="16" height="12" fill="white" transform="translate(0 0.5)"/>
</clipPath>
</defs>
</svg>
