<svg width="104" height="34" viewBox="0 0 104 34" fill="none" xmlns="http://www.w3.org/2000/svg">
<g clip-path="url(#clip0_1160_10873)">
<path d="M23.7553 31.9239L29.9193 32.0516C27.7949 31.3173 25.7349 30.4234 23.7553 29.3699V31.9239ZM33.0414 31.0779V31.9239L29.9193 32.0516C35.7935 34.0469 41.1688 34.3183 45.16 33.2009C41.9574 33.2328 37.7891 32.7859 33.0414 31.0779ZM98.8488 12.6892C101.408 12.6892 103.5 10.63 103.5 8.07603C103.5 5.52203 101.424 4.16523 98.8488 4.16523C96.2899 4.16523 94.1977 5.538 94.1977 8.07603C94.1977 10.6141 96.2738 12.6892 98.8488 12.6892ZM94.1816 31.9239H103.5V14.2854H94.1816V31.9239ZM82.3205 31.9239H91.6388V0.749262L82.3205 5.10701V31.9239ZM77.3314 12.8648C74.4024 9.95959 69.2202 10.1352 69.2202 10.1352C69.2202 10.1352 64.0219 9.95959 61.1089 12.8648C58.1799 15.7699 58.4052 18.276 58.4052 21.261C58.4052 24.246 58.1799 26.7361 61.1089 29.6413C64.038 32.5464 69.2202 32.3709 69.2202 32.3709C69.2202 32.3709 74.4185 32.5464 77.3314 29.6413C80.2605 26.7361 80.0352 24.246 80.0352 21.261C80.0191 18.2601 80.2444 15.754 77.3314 12.8648ZM70.9261 24.3418C70.9261 24.9164 70.6364 26.3371 69.2041 26.3371C67.7718 26.3371 67.4821 24.9164 67.4821 24.3418V17.8929C67.4821 16.5042 68.6569 16.153 69.2041 16.153C69.7513 16.153 70.9261 16.4882 70.9261 17.8929V24.3418ZM53.8346 12.8648C50.9055 9.95959 45.7233 10.1352 45.7233 10.1352C45.7233 10.1352 40.5411 9.95959 37.6121 12.8648C37.3063 13.168 37.0166 13.4873 36.7591 13.8225C30.6113 9.09762 25.0911 6.39997 20.3274 4.06945V0.765225L16.7063 2.45724C7.95129 -1.07046 2.38285 -0.447921 1.04707 2.47321C1.04707 2.47321 -2.96027 7.70889 10.993 20.1596V31.9239H20.3113V27.3587C19.2652 26.6882 18.2191 25.9699 17.1891 25.1878C14.8072 23.4 12.7794 21.7399 11.0091 20.1756V15.2272C13.1174 17.5737 15.9177 20.2394 19.6032 23.2563L20.3274 23.831V19.0741C20.3274 17.9727 20.601 16.169 22.0655 16.169C23.53 16.169 23.7714 17.2704 23.7714 18.5633V26.3371C26.6683 28.2845 29.7744 29.8648 33.0575 31.0619V16.0732C33.0575 13.0882 30.901 10.1033 26.5235 10.1033C23.9807 10.0873 21.6149 11.4122 20.3274 13.599V4.93142C27.0707 8.26757 33.83 12.354 36.405 14.2375C34.7635 16.568 34.9083 18.723 34.9083 21.2131C34.9083 24.1981 34.683 26.6882 37.6121 29.5934C40.5411 32.4986 45.7233 32.323 45.7233 32.323C45.7233 32.323 50.9216 32.4986 53.8346 29.5934C56.7636 26.6882 56.5222 24.1981 56.5222 21.2131C56.5222 18.2601 56.7636 15.754 53.8346 12.8648ZM10.993 5.10701V15.2112C3.15535 6.51171 4.73254 3.07978 5.32801 2.58494C7.50066 0.765224 11.3632 1.30795 15.6924 2.92016L10.993 5.10701ZM47.4453 24.3418C47.4453 24.9164 47.1557 26.3371 45.7233 26.3371C44.291 26.3371 44.0013 24.9164 44.0013 24.3418V17.8929C44.0013 16.5042 45.1761 16.153 45.7233 16.153C46.2705 16.153 47.4453 16.4882 47.4453 17.8929V24.3418Z" fill="#737373"/>
</g>
<defs>
<clipPath id="clip0_1160_10873">
<rect width="103" height="34" fill="white" transform="translate(0.5)"/>
</clipPath>
</defs>
</svg>
