<svg width="104" height="62" viewBox="0 0 104 62" fill="none" xmlns="http://www.w3.org/2000/svg">
<g clip-path="url(#clip0_1160_10885)">
<path d="M29.3858 22.4882C29.2691 26.1263 31.1029 27.7373 31.1483 28.7605C31.1267 28.9687 31.0551 29.1688 30.9396 29.344C30.824 29.5192 30.6678 29.6645 30.4841 29.7676L28.4106 31.2068C28.1422 31.3933 27.8259 31.5002 27.4986 31.5152C27.4289 31.5119 26.1718 31.8091 24.1809 27.4016C22.9663 28.905 21.4208 30.1128 19.6628 30.9327C17.9048 31.7526 15.981 32.1628 14.0385 32.1319C11.4012 32.2749 4.25407 30.6478 4.62179 23.1034C4.36422 16.9548 10.1393 13.1352 16.112 13.4581C17.2622 13.4613 19.6111 13.5175 23.7241 14.4652V11.9562C24.1599 7.70619 21.3428 4.40862 16.4652 4.90334C16.0764 4.90494 13.3225 4.82303 9.03936 6.52723C7.84709 7.07013 7.69481 6.98018 7.29793 6.98018C6.09756 6.98018 6.59164 3.53002 6.82167 3.09313C7.66565 2.06515 12.6308 0.145723 17.5035 0.173028C20.7616 -0.112674 24.0023 0.884341 26.525 2.94857C27.5504 4.08591 28.3328 5.41753 28.8248 6.86301C29.3167 8.3085 29.5081 9.83785 29.3874 11.3587L29.3858 22.4882ZM15.3863 27.6907C20.6397 27.6153 22.8639 24.4831 23.371 22.7966C23.7695 21.1824 23.703 20.1608 23.703 18.3956C22.1366 18.0229 19.8816 17.6166 17.2946 17.6133C14.8404 17.4302 10.358 18.5176 10.5329 22.795C10.3321 25.4918 12.3343 27.8385 15.3863 27.6907ZM43.0742 31.3931C41.801 31.5087 41.2081 30.6125 41.0202 29.7274L32.9529 3.28106C32.7957 2.83453 32.6921 2.37355 32.6419 1.90292C32.6121 1.7089 32.6612 1.51109 32.7785 1.35298C32.8957 1.19486 33.0715 1.08936 33.2671 1.05966C33.306 1.05323 32.9221 1.05966 36.8715 1.05966C38.2938 0.918313 38.7571 2.02821 38.9045 2.72531L44.6909 25.3457L50.0627 2.72531C50.1485 2.20811 50.5389 0.947225 52.1362 1.08054H54.916C55.2675 1.05163 56.7157 1.00023 56.9701 2.74619L62.3839 25.6557L68.3566 2.74619C68.4344 2.39603 68.7972 0.91992 70.4107 1.08054H73.6052C73.7429 1.05966 74.6015 0.950437 74.4557 2.45868C74.386 2.75583 75.0081 0.746449 65.9105 29.7483C65.7242 30.6333 65.1297 31.5296 63.8564 31.414H60.8288C59.0566 31.5987 58.8022 29.8624 58.7747 29.6873L53.403 7.66121L48.0928 29.6648C48.0669 29.8399 47.8126 31.5762 46.0387 31.3915H43.0742V31.3931ZM87.3763 32.2974C86.4238 32.299 81.8815 32.2492 78.0843 30.3233C77.7061 30.1645 77.3839 29.898 77.1587 29.5574C76.9334 29.2168 76.8153 28.8176 76.8192 28.4103V26.6837C76.8192 25.3264 77.8235 25.5754 78.2496 25.7376C79.876 26.3897 80.9192 26.8844 82.9166 27.2796C88.8537 28.489 91.465 26.9101 92.1049 26.56C94.2351 25.3055 94.4036 22.4352 92.9554 20.9462C91.2577 19.5344 90.4477 19.4814 84.3486 17.5732C83.597 17.366 77.2695 15.3871 77.2549 9.16303C77.1561 4.62707 81.3129 0.139297 88.5167 0.17624C90.5692 0.174634 96.0381 0.839608 97.5187 2.68515C97.7374 3.02085 97.846 3.41598 97.8298 3.81593V5.43982C97.8298 6.15298 97.5673 6.50956 97.0408 6.50956C95.7919 6.37142 93.5758 4.71541 89.0772 4.78287C87.9611 4.72505 82.6153 4.92904 82.8551 8.7936C82.7854 11.839 87.1657 12.981 87.6663 13.1127C93.5726 14.8747 95.5473 15.1671 97.8913 17.8639C100.668 21.4377 99.1711 25.6219 98.596 26.7688C95.5051 32.7905 87.5124 32.3006 87.3763 32.2974ZM93.8885 49.1402C82.544 57.4475 66.0757 61.8695 52.0147 61.8695C33.0421 61.9935 14.7088 55.0763 0.618926 42.4776C-0.438893 41.5315 0.494191 40.2353 1.78042 40.9565C17.4103 49.8215 35.1066 54.4794 53.113 54.468C66.5597 54.3965 79.8596 51.6918 92.2491 46.5092C94.1574 45.7061 95.7757 47.762 93.8885 49.1402ZM98.6171 43.7931C97.1656 41.9427 89.0141 42.9289 85.3643 43.361C84.2644 43.4847 84.0781 42.5386 85.0744 41.8399C91.5655 37.3152 102.226 38.6114 103.451 40.1325C104.674 41.6536 103.119 52.245 97.0425 57.3046C96.1094 58.0868 95.2168 57.674 95.6315 56.646C96.9987 53.2328 100.069 45.6451 98.6171 43.7931Z" fill="#737373"/>
</g>
<defs>
<clipPath id="clip0_1160_10885">
<rect width="104" height="62" fill="white"/>
</clipPath>
</defs>
</svg>
