<svg width="104" height="42" viewBox="0 0 104 42" fill="none" xmlns="http://www.w3.org/2000/svg">
<g clip-path="url(#clip0_1160_10882)">
<path d="M27.0542 3.29318L20.0856 4.75682L20.0534 27.4114C20.0534 31.5955 23.24 34.3 27.4727 34.3C29.8223 34.3 31.5444 33.8705 32.4939 33.3614V27.9841C31.5766 28.35 27.0703 29.6546 27.0703 25.4864V15.4318H32.4939V9.41818H27.0703L27.0542 3.29318ZM41.3938 11.5023L40.9592 9.41818H34.7792V33.7909H41.9088V17.3886C43.5986 15.1932 46.4472 15.6227 47.3645 15.9091V9.41818C46.3989 9.08409 43.0675 8.46364 41.3938 11.5023ZM56.2483 0L49.0705 1.51136V7.27045L56.2483 5.75909V0ZM7.72563 16.5932C7.72563 15.4955 8.65906 15.0659 10.1558 15.05C12.3284 15.05 15.0966 15.7023 17.2692 16.8636V10.2136C14.9034 9.29091 12.5377 8.925 10.1719 8.925C4.37813 8.925 0.515625 11.9159 0.515625 16.9114C0.515625 24.7386 11.3789 23.4659 11.3789 26.8386C11.3789 28.1432 10.2363 28.5727 8.64297 28.5727C6.27719 28.5727 3.21938 27.6023 0.821406 26.3136V32.6773C3.47688 33.8068 6.16453 34.2841 8.62688 34.2841C14.5655 34.2841 18.6533 31.7705 18.6533 26.6796C18.6533 18.2636 7.72563 19.775 7.72563 16.5932ZM103.5 21.8909C103.5 14.6523 99.9589 8.94091 93.1674 8.94091C86.3758 8.94091 82.2397 14.6523 82.2397 21.8432C82.2397 30.3545 87.1161 34.2841 94.0686 34.2841C97.4805 34.2841 100.039 33.5205 101.987 32.4545V27.1409C100.039 28.1114 97.8024 28.7 94.9699 28.7C92.1856 28.7 89.7394 27.7295 89.4175 24.4205H103.403C103.435 24.0545 103.5 22.575 103.5 21.8909ZM89.3531 19.2182C89.3531 16.0364 91.3327 14.7 93.1191 14.7C94.8733 14.7 96.7402 16.0364 96.7402 19.2182H89.3531ZM71.1833 8.94091C68.383 8.94091 66.5805 10.2455 65.5827 11.1523L65.2125 9.40227H58.9198V41.9841L66.0655 40.4886L66.0816 32.5023C67.1116 33.25 68.6405 34.2841 71.135 34.2841C76.2528 34.2841 80.92 30.5932 80.92 21.6205C80.9361 13.4114 76.2045 8.94091 71.1833 8.94091ZM69.4773 28.4296C67.8036 28.4296 66.8058 27.825 66.1138 27.0932L66.0655 16.5932C66.8058 15.7818 67.8358 15.1932 69.4773 15.1932C72.0845 15.1932 73.887 18.0886 73.887 21.7795C73.9031 25.5818 72.1328 28.4296 69.4773 28.4296ZM49.0866 33.7909H56.2644V9.41818H49.0866V33.7909Z" fill="#737373"/>
</g>
<defs>
<clipPath id="clip0_1160_10882">
<rect width="103" height="42" fill="white" transform="translate(0.5)"/>
</clipPath>
</defs>
</svg>
