<svg width="102" height="75" viewBox="0 0 102 75" fill="none" xmlns="http://www.w3.org/2000/svg">
<g clip-path="url(#clip0_1160_10879)">
<path d="M102 0.146484C89.1225 8.82899 87.7519 15.1303 86.6362 17.0579C85.5684 19.0342 84.7716 26.8258 82.9228 30.6C81.0581 34.4229 74.2847 37.4359 72.3881 38.6994C70.5234 39.9629 67.8778 44.8711 65.7103 49.099C48.4819 48.3862 39.0309 55.3841 24.4003 64.261C29.0859 62.6897 31.3012 61.5558 31.3012 61.5558C46.3144 55.7242 53.5022 50.4921 76.1016 53.586C76.2769 53.586 76.4044 53.6832 76.5478 53.7156C77.1694 54.072 77.3925 54.8333 77.0419 55.4651L68.4516 70.9834C68.0531 71.7448 67.2084 72.1497 66.3637 71.9715C46.155 68.1162 30.2016 74.7739 15.5391 74.9845C3.84094 75.1627 0 69.5579 0 69.2988C0 69.1206 0.095625 69.0234 0.270938 69.0234C0.270938 69.0234 6.375 69.0234 16.7025 66.545C28.4325 43.8182 38.8875 35.8646 50.2669 35.8646C50.2669 35.8646 61.6941 35.8646 64.7062 45.8916C68.34 39.4607 69.2166 37.9219 69.2166 37.9219C70.0612 36.3992 74.7947 25.4165 82.9866 15.0169C91.1944 4.64972 97.3941 2.07413 102 0.146484Z" fill="#737373"/>
</g>
<defs>
<clipPath id="clip0_1160_10879">
<rect width="102" height="75" fill="white"/>
</clipPath>
</defs>
</svg>
