<svg width="76" height="72" viewBox="0 0 76 72" fill="none" xmlns="http://www.w3.org/2000/svg">
<g clip-path="url(#clip0_1160_10888)">
<path d="M67.4269 27.6617C65.032 27.6617 62.9244 28.6559 61.3757 30.2113C55.6757 26.2505 47.9958 23.7009 39.4858 23.4283L43.9085 3.4158L57.9908 6.59085C57.9908 10.0546 60.8009 12.8768 64.2496 12.8768C67.7622 12.8768 70.5883 9.97437 70.5883 6.51068C70.5883 3.04698 67.7782 0.144531 64.2496 0.144531C61.7908 0.144531 59.6673 1.63585 58.6135 3.67237L43.0622 0.208674C42.2799 0.000210509 41.5135 0.561458 41.3059 1.3472L36.4522 23.4122C28.0059 23.765 20.4059 26.3147 14.69 30.2755C13.1412 28.6559 10.9538 27.6617 8.55888 27.6617C-0.318433 27.6617 -3.22432 39.6243 4.90258 43.7133C4.61518 44.9802 4.48745 46.3271 4.48745 47.6741C4.48745 61.112 19.5597 72.0002 38.0648 72.0002C56.6496 72.0002 71.7219 61.112 71.7219 47.6741C71.7219 46.3271 71.5782 44.916 71.2269 43.6492C79.1942 39.5441 76.2563 27.6617 67.4269 27.6617ZM17.7874 44.5632C17.7874 41.0354 20.5975 38.1971 24.1261 38.1971C27.5748 38.1971 30.3849 41.0194 30.3849 44.5632C30.3849 48.0269 27.5748 50.8492 24.1261 50.8492C20.6135 50.8652 17.7874 48.0269 17.7874 44.5632ZM52.0034 59.5565C46.1916 65.3935 29.7942 65.3935 23.9824 59.5565C23.3438 58.9953 23.3438 58.0011 23.9824 57.3597C24.5412 56.7984 25.5311 56.7984 26.09 57.3597C30.5286 61.9298 45.2496 62.01 49.8799 57.3597C50.4387 56.7984 51.4286 56.7984 51.9874 57.3597C52.6421 58.0011 52.6421 58.9953 52.0034 59.5565ZM51.8757 50.8652C48.4269 50.8652 45.6169 48.043 45.6169 44.5793C45.6169 41.0514 48.4269 38.2131 51.8757 38.2131C55.3883 38.2131 58.2143 41.0354 58.2143 44.5793C58.1984 48.0269 55.3883 50.8652 51.8757 50.8652Z" fill="#737373"/>
</g>
<defs>
<clipPath id="clip0_1160_10888">
<rect width="76" height="72" fill="white"/>
</clipPath>
</defs>
</svg>
