<svg width="48" height="48" viewBox="0 0 48 48" fill="none" xmlns="http://www.w3.org/2000/svg">
<path d="M8.5711 38.123H4.28538C3.33861 38.123 2.5711 38.8906 2.5711 39.8373V44.963C2.5711 45.9098 3.33861 46.6773 4.28538 46.6773H8.5711C9.51787 46.6773 10.2854 45.9098 10.2854 44.963V39.8373C10.2854 38.8906 9.51787 38.123 8.5711 38.123Z" fill="#A0A0A0"/>
<path d="M19.714 31.2656H15.4282C14.4815 31.2656 13.714 32.0331 13.714 32.9799V44.9628C13.714 45.9095 14.4815 46.6771 15.4282 46.6771H19.714C20.6607 46.6771 21.4282 45.9095 21.4282 44.9628V32.9799C21.4282 32.0331 20.6607 31.2656 19.714 31.2656Z" fill="#A0A0A0"/>
<path d="M30.8568 24.4082H26.5711C25.6243 24.4082 24.8568 25.1757 24.8568 26.1225V44.9625C24.8568 45.9093 25.6243 46.6768 26.5711 46.6768H30.8568C31.8036 46.6768 32.5711 45.9093 32.5711 44.9625V26.1225C32.5711 25.1757 31.8036 24.4082 30.8568 24.4082Z" fill="#A0A0A0"/>
<path d="M41.9997 19.2656H37.7139C36.7672 19.2656 35.9997 20.0331 35.9997 20.9799V44.9628C35.9997 45.9095 36.7672 46.6771 37.7139 46.6771H41.9997C42.9464 46.6771 43.7139 45.9095 43.7139 44.9628V20.9799C43.7139 20.0331 42.9464 19.2656 41.9997 19.2656Z" fill="#04B200"/>
<path d="M42.9167 1.4279L38.439 0.0993251C37.8493 -0.0789606 37.227 -0.0155322 36.6836 0.275896C36.135 0.569039 35.7356 1.05933 35.559 1.6559C35.2727 2.62104 35.6533 3.61875 36.4247 4.17932L2.92589 22.3319C2.38246 22.625 1.98646 23.1136 1.8116 23.705C1.63503 24.2982 1.70017 24.9222 1.99503 25.4639C2.3996 26.2113 3.1796 26.6742 4.02989 26.6742C4.41046 26.6742 4.79103 26.5765 5.13046 26.3948L38.6396 8.23361C38.655 8.57818 38.727 8.91761 38.8967 9.22961C39.2156 9.8159 39.7865 10.2462 40.4379 10.3868C41.6019 10.637 42.8036 9.92561 43.143 8.78732L44.475 4.30447C44.6825 3.68732 44.5556 3.00847 44.2145 2.45647C43.9179 1.97475 43.4585 1.59075 42.9167 1.4279Z" fill="#A0A0A0"/>
</svg>
