<svg width="48" height="48" viewBox="0 0 48 48" fill="none" xmlns="http://www.w3.org/2000/svg">
<path d="M8.57111 38.125H4.28539C3.33862 38.125 2.57111 38.8925 2.57111 39.8393V44.965C2.57111 45.9118 3.33862 46.6793 4.28539 46.6793H8.57111C9.51788 46.6793 10.2854 45.9118 10.2854 44.965V39.8393C10.2854 38.8925 9.51788 38.125 8.57111 38.125Z" fill="#A0A0A0"/>
<path d="M19.714 31.2676H15.4283C14.4815 31.2676 13.714 32.0351 13.714 32.9819V44.9647C13.714 45.9115 14.4815 46.679 15.4283 46.679H19.714C20.6608 46.679 21.4283 45.9115 21.4283 44.9647V32.9819C21.4283 32.0351 20.6608 31.2676 19.714 31.2676Z" fill="#04B200"/>
<path d="M30.8568 24.4102H26.5711C25.6243 24.4102 24.8568 25.1777 24.8568 26.1244V44.9644C24.8568 45.9112 25.6243 46.6787 26.5711 46.6787H30.8568C31.8036 46.6787 32.5711 45.9112 32.5711 44.9644V26.1244C32.5711 25.1777 31.8036 24.4102 30.8568 24.4102Z" fill="#A0A0A0"/>
<path d="M41.9997 19.2676H37.714C36.7672 19.2676 35.9997 20.0351 35.9997 20.9819V44.9647C35.9997 45.9115 36.7672 46.679 37.714 46.679H41.9997C42.9465 46.679 43.714 45.9115 43.714 44.9647V20.9819C43.714 20.0351 42.9465 19.2676 41.9997 19.2676Z" fill="#A0A0A0"/>
<path d="M42.9168 1.42985L38.4391 0.101278C37.8493 -0.0770075 37.2271 -0.013579 36.6836 0.27785C36.1351 0.570992 35.7356 1.06128 35.5591 1.65785C35.2728 2.62299 35.6533 3.62071 36.4248 4.18128L2.92591 22.3338C2.38248 22.627 1.98648 23.1156 1.81163 23.707C1.63505 24.3001 1.7002 24.9241 1.99505 25.4658C2.39963 26.2133 3.17963 26.6761 4.02991 26.6761C4.41048 26.6761 4.79105 26.5784 5.13048 26.3967L38.6396 8.23556C38.6551 8.58014 38.7271 8.91956 38.8968 9.23156C39.2156 9.81785 39.7865 10.2481 40.4379 10.3887C41.6019 10.639 42.8036 9.92756 43.1431 8.78928L44.4751 4.30642C44.6825 3.68928 44.5556 3.01042 44.2145 2.45842C43.9179 1.97671 43.4585 1.59271 42.9168 1.42985Z" fill="#A0A0A0"/>
</svg>
