<svg width="44" height="47" viewBox="0 0 44 47" fill="none" xmlns="http://www.w3.org/2000/svg">
<path d="M7.57031 38.125H3.2846C2.33782 38.125 1.57031 38.8925 1.57031 39.8393V44.965C1.57031 45.9118 2.33782 46.6793 3.2846 46.6793H7.57031C8.51709 46.6793 9.2846 45.9118 9.2846 44.965V39.8393C9.2846 38.8925 8.51709 38.125 7.57031 38.125Z" fill="#A0A0A0"/>
<path d="M18.7109 31.2676H14.4252C13.4784 31.2676 12.7109 32.0351 12.7109 32.9819V44.9647C12.7109 45.9115 13.4784 46.679 14.4252 46.679H18.7109C19.6577 46.679 20.4252 45.9115 20.4252 44.9647V32.9819C20.4252 32.0351 19.6577 31.2676 18.7109 31.2676Z" fill="#A0A0A0"/>
<path d="M29.8516 24.4102H25.5658C24.6191 24.4102 23.8516 25.1777 23.8516 26.1244V44.9644C23.8516 45.9112 24.6191 46.6787 25.5658 46.6787H29.8516C30.7983 46.6787 31.5658 45.9112 31.5658 44.9644V26.1244C31.5658 25.1777 30.7983 24.4102 29.8516 24.4102Z" fill="#04B200"/>
<path d="M41 19.2676H36.7143C35.7675 19.2676 35 20.0351 35 20.9819V44.9647C35 45.9115 35.7675 46.679 36.7143 46.679H41C41.9468 46.679 42.7143 45.9115 42.7143 44.9647V20.9819C42.7143 20.0351 41.9468 19.2676 41 19.2676Z" fill="#A0A0A0"/>
<path d="M41.9134 1.42985L37.4357 0.101278C36.846 -0.0770075 36.2237 -0.013579 35.6803 0.27785C35.1317 0.570992 34.7323 1.06128 34.5557 1.65785C34.2694 2.62299 34.65 3.62071 35.4214 4.18128L1.92255 22.3338C1.37913 22.627 0.983126 23.1156 0.808269 23.707C0.631697 24.3001 0.69684 24.9241 0.991698 25.4658C1.39627 26.2133 2.17627 26.6761 3.02655 26.6761C3.40713 26.6761 3.7877 26.5784 4.12713 26.3967L37.6363 8.23556C37.6517 8.58014 37.7237 8.91956 37.8934 9.23156C38.2123 9.81785 38.7831 10.2481 39.4346 10.3887C40.5986 10.639 41.8003 9.92756 42.1397 8.78928L43.4717 4.30642C43.6791 3.68928 43.5523 3.01042 43.2111 2.45842C42.9146 1.97671 42.4551 1.59271 41.9134 1.42985Z" fill="#A0A0A0"/>
</svg>
