<svg width="24" height="24" viewBox="0 0 24 24" fill="none" xmlns="http://www.w3.org/2000/svg">
<path d="M7.26047 10.8106C7.35482 10.86 7.46111 10.8821 7.56735 10.8744C7.67359 10.8666 7.77555 10.8293 7.86171 10.7667C7.94788 10.7041 8.01482 10.6186 8.05498 10.5199C8.09514 10.4213 8.10692 10.3133 8.08899 10.2083L7.92443 9.24838L8.62211 8.56785C8.69751 8.49331 8.75068 8.39927 8.77568 8.29624C8.80068 8.19321 8.79653 8.08525 8.76368 7.98445C8.73083 7.88364 8.67058 7.79397 8.58967 7.72545C8.50876 7.65693 8.41039 7.61228 8.30555 7.59648L7.34161 7.45363L6.9102 6.57996C6.86299 6.48442 6.79 6.40399 6.69948 6.34776C6.60896 6.29152 6.50451 6.26172 6.39794 6.26172C6.29138 6.26172 6.18693 6.29152 6.09641 6.34776C6.00589 6.40399 5.9329 6.48442 5.88569 6.57996L5.45371 7.45363L4.48977 7.59362C4.38425 7.60885 4.2851 7.65329 4.20353 7.72193C4.12195 7.79056 4.06121 7.88065 4.02815 7.982C3.9951 8.08336 3.99107 8.19194 4.0165 8.29547C4.04193 8.399 4.09582 8.49335 4.17207 8.56785L4.86974 9.24838L4.70518 10.2083C4.68718 10.3134 4.69893 10.4214 4.73911 10.5202C4.77929 10.6189 4.8463 10.7045 4.93256 10.7671C5.01882 10.8298 5.12088 10.8671 5.22722 10.8747C5.33355 10.8824 5.43991 10.8602 5.53428 10.8106L6.40052 10.3575L7.26047 10.8106Z" fill="white"/>
<path d="M10.4734 6.96139L10.3089 7.92134C10.2909 8.02642 10.3026 8.13444 10.3428 8.23319C10.383 8.33194 10.45 8.41748 10.5363 8.48014C10.6225 8.54279 10.7246 8.58007 10.8309 8.58775C10.9372 8.59543 11.0436 8.5732 11.138 8.52359L12.0002 8.07047L12.8625 8.52359C12.9568 8.5732 13.0632 8.59543 13.1695 8.58775C13.2759 8.58007 13.3779 8.54279 13.4642 8.48014C13.5504 8.41748 13.6174 8.33194 13.6576 8.23319C13.6978 8.13444 13.7096 8.02642 13.6915 7.92134L13.527 6.96139L14.2252 6.28086C14.3006 6.20629 14.3538 6.1122 14.3788 6.00912C14.4038 5.90605 14.3995 5.79806 14.3666 5.69724C14.3337 5.59642 14.2734 5.50676 14.1924 5.43827C14.1114 5.36979 14.013 5.3252 13.9081 5.30949L12.9436 5.16949L12.5145 4.29297C12.4619 4.20375 12.387 4.12979 12.2971 4.07841C12.2072 4.02703 12.1055 4 12.0019 4C11.8984 4 11.7966 4.02703 11.7067 4.07841C11.6169 4.12979 11.5419 4.20375 11.4894 4.29297L11.0586 5.16664L10.094 5.30663C9.98857 5.32195 9.88949 5.36645 9.80799 5.43512C9.72649 5.50379 9.66582 5.59389 9.63283 5.69523C9.59984 5.79657 9.59585 5.90511 9.62131 6.0086C9.64677 6.11209 9.70067 6.20639 9.77691 6.28086L10.4734 6.96139Z" fill="white"/>
<path d="M19.9718 7.9804C19.9388 7.87909 19.8781 7.78901 19.7966 7.72035C19.7151 7.65169 19.6161 7.60718 19.5106 7.59185L18.5467 7.45186L18.1141 6.5782C18.0617 6.48897 17.9868 6.41499 17.897 6.36359C17.8071 6.31219 17.7054 6.28516 17.6019 6.28516C17.4984 6.28516 17.3967 6.31219 17.3068 6.36359C17.217 6.41499 17.1421 6.48897 17.0896 6.5782L16.6582 7.45186L15.6943 7.59185C15.5889 7.60726 15.4898 7.65183 15.4084 7.72054C15.327 7.78924 15.2664 7.87935 15.2335 7.98067C15.2005 8.082 15.1966 8.19051 15.2221 8.29395C15.2476 8.3974 15.3015 8.49166 15.3777 8.56609L16.0754 9.24662L15.9108 10.2066C15.8929 10.3116 15.9047 10.4195 15.9448 10.5182C15.985 10.6168 16.052 10.7023 16.1381 10.7649C16.2243 10.8276 16.3262 10.8649 16.4325 10.8726C16.5387 10.8804 16.645 10.8583 16.7394 10.8088L17.6022 10.3557L18.4644 10.8088C18.5588 10.8584 18.6651 10.8807 18.7715 10.873C18.8778 10.8653 18.9799 10.828 19.0661 10.7654C19.1524 10.7027 19.2194 10.6172 19.2596 10.5184C19.2998 10.4197 19.3115 10.3116 19.2935 10.2066L19.1289 9.24662L19.8283 8.56609C19.9045 8.49154 19.9582 8.3972 19.9836 8.2937C20.0089 8.19021 20.0048 8.08169 19.9718 7.9804Z" fill="white"/>
<path d="M16.3297 13.4636H13.6304L13.9841 11.0323C13.988 11.005 13.9899 10.9775 13.9898 10.95C13.9913 10.6958 13.9056 10.4487 13.747 10.25C13.5883 10.0513 13.3663 9.91299 13.1181 9.85817C12.8698 9.80335 12.6102 9.83533 12.3827 9.94876C12.1551 10.0622 11.9733 10.2502 11.8676 10.4815L10.7791 12.4671C10.6648 12.6385 10.5649 12.8065 10.4717 12.9625C10.1146 13.5596 10.0112 13.6876 9.71462 13.6876H9.19407C8.99802 13.4093 8.71831 13.2008 8.39561 13.0924C8.07291 12.984 7.72405 12.9813 7.39974 13.0848C7.07543 13.1883 6.79259 13.3925 6.59233 13.6678C6.39208 13.9431 6.28485 14.2751 6.28624 14.6155V18.3685C6.28669 18.7939 6.45588 19.2017 6.75668 19.5025C7.05748 19.8033 7.46532 19.9725 7.89072 19.9729C8.26498 19.9714 8.62666 19.8377 8.91181 19.5952C8.91866 19.5952 8.92438 19.6004 8.93123 19.601L15.0029 19.9729C15.0326 19.9729 15.0629 19.9758 15.0926 19.9758C15.3838 19.9753 15.6675 19.8831 15.9034 19.7124C16.1392 19.5416 16.3154 19.3009 16.4068 19.0244L17.6439 15.3012C17.7136 15.0908 17.7324 14.8668 17.6988 14.6477C17.6653 14.4286 17.5802 14.2206 17.4508 14.0407C17.324 13.8616 17.1559 13.7156 16.9607 13.6151C16.7656 13.5147 16.5491 13.4627 16.3297 13.4636ZM16.5582 14.9384L15.3212 18.6616C15.3051 18.7134 15.2722 18.7584 15.2277 18.7894C15.1832 18.8205 15.1296 18.8358 15.0755 18.833L9.4832 18.4902C9.48606 18.4496 9.4952 14.8332 9.4952 14.8332H9.71462C10.686 14.8332 11.0945 14.1521 11.4528 13.5516C11.5374 13.4099 12.815 11.1323 12.815 11.1323L12.4042 13.9561C12.3925 14.0372 12.3983 14.1198 12.4213 14.1984C12.4444 14.277 12.484 14.3498 12.5376 14.4117C12.5912 14.4737 12.6575 14.5234 12.732 14.5574C12.8064 14.5915 12.8874 14.6092 12.9693 14.6092H16.3297C16.3676 14.6094 16.4049 14.6185 16.4385 14.636C16.4721 14.6535 16.501 14.6788 16.5228 14.7098C16.5463 14.7424 16.5617 14.7802 16.5677 14.8199C16.5738 14.8596 16.5709 14.9002 16.5582 14.9384Z" fill="white"/>
</svg>
