<svg width="85" height="85" viewBox="0 0 85 85" fill="none" xmlns="http://www.w3.org/2000/svg">
<rect x="0.200195" y="0.398438" width="84.6" height="84.6" rx="12.1477" fill="#E4DB00"/>
<path d="M60.1624 22.5891C66.3436 23.7767 70.5247 27.9727 70.7846 34.3342C70.968 38.8674 70.9617 48.0561 70.7658 61.9004C70.7633 62.0178 70.7081 62.099 70.6001 62.144C69.3344 62.671 67.9985 62.907 66.5922 62.852C63.9605 62.7496 62.6509 61.3734 62.6635 58.7235C62.7012 51.6652 62.7225 44.6069 62.7275 37.5486C62.7275 33.5999 62.2944 30.4004 58.2074 29.3851C53.9962 28.3361 50.1177 29.2628 46.5719 32.165C46.4865 32.2374 46.4501 32.3286 46.4626 32.4385C46.5832 33.5025 46.7188 34.5927 46.7188 35.6604C46.7288 44.3996 46.7301 53.1263 46.7225 61.8405C46.7223 61.9164 46.6992 61.9903 46.6561 62.0525C46.6131 62.1148 46.5522 62.1623 46.4815 62.1889C43.8221 63.178 38.673 63.6425 38.6391 59.3341C38.614 56.0323 38.6127 48.1086 38.6353 35.563C38.6504 27.0361 27.5685 28.3549 22.7659 31.3707C22.7209 31.3983 22.6838 31.4369 22.6581 31.4828C22.6324 31.5287 22.6189 31.5804 22.619 31.633V61.7993C22.619 61.9466 22.5525 62.0503 22.4194 62.1102C20.2648 63.0768 16.0347 63.5526 14.8595 60.8627C14.641 60.3656 14.5305 59.3928 14.528 57.9442C14.5129 49.8719 14.5142 41.7983 14.5318 33.7235C14.5355 30.3967 14.3962 28.5272 16.7655 26.5716C18.0462 25.5151 19.2741 24.9419 20.9579 24.2076C27.7343 21.2629 37.0005 20.9594 42.8541 26.0958C42.9545 26.1857 43.06 26.1907 43.1705 26.1108C48.1803 22.5491 53.8442 21.3753 60.1624 22.5891Z" fill="#2B292C"/>
</svg>
