<svg width="230" height="230" viewBox="0 0 230 230" fill="none" xmlns="http://www.w3.org/2000/svg">
<rect width="230" height="230" rx="35.0021" fill="#E4DB00"/>
<path d="M161.848 61.3533C178.62 64.5852 189.964 76.0038 190.669 93.3152C191.167 105.651 191.15 130.657 190.618 168.331C190.611 168.651 190.462 168.872 190.169 168.994C186.735 170.428 183.11 171.07 179.294 170.921C172.153 170.642 168.6 166.897 168.634 159.686C168.736 140.478 168.794 121.27 168.808 102.063C168.808 91.317 167.633 82.6103 156.544 79.8474C145.117 76.9927 134.594 79.5143 124.973 87.4122C124.741 87.6093 124.642 87.8574 124.676 88.1565C125.004 91.0519 125.371 94.0187 125.371 96.9243C125.399 120.706 125.402 144.454 125.382 168.168C125.381 168.375 125.318 168.576 125.201 168.745C125.085 168.915 124.919 169.044 124.728 169.116C117.512 171.808 103.541 173.072 103.449 161.348C103.381 152.362 103.377 130.799 103.439 96.6592C103.479 73.455 73.4112 77.0437 60.3802 85.2508C60.2581 85.3258 60.1574 85.4308 60.0876 85.5558C60.0178 85.6807 59.9813 85.8215 59.9816 85.9645V168.056C59.9816 168.457 59.8011 168.739 59.44 168.902C53.5939 171.533 42.1164 172.827 38.9277 165.507C38.3349 164.155 38.0351 161.507 38.0283 157.565C37.9874 135.598 37.9908 113.627 38.0385 91.6534C38.0487 82.6001 37.6706 77.5127 44.0992 72.1908C47.5741 69.3158 50.906 67.7559 55.4745 65.7576C73.8609 57.7442 99.003 56.9184 114.885 70.896C115.158 71.1407 115.444 71.1543 115.744 70.9368C129.337 61.2446 144.705 58.0501 161.848 61.3533Z" fill="#2B292C"/>
</svg>
